G04 #@! TF.FileFunction,Paste,Top*
%FSLAX46Y46*%
G04 Gerber Fmt 4.6, Leading zero omitted, Abs format (unit mm)*
G04 Created by KiCad (PCBNEW 4.X.X-debug) date Sat Sep 24 21:23:53 2016*
%MOMM*%
%LPD*%
G01*
G04 APERTURE LIST*
%ADD10C,0.100000*%
%ADD11R,0.297180X0.647700*%
%ADD12R,0.798400X0.398400*%
%ADD13R,0.398400X0.798400*%
%ADD14R,0.598400X0.148400*%
%ADD15R,0.148400X0.598400*%
%ADD16R,0.933400X0.933400*%
%ADD17R,0.148400X0.448400*%
%ADD18R,2.298400X0.658400*%
%ADD19R,0.808400X1.118400*%
%ADD20R,0.698400X0.648400*%
%ADD21R,0.498400X0.398400*%
%ADD22R,0.398400X0.498400*%
%ADD23R,0.498400X0.298400*%
%ADD24R,0.648400X0.698400*%
%ADD25R,0.198400X0.748400*%
%ADD26R,0.748400X0.198400*%
%ADD27R,0.678400X0.678400*%
%ADD28C,0.118400*%
%ADD29R,0.898400X0.798400*%
%ADD30R,1.398400X3.098400*%
%ADD31R,0.548400X0.958400*%
%ADD32R,0.958400X0.548400*%
%ADD33R,0.648400X0.178400*%
%ADD34R,3.898400X1.398400*%
%ADD35R,0.898400X1.148400*%
%ADD36R,0.398400X0.198400*%
%ADD37R,0.378400X0.426400*%
%ADD38R,0.498400X1.098400*%
%ADD39R,1.098400X0.498400*%
%ADD40R,0.298400X0.498400*%
G04 APERTURE END LIST*
D10*
D11*
X133099760Y-146949960D03*
X133750000Y-146949960D03*
X134400240Y-146949960D03*
X134400240Y-145050040D03*
X133750000Y-145050040D03*
X133099760Y-145050040D03*
D12*
X109000000Y-133500000D03*
X109000000Y-135000000D03*
D13*
X129000000Y-137750000D03*
X130500000Y-137750000D03*
X140500000Y-137500000D03*
X139000000Y-137500000D03*
X128000000Y-136250000D03*
X126500000Y-136250000D03*
X140500000Y-138750000D03*
X139000000Y-138750000D03*
D14*
X136550000Y-138000000D03*
X136550000Y-137500000D03*
X136550000Y-137000000D03*
X136550000Y-136500000D03*
X136550000Y-136000000D03*
X136550000Y-135500000D03*
X136550000Y-135000000D03*
X136550000Y-134500000D03*
D15*
X135900000Y-133850000D03*
X135400000Y-133850000D03*
X134900000Y-133850000D03*
X134400000Y-133850000D03*
X133900000Y-133850000D03*
X133400000Y-133850000D03*
X132900000Y-133850000D03*
X132400000Y-133850000D03*
D14*
X131750000Y-134500000D03*
X131750000Y-135000000D03*
X131750000Y-135500000D03*
X131750000Y-136000000D03*
X131750000Y-136500000D03*
X131750000Y-137000000D03*
X131750000Y-137500000D03*
X131750000Y-138000000D03*
D15*
X132400000Y-138650000D03*
X132900000Y-138650000D03*
X133400000Y-138650000D03*
X133900000Y-138650000D03*
X134400000Y-138650000D03*
X134900000Y-138650000D03*
X135400000Y-138650000D03*
X135900000Y-138650000D03*
D16*
X133287500Y-135387500D03*
X133287500Y-137112500D03*
X135012500Y-135387500D03*
X135012500Y-137112500D03*
D17*
X132400000Y-117650000D03*
X132900000Y-117650000D03*
X133400000Y-117650000D03*
X133900000Y-117650000D03*
X134400000Y-117650000D03*
X134400000Y-115900000D03*
X133900000Y-115900000D03*
X133400000Y-115900000D03*
X132900000Y-115900000D03*
X132400000Y-115900000D03*
D18*
X133400000Y-116775000D03*
D17*
X134300000Y-126212033D03*
X133800000Y-126212033D03*
X133300000Y-126212033D03*
X132800000Y-126212033D03*
X132300000Y-126212033D03*
X132300000Y-127962033D03*
X132800000Y-127962033D03*
X133300000Y-127962033D03*
X133800000Y-127962033D03*
X134300000Y-127962033D03*
D18*
X133300000Y-127087033D03*
D19*
X119750000Y-109750000D03*
X116480000Y-109750000D03*
D20*
X133250000Y-140250000D03*
X131750000Y-140250000D03*
X133250000Y-141500000D03*
X131750000Y-141500000D03*
X129000000Y-136250000D03*
X130500000Y-136250000D03*
X140500000Y-135000000D03*
X139000000Y-135000000D03*
X139000000Y-136250000D03*
X140500000Y-136250000D03*
X129000000Y-135250000D03*
X130500000Y-135250000D03*
X129000000Y-139000000D03*
X130500000Y-139000000D03*
X129000000Y-140250000D03*
X130500000Y-140250000D03*
X119500000Y-113500000D03*
X118000000Y-113500000D03*
X137350000Y-104900000D03*
X135850000Y-104900000D03*
X136750000Y-140250000D03*
X135250000Y-140250000D03*
X136750000Y-141500000D03*
X135250000Y-141500000D03*
X129250000Y-112500000D03*
X127750000Y-112500000D03*
D10*
G36*
X139171662Y-146536826D02*
X138713174Y-146078338D01*
X139207018Y-145584494D01*
X139665506Y-146042982D01*
X139171662Y-146536826D01*
X139171662Y-146536826D01*
G37*
G36*
X140232322Y-145476166D02*
X139773834Y-145017678D01*
X140267678Y-144523834D01*
X140726166Y-144982322D01*
X140232322Y-145476166D01*
X140232322Y-145476166D01*
G37*
D20*
X129250000Y-114000000D03*
X127750000Y-114000000D03*
X131500000Y-144500000D03*
X130000000Y-144500000D03*
X141000000Y-133000000D03*
X142500000Y-133000000D03*
X130500000Y-134250000D03*
X129000000Y-134250000D03*
X128250000Y-146250000D03*
X126750000Y-146250000D03*
D21*
X134800000Y-122300000D03*
X135900000Y-122300000D03*
D22*
X134800000Y-119150000D03*
X134800000Y-120250000D03*
X134800000Y-125450000D03*
X134800000Y-124350000D03*
X132000000Y-118550000D03*
X132000000Y-119650000D03*
X132000000Y-124850000D03*
X132000000Y-123750000D03*
D21*
X129250000Y-122300000D03*
X130350000Y-122300000D03*
D10*
G36*
X131205115Y-131636827D02*
X131486827Y-131355115D01*
X131839249Y-131707537D01*
X131557537Y-131989249D01*
X131205115Y-131636827D01*
X131205115Y-131636827D01*
G37*
G36*
X131982933Y-132414645D02*
X132264645Y-132132933D01*
X132617067Y-132485355D01*
X132335355Y-132767067D01*
X131982933Y-132414645D01*
X131982933Y-132414645D01*
G37*
D22*
X129200000Y-120050000D03*
X129200000Y-118950000D03*
X129200000Y-125650000D03*
X129200000Y-124550000D03*
X137600000Y-124850000D03*
X137600000Y-123750000D03*
X137600000Y-118550000D03*
X137600000Y-119650000D03*
D10*
G36*
X134424264Y-106594024D02*
X134705976Y-106875736D01*
X134353554Y-107228158D01*
X134071842Y-106946446D01*
X134424264Y-106594024D01*
X134424264Y-106594024D01*
G37*
G36*
X133646446Y-107371842D02*
X133928158Y-107653554D01*
X133575736Y-108005976D01*
X133294024Y-107724264D01*
X133646446Y-107371842D01*
X133646446Y-107371842D01*
G37*
D12*
X106985000Y-121070000D03*
X106985000Y-119570000D03*
X134700000Y-104900000D03*
X134700000Y-103400000D03*
D23*
X139800000Y-106700000D03*
X139800000Y-107600000D03*
D22*
X129200000Y-122950000D03*
X129200000Y-124050000D03*
X129200000Y-121650000D03*
X129200000Y-120550000D03*
D21*
X132000000Y-121700000D03*
X130900000Y-121700000D03*
D22*
X132000000Y-122150000D03*
X132000000Y-123250000D03*
D21*
X132000000Y-121700000D03*
X133100000Y-121700000D03*
X134800000Y-122300000D03*
X133700000Y-122300000D03*
D22*
X134800000Y-121850000D03*
X134800000Y-120750000D03*
X134800000Y-122750000D03*
X134800000Y-123850000D03*
D21*
X137600000Y-121700000D03*
X136500000Y-121700000D03*
X137600000Y-121700000D03*
X138700000Y-121700000D03*
D22*
X137600000Y-122150000D03*
X137600000Y-123250000D03*
X137600000Y-121250000D03*
X137600000Y-120150000D03*
X134150000Y-131350000D03*
X134150000Y-132450000D03*
D10*
G36*
X136224264Y-131444024D02*
X136505976Y-131725736D01*
X136153554Y-132078158D01*
X135871842Y-131796446D01*
X136224264Y-131444024D01*
X136224264Y-131444024D01*
G37*
G36*
X135446446Y-132221842D02*
X135728158Y-132503554D01*
X135375736Y-132855976D01*
X135094024Y-132574264D01*
X135446446Y-132221842D01*
X135446446Y-132221842D01*
G37*
D22*
X133300000Y-131350000D03*
X133300000Y-132450000D03*
D20*
X141000000Y-132000000D03*
X142500000Y-132000000D03*
D24*
X123250000Y-104000000D03*
X123250000Y-105500000D03*
D20*
X137350000Y-103700000D03*
X135850000Y-103700000D03*
D22*
X133400000Y-113800000D03*
X133400000Y-114900000D03*
D21*
X141650000Y-106700000D03*
X140550000Y-106700000D03*
D22*
X139800000Y-109250000D03*
X139800000Y-108150000D03*
D24*
X140400000Y-111900000D03*
X140400000Y-113400000D03*
X139200000Y-111900000D03*
X139200000Y-113400000D03*
D20*
X129000000Y-122300000D03*
X127500000Y-122300000D03*
D22*
X132000000Y-121250000D03*
X132000000Y-120150000D03*
D25*
X131400000Y-112800000D03*
X131900000Y-112800000D03*
X132400000Y-112800000D03*
X132900000Y-112800000D03*
X133400000Y-112800000D03*
X133900000Y-112800000D03*
D26*
X134600000Y-112100000D03*
X134600000Y-111600000D03*
X134600000Y-111100000D03*
X134600000Y-110600000D03*
X134600000Y-110100000D03*
X134600000Y-109600000D03*
D25*
X133900000Y-108900000D03*
X133400000Y-108900000D03*
X132900000Y-108900000D03*
X132400000Y-108900000D03*
X131900000Y-108900000D03*
X131400000Y-108900000D03*
D26*
X130700000Y-109600000D03*
X130700000Y-110100000D03*
X130700000Y-110600000D03*
X130700000Y-111100000D03*
X130700000Y-111600000D03*
X130700000Y-112100000D03*
D27*
X133300000Y-110200000D03*
X132000000Y-110200000D03*
X133300000Y-111500000D03*
X132000000Y-111500000D03*
D28*
X140200000Y-110100000D03*
X140200000Y-110500000D03*
X139800000Y-110100000D03*
X139800000Y-110500000D03*
X139400000Y-110100000D03*
X139400000Y-110500000D03*
D29*
X129575000Y-147775000D03*
X131425000Y-147775000D03*
X131425000Y-146225000D03*
X129575000Y-146225000D03*
D30*
X119800000Y-106450000D03*
X115600000Y-106450000D03*
D24*
X118750000Y-135500000D03*
X118750000Y-134000000D03*
X120250000Y-135500000D03*
X120250000Y-134000000D03*
D20*
X125500000Y-148250000D03*
X127000000Y-148250000D03*
D24*
X123200000Y-134000000D03*
X123200000Y-135500000D03*
D20*
X142500000Y-134000000D03*
X141000000Y-134000000D03*
X129000000Y-141500000D03*
X130500000Y-141500000D03*
D24*
X137950000Y-113400000D03*
X137950000Y-111900000D03*
D20*
X131850000Y-104400000D03*
X133350000Y-104400000D03*
D31*
X119500000Y-115900000D03*
X118550000Y-115900000D03*
X117600000Y-115900000D03*
X117600000Y-118100000D03*
X119500000Y-118100000D03*
X118550000Y-118100000D03*
D32*
X124900000Y-104000000D03*
X124900000Y-104950000D03*
X124900000Y-105900000D03*
X127100000Y-105900000D03*
X127100000Y-104000000D03*
D12*
X118000000Y-119250000D03*
X118000000Y-120750000D03*
X121250000Y-116250000D03*
X121250000Y-117750000D03*
X120000000Y-120750000D03*
X120000000Y-119250000D03*
D13*
X117750000Y-122000000D03*
X116250000Y-122000000D03*
D33*
X117575000Y-130750000D03*
X117575000Y-131250000D03*
X117575000Y-131750000D03*
X116425000Y-130750000D03*
X116425000Y-131250000D03*
X116425000Y-131750000D03*
X117575000Y-125500000D03*
X117575000Y-126000000D03*
X117575000Y-126500000D03*
X116425000Y-125500000D03*
X116425000Y-126000000D03*
X116425000Y-126500000D03*
D34*
X114000000Y-116000000D03*
X114000000Y-119600000D03*
D35*
X114000000Y-122000000D03*
X112000000Y-122000000D03*
X119750000Y-111750000D03*
X117750000Y-111750000D03*
D20*
X113750000Y-124000000D03*
X112250000Y-124000000D03*
D24*
X110500000Y-117840000D03*
X110500000Y-116340000D03*
X118750000Y-126250000D03*
X118750000Y-127750000D03*
X115000000Y-125250000D03*
X115000000Y-123750000D03*
X118750000Y-123750000D03*
X118750000Y-125250000D03*
X118750000Y-131500000D03*
X118750000Y-133000000D03*
X115000000Y-130500000D03*
X115000000Y-129000000D03*
X118750000Y-129000000D03*
X118750000Y-130500000D03*
X128750000Y-104000000D03*
X128750000Y-105500000D03*
D36*
X135600000Y-106200000D03*
X135600000Y-106700000D03*
X135600000Y-107200000D03*
X135600000Y-107700000D03*
X137400000Y-107700000D03*
X137400000Y-107200000D03*
X137400000Y-106700000D03*
X137400000Y-106200000D03*
D37*
X136500000Y-107390000D03*
X136500000Y-106510000D03*
D24*
X121750000Y-135500000D03*
X121750000Y-134000000D03*
D20*
X111000000Y-148000000D03*
X109500000Y-148000000D03*
X111000000Y-146500000D03*
X109500000Y-146500000D03*
X116250000Y-147250000D03*
X114750000Y-147250000D03*
D13*
X134400000Y-143250000D03*
X132900000Y-143250000D03*
D20*
X118750000Y-147250000D03*
X117250000Y-147250000D03*
D38*
X112950000Y-146000000D03*
X113750000Y-146000000D03*
X114550000Y-146000000D03*
X115350000Y-146000000D03*
X116150000Y-146000000D03*
X116950000Y-146000000D03*
X117750000Y-146000000D03*
X118550000Y-146000000D03*
D39*
X120000000Y-144550000D03*
X120000000Y-143750000D03*
X120000000Y-142950000D03*
X120000000Y-142150000D03*
X120000000Y-141350000D03*
X120000000Y-140550000D03*
X120000000Y-139750000D03*
X120000000Y-138950000D03*
D38*
X118550000Y-137500000D03*
X117750000Y-137500000D03*
X116950000Y-137500000D03*
X116150000Y-137500000D03*
X115350000Y-137500000D03*
X114550000Y-137500000D03*
X113750000Y-137500000D03*
X112950000Y-137500000D03*
D39*
X111500000Y-138950000D03*
X111500000Y-139750000D03*
X111500000Y-140550000D03*
X111500000Y-141350000D03*
X111500000Y-142150000D03*
X111500000Y-142950000D03*
X111500000Y-143750000D03*
X111500000Y-144550000D03*
D12*
X106985000Y-115990000D03*
X106985000Y-114490000D03*
D40*
X130950000Y-131500000D03*
X130050000Y-131500000D03*
X136800000Y-131500000D03*
X137700000Y-131500000D03*
M02*
