G04 #@! TF.FileFunction,Copper,L4,Bot,Mixed*
%FSLAX46Y46*%
G04 Gerber Fmt 4.6, Leading zero omitted, Abs format (unit mm)*
G04 Created by KiCad (PCBNEW 4.X.X-debug) date Sat Sep 24 21:23:53 2016*
%MOMM*%
%LPD*%
G01*
G04 APERTURE LIST*
%ADD10C,0.100000*%
%ADD11C,0.550000*%
%ADD12R,0.750000X0.800000*%
%ADD13R,0.800000X0.750000*%
%ADD14R,5.080000X1.700000*%
%ADD15R,2.032000X1.727200*%
%ADD16O,2.032000X1.727200*%
%ADD17R,1.727200X1.727200*%
%ADD18O,1.727200X1.727200*%
%ADD19R,2.000000X2.000000*%
%ADD20C,2.000000*%
%ADD21R,3.900000X3.900000*%
%ADD22R,3.800000X3.800000*%
%ADD23R,3.700000X3.700000*%
%ADD24R,0.600000X0.400000*%
%ADD25C,0.457200*%
%ADD26C,0.254000*%
%ADD27C,0.381000*%
%ADD28C,0.190500*%
%ADD29C,0.635000*%
G04 APERTURE END LIST*
D10*
D11*
X133400000Y-116775000D03*
X132500000Y-116775000D03*
X134300000Y-116775000D03*
X133300000Y-127087033D03*
X134200000Y-127087033D03*
X132400000Y-127087033D03*
D12*
X137250000Y-103750000D03*
X137250000Y-105250000D03*
D13*
X130500000Y-133000000D03*
X129000000Y-133000000D03*
X137500000Y-133000000D03*
X139000000Y-133000000D03*
D12*
X134250000Y-103750000D03*
X134250000Y-105250000D03*
X135750000Y-105250000D03*
X135750000Y-103750000D03*
D13*
X130500000Y-135000000D03*
X129000000Y-135000000D03*
D14*
X145000000Y-120460000D03*
X145000000Y-125540000D03*
X145000000Y-104210000D03*
X145000000Y-109290000D03*
D15*
X109000000Y-131540000D03*
D16*
X109000000Y-129000000D03*
X109000000Y-126460000D03*
D14*
X145000000Y-140710000D03*
X145000000Y-145790000D03*
D13*
X129000000Y-134000000D03*
X130500000Y-134000000D03*
D17*
X103175000Y-140640000D03*
D18*
X105715000Y-140640000D03*
X103175000Y-143180000D03*
X105715000Y-143180000D03*
X103175000Y-145720000D03*
X105715000Y-145720000D03*
D19*
X103810000Y-116510000D03*
D20*
X103810000Y-113970000D03*
D19*
X103810000Y-121590000D03*
D20*
X103810000Y-119050000D03*
D21*
X112299860Y-106500000D03*
D22*
X105799860Y-106500000D03*
D23*
X109049860Y-111000000D03*
D24*
X134200000Y-131450000D03*
X134200000Y-132350000D03*
X133200000Y-131450000D03*
X133200000Y-132350000D03*
D10*
G36*
X131228249Y-131952513D02*
X131652513Y-131528249D01*
X131935355Y-131811091D01*
X131511091Y-132235355D01*
X131228249Y-131952513D01*
X131228249Y-131952513D01*
G37*
G36*
X131864645Y-132588909D02*
X132288909Y-132164645D01*
X132571751Y-132447487D01*
X132147487Y-132871751D01*
X131864645Y-132588909D01*
X131864645Y-132588909D01*
G37*
G36*
X136065685Y-131510051D02*
X136489949Y-131934315D01*
X136207107Y-132217157D01*
X135782843Y-131792893D01*
X136065685Y-131510051D01*
X136065685Y-131510051D01*
G37*
G36*
X135429289Y-132146447D02*
X135853553Y-132570711D01*
X135570711Y-132853553D01*
X135146447Y-132429289D01*
X135429289Y-132146447D01*
X135429289Y-132146447D01*
G37*
D25*
X126400000Y-115000000D03*
X128400000Y-121200000D03*
X126800000Y-122800000D03*
X136000000Y-128400000D03*
X137000000Y-127400000D03*
X135000000Y-129400000D03*
X134000000Y-130400000D03*
X138000000Y-126400000D03*
X140000000Y-124400000D03*
X139000000Y-125400000D03*
X132600000Y-129000000D03*
X132600000Y-129800000D03*
X132600000Y-130800000D03*
X136200000Y-130400000D03*
X140200000Y-126400000D03*
X137200000Y-129400000D03*
X139200000Y-127400000D03*
X138200000Y-128400000D03*
X142200000Y-124400000D03*
X141200000Y-125400000D03*
X134000000Y-129400000D03*
X131600000Y-129000000D03*
X128600000Y-126200000D03*
X130600000Y-128200000D03*
X129600000Y-127200000D03*
X128400000Y-120200000D03*
X128400000Y-119200000D03*
X128400000Y-118200000D03*
X128400000Y-123200000D03*
X128400000Y-124200000D03*
X128400000Y-125200000D03*
X136800000Y-116600000D03*
X137800000Y-117600000D03*
X138400000Y-121200000D03*
X138400000Y-122200000D03*
X138400000Y-120200000D03*
X138400000Y-119200000D03*
X138400000Y-118200000D03*
X138400000Y-125200000D03*
X138400000Y-124200000D03*
X138400000Y-123200000D03*
X135600000Y-121200000D03*
X135600000Y-123200000D03*
X135600000Y-120200000D03*
X135600000Y-118200000D03*
X135600000Y-119200000D03*
X135600000Y-124200000D03*
X135600000Y-125200000D03*
X135600000Y-126400000D03*
X136800000Y-121000000D03*
X136800000Y-120000000D03*
X136800000Y-119000000D03*
X136800000Y-123000000D03*
X136800000Y-124000000D03*
X136800000Y-125200000D03*
X135200000Y-117200000D03*
X136200000Y-118200000D03*
X130000000Y-116800000D03*
X129000000Y-117800000D03*
X131400000Y-115000000D03*
X132400000Y-115000000D03*
X134400000Y-115000000D03*
X135400000Y-115000000D03*
X143000000Y-120600000D03*
X143000000Y-121350000D03*
X144000000Y-120600000D03*
X144000000Y-121350000D03*
X146000000Y-120600000D03*
X145000000Y-121350000D03*
X145000000Y-120600000D03*
X146000000Y-121350000D03*
X143000000Y-124550000D03*
X143000000Y-125400000D03*
X144000000Y-124550000D03*
X144000000Y-125400000D03*
X146000000Y-124550000D03*
X145000000Y-125400000D03*
X145000000Y-124550000D03*
X146000000Y-125400000D03*
X134000000Y-121000000D03*
X134000000Y-120000000D03*
X134000000Y-119000000D03*
X134000000Y-124000000D03*
X134000000Y-123000000D03*
X134050000Y-125200000D03*
X132800000Y-121000000D03*
X132800000Y-120000000D03*
X132800000Y-119000000D03*
X132800000Y-124000000D03*
X132800000Y-123000000D03*
X132750000Y-125200000D03*
X131200000Y-121000000D03*
X131200000Y-122000000D03*
X131200000Y-123000000D03*
X131200000Y-118000000D03*
X131200000Y-119000000D03*
X131200000Y-120000000D03*
X131200000Y-124000000D03*
X131200000Y-125000000D03*
X131200000Y-126200000D03*
X130000000Y-122000000D03*
X130000000Y-123000000D03*
X130000000Y-124000000D03*
X130000000Y-119000000D03*
X130000000Y-120000000D03*
X130000000Y-121000000D03*
X130000000Y-125000000D03*
X131600000Y-117200000D03*
X130600000Y-118200000D03*
X131400000Y-126800000D03*
X130400000Y-125800000D03*
X134200000Y-112400000D03*
X134200000Y-114400000D03*
X134200000Y-113400000D03*
X132600000Y-114000000D03*
X141000000Y-106000000D03*
X140000000Y-106000000D03*
X142000000Y-106000000D03*
X139000000Y-106000000D03*
X138000000Y-106000000D03*
X138000000Y-107400000D03*
X139000000Y-107400000D03*
X141600000Y-107400000D03*
X135200000Y-107400000D03*
X134200000Y-108400000D03*
X134800000Y-106000000D03*
X133000000Y-107200000D03*
X134000000Y-106200000D03*
X138750000Y-110500000D03*
X139000000Y-109400000D03*
X139000000Y-108400000D03*
X140600000Y-107400000D03*
X140600000Y-108400000D03*
X140600000Y-109400000D03*
X143000000Y-104400000D03*
X143000000Y-103400000D03*
X144000000Y-103400000D03*
X143000000Y-105150000D03*
X146000000Y-103400000D03*
X145000000Y-103400000D03*
X146000000Y-105150000D03*
X144000000Y-105150000D03*
X146000000Y-104400000D03*
X145000000Y-105150000D03*
X145000000Y-104400000D03*
X144000000Y-104400000D03*
X143000000Y-110200000D03*
X144000000Y-110200000D03*
X146000000Y-110200000D03*
X146000000Y-109200000D03*
X145000000Y-110200000D03*
X146000000Y-108450000D03*
X143000000Y-108450000D03*
X143000000Y-109200000D03*
X145000000Y-109200000D03*
X145000000Y-108450000D03*
X144000000Y-109200000D03*
X144000000Y-108450000D03*
X143200000Y-139800000D03*
X144200000Y-139800000D03*
X144200000Y-140800000D03*
X144200000Y-141550000D03*
X143200000Y-140800000D03*
X143200000Y-141550000D03*
X146200000Y-141550000D03*
X145200000Y-141550000D03*
X146200000Y-139800000D03*
X146200000Y-140800000D03*
X145200000Y-140800000D03*
X145200000Y-139800000D03*
X143200000Y-145600000D03*
X145200000Y-144850000D03*
X144200000Y-144850000D03*
X145200000Y-145600000D03*
X144200000Y-145600000D03*
X145200000Y-146600000D03*
X143200000Y-146600000D03*
X144200000Y-146600000D03*
X146200000Y-144850000D03*
X143200000Y-144850000D03*
X146200000Y-145600000D03*
X146200000Y-146600000D03*
X144000000Y-119600000D03*
X143000000Y-119600000D03*
X145000000Y-119600000D03*
X146000000Y-119600000D03*
X143000000Y-126400000D03*
X144000000Y-126400000D03*
X146000000Y-126400000D03*
X145000000Y-126400000D03*
X147000000Y-103400000D03*
X147000000Y-119600000D03*
X147000000Y-125400000D03*
X147000000Y-110200000D03*
X147000000Y-109200000D03*
X147000000Y-124550000D03*
X147000000Y-108450000D03*
X147000000Y-105150000D03*
X147000000Y-120600000D03*
X147000000Y-121350000D03*
X147000000Y-104400000D03*
X147000000Y-126400000D03*
X142000000Y-108450000D03*
X122600000Y-101200000D03*
X121600000Y-101200000D03*
X119600000Y-101200000D03*
X120600000Y-101200000D03*
X118600000Y-101200000D03*
X123600000Y-101200000D03*
X127600000Y-101200000D03*
X126600000Y-101200000D03*
X124600000Y-101200000D03*
X125600000Y-101200000D03*
X129600000Y-101200000D03*
X133600000Y-101200000D03*
X132600000Y-101200000D03*
X131600000Y-101200000D03*
X130600000Y-101200000D03*
X128600000Y-101200000D03*
X135600000Y-101200000D03*
X134600000Y-101200000D03*
X136600000Y-101200000D03*
X148600000Y-101200000D03*
X146600000Y-101200000D03*
X147600000Y-101200000D03*
X143600000Y-101200000D03*
X144600000Y-101200000D03*
X145600000Y-101200000D03*
X142600000Y-101200000D03*
X141600000Y-101200000D03*
X139600000Y-101200000D03*
X140600000Y-101200000D03*
X137600000Y-101200000D03*
X138600000Y-101200000D03*
X103600000Y-101200000D03*
X102600000Y-101200000D03*
X101600000Y-101200000D03*
X105600000Y-101200000D03*
X104600000Y-101200000D03*
X106600000Y-101200000D03*
X116600000Y-101200000D03*
X117600000Y-101200000D03*
X113600000Y-101200000D03*
X114600000Y-101200000D03*
X115600000Y-101200000D03*
X112600000Y-101200000D03*
X111600000Y-101200000D03*
X109600000Y-101200000D03*
X110600000Y-101200000D03*
X107600000Y-101200000D03*
X108600000Y-101200000D03*
X121200000Y-149400000D03*
X120200000Y-149400000D03*
X118200000Y-149400000D03*
X119200000Y-149400000D03*
X117200000Y-149400000D03*
X116200000Y-149400000D03*
X115200000Y-149400000D03*
X104200000Y-149400000D03*
X103200000Y-149400000D03*
X102200000Y-149400000D03*
X105200000Y-149400000D03*
X109200000Y-149400000D03*
X112200000Y-149400000D03*
X111200000Y-149400000D03*
X110200000Y-149400000D03*
X114200000Y-149400000D03*
X113200000Y-149400000D03*
X106200000Y-149400000D03*
X108200000Y-149400000D03*
X107200000Y-149400000D03*
X123200000Y-149400000D03*
X122200000Y-149400000D03*
X124200000Y-149400000D03*
X125200000Y-149400000D03*
X127200000Y-149400000D03*
X126200000Y-149400000D03*
X129200000Y-149400000D03*
X130200000Y-149400000D03*
X128200000Y-149400000D03*
X131200000Y-149400000D03*
X143200000Y-149400000D03*
X142200000Y-149400000D03*
X141200000Y-149400000D03*
X139200000Y-149400000D03*
X140200000Y-149400000D03*
X146200000Y-149400000D03*
X147200000Y-149400000D03*
X144200000Y-149400000D03*
X145200000Y-149400000D03*
X148200000Y-149400000D03*
X136200000Y-149400000D03*
X132200000Y-149400000D03*
X134200000Y-149400000D03*
X133200000Y-149400000D03*
X135200000Y-149400000D03*
X137200000Y-149400000D03*
X138200000Y-149400000D03*
X101200000Y-137400000D03*
X101200000Y-139400000D03*
X101200000Y-132400000D03*
X101200000Y-135400000D03*
X101200000Y-133400000D03*
X101200000Y-131400000D03*
X101200000Y-129400000D03*
X101200000Y-142400000D03*
X101200000Y-149400000D03*
X101200000Y-141400000D03*
X101200000Y-140400000D03*
X101200000Y-146400000D03*
X101200000Y-147400000D03*
X101200000Y-144400000D03*
X101200000Y-143400000D03*
X101200000Y-148400000D03*
X101200000Y-145400000D03*
X101200000Y-126400000D03*
X101200000Y-127400000D03*
X101200000Y-124400000D03*
X101200000Y-123400000D03*
X101200000Y-125400000D03*
X101200000Y-119400000D03*
X101200000Y-122400000D03*
X101200000Y-120400000D03*
X101200000Y-121400000D03*
X101200000Y-105400000D03*
X101200000Y-106400000D03*
X101200000Y-107400000D03*
X101200000Y-102400000D03*
X101200000Y-103400000D03*
X101200000Y-104400000D03*
X101200000Y-108400000D03*
X101200000Y-110400000D03*
X101200000Y-109400000D03*
X101200000Y-111400000D03*
X101200000Y-112400000D03*
X101200000Y-113400000D03*
X101200000Y-115400000D03*
X101200000Y-114400000D03*
X101200000Y-117400000D03*
X101200000Y-118400000D03*
X101200000Y-116400000D03*
X148600000Y-102200000D03*
X148600000Y-113200000D03*
X148600000Y-116200000D03*
X148600000Y-112200000D03*
X148600000Y-115200000D03*
X148600000Y-114200000D03*
X148600000Y-111200000D03*
X148600000Y-117200000D03*
X148600000Y-118200000D03*
X148600000Y-132200000D03*
X148600000Y-128200000D03*
X148600000Y-130200000D03*
X148600000Y-129200000D03*
X148600000Y-131200000D03*
X148600000Y-134200000D03*
X148600000Y-133200000D03*
X148600000Y-136200000D03*
X148600000Y-135200000D03*
X148600000Y-138200000D03*
X148600000Y-137200000D03*
X147800000Y-138800000D03*
X148600000Y-148600000D03*
X148600000Y-147600000D03*
X148600000Y-127200000D03*
X125200000Y-146400000D03*
X125200000Y-135400000D03*
X125200000Y-140400000D03*
X125200000Y-138400000D03*
X125200000Y-137400000D03*
X125200000Y-136400000D03*
X125200000Y-143250000D03*
X125200000Y-108400000D03*
X125200000Y-109400000D03*
X125200000Y-111400000D03*
X125200000Y-110400000D03*
X125200000Y-107400000D03*
X124600000Y-103200000D03*
X124600000Y-102200000D03*
X125200000Y-120400000D03*
X125200000Y-122400000D03*
X125200000Y-119400000D03*
X125200000Y-121400000D03*
X125200000Y-123400000D03*
X125200000Y-129400000D03*
X125200000Y-133400000D03*
X125200000Y-115400000D03*
X125200000Y-116400000D03*
X125200000Y-117400000D03*
X125200000Y-125400000D03*
X125200000Y-126400000D03*
X125200000Y-128400000D03*
X125200000Y-127400000D03*
X125200000Y-124400000D03*
X111750000Y-130000000D03*
X111750000Y-128000000D03*
X108550000Y-114200000D03*
X110550000Y-114200000D03*
X113550000Y-132000000D03*
X115550000Y-132000000D03*
X114550000Y-133000000D03*
X113550000Y-134000000D03*
X115550000Y-134000000D03*
X110600000Y-119800000D03*
X111750000Y-134000000D03*
X111750000Y-132000000D03*
X102150000Y-129400000D03*
X103150000Y-128400000D03*
X101150000Y-128400000D03*
X102150000Y-127400000D03*
X101150000Y-132400000D03*
X102150000Y-135400000D03*
X102150000Y-133400000D03*
X101150000Y-134400000D03*
X103150000Y-134400000D03*
X103150000Y-132400000D03*
X106150000Y-139400000D03*
X106150000Y-137200000D03*
X105150000Y-136400000D03*
X105150000Y-138200000D03*
X104150000Y-137400000D03*
X104150000Y-139200000D03*
X106150000Y-133400000D03*
X106150000Y-135400000D03*
X104150000Y-135400000D03*
X105150000Y-132400000D03*
X104150000Y-133400000D03*
X105150000Y-134400000D03*
X103150000Y-136400000D03*
X103150000Y-138400000D03*
X102150000Y-137400000D03*
X101150000Y-138400000D03*
X102150000Y-139200000D03*
X101150000Y-136400000D03*
X105150000Y-128400000D03*
X104150000Y-127400000D03*
X104150000Y-129400000D03*
X106150000Y-127400000D03*
X104150000Y-125400000D03*
X105150000Y-124400000D03*
X106150000Y-125400000D03*
X105150000Y-126400000D03*
X103150000Y-124400000D03*
X103150000Y-126400000D03*
X106150000Y-131400000D03*
X104150000Y-131400000D03*
X106150000Y-129400000D03*
X105150000Y-130400000D03*
X103150000Y-130400000D03*
X101150000Y-130400000D03*
X102150000Y-131400000D03*
X102150000Y-125400000D03*
X114350000Y-112200000D03*
X116350000Y-112200000D03*
X115350000Y-113200000D03*
X116350000Y-114200000D03*
X114350000Y-114200000D03*
X113350000Y-111200000D03*
X113350000Y-113200000D03*
X112350000Y-110200000D03*
X112350000Y-112200000D03*
X113350000Y-109200000D03*
X115350000Y-109200000D03*
X115350000Y-111200000D03*
X114350000Y-110200000D03*
X112350000Y-114200000D03*
X111350000Y-113200000D03*
X111350000Y-111200000D03*
X111350000Y-109200000D03*
X104350000Y-110000000D03*
X106350000Y-110000000D03*
X105350000Y-111000000D03*
X106350000Y-112000000D03*
X104350000Y-112000000D03*
X102350000Y-112000000D03*
X103350000Y-111000000D03*
X102350000Y-110000000D03*
X103350000Y-109000000D03*
X105350000Y-109000000D03*
X108150000Y-103800000D03*
X106150000Y-103800000D03*
X105150000Y-102800000D03*
X107150000Y-102800000D03*
X108150000Y-101800000D03*
X104150000Y-103800000D03*
X104150000Y-101800000D03*
X106150000Y-101800000D03*
X110150000Y-101800000D03*
X111150000Y-102800000D03*
X110150000Y-103800000D03*
X109150000Y-102800000D03*
X114150000Y-101800000D03*
X114150000Y-103800000D03*
X115150000Y-102800000D03*
X112150000Y-103800000D03*
X113150000Y-102800000D03*
X112150000Y-101800000D03*
X117150000Y-102800000D03*
X118150000Y-103800000D03*
X116150000Y-101800000D03*
X119150000Y-102800000D03*
X118150000Y-101800000D03*
X116150000Y-103800000D03*
X127150000Y-103000000D03*
X126150000Y-102000000D03*
X128150000Y-102000000D03*
X131150000Y-103000000D03*
X133150000Y-103000000D03*
X132150000Y-102000000D03*
X129150000Y-103000000D03*
X130150000Y-102000000D03*
X138150000Y-102000000D03*
X137150000Y-102800000D03*
X134150000Y-102000000D03*
X136150000Y-102000000D03*
X141150000Y-103000000D03*
X139150000Y-103000000D03*
X140150000Y-102000000D03*
X124150000Y-112400000D03*
X123150000Y-113400000D03*
X124150000Y-110400000D03*
X123150000Y-111400000D03*
X123150000Y-107400000D03*
X124150000Y-108400000D03*
X123150000Y-109400000D03*
X127550000Y-124800000D03*
X126550000Y-125800000D03*
X126550000Y-123800000D03*
X127550000Y-126800000D03*
X126550000Y-127800000D03*
X126800000Y-121800000D03*
X128600000Y-129400000D03*
X126600000Y-131400000D03*
X127600000Y-130400000D03*
X119550000Y-137600000D03*
X120550000Y-136600000D03*
X121550000Y-137600000D03*
X122550000Y-136600000D03*
X140200000Y-144000000D03*
X138200000Y-146000000D03*
X141200000Y-143000000D03*
X139200000Y-145000000D03*
X141000000Y-145400000D03*
X139000000Y-147400000D03*
X142000000Y-144400000D03*
X140000000Y-146400000D03*
X137200000Y-147800000D03*
X135200000Y-147800000D03*
X134200000Y-147800000D03*
X136200000Y-147800000D03*
X132200000Y-147800000D03*
X133200000Y-147800000D03*
X136200000Y-146000000D03*
X137200000Y-146000000D03*
X135200000Y-146000000D03*
X133200000Y-146000000D03*
X138200000Y-147800000D03*
X134200000Y-146000000D03*
X123350000Y-121800000D03*
X121350000Y-125800000D03*
X122350000Y-122800000D03*
X123350000Y-125800000D03*
X123350000Y-123800000D03*
X121350000Y-123800000D03*
X122350000Y-124800000D03*
X123350000Y-127800000D03*
X122350000Y-126800000D03*
X120800000Y-128600000D03*
X121800000Y-129600000D03*
X122800000Y-130600000D03*
X129350000Y-105400000D03*
X130350000Y-106400000D03*
X132350000Y-106400000D03*
X133350000Y-105400000D03*
X131350000Y-105400000D03*
X126550000Y-107600000D03*
X126550000Y-109600000D03*
X127550000Y-106800000D03*
X127550000Y-108600000D03*
X129000000Y-107200000D03*
X141550000Y-105200000D03*
X138550000Y-104200000D03*
X140550000Y-104200000D03*
X139550000Y-105200000D03*
X137800000Y-109600000D03*
X136600000Y-110600000D03*
X136600000Y-112800000D03*
X136600000Y-114400000D03*
X135400000Y-113400000D03*
X142400000Y-102000000D03*
X144400000Y-102000000D03*
X146400000Y-102000000D03*
X119750000Y-103800000D03*
X121750000Y-103800000D03*
X120750000Y-102800000D03*
X122750000Y-102800000D03*
X121750000Y-101800000D03*
X119750000Y-101800000D03*
X106150000Y-123400000D03*
X107150000Y-124400000D03*
X109150000Y-124400000D03*
X108150000Y-123400000D03*
X107150000Y-126400000D03*
X123400000Y-117600000D03*
X122400000Y-118600000D03*
X121400000Y-119600000D03*
X127150000Y-118200000D03*
X127150000Y-120200000D03*
X141950000Y-111200000D03*
X144950000Y-112200000D03*
X145950000Y-113200000D03*
X146950000Y-112200000D03*
X145950000Y-111200000D03*
X143950000Y-115200000D03*
X142950000Y-116200000D03*
X143950000Y-117200000D03*
X142950000Y-118200000D03*
X142950000Y-114200000D03*
X143950000Y-111200000D03*
X142950000Y-112200000D03*
X143950000Y-113200000D03*
X144950000Y-114200000D03*
X145950000Y-115200000D03*
X146950000Y-116200000D03*
X144950000Y-116200000D03*
X146950000Y-114200000D03*
X146950000Y-118200000D03*
X145950000Y-117200000D03*
X144950000Y-118200000D03*
X139750000Y-115000000D03*
X139750000Y-117000000D03*
X139750000Y-119000000D03*
X139750000Y-121000000D03*
X139750000Y-123000000D03*
X143950000Y-128800000D03*
X142950000Y-127800000D03*
X142950000Y-129800000D03*
X145950000Y-128800000D03*
X146950000Y-127800000D03*
X144950000Y-127800000D03*
X144950000Y-129800000D03*
X146950000Y-129800000D03*
X142950000Y-137800000D03*
X142950000Y-135800000D03*
X145950000Y-132800000D03*
X144950000Y-133800000D03*
X146950000Y-133800000D03*
X145950000Y-134800000D03*
X143950000Y-130800000D03*
X146950000Y-131800000D03*
X144950000Y-131800000D03*
X145950000Y-130800000D03*
X144950000Y-137800000D03*
X146950000Y-135800000D03*
X144950000Y-135800000D03*
X146950000Y-137800000D03*
X145950000Y-136800000D03*
X143950000Y-136800000D03*
X139550000Y-128600000D03*
X140650000Y-127550000D03*
X138400000Y-129800000D03*
X140650000Y-129550000D03*
X139550000Y-130600000D03*
X138150000Y-144200000D03*
X136150000Y-144200000D03*
X137150000Y-145200000D03*
X137150000Y-143200000D03*
X139150000Y-141200000D03*
X139150000Y-143200000D03*
X140150000Y-142200000D03*
X140150000Y-140200000D03*
X141150000Y-141200000D03*
X138150000Y-142200000D03*
X141600000Y-146600000D03*
X141150000Y-148200000D03*
X143150000Y-148200000D03*
X145150000Y-148200000D03*
X147150000Y-148200000D03*
X130550000Y-148600000D03*
X132550000Y-148600000D03*
X134550000Y-148600000D03*
X136550000Y-148600000D03*
X138550000Y-148600000D03*
X109150000Y-105600000D03*
X109150000Y-107600000D03*
X102750000Y-102800000D03*
X102750000Y-106800000D03*
X102750000Y-104800000D03*
X121750000Y-146600000D03*
X122750000Y-147600000D03*
X117800000Y-141800000D03*
X116800000Y-140800000D03*
X115800000Y-139800000D03*
X108150000Y-141800000D03*
X108150000Y-147800000D03*
X108150000Y-145800000D03*
X108150000Y-143800000D03*
X102350000Y-148400000D03*
X103350000Y-147400000D03*
X104350000Y-148400000D03*
X142450000Y-130850000D03*
X123000000Y-140400000D03*
X123750000Y-141500000D03*
X121750000Y-141500000D03*
X127000000Y-137400000D03*
X127000000Y-135000000D03*
X140250000Y-134000000D03*
X137750000Y-135500000D03*
X136500000Y-133500000D03*
X132700000Y-133000000D03*
X139200000Y-114200000D03*
X140400000Y-114200072D03*
X121000000Y-134500000D03*
X118000000Y-128750000D03*
X117500000Y-127750000D03*
X120000000Y-129000000D03*
X120000000Y-127750000D03*
X135350000Y-109600000D03*
X135350000Y-110600000D03*
X129850000Y-110600000D03*
X129850000Y-111600000D03*
X135500000Y-112550000D03*
X128300000Y-135000000D03*
X126000000Y-146250000D03*
X129400000Y-145017390D03*
X113750000Y-147250000D03*
X135566257Y-141316257D03*
X139995469Y-111145626D03*
X133287500Y-137112500D03*
X135012500Y-137112500D03*
X135012500Y-135387500D03*
X133287500Y-135387500D03*
X132000000Y-111500000D03*
X133300000Y-111500000D03*
X133300000Y-110200000D03*
X132000000Y-110200000D03*
X109000000Y-134400000D03*
X110500000Y-144550000D03*
X110500000Y-143750000D03*
X120900000Y-138950000D03*
X135250000Y-131500000D03*
X130750000Y-112750000D03*
X138250000Y-131500000D03*
X129500000Y-131500000D03*
X135900000Y-121700000D03*
X136500000Y-122300000D03*
X133700000Y-121700000D03*
X133100000Y-122300000D03*
X130300000Y-121700000D03*
X130900000Y-122300000D03*
X133300000Y-133000000D03*
X134000000Y-133000000D03*
X134900000Y-133000012D03*
X137250000Y-135000000D03*
X127250000Y-136250000D03*
X114850000Y-144200004D03*
X112600000Y-139800000D03*
X131800000Y-107200000D03*
X137750000Y-138000000D03*
X131250000Y-107750000D03*
X113099998Y-141350000D03*
X137250000Y-137500000D03*
X113900000Y-140850000D03*
X135000000Y-139500000D03*
X119100000Y-142950000D03*
X137750000Y-137000000D03*
X120900000Y-142150000D03*
X137250000Y-136500000D03*
X124950000Y-141450000D03*
X132000000Y-139000000D03*
X132880602Y-139000000D03*
X125900000Y-141300000D03*
X131800000Y-114400000D03*
X127000000Y-128800000D03*
X116950000Y-136500000D03*
X135000000Y-114400000D03*
X135000000Y-128600000D03*
X120900000Y-140550000D03*
X120900000Y-139750000D03*
X133681788Y-118244183D03*
X133610456Y-125604825D03*
X133400000Y-119600010D03*
X133400000Y-124600000D03*
X117750000Y-136500000D03*
X132400000Y-108200000D03*
X115350000Y-136500000D03*
X140700000Y-111000000D03*
X120900000Y-141300000D03*
X110600000Y-142000000D03*
X110600000Y-142800000D03*
X120000000Y-124600000D03*
X120000000Y-125200000D03*
X137250000Y-115800000D03*
X128175000Y-115800000D03*
X117800000Y-125000000D03*
X117400000Y-124600000D03*
X123999986Y-146800000D03*
X124599986Y-147400000D03*
X128800000Y-115800000D03*
X138000000Y-115800000D03*
X114250000Y-135500000D03*
X111000000Y-147250000D03*
X118750000Y-148000000D03*
X131250000Y-134500000D03*
X137750000Y-106700000D03*
X120517390Y-132399991D03*
X120000000Y-131800000D03*
X143200000Y-134000000D03*
X144000000Y-134000000D03*
X123750000Y-134500000D03*
X128250000Y-141500000D03*
X127500000Y-141500000D03*
X123750000Y-134000000D03*
X108400000Y-116000000D03*
X118000000Y-129800000D03*
X132100000Y-142300000D03*
X136750000Y-142250000D03*
X137200000Y-111599964D03*
X129250000Y-113200000D03*
X127400000Y-133400000D03*
X128000000Y-134000000D03*
X134450000Y-102950000D03*
X134950000Y-102950000D03*
X137400000Y-108200000D03*
X116150000Y-138500000D03*
D26*
X132700000Y-133000000D02*
X132218198Y-132518198D01*
D27*
X129000000Y-135000000D02*
X128300000Y-135000000D01*
D26*
X133300000Y-133000000D02*
X133300000Y-132450000D01*
X133300000Y-132450000D02*
X133200000Y-132350000D01*
X134000000Y-133000000D02*
X134000000Y-132550000D01*
X134000000Y-132550000D02*
X134200000Y-132350000D01*
X134999988Y-133000012D02*
X134900000Y-133000012D01*
X135500000Y-132500000D02*
X134999988Y-133000012D01*
X136926711Y-135000000D02*
X137250000Y-135000000D01*
X135662143Y-136249999D02*
X136912142Y-135000000D01*
X127250000Y-136250000D02*
X135662143Y-136249999D01*
X136912142Y-135000000D02*
X136926711Y-135000000D01*
X137750000Y-139846764D02*
X132096764Y-145500000D01*
X132096764Y-145500000D02*
X116149996Y-145500000D01*
X116149996Y-145500000D02*
X115078599Y-144428603D01*
X137750000Y-138000000D02*
X137750000Y-139846764D01*
X115078599Y-144428603D02*
X114850000Y-144200004D01*
X112600000Y-139800000D02*
X112600000Y-137996922D01*
X112600000Y-137996922D02*
X118600000Y-131996922D01*
X118600000Y-131996922D02*
X118600000Y-118922344D01*
X118600000Y-118922344D02*
X130322344Y-107200000D01*
X130322344Y-107200000D02*
X131800000Y-107200000D01*
X137250000Y-137500000D02*
X137250000Y-138950000D01*
X137250000Y-138950000D02*
X131700000Y-144500000D01*
X131700000Y-144500000D02*
X116249998Y-144500000D01*
X116249998Y-144500000D02*
X113328597Y-141578599D01*
X113328597Y-141578599D02*
X113099998Y-141350000D01*
X130926711Y-107750000D02*
X131250000Y-107750000D01*
X113099998Y-138035752D02*
X119000000Y-132135750D01*
X113099998Y-141350000D02*
X113099998Y-138035752D01*
X130311172Y-107750000D02*
X130926711Y-107750000D01*
X119000000Y-119061172D02*
X130311172Y-107750000D01*
X119000000Y-132135750D02*
X119000000Y-119061172D01*
X113900000Y-140850000D02*
X116950000Y-143900000D01*
X116950000Y-143900000D02*
X131214250Y-143900000D01*
X135000000Y-139500000D02*
X135000000Y-140114250D01*
X135000000Y-140114250D02*
X131214250Y-143900000D01*
X119100000Y-142950000D02*
X120700000Y-142950000D01*
X130918351Y-142767399D02*
X136685750Y-137000000D01*
X120700000Y-142950000D02*
X120882601Y-142767399D01*
X120882601Y-142767399D02*
X130918351Y-142767399D01*
X136685750Y-137000000D02*
X137750000Y-137000000D01*
X120900000Y-142150000D02*
X130750000Y-142150000D01*
X130750000Y-142150000D02*
X136400000Y-136500000D01*
X136400000Y-136500000D02*
X136600000Y-136500000D01*
X136600000Y-136500000D02*
X137250000Y-136500000D01*
X125178599Y-141221401D02*
X124950000Y-141450000D01*
X127400000Y-139000000D02*
X125178599Y-141221401D01*
X132000000Y-139000000D02*
X127400000Y-139000000D01*
X132880602Y-139000000D02*
X132380602Y-139500000D01*
X127700000Y-139500000D02*
X125900000Y-141300000D01*
X132380602Y-139500000D02*
X127700000Y-139500000D01*
X116950000Y-136500000D02*
X120186389Y-133263611D01*
X120186389Y-133263611D02*
X122486389Y-133263611D01*
X122486389Y-133263611D02*
X126950000Y-128800000D01*
X126950000Y-128800000D02*
X127000000Y-128800000D01*
X129200000Y-126600000D02*
X127000000Y-128800000D01*
X129200000Y-118600000D02*
X129200000Y-126600000D01*
X131917399Y-115882601D02*
X129200000Y-118600000D01*
X131800000Y-114400000D02*
X131800000Y-114723289D01*
X131800000Y-114723289D02*
X131917399Y-114840688D01*
X131917399Y-114840688D02*
X131917399Y-115882601D01*
X120900000Y-140550000D02*
X124717399Y-136732601D01*
X124717399Y-136732601D02*
X124717399Y-135168351D01*
X124717399Y-135168351D02*
X129603149Y-130282601D01*
X129603149Y-130282601D02*
X132831649Y-130282601D01*
X135000000Y-128600000D02*
X134482601Y-129117399D01*
X134482601Y-129117399D02*
X134482601Y-129631649D01*
X134482601Y-129631649D02*
X134231649Y-129882601D01*
X134231649Y-129882601D02*
X133231649Y-129882601D01*
X133231649Y-129882601D02*
X132831649Y-130282601D01*
X137600000Y-118400000D02*
X134917399Y-115717399D01*
X134917399Y-115717399D02*
X134917399Y-114805890D01*
X134917399Y-114805890D02*
X135000000Y-114723289D01*
X135000000Y-114723289D02*
X135000000Y-114400000D01*
X137600000Y-125600000D02*
X137600000Y-118400000D01*
X135000000Y-128200000D02*
X137600000Y-125600000D01*
X135000000Y-128600000D02*
X135000000Y-128200000D01*
X120900000Y-139750000D02*
X124336389Y-136313611D01*
X124336389Y-136313611D02*
X124336389Y-135010532D01*
X124336389Y-135010532D02*
X129445330Y-129901591D01*
X129445330Y-129901591D02*
X129598409Y-129901591D01*
X134729001Y-126723370D02*
X133839055Y-125833424D01*
X129598409Y-129901591D02*
X131883966Y-127616034D01*
X134729001Y-127340954D02*
X134729001Y-126723370D01*
X131883966Y-127616034D02*
X134453921Y-127616034D01*
X134453921Y-127616034D02*
X134729001Y-127340954D01*
D28*
X133839055Y-125833424D02*
X134252815Y-126247185D01*
X134252815Y-126247185D02*
X134800000Y-125700000D01*
X134005077Y-118244183D02*
X133681788Y-118244183D01*
X134800000Y-125700000D02*
X134800000Y-119039106D01*
X134800000Y-119039106D02*
X134005077Y-118244183D01*
D26*
X133839055Y-125833424D02*
X133610456Y-125604825D01*
D28*
X133400000Y-124600000D02*
X132700000Y-124600000D01*
X132700000Y-124600000D02*
X132000000Y-123900000D01*
X132000000Y-123900000D02*
X132000000Y-120132740D01*
X132000000Y-120132740D02*
X132681889Y-119450851D01*
X132681889Y-119450851D02*
X133250841Y-119450851D01*
X133250841Y-119450851D02*
X133400000Y-119600010D01*
X133400000Y-124600000D02*
X132682740Y-124600000D01*
X132682740Y-124600000D02*
X131850851Y-125431889D01*
X131850851Y-125431889D02*
X131850851Y-127016409D01*
X131616409Y-127250851D02*
X131500000Y-127367260D01*
X131850851Y-127016409D02*
X131616409Y-127250851D01*
D26*
X128882601Y-127717399D02*
X131149861Y-127717399D01*
D28*
X131500000Y-127367260D02*
X131118111Y-127749149D01*
D26*
X122800000Y-133800000D02*
X128882601Y-127717399D01*
X131149861Y-127717399D02*
X131500000Y-127367260D01*
X122800000Y-133800000D02*
X120450000Y-133800000D01*
X120450000Y-133800000D02*
X117750000Y-136500000D01*
X119400000Y-119200002D02*
X130171403Y-108428599D01*
X130171403Y-108428599D02*
X132171401Y-108428599D01*
X115350000Y-136500000D02*
X119400000Y-132450000D01*
X119400000Y-132450000D02*
X119400000Y-119200002D01*
X132171401Y-108428599D02*
X132400000Y-108200000D01*
D28*
X140928599Y-111228599D02*
X140700000Y-111000000D01*
X141650851Y-125183591D02*
X141499149Y-125031889D01*
X129094423Y-136661649D02*
X135744421Y-136661649D01*
X141650851Y-125616409D02*
X141650851Y-125183591D01*
X141499149Y-111799149D02*
X140928599Y-111228599D01*
X141650000Y-125617260D02*
X141650851Y-125616409D01*
X141650000Y-133267260D02*
X141650000Y-125617260D01*
X126206072Y-139550000D02*
X129094423Y-136661649D01*
X136406070Y-136000000D02*
X138917260Y-136000000D01*
X122650000Y-139550000D02*
X126206072Y-139550000D01*
X135744421Y-136661649D02*
X136406070Y-136000000D01*
X120900000Y-141300000D02*
X122650000Y-139550000D01*
X138917260Y-136000000D02*
X141650000Y-133267260D01*
X141499149Y-125031889D02*
X141499149Y-111799149D01*
D27*
X110600000Y-142000000D02*
X110600000Y-127907600D01*
X110600000Y-127907600D02*
X109152400Y-126460000D01*
X109152400Y-126460000D02*
X109000000Y-126460000D01*
X110600000Y-142800000D02*
X107603000Y-139803000D01*
X107603000Y-130244600D02*
X108847600Y-129000000D01*
X107603000Y-139803000D02*
X107603000Y-130244600D01*
X108847600Y-129000000D02*
X109000000Y-129000000D01*
X131250000Y-134500000D02*
X136756000Y-134500000D01*
X137500000Y-133756000D02*
X137500000Y-133000000D01*
X136756000Y-134500000D02*
X137500000Y-133756000D01*
X137500000Y-133000000D02*
X137272792Y-133000000D01*
X137272792Y-133000000D02*
X136136396Y-131863604D01*
X135609533Y-130953899D02*
X135905634Y-131250000D01*
X135905634Y-131250000D02*
X136136396Y-131480762D01*
X134200000Y-131450000D02*
X134391770Y-131450000D01*
X134391770Y-131450000D02*
X134887871Y-130953899D01*
X134887871Y-130953899D02*
X135609533Y-130953899D01*
X136136396Y-131480762D02*
X136136396Y-131863604D01*
X130500000Y-134500000D02*
X130500000Y-134000000D01*
X130500000Y-135000000D02*
X130500000Y-134500000D01*
X130500000Y-134500000D02*
X131250000Y-134500000D01*
X130500000Y-134000000D02*
X130500000Y-133000000D01*
X130500000Y-133000000D02*
X130500000Y-132963604D01*
X130500000Y-132963604D02*
X131581802Y-131881802D01*
X133200000Y-131450000D02*
X132013604Y-131450000D01*
X132013604Y-131450000D02*
X131581802Y-131881802D01*
X137250000Y-105250000D02*
X137250000Y-106200000D01*
X137250000Y-106200000D02*
X137750000Y-106700000D01*
X118000000Y-129800000D02*
X108400000Y-120200000D01*
X108400000Y-120200000D02*
X108400000Y-116000000D01*
D29*
X128000000Y-134000000D02*
X127400000Y-133400000D01*
X128000000Y-134000000D02*
X129000000Y-134000000D01*
D27*
X134250000Y-103750000D02*
X134700000Y-103750000D01*
X134700000Y-103750000D02*
X134950000Y-103750000D01*
X134450000Y-102950000D02*
X134450000Y-103500000D01*
X134450000Y-103500000D02*
X134700000Y-103750000D01*
X134950000Y-103750000D02*
X135750000Y-103750000D01*
X134950000Y-102950000D02*
X134950000Y-103273289D01*
X134950000Y-103273289D02*
X134950000Y-103750000D01*
X137250000Y-103750000D02*
X135750000Y-103750000D01*
D26*
X124500000Y-121250000D02*
X124500000Y-114638828D01*
X124500000Y-114638828D02*
X130169414Y-108969414D01*
X130169414Y-108969414D02*
X136630586Y-108969414D01*
X136630586Y-108969414D02*
X137400000Y-108200000D01*
X116150000Y-138500000D02*
X115832601Y-138182601D01*
X124500000Y-130500000D02*
X124500000Y-121238828D01*
X115832601Y-138182601D02*
X115832601Y-136903149D01*
X115832601Y-136903149D02*
X119853149Y-132882601D01*
X119853149Y-132882601D02*
X122117399Y-132882601D01*
X122117399Y-132882601D02*
X124500000Y-130500000D01*
G36*
X149044000Y-102544000D02*
X147500000Y-102544000D01*
X147325496Y-102578711D01*
X147177559Y-102677559D01*
X147145860Y-102725000D01*
X145285750Y-102725000D01*
X145127000Y-102883750D01*
X145127000Y-104083000D01*
X145147000Y-104083000D01*
X145147000Y-104337000D01*
X145127000Y-104337000D01*
X145127000Y-105536250D01*
X145285750Y-105695000D01*
X147044000Y-105695000D01*
X147044000Y-107805000D01*
X145285750Y-107805000D01*
X145127000Y-107963750D01*
X145127000Y-109163000D01*
X145147000Y-109163000D01*
X145147000Y-109417000D01*
X145127000Y-109417000D01*
X145127000Y-110616250D01*
X145285750Y-110775000D01*
X147145860Y-110775000D01*
X147177559Y-110822441D01*
X147325496Y-110921289D01*
X147500000Y-110956000D01*
X149044000Y-110956000D01*
X149044000Y-118794000D01*
X147500000Y-118794000D01*
X147325496Y-118828711D01*
X147177559Y-118927559D01*
X147145860Y-118975000D01*
X145285750Y-118975000D01*
X145127000Y-119133750D01*
X145127000Y-120333000D01*
X145147000Y-120333000D01*
X145147000Y-120587000D01*
X145127000Y-120587000D01*
X145127000Y-121786250D01*
X145285750Y-121945000D01*
X147044000Y-121945000D01*
X147044000Y-124055000D01*
X145285750Y-124055000D01*
X145127000Y-124213750D01*
X145127000Y-125413000D01*
X145147000Y-125413000D01*
X145147000Y-125667000D01*
X145127000Y-125667000D01*
X145127000Y-126866250D01*
X145285750Y-127025000D01*
X147145860Y-127025000D01*
X147177559Y-127072441D01*
X147325496Y-127171289D01*
X147500000Y-127206000D01*
X149044000Y-127206000D01*
X149044000Y-139044000D01*
X147500000Y-139044000D01*
X147325496Y-139078711D01*
X147177559Y-139177559D01*
X147145860Y-139225000D01*
X145285750Y-139225000D01*
X145127000Y-139383750D01*
X145127000Y-140583000D01*
X145147000Y-140583000D01*
X145147000Y-140837000D01*
X145127000Y-140837000D01*
X145127000Y-142036250D01*
X145285750Y-142195000D01*
X147044000Y-142195000D01*
X147044000Y-144305000D01*
X145285750Y-144305000D01*
X145127000Y-144463750D01*
X145127000Y-145663000D01*
X145147000Y-145663000D01*
X145147000Y-145917000D01*
X145127000Y-145917000D01*
X145127000Y-147116250D01*
X145285750Y-147275000D01*
X147145860Y-147275000D01*
X147177559Y-147322441D01*
X147325496Y-147421289D01*
X147500000Y-147456000D01*
X149044000Y-147456000D01*
X149044000Y-149544000D01*
X100956000Y-149544000D01*
X100956000Y-148120725D01*
X118140294Y-148120725D01*
X118232905Y-148344860D01*
X118404238Y-148516493D01*
X118628211Y-148609494D01*
X118870725Y-148609706D01*
X119094860Y-148517095D01*
X119266493Y-148345762D01*
X119359494Y-148121789D01*
X119359706Y-147879275D01*
X119267095Y-147655140D01*
X119095762Y-147483507D01*
X118871789Y-147390506D01*
X118629275Y-147390294D01*
X118405140Y-147482905D01*
X118233507Y-147654238D01*
X118140506Y-147878211D01*
X118140294Y-148120725D01*
X100956000Y-148120725D01*
X100956000Y-147370725D01*
X110390294Y-147370725D01*
X110482905Y-147594860D01*
X110654238Y-147766493D01*
X110878211Y-147859494D01*
X111120725Y-147859706D01*
X111344860Y-147767095D01*
X111516493Y-147595762D01*
X111609494Y-147371789D01*
X111609706Y-147129275D01*
X111523535Y-146920725D01*
X123390280Y-146920725D01*
X123482891Y-147144860D01*
X123654224Y-147316493D01*
X123878197Y-147409494D01*
X123990377Y-147409592D01*
X123990280Y-147520725D01*
X124082891Y-147744860D01*
X124254224Y-147916493D01*
X124478197Y-148009494D01*
X124720711Y-148009706D01*
X124944846Y-147917095D01*
X125116479Y-147745762D01*
X125209480Y-147521789D01*
X125209692Y-147279275D01*
X125117081Y-147055140D01*
X124945748Y-146883507D01*
X124721775Y-146790506D01*
X124609595Y-146790408D01*
X124609692Y-146679275D01*
X124517081Y-146455140D01*
X124345748Y-146283507D01*
X124121775Y-146190506D01*
X123879261Y-146190294D01*
X123655126Y-146282905D01*
X123483493Y-146454238D01*
X123390492Y-146678211D01*
X123390280Y-146920725D01*
X111523535Y-146920725D01*
X111517095Y-146905140D01*
X111345762Y-146733507D01*
X111121789Y-146640506D01*
X110879275Y-146640294D01*
X110655140Y-146732905D01*
X110483507Y-146904238D01*
X110390506Y-147128211D01*
X110390294Y-147370725D01*
X100956000Y-147370725D01*
X100956000Y-142820974D01*
X101720042Y-142820974D01*
X101841183Y-143053000D01*
X103048000Y-143053000D01*
X103048000Y-143033000D01*
X103302000Y-143033000D01*
X103302000Y-143053000D01*
X103322000Y-143053000D01*
X103322000Y-143307000D01*
X103302000Y-143307000D01*
X103302000Y-143327000D01*
X103048000Y-143327000D01*
X103048000Y-143307000D01*
X101841183Y-143307000D01*
X101720042Y-143539026D01*
X101892312Y-143954947D01*
X102286510Y-144386821D01*
X102676662Y-144569676D01*
X102674329Y-144570140D01*
X102270552Y-144839935D01*
X102000757Y-145243712D01*
X101906017Y-145720000D01*
X102000757Y-146196288D01*
X102270552Y-146600065D01*
X102674329Y-146869860D01*
X103150617Y-146964600D01*
X103199383Y-146964600D01*
X103675671Y-146869860D01*
X104079448Y-146600065D01*
X104349243Y-146196288D01*
X104443983Y-145720000D01*
X104446017Y-145720000D01*
X104540757Y-146196288D01*
X104810552Y-146600065D01*
X105214329Y-146869860D01*
X105690617Y-146964600D01*
X105739383Y-146964600D01*
X106215671Y-146869860D01*
X106619448Y-146600065D01*
X106889243Y-146196288D01*
X106913219Y-146075750D01*
X141825000Y-146075750D01*
X141825000Y-146766310D01*
X141921673Y-146999699D01*
X142100302Y-147178327D01*
X142333691Y-147275000D01*
X144714250Y-147275000D01*
X144873000Y-147116250D01*
X144873000Y-145917000D01*
X141983750Y-145917000D01*
X141825000Y-146075750D01*
X106913219Y-146075750D01*
X106983983Y-145720000D01*
X106889243Y-145243712D01*
X106619448Y-144839935D01*
X106215671Y-144570140D01*
X105739383Y-144475400D01*
X105690617Y-144475400D01*
X105214329Y-144570140D01*
X104810552Y-144839935D01*
X104540757Y-145243712D01*
X104446017Y-145720000D01*
X104443983Y-145720000D01*
X104349243Y-145243712D01*
X104079448Y-144839935D01*
X103675671Y-144570140D01*
X103673338Y-144569676D01*
X104063490Y-144386821D01*
X104457688Y-143954947D01*
X104565841Y-143693828D01*
X104810552Y-144060065D01*
X105214329Y-144329860D01*
X105690617Y-144424600D01*
X105739383Y-144424600D01*
X106215671Y-144329860D01*
X106619448Y-144060065D01*
X106889243Y-143656288D01*
X106983983Y-143180000D01*
X106889243Y-142703712D01*
X106619448Y-142299935D01*
X106215671Y-142030140D01*
X105739383Y-141935400D01*
X105690617Y-141935400D01*
X105214329Y-142030140D01*
X104810552Y-142299935D01*
X104565841Y-142666172D01*
X104457688Y-142405053D01*
X104063490Y-141973179D01*
X103890418Y-141892064D01*
X104038600Y-141892064D01*
X104187259Y-141862494D01*
X104313286Y-141778286D01*
X104397494Y-141652259D01*
X104427064Y-141503600D01*
X104427064Y-140640000D01*
X104446017Y-140640000D01*
X104540757Y-141116288D01*
X104810552Y-141520065D01*
X105214329Y-141789860D01*
X105690617Y-141884600D01*
X105739383Y-141884600D01*
X106215671Y-141789860D01*
X106619448Y-141520065D01*
X106889243Y-141116288D01*
X106983983Y-140640000D01*
X106889243Y-140163712D01*
X106619448Y-139759935D01*
X106215671Y-139490140D01*
X105739383Y-139395400D01*
X105690617Y-139395400D01*
X105214329Y-139490140D01*
X104810552Y-139759935D01*
X104540757Y-140163712D01*
X104446017Y-140640000D01*
X104427064Y-140640000D01*
X104427064Y-139776400D01*
X104397494Y-139627741D01*
X104313286Y-139501714D01*
X104187259Y-139417506D01*
X104038600Y-139387936D01*
X102311400Y-139387936D01*
X102162741Y-139417506D01*
X102036714Y-139501714D01*
X101952506Y-139627741D01*
X101922936Y-139776400D01*
X101922936Y-141503600D01*
X101952506Y-141652259D01*
X102036714Y-141778286D01*
X102162741Y-141862494D01*
X102311400Y-141892064D01*
X102459582Y-141892064D01*
X102286510Y-141973179D01*
X101892312Y-142405053D01*
X101720042Y-142820974D01*
X100956000Y-142820974D01*
X100956000Y-130244600D01*
X107031499Y-130244600D01*
X107031500Y-130244605D01*
X107031500Y-139802995D01*
X107031499Y-139803000D01*
X107064585Y-139969331D01*
X107075003Y-140021704D01*
X107166881Y-140159210D01*
X107198888Y-140207112D01*
X110045070Y-143053293D01*
X110082905Y-143144860D01*
X110254238Y-143316493D01*
X110478211Y-143409494D01*
X110720725Y-143409706D01*
X110944860Y-143317095D01*
X111116493Y-143145762D01*
X111209494Y-142921789D01*
X111209706Y-142679275D01*
X111117095Y-142455140D01*
X111062106Y-142400054D01*
X111116493Y-142345762D01*
X111209494Y-142121789D01*
X111209706Y-141879275D01*
X111171500Y-141786810D01*
X111171500Y-127907605D01*
X111171501Y-127907600D01*
X111127998Y-127688897D01*
X111060321Y-127587611D01*
X111004112Y-127503488D01*
X111004109Y-127503486D01*
X110347428Y-126846805D01*
X110424369Y-126460000D01*
X110329629Y-125983712D01*
X110059834Y-125579935D01*
X109656057Y-125310140D01*
X109179769Y-125215400D01*
X108820231Y-125215400D01*
X108343943Y-125310140D01*
X107940166Y-125579935D01*
X107670371Y-125983712D01*
X107575631Y-126460000D01*
X107670371Y-126936288D01*
X107940166Y-127340065D01*
X108343943Y-127609860D01*
X108820231Y-127704600D01*
X109179769Y-127704600D01*
X109520918Y-127636741D01*
X109891906Y-128007729D01*
X109656057Y-127850140D01*
X109179769Y-127755400D01*
X108820231Y-127755400D01*
X108343943Y-127850140D01*
X107940166Y-128119935D01*
X107670371Y-128523712D01*
X107575631Y-129000000D01*
X107652572Y-129386805D01*
X107198888Y-129840488D01*
X107075003Y-130025896D01*
X107075003Y-130025897D01*
X107031499Y-130244600D01*
X100956000Y-130244600D01*
X100956000Y-121875750D01*
X102175000Y-121875750D01*
X102175000Y-122716310D01*
X102271673Y-122949699D01*
X102450302Y-123128327D01*
X102683691Y-123225000D01*
X103524250Y-123225000D01*
X103683000Y-123066250D01*
X103683000Y-121717000D01*
X103937000Y-121717000D01*
X103937000Y-123066250D01*
X104095750Y-123225000D01*
X104936309Y-123225000D01*
X105169698Y-123128327D01*
X105348327Y-122949699D01*
X105445000Y-122716310D01*
X105445000Y-121875750D01*
X105286250Y-121717000D01*
X103937000Y-121717000D01*
X103683000Y-121717000D01*
X102333750Y-121717000D01*
X102175000Y-121875750D01*
X100956000Y-121875750D01*
X100956000Y-116795750D01*
X102175000Y-116795750D01*
X102175000Y-117636310D01*
X102271673Y-117869699D01*
X102450302Y-118048327D01*
X102683691Y-118145000D01*
X102761846Y-118145000D01*
X102639928Y-118266705D01*
X102429241Y-118774097D01*
X102428761Y-119323493D01*
X102638563Y-119831251D01*
X102762096Y-119955000D01*
X102683691Y-119955000D01*
X102450302Y-120051673D01*
X102271673Y-120230301D01*
X102175000Y-120463690D01*
X102175000Y-121304250D01*
X102333750Y-121463000D01*
X103683000Y-121463000D01*
X103683000Y-121443000D01*
X103937000Y-121443000D01*
X103937000Y-121463000D01*
X105286250Y-121463000D01*
X105445000Y-121304250D01*
X105445000Y-120463690D01*
X105348327Y-120230301D01*
X105169698Y-120051673D01*
X104936309Y-119955000D01*
X104858154Y-119955000D01*
X104980072Y-119833295D01*
X105190759Y-119325903D01*
X105191239Y-118776507D01*
X104981437Y-118268749D01*
X104857904Y-118145000D01*
X104936309Y-118145000D01*
X105169698Y-118048327D01*
X105348327Y-117869699D01*
X105445000Y-117636310D01*
X105445000Y-116795750D01*
X105286250Y-116637000D01*
X103937000Y-116637000D01*
X103937000Y-116657000D01*
X103683000Y-116657000D01*
X103683000Y-116637000D01*
X102333750Y-116637000D01*
X102175000Y-116795750D01*
X100956000Y-116795750D01*
X100956000Y-115383690D01*
X102175000Y-115383690D01*
X102175000Y-116224250D01*
X102333750Y-116383000D01*
X103683000Y-116383000D01*
X103683000Y-116363000D01*
X103937000Y-116363000D01*
X103937000Y-116383000D01*
X105286250Y-116383000D01*
X105445000Y-116224250D01*
X105445000Y-116120725D01*
X107790294Y-116120725D01*
X107828500Y-116213190D01*
X107828500Y-120199995D01*
X107828499Y-120200000D01*
X107854955Y-120333000D01*
X107872003Y-120418704D01*
X107880058Y-120430759D01*
X107995888Y-120604112D01*
X117445070Y-130053293D01*
X117482905Y-130144860D01*
X117654238Y-130316493D01*
X117878211Y-130409494D01*
X118092000Y-130409681D01*
X118092000Y-131786501D01*
X114745247Y-135133254D01*
X114595762Y-134983507D01*
X114371789Y-134890506D01*
X114129275Y-134890294D01*
X113905140Y-134982905D01*
X113733507Y-135154238D01*
X113640506Y-135378211D01*
X113640294Y-135620725D01*
X113732905Y-135844860D01*
X113883142Y-135995360D01*
X112240790Y-137637712D01*
X112130669Y-137802519D01*
X112092000Y-137996922D01*
X112092000Y-139445760D01*
X112083507Y-139454238D01*
X111990506Y-139678211D01*
X111990294Y-139920725D01*
X112082905Y-140144860D01*
X112254238Y-140316493D01*
X112478211Y-140409494D01*
X112591998Y-140409593D01*
X112591998Y-140995760D01*
X112583505Y-141004238D01*
X112490504Y-141228211D01*
X112490292Y-141470725D01*
X112582903Y-141694860D01*
X112754236Y-141866493D01*
X112978209Y-141959494D01*
X112991083Y-141959505D01*
X114653278Y-143621700D01*
X114505140Y-143682909D01*
X114333507Y-143854242D01*
X114240506Y-144078215D01*
X114240294Y-144320729D01*
X114332905Y-144544864D01*
X114504238Y-144716497D01*
X114728211Y-144809498D01*
X114741085Y-144809509D01*
X115790786Y-145859210D01*
X115955592Y-145969331D01*
X116149996Y-146008000D01*
X132096764Y-146008000D01*
X132291167Y-145969331D01*
X132455974Y-145859210D01*
X133501494Y-144813690D01*
X141825000Y-144813690D01*
X141825000Y-145504250D01*
X141983750Y-145663000D01*
X144873000Y-145663000D01*
X144873000Y-144463750D01*
X144714250Y-144305000D01*
X142333691Y-144305000D01*
X142100302Y-144401673D01*
X141921673Y-144580301D01*
X141825000Y-144813690D01*
X133501494Y-144813690D01*
X136140465Y-142174719D01*
X136140294Y-142370725D01*
X136232905Y-142594860D01*
X136404238Y-142766493D01*
X136628211Y-142859494D01*
X136870725Y-142859706D01*
X137094860Y-142767095D01*
X137266493Y-142595762D01*
X137359494Y-142371789D01*
X137359706Y-142129275D01*
X137267095Y-141905140D01*
X137095762Y-141733507D01*
X136871789Y-141640506D01*
X136674850Y-141640334D01*
X137319434Y-140995750D01*
X141825000Y-140995750D01*
X141825000Y-141686310D01*
X141921673Y-141919699D01*
X142100302Y-142098327D01*
X142333691Y-142195000D01*
X144714250Y-142195000D01*
X144873000Y-142036250D01*
X144873000Y-140837000D01*
X141983750Y-140837000D01*
X141825000Y-140995750D01*
X137319434Y-140995750D01*
X138109210Y-140205974D01*
X138219331Y-140041167D01*
X138258000Y-139846764D01*
X138258000Y-139733690D01*
X141825000Y-139733690D01*
X141825000Y-140424250D01*
X141983750Y-140583000D01*
X144873000Y-140583000D01*
X144873000Y-139383750D01*
X144714250Y-139225000D01*
X142333691Y-139225000D01*
X142100302Y-139321673D01*
X141921673Y-139500301D01*
X141825000Y-139733690D01*
X138258000Y-139733690D01*
X138258000Y-138354240D01*
X138266493Y-138345762D01*
X138359494Y-138121789D01*
X138359706Y-137879275D01*
X138267095Y-137655140D01*
X138112106Y-137499879D01*
X138266493Y-137345762D01*
X138359494Y-137121789D01*
X138359706Y-136879275D01*
X138267095Y-136655140D01*
X138095762Y-136483507D01*
X138078285Y-136476250D01*
X138917255Y-136476250D01*
X138917260Y-136476251D01*
X139099513Y-136439998D01*
X139254020Y-136336760D01*
X141470055Y-134120725D01*
X142590294Y-134120725D01*
X142682905Y-134344860D01*
X142854238Y-134516493D01*
X143078211Y-134609494D01*
X143320725Y-134609706D01*
X143544860Y-134517095D01*
X143599946Y-134462106D01*
X143654238Y-134516493D01*
X143878211Y-134609494D01*
X144120725Y-134609706D01*
X144344860Y-134517095D01*
X144516493Y-134345762D01*
X144609494Y-134121789D01*
X144609706Y-133879275D01*
X144517095Y-133655140D01*
X144345762Y-133483507D01*
X144121789Y-133390506D01*
X143879275Y-133390294D01*
X143655140Y-133482905D01*
X143600054Y-133537894D01*
X143545762Y-133483507D01*
X143321789Y-133390506D01*
X143079275Y-133390294D01*
X142855140Y-133482905D01*
X142683507Y-133654238D01*
X142590506Y-133878211D01*
X142590294Y-134120725D01*
X141470055Y-134120725D01*
X141986760Y-133604020D01*
X142089998Y-133449513D01*
X142126251Y-133267260D01*
X142126250Y-133267255D01*
X142126250Y-126939075D01*
X142333691Y-127025000D01*
X144714250Y-127025000D01*
X144873000Y-126866250D01*
X144873000Y-125667000D01*
X144853000Y-125667000D01*
X144853000Y-125413000D01*
X144873000Y-125413000D01*
X144873000Y-124213750D01*
X144714250Y-124055000D01*
X142333691Y-124055000D01*
X142100302Y-124151673D01*
X141975399Y-124276575D01*
X141975399Y-121723425D01*
X142100302Y-121848327D01*
X142333691Y-121945000D01*
X144714250Y-121945000D01*
X144873000Y-121786250D01*
X144873000Y-120587000D01*
X144853000Y-120587000D01*
X144853000Y-120333000D01*
X144873000Y-120333000D01*
X144873000Y-119133750D01*
X144714250Y-118975000D01*
X142333691Y-118975000D01*
X142100302Y-119071673D01*
X141975399Y-119196575D01*
X141975399Y-111799154D01*
X141975400Y-111799149D01*
X141939147Y-111616896D01*
X141872060Y-111516493D01*
X141835909Y-111462389D01*
X141835906Y-111462387D01*
X141309656Y-110936136D01*
X141309706Y-110879275D01*
X141217095Y-110655140D01*
X141045762Y-110483507D01*
X140821789Y-110390506D01*
X140579275Y-110390294D01*
X140355140Y-110482905D01*
X140183507Y-110654238D01*
X140090506Y-110878211D01*
X140090294Y-111120725D01*
X140182905Y-111344860D01*
X140354238Y-111516493D01*
X140578211Y-111609494D01*
X140636025Y-111609545D01*
X141022899Y-111996418D01*
X141022899Y-125031884D01*
X141022898Y-125031889D01*
X141059151Y-125214142D01*
X141162389Y-125368649D01*
X141174601Y-125380861D01*
X141174601Y-125612977D01*
X141173749Y-125617260D01*
X141173750Y-125617265D01*
X141173750Y-133069990D01*
X140677926Y-133565814D01*
X140595762Y-133483507D01*
X140371789Y-133390506D01*
X140129275Y-133390294D01*
X140035000Y-133429248D01*
X140035000Y-133285750D01*
X139876250Y-133127000D01*
X139127000Y-133127000D01*
X139127000Y-133851250D01*
X139285750Y-134010000D01*
X139526309Y-134010000D01*
X139640432Y-133962729D01*
X139640294Y-134120725D01*
X139732905Y-134344860D01*
X139815820Y-134427920D01*
X138719990Y-135523750D01*
X138359580Y-135523750D01*
X138359706Y-135379275D01*
X138267095Y-135155140D01*
X138095762Y-134983507D01*
X137871789Y-134890506D01*
X137859696Y-134890495D01*
X137859706Y-134879275D01*
X137767095Y-134655140D01*
X137595762Y-134483507D01*
X137585131Y-134479093D01*
X137904109Y-134160114D01*
X137904112Y-134160112D01*
X138027997Y-133974704D01*
X138052554Y-133851250D01*
X138071501Y-133756000D01*
X138071500Y-133755995D01*
X138071500Y-133744526D01*
X138240302Y-133913327D01*
X138473691Y-134010000D01*
X138714250Y-134010000D01*
X138873000Y-133851250D01*
X138873000Y-133127000D01*
X138853000Y-133127000D01*
X138853000Y-132873000D01*
X138873000Y-132873000D01*
X138873000Y-132148750D01*
X139127000Y-132148750D01*
X139127000Y-132873000D01*
X139876250Y-132873000D01*
X140035000Y-132714250D01*
X140035000Y-132498690D01*
X139938327Y-132265301D01*
X139759698Y-132086673D01*
X139526309Y-131990000D01*
X139285750Y-131990000D01*
X139127000Y-132148750D01*
X138873000Y-132148750D01*
X138714250Y-131990000D01*
X138473691Y-131990000D01*
X138240302Y-132086673D01*
X138061673Y-132265301D01*
X138058591Y-132272742D01*
X138048659Y-132266106D01*
X137900000Y-132236536D01*
X137317551Y-132236536D01*
X136812942Y-131731927D01*
X136764635Y-131659629D01*
X136707896Y-131602890D01*
X136707896Y-131480767D01*
X136707897Y-131480762D01*
X136664394Y-131262059D01*
X136602451Y-131169355D01*
X136540508Y-131076650D01*
X136540505Y-131076648D01*
X136309746Y-130845888D01*
X136309743Y-130845886D01*
X136013645Y-130549787D01*
X135828237Y-130425902D01*
X135791951Y-130418684D01*
X135609533Y-130382398D01*
X135609528Y-130382399D01*
X134887876Y-130382399D01*
X134887871Y-130382398D01*
X134669168Y-130425901D01*
X134669166Y-130425902D01*
X134669167Y-130425902D01*
X134483759Y-130549787D01*
X134483757Y-130549790D01*
X134172010Y-130861536D01*
X133900000Y-130861536D01*
X133751341Y-130891106D01*
X133700000Y-130925411D01*
X133648659Y-130891106D01*
X133500000Y-130861536D01*
X132900000Y-130861536D01*
X132814716Y-130878500D01*
X132013604Y-130878500D01*
X131794900Y-130922003D01*
X131609492Y-131045888D01*
X131609490Y-131045891D01*
X131450126Y-131205255D01*
X131377827Y-131253563D01*
X130953563Y-131677827D01*
X130905255Y-131750126D01*
X130418844Y-132236536D01*
X130100000Y-132236536D01*
X129951341Y-132266106D01*
X129941409Y-132272742D01*
X129938327Y-132265301D01*
X129759698Y-132086673D01*
X129526309Y-131990000D01*
X129285750Y-131990000D01*
X129127000Y-132148750D01*
X129127000Y-132873000D01*
X129147000Y-132873000D01*
X129147000Y-133127000D01*
X129127000Y-133127000D01*
X129127000Y-133147000D01*
X128873000Y-133147000D01*
X128873000Y-133127000D01*
X128853000Y-133127000D01*
X128853000Y-132873000D01*
X128873000Y-132873000D01*
X128873000Y-132148750D01*
X128714250Y-131990000D01*
X128614170Y-131990000D01*
X129813569Y-130790601D01*
X132831649Y-130790601D01*
X133026052Y-130751932D01*
X133190859Y-130641811D01*
X133442070Y-130390601D01*
X134231649Y-130390601D01*
X134426052Y-130351932D01*
X134590859Y-130241811D01*
X134841811Y-129990859D01*
X134951932Y-129826052D01*
X134990601Y-129631649D01*
X134990601Y-129327819D01*
X135108724Y-129209696D01*
X135120725Y-129209706D01*
X135344860Y-129117095D01*
X135516493Y-128945762D01*
X135609494Y-128721789D01*
X135609706Y-128479275D01*
X135559837Y-128358583D01*
X137959210Y-125959210D01*
X138069331Y-125794404D01*
X138082815Y-125726614D01*
X138108000Y-125600000D01*
X138108000Y-118400000D01*
X138069331Y-118205597D01*
X137959210Y-118040790D01*
X135839145Y-115920725D01*
X136640294Y-115920725D01*
X136732905Y-116144860D01*
X136904238Y-116316493D01*
X137128211Y-116409494D01*
X137370725Y-116409706D01*
X137594860Y-116317095D01*
X137624902Y-116287106D01*
X137654238Y-116316493D01*
X137878211Y-116409494D01*
X138120725Y-116409706D01*
X138344860Y-116317095D01*
X138516493Y-116145762D01*
X138609494Y-115921789D01*
X138609706Y-115679275D01*
X138517095Y-115455140D01*
X138345762Y-115283507D01*
X138121789Y-115190506D01*
X137879275Y-115190294D01*
X137655140Y-115282905D01*
X137625098Y-115312894D01*
X137595762Y-115283507D01*
X137371789Y-115190506D01*
X137129275Y-115190294D01*
X136905140Y-115282905D01*
X136733507Y-115454238D01*
X136640506Y-115678211D01*
X136640294Y-115920725D01*
X135839145Y-115920725D01*
X135425399Y-115506979D01*
X135425399Y-114983441D01*
X135469330Y-114917693D01*
X135469331Y-114917692D01*
X135500318Y-114761909D01*
X135516493Y-114745762D01*
X135609494Y-114521789D01*
X135609706Y-114279275D01*
X135517095Y-114055140D01*
X135345762Y-113883507D01*
X135121789Y-113790506D01*
X134879275Y-113790294D01*
X134655140Y-113882905D01*
X134483507Y-114054238D01*
X134390506Y-114278211D01*
X134390294Y-114520725D01*
X134441480Y-114644605D01*
X134409399Y-114805890D01*
X134409399Y-115717399D01*
X134448068Y-115911802D01*
X134558189Y-116076609D01*
X137092000Y-118610420D01*
X137092000Y-125389580D01*
X135237001Y-127244579D01*
X135237001Y-126723370D01*
X135198332Y-126528967D01*
X135088211Y-126364160D01*
X134948785Y-126224734D01*
X135136757Y-126036762D01*
X135136760Y-126036760D01*
X135206756Y-125932003D01*
X135239998Y-125882254D01*
X135276250Y-125700000D01*
X135276250Y-119039111D01*
X135276251Y-119039106D01*
X135239998Y-118856853D01*
X135136760Y-118702346D01*
X134341837Y-117907423D01*
X134187330Y-117804185D01*
X134083243Y-117783480D01*
X134027550Y-117727690D01*
X133803577Y-117634689D01*
X133561063Y-117634477D01*
X133336928Y-117727088D01*
X133165295Y-117898421D01*
X133072294Y-118122394D01*
X133072082Y-118364908D01*
X133164693Y-118589043D01*
X133336026Y-118760676D01*
X133559999Y-118853677D01*
X133802513Y-118853889D01*
X133900695Y-118813321D01*
X134323750Y-119236376D01*
X134323750Y-125502731D01*
X134275266Y-125551215D01*
X134220152Y-125496101D01*
X134220162Y-125484100D01*
X134127551Y-125259965D01*
X133956218Y-125088332D01*
X133827299Y-125034800D01*
X133916493Y-124945762D01*
X134009494Y-124721789D01*
X134009706Y-124479275D01*
X133917095Y-124255140D01*
X133745762Y-124083507D01*
X133521789Y-123990506D01*
X133279275Y-123990294D01*
X133055140Y-124082905D01*
X133014223Y-124123750D01*
X132897269Y-124123750D01*
X132476250Y-123702730D01*
X132476250Y-120330010D01*
X132876614Y-119929645D01*
X132882905Y-119944870D01*
X133054238Y-120116503D01*
X133278211Y-120209504D01*
X133520725Y-120209716D01*
X133744860Y-120117105D01*
X133916493Y-119945772D01*
X134009494Y-119721799D01*
X134009706Y-119479285D01*
X133917095Y-119255150D01*
X133745762Y-119083517D01*
X133521789Y-118990516D01*
X133330012Y-118990348D01*
X133250841Y-118974600D01*
X133250836Y-118974601D01*
X132681894Y-118974601D01*
X132681889Y-118974600D01*
X132499636Y-119010853D01*
X132345129Y-119114091D01*
X132345127Y-119114094D01*
X131663240Y-119795980D01*
X131560002Y-119950487D01*
X131523749Y-120132740D01*
X131523750Y-120132745D01*
X131523750Y-123899995D01*
X131523749Y-123900000D01*
X131560002Y-124082253D01*
X131663240Y-124236760D01*
X132017851Y-124591370D01*
X131514091Y-125095129D01*
X131410853Y-125249636D01*
X131374600Y-125431889D01*
X131374601Y-125431894D01*
X131374601Y-126819139D01*
X131279649Y-126914091D01*
X131279647Y-126914094D01*
X131276110Y-126917631D01*
X131140790Y-127008050D01*
X130939441Y-127209399D01*
X129309021Y-127209399D01*
X129559210Y-126959210D01*
X129669331Y-126794403D01*
X129708000Y-126600000D01*
X129708000Y-118810420D01*
X132276610Y-116241811D01*
X132386730Y-116077004D01*
X132425399Y-115882601D01*
X132425399Y-114840688D01*
X132386730Y-114646285D01*
X132386730Y-114646284D01*
X132368887Y-114619581D01*
X132409494Y-114521789D01*
X132409706Y-114279275D01*
X132317095Y-114055140D01*
X132145762Y-113883507D01*
X131921789Y-113790506D01*
X131679275Y-113790294D01*
X131455140Y-113882905D01*
X131283507Y-114054238D01*
X131190506Y-114278211D01*
X131190294Y-114520725D01*
X131282905Y-114744860D01*
X131299622Y-114761606D01*
X131330669Y-114917692D01*
X131409399Y-115035519D01*
X131409399Y-115672180D01*
X128840790Y-118240790D01*
X128730669Y-118405597D01*
X128692000Y-118600000D01*
X128692000Y-126389580D01*
X126891276Y-128190304D01*
X126879275Y-128190294D01*
X126655140Y-128282905D01*
X126483507Y-128454238D01*
X126416876Y-128614704D01*
X125008000Y-130023580D01*
X125008000Y-115920725D01*
X127565294Y-115920725D01*
X127657905Y-116144860D01*
X127829238Y-116316493D01*
X128053211Y-116409494D01*
X128295725Y-116409706D01*
X128487695Y-116330385D01*
X128678211Y-116409494D01*
X128920725Y-116409706D01*
X129144860Y-116317095D01*
X129316493Y-116145762D01*
X129409494Y-115921789D01*
X129409706Y-115679275D01*
X129317095Y-115455140D01*
X129145762Y-115283507D01*
X128921789Y-115190506D01*
X128679275Y-115190294D01*
X128487305Y-115269615D01*
X128296789Y-115190506D01*
X128054275Y-115190294D01*
X127830140Y-115282905D01*
X127658507Y-115454238D01*
X127565506Y-115678211D01*
X127565294Y-115920725D01*
X125008000Y-115920725D01*
X125008000Y-114849248D01*
X126536523Y-113320725D01*
X128640294Y-113320725D01*
X128732905Y-113544860D01*
X128904238Y-113716493D01*
X129128211Y-113809494D01*
X129370725Y-113809706D01*
X129594860Y-113717095D01*
X129766493Y-113545762D01*
X129859494Y-113321789D01*
X129859706Y-113079275D01*
X129767095Y-112855140D01*
X129595762Y-112683507D01*
X129371789Y-112590506D01*
X129129275Y-112590294D01*
X128905140Y-112682905D01*
X128733507Y-112854238D01*
X128640506Y-113078211D01*
X128640294Y-113320725D01*
X126536523Y-113320725D01*
X128136559Y-111720689D01*
X136590294Y-111720689D01*
X136682905Y-111944824D01*
X136854238Y-112116457D01*
X137078211Y-112209458D01*
X137320725Y-112209670D01*
X137544860Y-112117059D01*
X137716493Y-111945726D01*
X137809494Y-111721753D01*
X137809706Y-111479239D01*
X137717095Y-111255104D01*
X137545762Y-111083471D01*
X137321789Y-110990470D01*
X137079275Y-110990258D01*
X136855140Y-111082869D01*
X136683507Y-111254202D01*
X136590506Y-111478175D01*
X136590294Y-111720689D01*
X128136559Y-111720689D01*
X130281498Y-109575750D01*
X141825000Y-109575750D01*
X141825000Y-110266310D01*
X141921673Y-110499699D01*
X142100302Y-110678327D01*
X142333691Y-110775000D01*
X144714250Y-110775000D01*
X144873000Y-110616250D01*
X144873000Y-109417000D01*
X141983750Y-109417000D01*
X141825000Y-109575750D01*
X130281498Y-109575750D01*
X130379834Y-109477414D01*
X136630586Y-109477414D01*
X136824989Y-109438745D01*
X136989796Y-109328624D01*
X137508724Y-108809696D01*
X137520725Y-108809706D01*
X137744860Y-108717095D01*
X137916493Y-108545762D01*
X138009494Y-108321789D01*
X138009501Y-108313690D01*
X141825000Y-108313690D01*
X141825000Y-109004250D01*
X141983750Y-109163000D01*
X144873000Y-109163000D01*
X144873000Y-107963750D01*
X144714250Y-107805000D01*
X142333691Y-107805000D01*
X142100302Y-107901673D01*
X141921673Y-108080301D01*
X141825000Y-108313690D01*
X138009501Y-108313690D01*
X138009706Y-108079275D01*
X137917095Y-107855140D01*
X137745762Y-107683507D01*
X137521789Y-107590506D01*
X137279275Y-107590294D01*
X137055140Y-107682905D01*
X136883507Y-107854238D01*
X136790506Y-108078211D01*
X136790495Y-108091085D01*
X136420166Y-108461414D01*
X132951517Y-108461414D01*
X133009494Y-108321789D01*
X133009706Y-108079275D01*
X132917095Y-107855140D01*
X132745762Y-107683507D01*
X132521789Y-107590506D01*
X132279275Y-107590294D01*
X132266663Y-107595505D01*
X132316493Y-107545762D01*
X132409494Y-107321789D01*
X132409706Y-107079275D01*
X132317095Y-106855140D01*
X132145762Y-106683507D01*
X131921789Y-106590506D01*
X131679275Y-106590294D01*
X131455140Y-106682905D01*
X131446029Y-106692000D01*
X130322344Y-106692000D01*
X130127941Y-106730669D01*
X129963134Y-106840790D01*
X118240790Y-118563134D01*
X118130669Y-118727941D01*
X118092000Y-118922344D01*
X118092000Y-124461183D01*
X117983639Y-124416188D01*
X117917095Y-124255140D01*
X117745762Y-124083507D01*
X117521789Y-123990506D01*
X117279275Y-123990294D01*
X117055140Y-124082905D01*
X116883507Y-124254238D01*
X116790506Y-124478211D01*
X116790294Y-124720725D01*
X116882905Y-124944860D01*
X117054238Y-125116493D01*
X117216361Y-125183812D01*
X117282905Y-125344860D01*
X117454238Y-125516493D01*
X117678211Y-125609494D01*
X117920725Y-125609706D01*
X118092000Y-125538936D01*
X118092000Y-129083777D01*
X108971500Y-119963276D01*
X108971500Y-116213289D01*
X109009494Y-116121789D01*
X109009706Y-115879275D01*
X108917095Y-115655140D01*
X108745762Y-115483507D01*
X108521789Y-115390506D01*
X108279275Y-115390294D01*
X108055140Y-115482905D01*
X107883507Y-115654238D01*
X107790506Y-115878211D01*
X107790294Y-116120725D01*
X105445000Y-116120725D01*
X105445000Y-115383690D01*
X105348327Y-115150301D01*
X105169698Y-114971673D01*
X104936309Y-114875000D01*
X104858154Y-114875000D01*
X104980072Y-114753295D01*
X105190759Y-114245903D01*
X105191239Y-113696507D01*
X104981437Y-113188749D01*
X104593295Y-112799928D01*
X104085903Y-112589241D01*
X103536507Y-112588761D01*
X103028749Y-112798563D01*
X102639928Y-113186705D01*
X102429241Y-113694097D01*
X102428761Y-114243493D01*
X102638563Y-114751251D01*
X102762096Y-114875000D01*
X102683691Y-114875000D01*
X102450302Y-114971673D01*
X102271673Y-115150301D01*
X102175000Y-115383690D01*
X100956000Y-115383690D01*
X100956000Y-111285750D01*
X106564860Y-111285750D01*
X106564860Y-112976310D01*
X106661533Y-113209699D01*
X106840162Y-113388327D01*
X107073551Y-113485000D01*
X108764110Y-113485000D01*
X108922860Y-113326250D01*
X108922860Y-111127000D01*
X109176860Y-111127000D01*
X109176860Y-113326250D01*
X109335610Y-113485000D01*
X111026169Y-113485000D01*
X111259558Y-113388327D01*
X111438187Y-113209699D01*
X111534860Y-112976310D01*
X111534860Y-111285750D01*
X111376110Y-111127000D01*
X109176860Y-111127000D01*
X108922860Y-111127000D01*
X106723610Y-111127000D01*
X106564860Y-111285750D01*
X100956000Y-111285750D01*
X100956000Y-106785750D01*
X103264860Y-106785750D01*
X103264860Y-108526310D01*
X103361533Y-108759699D01*
X103540162Y-108938327D01*
X103773551Y-109035000D01*
X105514110Y-109035000D01*
X105672860Y-108876250D01*
X105672860Y-106627000D01*
X105926860Y-106627000D01*
X105926860Y-108876250D01*
X106085610Y-109035000D01*
X106564860Y-109035000D01*
X106564860Y-110714250D01*
X106723610Y-110873000D01*
X108922860Y-110873000D01*
X108922860Y-108673750D01*
X109176860Y-108673750D01*
X109176860Y-110873000D01*
X111376110Y-110873000D01*
X111534860Y-110714250D01*
X111534860Y-109023690D01*
X111458137Y-108838464D01*
X114249860Y-108838464D01*
X114398519Y-108808894D01*
X114524546Y-108724686D01*
X114608754Y-108598659D01*
X114638324Y-108450000D01*
X114638324Y-105535750D01*
X133240000Y-105535750D01*
X133240000Y-105776309D01*
X133336673Y-106009698D01*
X133515301Y-106188327D01*
X133748690Y-106285000D01*
X133964250Y-106285000D01*
X134123000Y-106126250D01*
X134123000Y-105377000D01*
X134377000Y-105377000D01*
X134377000Y-106126250D01*
X134535750Y-106285000D01*
X134751310Y-106285000D01*
X134984699Y-106188327D01*
X135000000Y-106173026D01*
X135015301Y-106188327D01*
X135248690Y-106285000D01*
X135464250Y-106285000D01*
X135623000Y-106126250D01*
X135623000Y-105377000D01*
X134377000Y-105377000D01*
X134123000Y-105377000D01*
X133398750Y-105377000D01*
X133240000Y-105535750D01*
X114638324Y-105535750D01*
X114638324Y-104723691D01*
X133240000Y-104723691D01*
X133240000Y-104964250D01*
X133398750Y-105123000D01*
X134123000Y-105123000D01*
X134123000Y-105103000D01*
X134377000Y-105103000D01*
X134377000Y-105123000D01*
X135623000Y-105123000D01*
X135623000Y-105103000D01*
X135877000Y-105103000D01*
X135877000Y-105123000D01*
X135897000Y-105123000D01*
X135897000Y-105377000D01*
X135877000Y-105377000D01*
X135877000Y-106126250D01*
X136035750Y-106285000D01*
X136251310Y-106285000D01*
X136484699Y-106188327D01*
X136663327Y-106009698D01*
X136677247Y-105976091D01*
X136678500Y-105976928D01*
X136678500Y-106199995D01*
X136678499Y-106200000D01*
X136709180Y-106354238D01*
X136722003Y-106418704D01*
X136828582Y-106578211D01*
X136845888Y-106604112D01*
X137195070Y-106953294D01*
X137232905Y-107044860D01*
X137404238Y-107216493D01*
X137628211Y-107309494D01*
X137870725Y-107309706D01*
X138094860Y-107217095D01*
X138266493Y-107045762D01*
X138359494Y-106821789D01*
X138359706Y-106579275D01*
X138267095Y-106355140D01*
X138095762Y-106183507D01*
X138003363Y-106145140D01*
X137829684Y-105971460D01*
X137899686Y-105924686D01*
X137983894Y-105798659D01*
X138013464Y-105650000D01*
X138013464Y-104850000D01*
X137983894Y-104701341D01*
X137899686Y-104575314D01*
X137786970Y-104500000D01*
X137793330Y-104495750D01*
X141825000Y-104495750D01*
X141825000Y-105186310D01*
X141921673Y-105419699D01*
X142100302Y-105598327D01*
X142333691Y-105695000D01*
X144714250Y-105695000D01*
X144873000Y-105536250D01*
X144873000Y-104337000D01*
X141983750Y-104337000D01*
X141825000Y-104495750D01*
X137793330Y-104495750D01*
X137899686Y-104424686D01*
X137983894Y-104298659D01*
X138013464Y-104150000D01*
X138013464Y-103350000D01*
X137990329Y-103233690D01*
X141825000Y-103233690D01*
X141825000Y-103924250D01*
X141983750Y-104083000D01*
X144873000Y-104083000D01*
X144873000Y-102883750D01*
X144714250Y-102725000D01*
X142333691Y-102725000D01*
X142100302Y-102821673D01*
X141921673Y-103000301D01*
X141825000Y-103233690D01*
X137990329Y-103233690D01*
X137983894Y-103201341D01*
X137899686Y-103075314D01*
X137773659Y-102991106D01*
X137625000Y-102961536D01*
X136875000Y-102961536D01*
X136726341Y-102991106D01*
X136600314Y-103075314D01*
X136531368Y-103178500D01*
X136468632Y-103178500D01*
X136399686Y-103075314D01*
X136273659Y-102991106D01*
X136125000Y-102961536D01*
X135559590Y-102961536D01*
X135559706Y-102829275D01*
X135467095Y-102605140D01*
X135295762Y-102433507D01*
X135071789Y-102340506D01*
X134829275Y-102340294D01*
X134699959Y-102393726D01*
X134571789Y-102340506D01*
X134329275Y-102340294D01*
X134105140Y-102432905D01*
X133933507Y-102604238D01*
X133840506Y-102828211D01*
X133840383Y-102968422D01*
X133726341Y-102991106D01*
X133600314Y-103075314D01*
X133516106Y-103201341D01*
X133486536Y-103350000D01*
X133486536Y-104150000D01*
X133516106Y-104298659D01*
X133522742Y-104308591D01*
X133515301Y-104311673D01*
X133336673Y-104490302D01*
X133240000Y-104723691D01*
X114638324Y-104723691D01*
X114638324Y-104550000D01*
X114608754Y-104401341D01*
X114524546Y-104275314D01*
X114398519Y-104191106D01*
X114249860Y-104161536D01*
X110349860Y-104161536D01*
X110201201Y-104191106D01*
X110075174Y-104275314D01*
X109990966Y-104401341D01*
X109961396Y-104550000D01*
X109961396Y-108450000D01*
X109974325Y-108515000D01*
X109335610Y-108515000D01*
X109176860Y-108673750D01*
X108922860Y-108673750D01*
X108764110Y-108515000D01*
X108334860Y-108515000D01*
X108334860Y-106785750D01*
X108176110Y-106627000D01*
X105926860Y-106627000D01*
X105672860Y-106627000D01*
X103423610Y-106627000D01*
X103264860Y-106785750D01*
X100956000Y-106785750D01*
X100956000Y-104473690D01*
X103264860Y-104473690D01*
X103264860Y-106214250D01*
X103423610Y-106373000D01*
X105672860Y-106373000D01*
X105672860Y-104123750D01*
X105926860Y-104123750D01*
X105926860Y-106373000D01*
X108176110Y-106373000D01*
X108334860Y-106214250D01*
X108334860Y-104473690D01*
X108238187Y-104240301D01*
X108059558Y-104061673D01*
X107826169Y-103965000D01*
X106085610Y-103965000D01*
X105926860Y-104123750D01*
X105672860Y-104123750D01*
X105514110Y-103965000D01*
X103773551Y-103965000D01*
X103540162Y-104061673D01*
X103361533Y-104240301D01*
X103264860Y-104473690D01*
X100956000Y-104473690D01*
X100956000Y-100456000D01*
X149044000Y-100456000D01*
X149044000Y-102544000D01*
X149044000Y-102544000D01*
G37*
X149044000Y-102544000D02*
X147500000Y-102544000D01*
X147325496Y-102578711D01*
X147177559Y-102677559D01*
X147145860Y-102725000D01*
X145285750Y-102725000D01*
X145127000Y-102883750D01*
X145127000Y-104083000D01*
X145147000Y-104083000D01*
X145147000Y-104337000D01*
X145127000Y-104337000D01*
X145127000Y-105536250D01*
X145285750Y-105695000D01*
X147044000Y-105695000D01*
X147044000Y-107805000D01*
X145285750Y-107805000D01*
X145127000Y-107963750D01*
X145127000Y-109163000D01*
X145147000Y-109163000D01*
X145147000Y-109417000D01*
X145127000Y-109417000D01*
X145127000Y-110616250D01*
X145285750Y-110775000D01*
X147145860Y-110775000D01*
X147177559Y-110822441D01*
X147325496Y-110921289D01*
X147500000Y-110956000D01*
X149044000Y-110956000D01*
X149044000Y-118794000D01*
X147500000Y-118794000D01*
X147325496Y-118828711D01*
X147177559Y-118927559D01*
X147145860Y-118975000D01*
X145285750Y-118975000D01*
X145127000Y-119133750D01*
X145127000Y-120333000D01*
X145147000Y-120333000D01*
X145147000Y-120587000D01*
X145127000Y-120587000D01*
X145127000Y-121786250D01*
X145285750Y-121945000D01*
X147044000Y-121945000D01*
X147044000Y-124055000D01*
X145285750Y-124055000D01*
X145127000Y-124213750D01*
X145127000Y-125413000D01*
X145147000Y-125413000D01*
X145147000Y-125667000D01*
X145127000Y-125667000D01*
X145127000Y-126866250D01*
X145285750Y-127025000D01*
X147145860Y-127025000D01*
X147177559Y-127072441D01*
X147325496Y-127171289D01*
X147500000Y-127206000D01*
X149044000Y-127206000D01*
X149044000Y-139044000D01*
X147500000Y-139044000D01*
X147325496Y-139078711D01*
X147177559Y-139177559D01*
X147145860Y-139225000D01*
X145285750Y-139225000D01*
X145127000Y-139383750D01*
X145127000Y-140583000D01*
X145147000Y-140583000D01*
X145147000Y-140837000D01*
X145127000Y-140837000D01*
X145127000Y-142036250D01*
X145285750Y-142195000D01*
X147044000Y-142195000D01*
X147044000Y-144305000D01*
X145285750Y-144305000D01*
X145127000Y-144463750D01*
X145127000Y-145663000D01*
X145147000Y-145663000D01*
X145147000Y-145917000D01*
X145127000Y-145917000D01*
X145127000Y-147116250D01*
X145285750Y-147275000D01*
X147145860Y-147275000D01*
X147177559Y-147322441D01*
X147325496Y-147421289D01*
X147500000Y-147456000D01*
X149044000Y-147456000D01*
X149044000Y-149544000D01*
X100956000Y-149544000D01*
X100956000Y-148120725D01*
X118140294Y-148120725D01*
X118232905Y-148344860D01*
X118404238Y-148516493D01*
X118628211Y-148609494D01*
X118870725Y-148609706D01*
X119094860Y-148517095D01*
X119266493Y-148345762D01*
X119359494Y-148121789D01*
X119359706Y-147879275D01*
X119267095Y-147655140D01*
X119095762Y-147483507D01*
X118871789Y-147390506D01*
X118629275Y-147390294D01*
X118405140Y-147482905D01*
X118233507Y-147654238D01*
X118140506Y-147878211D01*
X118140294Y-148120725D01*
X100956000Y-148120725D01*
X100956000Y-147370725D01*
X110390294Y-147370725D01*
X110482905Y-147594860D01*
X110654238Y-147766493D01*
X110878211Y-147859494D01*
X111120725Y-147859706D01*
X111344860Y-147767095D01*
X111516493Y-147595762D01*
X111609494Y-147371789D01*
X111609706Y-147129275D01*
X111523535Y-146920725D01*
X123390280Y-146920725D01*
X123482891Y-147144860D01*
X123654224Y-147316493D01*
X123878197Y-147409494D01*
X123990377Y-147409592D01*
X123990280Y-147520725D01*
X124082891Y-147744860D01*
X124254224Y-147916493D01*
X124478197Y-148009494D01*
X124720711Y-148009706D01*
X124944846Y-147917095D01*
X125116479Y-147745762D01*
X125209480Y-147521789D01*
X125209692Y-147279275D01*
X125117081Y-147055140D01*
X124945748Y-146883507D01*
X124721775Y-146790506D01*
X124609595Y-146790408D01*
X124609692Y-146679275D01*
X124517081Y-146455140D01*
X124345748Y-146283507D01*
X124121775Y-146190506D01*
X123879261Y-146190294D01*
X123655126Y-146282905D01*
X123483493Y-146454238D01*
X123390492Y-146678211D01*
X123390280Y-146920725D01*
X111523535Y-146920725D01*
X111517095Y-146905140D01*
X111345762Y-146733507D01*
X111121789Y-146640506D01*
X110879275Y-146640294D01*
X110655140Y-146732905D01*
X110483507Y-146904238D01*
X110390506Y-147128211D01*
X110390294Y-147370725D01*
X100956000Y-147370725D01*
X100956000Y-142820974D01*
X101720042Y-142820974D01*
X101841183Y-143053000D01*
X103048000Y-143053000D01*
X103048000Y-143033000D01*
X103302000Y-143033000D01*
X103302000Y-143053000D01*
X103322000Y-143053000D01*
X103322000Y-143307000D01*
X103302000Y-143307000D01*
X103302000Y-143327000D01*
X103048000Y-143327000D01*
X103048000Y-143307000D01*
X101841183Y-143307000D01*
X101720042Y-143539026D01*
X101892312Y-143954947D01*
X102286510Y-144386821D01*
X102676662Y-144569676D01*
X102674329Y-144570140D01*
X102270552Y-144839935D01*
X102000757Y-145243712D01*
X101906017Y-145720000D01*
X102000757Y-146196288D01*
X102270552Y-146600065D01*
X102674329Y-146869860D01*
X103150617Y-146964600D01*
X103199383Y-146964600D01*
X103675671Y-146869860D01*
X104079448Y-146600065D01*
X104349243Y-146196288D01*
X104443983Y-145720000D01*
X104446017Y-145720000D01*
X104540757Y-146196288D01*
X104810552Y-146600065D01*
X105214329Y-146869860D01*
X105690617Y-146964600D01*
X105739383Y-146964600D01*
X106215671Y-146869860D01*
X106619448Y-146600065D01*
X106889243Y-146196288D01*
X106913219Y-146075750D01*
X141825000Y-146075750D01*
X141825000Y-146766310D01*
X141921673Y-146999699D01*
X142100302Y-147178327D01*
X142333691Y-147275000D01*
X144714250Y-147275000D01*
X144873000Y-147116250D01*
X144873000Y-145917000D01*
X141983750Y-145917000D01*
X141825000Y-146075750D01*
X106913219Y-146075750D01*
X106983983Y-145720000D01*
X106889243Y-145243712D01*
X106619448Y-144839935D01*
X106215671Y-144570140D01*
X105739383Y-144475400D01*
X105690617Y-144475400D01*
X105214329Y-144570140D01*
X104810552Y-144839935D01*
X104540757Y-145243712D01*
X104446017Y-145720000D01*
X104443983Y-145720000D01*
X104349243Y-145243712D01*
X104079448Y-144839935D01*
X103675671Y-144570140D01*
X103673338Y-144569676D01*
X104063490Y-144386821D01*
X104457688Y-143954947D01*
X104565841Y-143693828D01*
X104810552Y-144060065D01*
X105214329Y-144329860D01*
X105690617Y-144424600D01*
X105739383Y-144424600D01*
X106215671Y-144329860D01*
X106619448Y-144060065D01*
X106889243Y-143656288D01*
X106983983Y-143180000D01*
X106889243Y-142703712D01*
X106619448Y-142299935D01*
X106215671Y-142030140D01*
X105739383Y-141935400D01*
X105690617Y-141935400D01*
X105214329Y-142030140D01*
X104810552Y-142299935D01*
X104565841Y-142666172D01*
X104457688Y-142405053D01*
X104063490Y-141973179D01*
X103890418Y-141892064D01*
X104038600Y-141892064D01*
X104187259Y-141862494D01*
X104313286Y-141778286D01*
X104397494Y-141652259D01*
X104427064Y-141503600D01*
X104427064Y-140640000D01*
X104446017Y-140640000D01*
X104540757Y-141116288D01*
X104810552Y-141520065D01*
X105214329Y-141789860D01*
X105690617Y-141884600D01*
X105739383Y-141884600D01*
X106215671Y-141789860D01*
X106619448Y-141520065D01*
X106889243Y-141116288D01*
X106983983Y-140640000D01*
X106889243Y-140163712D01*
X106619448Y-139759935D01*
X106215671Y-139490140D01*
X105739383Y-139395400D01*
X105690617Y-139395400D01*
X105214329Y-139490140D01*
X104810552Y-139759935D01*
X104540757Y-140163712D01*
X104446017Y-140640000D01*
X104427064Y-140640000D01*
X104427064Y-139776400D01*
X104397494Y-139627741D01*
X104313286Y-139501714D01*
X104187259Y-139417506D01*
X104038600Y-139387936D01*
X102311400Y-139387936D01*
X102162741Y-139417506D01*
X102036714Y-139501714D01*
X101952506Y-139627741D01*
X101922936Y-139776400D01*
X101922936Y-141503600D01*
X101952506Y-141652259D01*
X102036714Y-141778286D01*
X102162741Y-141862494D01*
X102311400Y-141892064D01*
X102459582Y-141892064D01*
X102286510Y-141973179D01*
X101892312Y-142405053D01*
X101720042Y-142820974D01*
X100956000Y-142820974D01*
X100956000Y-130244600D01*
X107031499Y-130244600D01*
X107031500Y-130244605D01*
X107031500Y-139802995D01*
X107031499Y-139803000D01*
X107064585Y-139969331D01*
X107075003Y-140021704D01*
X107166881Y-140159210D01*
X107198888Y-140207112D01*
X110045070Y-143053293D01*
X110082905Y-143144860D01*
X110254238Y-143316493D01*
X110478211Y-143409494D01*
X110720725Y-143409706D01*
X110944860Y-143317095D01*
X111116493Y-143145762D01*
X111209494Y-142921789D01*
X111209706Y-142679275D01*
X111117095Y-142455140D01*
X111062106Y-142400054D01*
X111116493Y-142345762D01*
X111209494Y-142121789D01*
X111209706Y-141879275D01*
X111171500Y-141786810D01*
X111171500Y-127907605D01*
X111171501Y-127907600D01*
X111127998Y-127688897D01*
X111060321Y-127587611D01*
X111004112Y-127503488D01*
X111004109Y-127503486D01*
X110347428Y-126846805D01*
X110424369Y-126460000D01*
X110329629Y-125983712D01*
X110059834Y-125579935D01*
X109656057Y-125310140D01*
X109179769Y-125215400D01*
X108820231Y-125215400D01*
X108343943Y-125310140D01*
X107940166Y-125579935D01*
X107670371Y-125983712D01*
X107575631Y-126460000D01*
X107670371Y-126936288D01*
X107940166Y-127340065D01*
X108343943Y-127609860D01*
X108820231Y-127704600D01*
X109179769Y-127704600D01*
X109520918Y-127636741D01*
X109891906Y-128007729D01*
X109656057Y-127850140D01*
X109179769Y-127755400D01*
X108820231Y-127755400D01*
X108343943Y-127850140D01*
X107940166Y-128119935D01*
X107670371Y-128523712D01*
X107575631Y-129000000D01*
X107652572Y-129386805D01*
X107198888Y-129840488D01*
X107075003Y-130025896D01*
X107075003Y-130025897D01*
X107031499Y-130244600D01*
X100956000Y-130244600D01*
X100956000Y-121875750D01*
X102175000Y-121875750D01*
X102175000Y-122716310D01*
X102271673Y-122949699D01*
X102450302Y-123128327D01*
X102683691Y-123225000D01*
X103524250Y-123225000D01*
X103683000Y-123066250D01*
X103683000Y-121717000D01*
X103937000Y-121717000D01*
X103937000Y-123066250D01*
X104095750Y-123225000D01*
X104936309Y-123225000D01*
X105169698Y-123128327D01*
X105348327Y-122949699D01*
X105445000Y-122716310D01*
X105445000Y-121875750D01*
X105286250Y-121717000D01*
X103937000Y-121717000D01*
X103683000Y-121717000D01*
X102333750Y-121717000D01*
X102175000Y-121875750D01*
X100956000Y-121875750D01*
X100956000Y-116795750D01*
X102175000Y-116795750D01*
X102175000Y-117636310D01*
X102271673Y-117869699D01*
X102450302Y-118048327D01*
X102683691Y-118145000D01*
X102761846Y-118145000D01*
X102639928Y-118266705D01*
X102429241Y-118774097D01*
X102428761Y-119323493D01*
X102638563Y-119831251D01*
X102762096Y-119955000D01*
X102683691Y-119955000D01*
X102450302Y-120051673D01*
X102271673Y-120230301D01*
X102175000Y-120463690D01*
X102175000Y-121304250D01*
X102333750Y-121463000D01*
X103683000Y-121463000D01*
X103683000Y-121443000D01*
X103937000Y-121443000D01*
X103937000Y-121463000D01*
X105286250Y-121463000D01*
X105445000Y-121304250D01*
X105445000Y-120463690D01*
X105348327Y-120230301D01*
X105169698Y-120051673D01*
X104936309Y-119955000D01*
X104858154Y-119955000D01*
X104980072Y-119833295D01*
X105190759Y-119325903D01*
X105191239Y-118776507D01*
X104981437Y-118268749D01*
X104857904Y-118145000D01*
X104936309Y-118145000D01*
X105169698Y-118048327D01*
X105348327Y-117869699D01*
X105445000Y-117636310D01*
X105445000Y-116795750D01*
X105286250Y-116637000D01*
X103937000Y-116637000D01*
X103937000Y-116657000D01*
X103683000Y-116657000D01*
X103683000Y-116637000D01*
X102333750Y-116637000D01*
X102175000Y-116795750D01*
X100956000Y-116795750D01*
X100956000Y-115383690D01*
X102175000Y-115383690D01*
X102175000Y-116224250D01*
X102333750Y-116383000D01*
X103683000Y-116383000D01*
X103683000Y-116363000D01*
X103937000Y-116363000D01*
X103937000Y-116383000D01*
X105286250Y-116383000D01*
X105445000Y-116224250D01*
X105445000Y-116120725D01*
X107790294Y-116120725D01*
X107828500Y-116213190D01*
X107828500Y-120199995D01*
X107828499Y-120200000D01*
X107854955Y-120333000D01*
X107872003Y-120418704D01*
X107880058Y-120430759D01*
X107995888Y-120604112D01*
X117445070Y-130053293D01*
X117482905Y-130144860D01*
X117654238Y-130316493D01*
X117878211Y-130409494D01*
X118092000Y-130409681D01*
X118092000Y-131786501D01*
X114745247Y-135133254D01*
X114595762Y-134983507D01*
X114371789Y-134890506D01*
X114129275Y-134890294D01*
X113905140Y-134982905D01*
X113733507Y-135154238D01*
X113640506Y-135378211D01*
X113640294Y-135620725D01*
X113732905Y-135844860D01*
X113883142Y-135995360D01*
X112240790Y-137637712D01*
X112130669Y-137802519D01*
X112092000Y-137996922D01*
X112092000Y-139445760D01*
X112083507Y-139454238D01*
X111990506Y-139678211D01*
X111990294Y-139920725D01*
X112082905Y-140144860D01*
X112254238Y-140316493D01*
X112478211Y-140409494D01*
X112591998Y-140409593D01*
X112591998Y-140995760D01*
X112583505Y-141004238D01*
X112490504Y-141228211D01*
X112490292Y-141470725D01*
X112582903Y-141694860D01*
X112754236Y-141866493D01*
X112978209Y-141959494D01*
X112991083Y-141959505D01*
X114653278Y-143621700D01*
X114505140Y-143682909D01*
X114333507Y-143854242D01*
X114240506Y-144078215D01*
X114240294Y-144320729D01*
X114332905Y-144544864D01*
X114504238Y-144716497D01*
X114728211Y-144809498D01*
X114741085Y-144809509D01*
X115790786Y-145859210D01*
X115955592Y-145969331D01*
X116149996Y-146008000D01*
X132096764Y-146008000D01*
X132291167Y-145969331D01*
X132455974Y-145859210D01*
X133501494Y-144813690D01*
X141825000Y-144813690D01*
X141825000Y-145504250D01*
X141983750Y-145663000D01*
X144873000Y-145663000D01*
X144873000Y-144463750D01*
X144714250Y-144305000D01*
X142333691Y-144305000D01*
X142100302Y-144401673D01*
X141921673Y-144580301D01*
X141825000Y-144813690D01*
X133501494Y-144813690D01*
X136140465Y-142174719D01*
X136140294Y-142370725D01*
X136232905Y-142594860D01*
X136404238Y-142766493D01*
X136628211Y-142859494D01*
X136870725Y-142859706D01*
X137094860Y-142767095D01*
X137266493Y-142595762D01*
X137359494Y-142371789D01*
X137359706Y-142129275D01*
X137267095Y-141905140D01*
X137095762Y-141733507D01*
X136871789Y-141640506D01*
X136674850Y-141640334D01*
X137319434Y-140995750D01*
X141825000Y-140995750D01*
X141825000Y-141686310D01*
X141921673Y-141919699D01*
X142100302Y-142098327D01*
X142333691Y-142195000D01*
X144714250Y-142195000D01*
X144873000Y-142036250D01*
X144873000Y-140837000D01*
X141983750Y-140837000D01*
X141825000Y-140995750D01*
X137319434Y-140995750D01*
X138109210Y-140205974D01*
X138219331Y-140041167D01*
X138258000Y-139846764D01*
X138258000Y-139733690D01*
X141825000Y-139733690D01*
X141825000Y-140424250D01*
X141983750Y-140583000D01*
X144873000Y-140583000D01*
X144873000Y-139383750D01*
X144714250Y-139225000D01*
X142333691Y-139225000D01*
X142100302Y-139321673D01*
X141921673Y-139500301D01*
X141825000Y-139733690D01*
X138258000Y-139733690D01*
X138258000Y-138354240D01*
X138266493Y-138345762D01*
X138359494Y-138121789D01*
X138359706Y-137879275D01*
X138267095Y-137655140D01*
X138112106Y-137499879D01*
X138266493Y-137345762D01*
X138359494Y-137121789D01*
X138359706Y-136879275D01*
X138267095Y-136655140D01*
X138095762Y-136483507D01*
X138078285Y-136476250D01*
X138917255Y-136476250D01*
X138917260Y-136476251D01*
X139099513Y-136439998D01*
X139254020Y-136336760D01*
X141470055Y-134120725D01*
X142590294Y-134120725D01*
X142682905Y-134344860D01*
X142854238Y-134516493D01*
X143078211Y-134609494D01*
X143320725Y-134609706D01*
X143544860Y-134517095D01*
X143599946Y-134462106D01*
X143654238Y-134516493D01*
X143878211Y-134609494D01*
X144120725Y-134609706D01*
X144344860Y-134517095D01*
X144516493Y-134345762D01*
X144609494Y-134121789D01*
X144609706Y-133879275D01*
X144517095Y-133655140D01*
X144345762Y-133483507D01*
X144121789Y-133390506D01*
X143879275Y-133390294D01*
X143655140Y-133482905D01*
X143600054Y-133537894D01*
X143545762Y-133483507D01*
X143321789Y-133390506D01*
X143079275Y-133390294D01*
X142855140Y-133482905D01*
X142683507Y-133654238D01*
X142590506Y-133878211D01*
X142590294Y-134120725D01*
X141470055Y-134120725D01*
X141986760Y-133604020D01*
X142089998Y-133449513D01*
X142126251Y-133267260D01*
X142126250Y-133267255D01*
X142126250Y-126939075D01*
X142333691Y-127025000D01*
X144714250Y-127025000D01*
X144873000Y-126866250D01*
X144873000Y-125667000D01*
X144853000Y-125667000D01*
X144853000Y-125413000D01*
X144873000Y-125413000D01*
X144873000Y-124213750D01*
X144714250Y-124055000D01*
X142333691Y-124055000D01*
X142100302Y-124151673D01*
X141975399Y-124276575D01*
X141975399Y-121723425D01*
X142100302Y-121848327D01*
X142333691Y-121945000D01*
X144714250Y-121945000D01*
X144873000Y-121786250D01*
X144873000Y-120587000D01*
X144853000Y-120587000D01*
X144853000Y-120333000D01*
X144873000Y-120333000D01*
X144873000Y-119133750D01*
X144714250Y-118975000D01*
X142333691Y-118975000D01*
X142100302Y-119071673D01*
X141975399Y-119196575D01*
X141975399Y-111799154D01*
X141975400Y-111799149D01*
X141939147Y-111616896D01*
X141872060Y-111516493D01*
X141835909Y-111462389D01*
X141835906Y-111462387D01*
X141309656Y-110936136D01*
X141309706Y-110879275D01*
X141217095Y-110655140D01*
X141045762Y-110483507D01*
X140821789Y-110390506D01*
X140579275Y-110390294D01*
X140355140Y-110482905D01*
X140183507Y-110654238D01*
X140090506Y-110878211D01*
X140090294Y-111120725D01*
X140182905Y-111344860D01*
X140354238Y-111516493D01*
X140578211Y-111609494D01*
X140636025Y-111609545D01*
X141022899Y-111996418D01*
X141022899Y-125031884D01*
X141022898Y-125031889D01*
X141059151Y-125214142D01*
X141162389Y-125368649D01*
X141174601Y-125380861D01*
X141174601Y-125612977D01*
X141173749Y-125617260D01*
X141173750Y-125617265D01*
X141173750Y-133069990D01*
X140677926Y-133565814D01*
X140595762Y-133483507D01*
X140371789Y-133390506D01*
X140129275Y-133390294D01*
X140035000Y-133429248D01*
X140035000Y-133285750D01*
X139876250Y-133127000D01*
X139127000Y-133127000D01*
X139127000Y-133851250D01*
X139285750Y-134010000D01*
X139526309Y-134010000D01*
X139640432Y-133962729D01*
X139640294Y-134120725D01*
X139732905Y-134344860D01*
X139815820Y-134427920D01*
X138719990Y-135523750D01*
X138359580Y-135523750D01*
X138359706Y-135379275D01*
X138267095Y-135155140D01*
X138095762Y-134983507D01*
X137871789Y-134890506D01*
X137859696Y-134890495D01*
X137859706Y-134879275D01*
X137767095Y-134655140D01*
X137595762Y-134483507D01*
X137585131Y-134479093D01*
X137904109Y-134160114D01*
X137904112Y-134160112D01*
X138027997Y-133974704D01*
X138052554Y-133851250D01*
X138071501Y-133756000D01*
X138071500Y-133755995D01*
X138071500Y-133744526D01*
X138240302Y-133913327D01*
X138473691Y-134010000D01*
X138714250Y-134010000D01*
X138873000Y-133851250D01*
X138873000Y-133127000D01*
X138853000Y-133127000D01*
X138853000Y-132873000D01*
X138873000Y-132873000D01*
X138873000Y-132148750D01*
X139127000Y-132148750D01*
X139127000Y-132873000D01*
X139876250Y-132873000D01*
X140035000Y-132714250D01*
X140035000Y-132498690D01*
X139938327Y-132265301D01*
X139759698Y-132086673D01*
X139526309Y-131990000D01*
X139285750Y-131990000D01*
X139127000Y-132148750D01*
X138873000Y-132148750D01*
X138714250Y-131990000D01*
X138473691Y-131990000D01*
X138240302Y-132086673D01*
X138061673Y-132265301D01*
X138058591Y-132272742D01*
X138048659Y-132266106D01*
X137900000Y-132236536D01*
X137317551Y-132236536D01*
X136812942Y-131731927D01*
X136764635Y-131659629D01*
X136707896Y-131602890D01*
X136707896Y-131480767D01*
X136707897Y-131480762D01*
X136664394Y-131262059D01*
X136602451Y-131169355D01*
X136540508Y-131076650D01*
X136540505Y-131076648D01*
X136309746Y-130845888D01*
X136309743Y-130845886D01*
X136013645Y-130549787D01*
X135828237Y-130425902D01*
X135791951Y-130418684D01*
X135609533Y-130382398D01*
X135609528Y-130382399D01*
X134887876Y-130382399D01*
X134887871Y-130382398D01*
X134669168Y-130425901D01*
X134669166Y-130425902D01*
X134669167Y-130425902D01*
X134483759Y-130549787D01*
X134483757Y-130549790D01*
X134172010Y-130861536D01*
X133900000Y-130861536D01*
X133751341Y-130891106D01*
X133700000Y-130925411D01*
X133648659Y-130891106D01*
X133500000Y-130861536D01*
X132900000Y-130861536D01*
X132814716Y-130878500D01*
X132013604Y-130878500D01*
X131794900Y-130922003D01*
X131609492Y-131045888D01*
X131609490Y-131045891D01*
X131450126Y-131205255D01*
X131377827Y-131253563D01*
X130953563Y-131677827D01*
X130905255Y-131750126D01*
X130418844Y-132236536D01*
X130100000Y-132236536D01*
X129951341Y-132266106D01*
X129941409Y-132272742D01*
X129938327Y-132265301D01*
X129759698Y-132086673D01*
X129526309Y-131990000D01*
X129285750Y-131990000D01*
X129127000Y-132148750D01*
X129127000Y-132873000D01*
X129147000Y-132873000D01*
X129147000Y-133127000D01*
X129127000Y-133127000D01*
X129127000Y-133147000D01*
X128873000Y-133147000D01*
X128873000Y-133127000D01*
X128853000Y-133127000D01*
X128853000Y-132873000D01*
X128873000Y-132873000D01*
X128873000Y-132148750D01*
X128714250Y-131990000D01*
X128614170Y-131990000D01*
X129813569Y-130790601D01*
X132831649Y-130790601D01*
X133026052Y-130751932D01*
X133190859Y-130641811D01*
X133442070Y-130390601D01*
X134231649Y-130390601D01*
X134426052Y-130351932D01*
X134590859Y-130241811D01*
X134841811Y-129990859D01*
X134951932Y-129826052D01*
X134990601Y-129631649D01*
X134990601Y-129327819D01*
X135108724Y-129209696D01*
X135120725Y-129209706D01*
X135344860Y-129117095D01*
X135516493Y-128945762D01*
X135609494Y-128721789D01*
X135609706Y-128479275D01*
X135559837Y-128358583D01*
X137959210Y-125959210D01*
X138069331Y-125794404D01*
X138082815Y-125726614D01*
X138108000Y-125600000D01*
X138108000Y-118400000D01*
X138069331Y-118205597D01*
X137959210Y-118040790D01*
X135839145Y-115920725D01*
X136640294Y-115920725D01*
X136732905Y-116144860D01*
X136904238Y-116316493D01*
X137128211Y-116409494D01*
X137370725Y-116409706D01*
X137594860Y-116317095D01*
X137624902Y-116287106D01*
X137654238Y-116316493D01*
X137878211Y-116409494D01*
X138120725Y-116409706D01*
X138344860Y-116317095D01*
X138516493Y-116145762D01*
X138609494Y-115921789D01*
X138609706Y-115679275D01*
X138517095Y-115455140D01*
X138345762Y-115283507D01*
X138121789Y-115190506D01*
X137879275Y-115190294D01*
X137655140Y-115282905D01*
X137625098Y-115312894D01*
X137595762Y-115283507D01*
X137371789Y-115190506D01*
X137129275Y-115190294D01*
X136905140Y-115282905D01*
X136733507Y-115454238D01*
X136640506Y-115678211D01*
X136640294Y-115920725D01*
X135839145Y-115920725D01*
X135425399Y-115506979D01*
X135425399Y-114983441D01*
X135469330Y-114917693D01*
X135469331Y-114917692D01*
X135500318Y-114761909D01*
X135516493Y-114745762D01*
X135609494Y-114521789D01*
X135609706Y-114279275D01*
X135517095Y-114055140D01*
X135345762Y-113883507D01*
X135121789Y-113790506D01*
X134879275Y-113790294D01*
X134655140Y-113882905D01*
X134483507Y-114054238D01*
X134390506Y-114278211D01*
X134390294Y-114520725D01*
X134441480Y-114644605D01*
X134409399Y-114805890D01*
X134409399Y-115717399D01*
X134448068Y-115911802D01*
X134558189Y-116076609D01*
X137092000Y-118610420D01*
X137092000Y-125389580D01*
X135237001Y-127244579D01*
X135237001Y-126723370D01*
X135198332Y-126528967D01*
X135088211Y-126364160D01*
X134948785Y-126224734D01*
X135136757Y-126036762D01*
X135136760Y-126036760D01*
X135206756Y-125932003D01*
X135239998Y-125882254D01*
X135276250Y-125700000D01*
X135276250Y-119039111D01*
X135276251Y-119039106D01*
X135239998Y-118856853D01*
X135136760Y-118702346D01*
X134341837Y-117907423D01*
X134187330Y-117804185D01*
X134083243Y-117783480D01*
X134027550Y-117727690D01*
X133803577Y-117634689D01*
X133561063Y-117634477D01*
X133336928Y-117727088D01*
X133165295Y-117898421D01*
X133072294Y-118122394D01*
X133072082Y-118364908D01*
X133164693Y-118589043D01*
X133336026Y-118760676D01*
X133559999Y-118853677D01*
X133802513Y-118853889D01*
X133900695Y-118813321D01*
X134323750Y-119236376D01*
X134323750Y-125502731D01*
X134275266Y-125551215D01*
X134220152Y-125496101D01*
X134220162Y-125484100D01*
X134127551Y-125259965D01*
X133956218Y-125088332D01*
X133827299Y-125034800D01*
X133916493Y-124945762D01*
X134009494Y-124721789D01*
X134009706Y-124479275D01*
X133917095Y-124255140D01*
X133745762Y-124083507D01*
X133521789Y-123990506D01*
X133279275Y-123990294D01*
X133055140Y-124082905D01*
X133014223Y-124123750D01*
X132897269Y-124123750D01*
X132476250Y-123702730D01*
X132476250Y-120330010D01*
X132876614Y-119929645D01*
X132882905Y-119944870D01*
X133054238Y-120116503D01*
X133278211Y-120209504D01*
X133520725Y-120209716D01*
X133744860Y-120117105D01*
X133916493Y-119945772D01*
X134009494Y-119721799D01*
X134009706Y-119479285D01*
X133917095Y-119255150D01*
X133745762Y-119083517D01*
X133521789Y-118990516D01*
X133330012Y-118990348D01*
X133250841Y-118974600D01*
X133250836Y-118974601D01*
X132681894Y-118974601D01*
X132681889Y-118974600D01*
X132499636Y-119010853D01*
X132345129Y-119114091D01*
X132345127Y-119114094D01*
X131663240Y-119795980D01*
X131560002Y-119950487D01*
X131523749Y-120132740D01*
X131523750Y-120132745D01*
X131523750Y-123899995D01*
X131523749Y-123900000D01*
X131560002Y-124082253D01*
X131663240Y-124236760D01*
X132017851Y-124591370D01*
X131514091Y-125095129D01*
X131410853Y-125249636D01*
X131374600Y-125431889D01*
X131374601Y-125431894D01*
X131374601Y-126819139D01*
X131279649Y-126914091D01*
X131279647Y-126914094D01*
X131276110Y-126917631D01*
X131140790Y-127008050D01*
X130939441Y-127209399D01*
X129309021Y-127209399D01*
X129559210Y-126959210D01*
X129669331Y-126794403D01*
X129708000Y-126600000D01*
X129708000Y-118810420D01*
X132276610Y-116241811D01*
X132386730Y-116077004D01*
X132425399Y-115882601D01*
X132425399Y-114840688D01*
X132386730Y-114646285D01*
X132386730Y-114646284D01*
X132368887Y-114619581D01*
X132409494Y-114521789D01*
X132409706Y-114279275D01*
X132317095Y-114055140D01*
X132145762Y-113883507D01*
X131921789Y-113790506D01*
X131679275Y-113790294D01*
X131455140Y-113882905D01*
X131283507Y-114054238D01*
X131190506Y-114278211D01*
X131190294Y-114520725D01*
X131282905Y-114744860D01*
X131299622Y-114761606D01*
X131330669Y-114917692D01*
X131409399Y-115035519D01*
X131409399Y-115672180D01*
X128840790Y-118240790D01*
X128730669Y-118405597D01*
X128692000Y-118600000D01*
X128692000Y-126389580D01*
X126891276Y-128190304D01*
X126879275Y-128190294D01*
X126655140Y-128282905D01*
X126483507Y-128454238D01*
X126416876Y-128614704D01*
X125008000Y-130023580D01*
X125008000Y-115920725D01*
X127565294Y-115920725D01*
X127657905Y-116144860D01*
X127829238Y-116316493D01*
X128053211Y-116409494D01*
X128295725Y-116409706D01*
X128487695Y-116330385D01*
X128678211Y-116409494D01*
X128920725Y-116409706D01*
X129144860Y-116317095D01*
X129316493Y-116145762D01*
X129409494Y-115921789D01*
X129409706Y-115679275D01*
X129317095Y-115455140D01*
X129145762Y-115283507D01*
X128921789Y-115190506D01*
X128679275Y-115190294D01*
X128487305Y-115269615D01*
X128296789Y-115190506D01*
X128054275Y-115190294D01*
X127830140Y-115282905D01*
X127658507Y-115454238D01*
X127565506Y-115678211D01*
X127565294Y-115920725D01*
X125008000Y-115920725D01*
X125008000Y-114849248D01*
X126536523Y-113320725D01*
X128640294Y-113320725D01*
X128732905Y-113544860D01*
X128904238Y-113716493D01*
X129128211Y-113809494D01*
X129370725Y-113809706D01*
X129594860Y-113717095D01*
X129766493Y-113545762D01*
X129859494Y-113321789D01*
X129859706Y-113079275D01*
X129767095Y-112855140D01*
X129595762Y-112683507D01*
X129371789Y-112590506D01*
X129129275Y-112590294D01*
X128905140Y-112682905D01*
X128733507Y-112854238D01*
X128640506Y-113078211D01*
X128640294Y-113320725D01*
X126536523Y-113320725D01*
X128136559Y-111720689D01*
X136590294Y-111720689D01*
X136682905Y-111944824D01*
X136854238Y-112116457D01*
X137078211Y-112209458D01*
X137320725Y-112209670D01*
X137544860Y-112117059D01*
X137716493Y-111945726D01*
X137809494Y-111721753D01*
X137809706Y-111479239D01*
X137717095Y-111255104D01*
X137545762Y-111083471D01*
X137321789Y-110990470D01*
X137079275Y-110990258D01*
X136855140Y-111082869D01*
X136683507Y-111254202D01*
X136590506Y-111478175D01*
X136590294Y-111720689D01*
X128136559Y-111720689D01*
X130281498Y-109575750D01*
X141825000Y-109575750D01*
X141825000Y-110266310D01*
X141921673Y-110499699D01*
X142100302Y-110678327D01*
X142333691Y-110775000D01*
X144714250Y-110775000D01*
X144873000Y-110616250D01*
X144873000Y-109417000D01*
X141983750Y-109417000D01*
X141825000Y-109575750D01*
X130281498Y-109575750D01*
X130379834Y-109477414D01*
X136630586Y-109477414D01*
X136824989Y-109438745D01*
X136989796Y-109328624D01*
X137508724Y-108809696D01*
X137520725Y-108809706D01*
X137744860Y-108717095D01*
X137916493Y-108545762D01*
X138009494Y-108321789D01*
X138009501Y-108313690D01*
X141825000Y-108313690D01*
X141825000Y-109004250D01*
X141983750Y-109163000D01*
X144873000Y-109163000D01*
X144873000Y-107963750D01*
X144714250Y-107805000D01*
X142333691Y-107805000D01*
X142100302Y-107901673D01*
X141921673Y-108080301D01*
X141825000Y-108313690D01*
X138009501Y-108313690D01*
X138009706Y-108079275D01*
X137917095Y-107855140D01*
X137745762Y-107683507D01*
X137521789Y-107590506D01*
X137279275Y-107590294D01*
X137055140Y-107682905D01*
X136883507Y-107854238D01*
X136790506Y-108078211D01*
X136790495Y-108091085D01*
X136420166Y-108461414D01*
X132951517Y-108461414D01*
X133009494Y-108321789D01*
X133009706Y-108079275D01*
X132917095Y-107855140D01*
X132745762Y-107683507D01*
X132521789Y-107590506D01*
X132279275Y-107590294D01*
X132266663Y-107595505D01*
X132316493Y-107545762D01*
X132409494Y-107321789D01*
X132409706Y-107079275D01*
X132317095Y-106855140D01*
X132145762Y-106683507D01*
X131921789Y-106590506D01*
X131679275Y-106590294D01*
X131455140Y-106682905D01*
X131446029Y-106692000D01*
X130322344Y-106692000D01*
X130127941Y-106730669D01*
X129963134Y-106840790D01*
X118240790Y-118563134D01*
X118130669Y-118727941D01*
X118092000Y-118922344D01*
X118092000Y-124461183D01*
X117983639Y-124416188D01*
X117917095Y-124255140D01*
X117745762Y-124083507D01*
X117521789Y-123990506D01*
X117279275Y-123990294D01*
X117055140Y-124082905D01*
X116883507Y-124254238D01*
X116790506Y-124478211D01*
X116790294Y-124720725D01*
X116882905Y-124944860D01*
X117054238Y-125116493D01*
X117216361Y-125183812D01*
X117282905Y-125344860D01*
X117454238Y-125516493D01*
X117678211Y-125609494D01*
X117920725Y-125609706D01*
X118092000Y-125538936D01*
X118092000Y-129083777D01*
X108971500Y-119963276D01*
X108971500Y-116213289D01*
X109009494Y-116121789D01*
X109009706Y-115879275D01*
X108917095Y-115655140D01*
X108745762Y-115483507D01*
X108521789Y-115390506D01*
X108279275Y-115390294D01*
X108055140Y-115482905D01*
X107883507Y-115654238D01*
X107790506Y-115878211D01*
X107790294Y-116120725D01*
X105445000Y-116120725D01*
X105445000Y-115383690D01*
X105348327Y-115150301D01*
X105169698Y-114971673D01*
X104936309Y-114875000D01*
X104858154Y-114875000D01*
X104980072Y-114753295D01*
X105190759Y-114245903D01*
X105191239Y-113696507D01*
X104981437Y-113188749D01*
X104593295Y-112799928D01*
X104085903Y-112589241D01*
X103536507Y-112588761D01*
X103028749Y-112798563D01*
X102639928Y-113186705D01*
X102429241Y-113694097D01*
X102428761Y-114243493D01*
X102638563Y-114751251D01*
X102762096Y-114875000D01*
X102683691Y-114875000D01*
X102450302Y-114971673D01*
X102271673Y-115150301D01*
X102175000Y-115383690D01*
X100956000Y-115383690D01*
X100956000Y-111285750D01*
X106564860Y-111285750D01*
X106564860Y-112976310D01*
X106661533Y-113209699D01*
X106840162Y-113388327D01*
X107073551Y-113485000D01*
X108764110Y-113485000D01*
X108922860Y-113326250D01*
X108922860Y-111127000D01*
X109176860Y-111127000D01*
X109176860Y-113326250D01*
X109335610Y-113485000D01*
X111026169Y-113485000D01*
X111259558Y-113388327D01*
X111438187Y-113209699D01*
X111534860Y-112976310D01*
X111534860Y-111285750D01*
X111376110Y-111127000D01*
X109176860Y-111127000D01*
X108922860Y-111127000D01*
X106723610Y-111127000D01*
X106564860Y-111285750D01*
X100956000Y-111285750D01*
X100956000Y-106785750D01*
X103264860Y-106785750D01*
X103264860Y-108526310D01*
X103361533Y-108759699D01*
X103540162Y-108938327D01*
X103773551Y-109035000D01*
X105514110Y-109035000D01*
X105672860Y-108876250D01*
X105672860Y-106627000D01*
X105926860Y-106627000D01*
X105926860Y-108876250D01*
X106085610Y-109035000D01*
X106564860Y-109035000D01*
X106564860Y-110714250D01*
X106723610Y-110873000D01*
X108922860Y-110873000D01*
X108922860Y-108673750D01*
X109176860Y-108673750D01*
X109176860Y-110873000D01*
X111376110Y-110873000D01*
X111534860Y-110714250D01*
X111534860Y-109023690D01*
X111458137Y-108838464D01*
X114249860Y-108838464D01*
X114398519Y-108808894D01*
X114524546Y-108724686D01*
X114608754Y-108598659D01*
X114638324Y-108450000D01*
X114638324Y-105535750D01*
X133240000Y-105535750D01*
X133240000Y-105776309D01*
X133336673Y-106009698D01*
X133515301Y-106188327D01*
X133748690Y-106285000D01*
X133964250Y-106285000D01*
X134123000Y-106126250D01*
X134123000Y-105377000D01*
X134377000Y-105377000D01*
X134377000Y-106126250D01*
X134535750Y-106285000D01*
X134751310Y-106285000D01*
X134984699Y-106188327D01*
X135000000Y-106173026D01*
X135015301Y-106188327D01*
X135248690Y-106285000D01*
X135464250Y-106285000D01*
X135623000Y-106126250D01*
X135623000Y-105377000D01*
X134377000Y-105377000D01*
X134123000Y-105377000D01*
X133398750Y-105377000D01*
X133240000Y-105535750D01*
X114638324Y-105535750D01*
X114638324Y-104723691D01*
X133240000Y-104723691D01*
X133240000Y-104964250D01*
X133398750Y-105123000D01*
X134123000Y-105123000D01*
X134123000Y-105103000D01*
X134377000Y-105103000D01*
X134377000Y-105123000D01*
X135623000Y-105123000D01*
X135623000Y-105103000D01*
X135877000Y-105103000D01*
X135877000Y-105123000D01*
X135897000Y-105123000D01*
X135897000Y-105377000D01*
X135877000Y-105377000D01*
X135877000Y-106126250D01*
X136035750Y-106285000D01*
X136251310Y-106285000D01*
X136484699Y-106188327D01*
X136663327Y-106009698D01*
X136677247Y-105976091D01*
X136678500Y-105976928D01*
X136678500Y-106199995D01*
X136678499Y-106200000D01*
X136709180Y-106354238D01*
X136722003Y-106418704D01*
X136828582Y-106578211D01*
X136845888Y-106604112D01*
X137195070Y-106953294D01*
X137232905Y-107044860D01*
X137404238Y-107216493D01*
X137628211Y-107309494D01*
X137870725Y-107309706D01*
X138094860Y-107217095D01*
X138266493Y-107045762D01*
X138359494Y-106821789D01*
X138359706Y-106579275D01*
X138267095Y-106355140D01*
X138095762Y-106183507D01*
X138003363Y-106145140D01*
X137829684Y-105971460D01*
X137899686Y-105924686D01*
X137983894Y-105798659D01*
X138013464Y-105650000D01*
X138013464Y-104850000D01*
X137983894Y-104701341D01*
X137899686Y-104575314D01*
X137786970Y-104500000D01*
X137793330Y-104495750D01*
X141825000Y-104495750D01*
X141825000Y-105186310D01*
X141921673Y-105419699D01*
X142100302Y-105598327D01*
X142333691Y-105695000D01*
X144714250Y-105695000D01*
X144873000Y-105536250D01*
X144873000Y-104337000D01*
X141983750Y-104337000D01*
X141825000Y-104495750D01*
X137793330Y-104495750D01*
X137899686Y-104424686D01*
X137983894Y-104298659D01*
X138013464Y-104150000D01*
X138013464Y-103350000D01*
X137990329Y-103233690D01*
X141825000Y-103233690D01*
X141825000Y-103924250D01*
X141983750Y-104083000D01*
X144873000Y-104083000D01*
X144873000Y-102883750D01*
X144714250Y-102725000D01*
X142333691Y-102725000D01*
X142100302Y-102821673D01*
X141921673Y-103000301D01*
X141825000Y-103233690D01*
X137990329Y-103233690D01*
X137983894Y-103201341D01*
X137899686Y-103075314D01*
X137773659Y-102991106D01*
X137625000Y-102961536D01*
X136875000Y-102961536D01*
X136726341Y-102991106D01*
X136600314Y-103075314D01*
X136531368Y-103178500D01*
X136468632Y-103178500D01*
X136399686Y-103075314D01*
X136273659Y-102991106D01*
X136125000Y-102961536D01*
X135559590Y-102961536D01*
X135559706Y-102829275D01*
X135467095Y-102605140D01*
X135295762Y-102433507D01*
X135071789Y-102340506D01*
X134829275Y-102340294D01*
X134699959Y-102393726D01*
X134571789Y-102340506D01*
X134329275Y-102340294D01*
X134105140Y-102432905D01*
X133933507Y-102604238D01*
X133840506Y-102828211D01*
X133840383Y-102968422D01*
X133726341Y-102991106D01*
X133600314Y-103075314D01*
X133516106Y-103201341D01*
X133486536Y-103350000D01*
X133486536Y-104150000D01*
X133516106Y-104298659D01*
X133522742Y-104308591D01*
X133515301Y-104311673D01*
X133336673Y-104490302D01*
X133240000Y-104723691D01*
X114638324Y-104723691D01*
X114638324Y-104550000D01*
X114608754Y-104401341D01*
X114524546Y-104275314D01*
X114398519Y-104191106D01*
X114249860Y-104161536D01*
X110349860Y-104161536D01*
X110201201Y-104191106D01*
X110075174Y-104275314D01*
X109990966Y-104401341D01*
X109961396Y-104550000D01*
X109961396Y-108450000D01*
X109974325Y-108515000D01*
X109335610Y-108515000D01*
X109176860Y-108673750D01*
X108922860Y-108673750D01*
X108764110Y-108515000D01*
X108334860Y-108515000D01*
X108334860Y-106785750D01*
X108176110Y-106627000D01*
X105926860Y-106627000D01*
X105672860Y-106627000D01*
X103423610Y-106627000D01*
X103264860Y-106785750D01*
X100956000Y-106785750D01*
X100956000Y-104473690D01*
X103264860Y-104473690D01*
X103264860Y-106214250D01*
X103423610Y-106373000D01*
X105672860Y-106373000D01*
X105672860Y-104123750D01*
X105926860Y-104123750D01*
X105926860Y-106373000D01*
X108176110Y-106373000D01*
X108334860Y-106214250D01*
X108334860Y-104473690D01*
X108238187Y-104240301D01*
X108059558Y-104061673D01*
X107826169Y-103965000D01*
X106085610Y-103965000D01*
X105926860Y-104123750D01*
X105672860Y-104123750D01*
X105514110Y-103965000D01*
X103773551Y-103965000D01*
X103540162Y-104061673D01*
X103361533Y-104240301D01*
X103264860Y-104473690D01*
X100956000Y-104473690D01*
X100956000Y-100456000D01*
X149044000Y-100456000D01*
X149044000Y-102544000D01*
G36*
X123193726Y-134250041D02*
X123140506Y-134378211D01*
X123140294Y-134620725D01*
X123232905Y-134844860D01*
X123404238Y-135016493D01*
X123628211Y-135109494D01*
X123828389Y-135109669D01*
X123828389Y-136103191D01*
X120791276Y-139140304D01*
X120779275Y-139140294D01*
X120555140Y-139232905D01*
X120383507Y-139404238D01*
X120290506Y-139628211D01*
X120290294Y-139870725D01*
X120382905Y-140094860D01*
X120437894Y-140149946D01*
X120383507Y-140204238D01*
X120290506Y-140428211D01*
X120290294Y-140670725D01*
X120382905Y-140894860D01*
X120412894Y-140924902D01*
X120383507Y-140954238D01*
X120290506Y-141178211D01*
X120290294Y-141420725D01*
X120382905Y-141644860D01*
X120462894Y-141724989D01*
X120383507Y-141804238D01*
X120290506Y-142028211D01*
X120290294Y-142270725D01*
X120361064Y-142442000D01*
X119454240Y-142442000D01*
X119445762Y-142433507D01*
X119221789Y-142340506D01*
X118979275Y-142340294D01*
X118755140Y-142432905D01*
X118583507Y-142604238D01*
X118490506Y-142828211D01*
X118490294Y-143070725D01*
X118582905Y-143294860D01*
X118679875Y-143392000D01*
X117160421Y-143392000D01*
X114509696Y-140741275D01*
X114509706Y-140729275D01*
X114417095Y-140505140D01*
X114245762Y-140333507D01*
X114021789Y-140240506D01*
X113779275Y-140240294D01*
X113607998Y-140311064D01*
X113607998Y-138246172D01*
X114921030Y-136933140D01*
X115004238Y-137016493D01*
X115228211Y-137109494D01*
X115324601Y-137109578D01*
X115324601Y-138182601D01*
X115363270Y-138377004D01*
X115473391Y-138541811D01*
X115540304Y-138608724D01*
X115540294Y-138620725D01*
X115632905Y-138844860D01*
X115804238Y-139016493D01*
X116028211Y-139109494D01*
X116270725Y-139109706D01*
X116494860Y-139017095D01*
X116666493Y-138845762D01*
X116759494Y-138621789D01*
X116759706Y-138379275D01*
X116667095Y-138155140D01*
X116495762Y-137983507D01*
X116340601Y-137919079D01*
X116340601Y-137113569D01*
X116521030Y-136933140D01*
X116604238Y-137016493D01*
X116828211Y-137109494D01*
X117070725Y-137109706D01*
X117294860Y-137017095D01*
X117349946Y-136962106D01*
X117404238Y-137016493D01*
X117628211Y-137109494D01*
X117870725Y-137109706D01*
X118094860Y-137017095D01*
X118266493Y-136845762D01*
X118359494Y-136621789D01*
X118359505Y-136608915D01*
X120660421Y-134308000D01*
X122800000Y-134308000D01*
X122994403Y-134269331D01*
X123156848Y-134160788D01*
X123193726Y-134250041D01*
X123193726Y-134250041D01*
G37*
X123193726Y-134250041D02*
X123140506Y-134378211D01*
X123140294Y-134620725D01*
X123232905Y-134844860D01*
X123404238Y-135016493D01*
X123628211Y-135109494D01*
X123828389Y-135109669D01*
X123828389Y-136103191D01*
X120791276Y-139140304D01*
X120779275Y-139140294D01*
X120555140Y-139232905D01*
X120383507Y-139404238D01*
X120290506Y-139628211D01*
X120290294Y-139870725D01*
X120382905Y-140094860D01*
X120437894Y-140149946D01*
X120383507Y-140204238D01*
X120290506Y-140428211D01*
X120290294Y-140670725D01*
X120382905Y-140894860D01*
X120412894Y-140924902D01*
X120383507Y-140954238D01*
X120290506Y-141178211D01*
X120290294Y-141420725D01*
X120382905Y-141644860D01*
X120462894Y-141724989D01*
X120383507Y-141804238D01*
X120290506Y-142028211D01*
X120290294Y-142270725D01*
X120361064Y-142442000D01*
X119454240Y-142442000D01*
X119445762Y-142433507D01*
X119221789Y-142340506D01*
X118979275Y-142340294D01*
X118755140Y-142432905D01*
X118583507Y-142604238D01*
X118490506Y-142828211D01*
X118490294Y-143070725D01*
X118582905Y-143294860D01*
X118679875Y-143392000D01*
X117160421Y-143392000D01*
X114509696Y-140741275D01*
X114509706Y-140729275D01*
X114417095Y-140505140D01*
X114245762Y-140333507D01*
X114021789Y-140240506D01*
X113779275Y-140240294D01*
X113607998Y-140311064D01*
X113607998Y-138246172D01*
X114921030Y-136933140D01*
X115004238Y-137016493D01*
X115228211Y-137109494D01*
X115324601Y-137109578D01*
X115324601Y-138182601D01*
X115363270Y-138377004D01*
X115473391Y-138541811D01*
X115540304Y-138608724D01*
X115540294Y-138620725D01*
X115632905Y-138844860D01*
X115804238Y-139016493D01*
X116028211Y-139109494D01*
X116270725Y-139109706D01*
X116494860Y-139017095D01*
X116666493Y-138845762D01*
X116759494Y-138621789D01*
X116759706Y-138379275D01*
X116667095Y-138155140D01*
X116495762Y-137983507D01*
X116340601Y-137919079D01*
X116340601Y-137113569D01*
X116521030Y-136933140D01*
X116604238Y-137016493D01*
X116828211Y-137109494D01*
X117070725Y-137109706D01*
X117294860Y-137017095D01*
X117349946Y-136962106D01*
X117404238Y-137016493D01*
X117628211Y-137109494D01*
X117870725Y-137109706D01*
X118094860Y-137017095D01*
X118266493Y-136845762D01*
X118359494Y-136621789D01*
X118359505Y-136608915D01*
X120660421Y-134308000D01*
X122800000Y-134308000D01*
X122994403Y-134269331D01*
X123156848Y-134160788D01*
X123193726Y-134250041D01*
G36*
X124841275Y-140840304D02*
X124829275Y-140840294D01*
X124605140Y-140932905D01*
X124433507Y-141104238D01*
X124340506Y-141328211D01*
X124340294Y-141570725D01*
X124369744Y-141642000D01*
X121418055Y-141642000D01*
X121509494Y-141421789D01*
X121509545Y-141363975D01*
X122847269Y-140026250D01*
X125655330Y-140026250D01*
X124841275Y-140840304D01*
X124841275Y-140840304D01*
G37*
X124841275Y-140840304D02*
X124829275Y-140840294D01*
X124605140Y-140932905D01*
X124433507Y-141104238D01*
X124340506Y-141328211D01*
X124340294Y-141570725D01*
X124369744Y-141642000D01*
X121418055Y-141642000D01*
X121509494Y-141421789D01*
X121509545Y-141363975D01*
X122847269Y-140026250D01*
X125655330Y-140026250D01*
X124841275Y-140840304D01*
G36*
X126906086Y-133893914D02*
X127506086Y-134493914D01*
X127732695Y-134645330D01*
X127965000Y-134691538D01*
X127965000Y-134714250D01*
X128123750Y-134873000D01*
X128873000Y-134873000D01*
X128873000Y-134853000D01*
X129127000Y-134853000D01*
X129127000Y-134873000D01*
X129147000Y-134873000D01*
X129147000Y-135127000D01*
X129127000Y-135127000D01*
X129127000Y-135147000D01*
X128873000Y-135147000D01*
X128873000Y-135127000D01*
X128123750Y-135127000D01*
X127965000Y-135285750D01*
X127965000Y-135501310D01*
X128061673Y-135734699D01*
X128068974Y-135742000D01*
X127604240Y-135742000D01*
X127595762Y-135733507D01*
X127371789Y-135640506D01*
X127129275Y-135640294D01*
X126905140Y-135732905D01*
X126733507Y-135904238D01*
X126640506Y-136128211D01*
X126640294Y-136370725D01*
X126732905Y-136594860D01*
X126904238Y-136766493D01*
X127128211Y-136859494D01*
X127370725Y-136859706D01*
X127594860Y-136767095D01*
X127603971Y-136758000D01*
X128324553Y-136758000D01*
X126008802Y-139073750D01*
X123094670Y-139073750D01*
X125076609Y-137091812D01*
X125186730Y-136927005D01*
X125200116Y-136859706D01*
X125225399Y-136732601D01*
X125225399Y-135378771D01*
X126827647Y-133776523D01*
X126906086Y-133893914D01*
X126906086Y-133893914D01*
G37*
X126906086Y-133893914D02*
X127506086Y-134493914D01*
X127732695Y-134645330D01*
X127965000Y-134691538D01*
X127965000Y-134714250D01*
X128123750Y-134873000D01*
X128873000Y-134873000D01*
X128873000Y-134853000D01*
X129127000Y-134853000D01*
X129127000Y-134873000D01*
X129147000Y-134873000D01*
X129147000Y-135127000D01*
X129127000Y-135127000D01*
X129127000Y-135147000D01*
X128873000Y-135147000D01*
X128873000Y-135127000D01*
X128123750Y-135127000D01*
X127965000Y-135285750D01*
X127965000Y-135501310D01*
X128061673Y-135734699D01*
X128068974Y-135742000D01*
X127604240Y-135742000D01*
X127595762Y-135733507D01*
X127371789Y-135640506D01*
X127129275Y-135640294D01*
X126905140Y-135732905D01*
X126733507Y-135904238D01*
X126640506Y-136128211D01*
X126640294Y-136370725D01*
X126732905Y-136594860D01*
X126904238Y-136766493D01*
X127128211Y-136859494D01*
X127370725Y-136859706D01*
X127594860Y-136767095D01*
X127603971Y-136758000D01*
X128324553Y-136758000D01*
X126008802Y-139073750D01*
X123094670Y-139073750D01*
X125076609Y-137091812D01*
X125186730Y-136927005D01*
X125200116Y-136859706D01*
X125225399Y-136732601D01*
X125225399Y-135378771D01*
X126827647Y-133776523D01*
X126906086Y-133893914D01*
G36*
X135451723Y-135741999D02*
X131007909Y-135742000D01*
X131048659Y-135733894D01*
X131174686Y-135649686D01*
X131258894Y-135523659D01*
X131288464Y-135375000D01*
X131288464Y-135109634D01*
X131370725Y-135109706D01*
X131463190Y-135071500D01*
X136122221Y-135071500D01*
X135451723Y-135741999D01*
X135451723Y-135741999D01*
G37*
X135451723Y-135741999D02*
X131007909Y-135742000D01*
X131048659Y-135733894D01*
X131174686Y-135649686D01*
X131258894Y-135523659D01*
X131288464Y-135375000D01*
X131288464Y-135109634D01*
X131370725Y-135109706D01*
X131463190Y-135071500D01*
X136122221Y-135071500D01*
X135451723Y-135741999D01*
G36*
X129373751Y-129407829D02*
X129250927Y-129432260D01*
X129086120Y-129542381D01*
X124327404Y-134301097D01*
X124306274Y-134249959D01*
X124359494Y-134121789D01*
X124359706Y-133879275D01*
X124267095Y-133655140D01*
X124095762Y-133483507D01*
X123911447Y-133406973D01*
X129093021Y-128225399D01*
X130556181Y-128225399D01*
X129373751Y-129407829D01*
X129373751Y-129407829D01*
G37*
X129373751Y-129407829D02*
X129250927Y-129432260D01*
X129086120Y-129542381D01*
X124327404Y-134301097D01*
X124306274Y-134249959D01*
X124359494Y-134121789D01*
X124359706Y-133879275D01*
X124267095Y-133655140D01*
X124095762Y-133483507D01*
X123911447Y-133406973D01*
X129093021Y-128225399D01*
X130556181Y-128225399D01*
X129373751Y-129407829D01*
G36*
X123992000Y-130289580D02*
X121906979Y-132374601D01*
X121127013Y-132374601D01*
X121127096Y-132279266D01*
X121034485Y-132055131D01*
X120863152Y-131883498D01*
X120639179Y-131790497D01*
X120609609Y-131790471D01*
X120609706Y-131679275D01*
X120517095Y-131455140D01*
X120345762Y-131283507D01*
X120121789Y-131190506D01*
X119908000Y-131190319D01*
X119908000Y-125809520D01*
X120120725Y-125809706D01*
X120344860Y-125717095D01*
X120516493Y-125545762D01*
X120609494Y-125321789D01*
X120609706Y-125079275D01*
X120535563Y-124899836D01*
X120609494Y-124721789D01*
X120609706Y-124479275D01*
X120517095Y-124255140D01*
X120345762Y-124083507D01*
X120121789Y-123990506D01*
X119908000Y-123990319D01*
X119908000Y-119410422D01*
X123992000Y-115326422D01*
X123992000Y-130289580D01*
X123992000Y-130289580D01*
G37*
X123992000Y-130289580D02*
X121906979Y-132374601D01*
X121127013Y-132374601D01*
X121127096Y-132279266D01*
X121034485Y-132055131D01*
X120863152Y-131883498D01*
X120639179Y-131790497D01*
X120609609Y-131790471D01*
X120609706Y-131679275D01*
X120517095Y-131455140D01*
X120345762Y-131283507D01*
X120121789Y-131190506D01*
X119908000Y-131190319D01*
X119908000Y-125809520D01*
X120120725Y-125809706D01*
X120344860Y-125717095D01*
X120516493Y-125545762D01*
X120609494Y-125321789D01*
X120609706Y-125079275D01*
X120535563Y-124899836D01*
X120609494Y-124721789D01*
X120609706Y-124479275D01*
X120517095Y-124255140D01*
X120345762Y-124083507D01*
X120121789Y-123990506D01*
X119908000Y-123990319D01*
X119908000Y-119410422D01*
X123992000Y-115326422D01*
X123992000Y-130289580D01*
G36*
X134492000Y-128200000D02*
X134492000Y-128245760D01*
X134483507Y-128254238D01*
X134390506Y-128478211D01*
X134390495Y-128491085D01*
X134123391Y-128758189D01*
X134013270Y-128922996D01*
X133974601Y-129117399D01*
X133974601Y-129374601D01*
X133231649Y-129374601D01*
X133083287Y-129404112D01*
X133037245Y-129413270D01*
X132872438Y-129523391D01*
X132621229Y-129774601D01*
X130443819Y-129774601D01*
X132094386Y-128124034D01*
X134453921Y-128124034D01*
X134509302Y-128113018D01*
X134492000Y-128200000D01*
X134492000Y-128200000D01*
G37*
X134492000Y-128200000D02*
X134492000Y-128245760D01*
X134483507Y-128254238D01*
X134390506Y-128478211D01*
X134390495Y-128491085D01*
X134123391Y-128758189D01*
X134013270Y-128922996D01*
X133974601Y-129117399D01*
X133974601Y-129374601D01*
X133231649Y-129374601D01*
X133083287Y-129404112D01*
X133037245Y-129413270D01*
X132872438Y-129523391D01*
X132621229Y-129774601D01*
X130443819Y-129774601D01*
X132094386Y-128124034D01*
X134453921Y-128124034D01*
X134509302Y-128113018D01*
X134492000Y-128200000D01*
G36*
X133054238Y-125116493D02*
X133183157Y-125170025D01*
X133093963Y-125259063D01*
X133000962Y-125483036D01*
X133000750Y-125725550D01*
X133093361Y-125949685D01*
X133264694Y-126121318D01*
X133488667Y-126214319D01*
X133501541Y-126214330D01*
X134221001Y-126933790D01*
X134221001Y-127108034D01*
X132308876Y-127108034D01*
X132327102Y-127016409D01*
X132327101Y-127016404D01*
X132327101Y-125629159D01*
X132880009Y-125076250D01*
X133014065Y-125076250D01*
X133054238Y-125116493D01*
X133054238Y-125116493D01*
G37*
X133054238Y-125116493D02*
X133183157Y-125170025D01*
X133093963Y-125259063D01*
X133000962Y-125483036D01*
X133000750Y-125725550D01*
X133093361Y-125949685D01*
X133264694Y-126121318D01*
X133488667Y-126214319D01*
X133501541Y-126214330D01*
X134221001Y-126933790D01*
X134221001Y-127108034D01*
X132308876Y-127108034D01*
X132327102Y-127016409D01*
X132327101Y-127016404D01*
X132327101Y-125629159D01*
X132880009Y-125076250D01*
X133014065Y-125076250D01*
X133054238Y-125116493D01*
G36*
X110028500Y-141420277D02*
X108174500Y-139566276D01*
X108174500Y-132792064D01*
X110016000Y-132792064D01*
X110028500Y-132789578D01*
X110028500Y-141420277D01*
X110028500Y-141420277D01*
G37*
X110028500Y-141420277D02*
X108174500Y-139566276D01*
X108174500Y-132792064D01*
X110016000Y-132792064D01*
X110028500Y-132789578D01*
X110028500Y-141420277D01*
M02*
