G04 #@! TF.FileFunction,Copper,L3,Inr*
%FSLAX46Y46*%
G04 Gerber Fmt 4.6, Leading zero omitted, Abs format (unit mm)*
G04 Created by KiCad (PCBNEW 4.X.X-debug) date Sat Sep 24 21:23:53 2016*
%MOMM*%
%LPD*%
G01*
G04 APERTURE LIST*
%ADD10C,0.100000*%
%ADD11C,0.550000*%
%ADD12R,2.032000X1.727200*%
%ADD13O,2.032000X1.727200*%
%ADD14R,1.727200X1.727200*%
%ADD15O,1.727200X1.727200*%
%ADD16R,2.000000X2.000000*%
%ADD17C,2.000000*%
%ADD18R,3.900000X3.900000*%
%ADD19R,3.800000X3.800000*%
%ADD20R,3.700000X3.700000*%
%ADD21C,0.457200*%
%ADD22C,0.381000*%
%ADD23C,0.635000*%
%ADD24C,0.254000*%
G04 APERTURE END LIST*
D10*
D11*
X133400000Y-116775000D03*
X132500000Y-116775000D03*
X134300000Y-116775000D03*
X133300000Y-127087033D03*
X134200000Y-127087033D03*
X132400000Y-127087033D03*
D12*
X109000000Y-131540000D03*
D13*
X109000000Y-129000000D03*
X109000000Y-126460000D03*
D14*
X103175000Y-140640000D03*
D15*
X105715000Y-140640000D03*
X103175000Y-143180000D03*
X105715000Y-143180000D03*
X103175000Y-145720000D03*
X105715000Y-145720000D03*
D16*
X103810000Y-116510000D03*
D17*
X103810000Y-113970000D03*
D16*
X103810000Y-121590000D03*
D17*
X103810000Y-119050000D03*
D18*
X112299860Y-106500000D03*
D19*
X105799860Y-106500000D03*
D20*
X109049860Y-111000000D03*
D21*
X126400000Y-115000000D03*
X128400000Y-121200000D03*
X126800000Y-122800000D03*
X136000000Y-128400000D03*
X137000000Y-127400000D03*
X135000000Y-129400000D03*
X134000000Y-130400000D03*
X138000000Y-126400000D03*
X140000000Y-124400000D03*
X139000000Y-125400000D03*
X132600000Y-129000000D03*
X132600000Y-129800000D03*
X132600000Y-130800000D03*
X136200000Y-130400000D03*
X140200000Y-126400000D03*
X137200000Y-129400000D03*
X139200000Y-127400000D03*
X138200000Y-128400000D03*
X142200000Y-124400000D03*
X141200000Y-125400000D03*
X134000000Y-129400000D03*
X131600000Y-129000000D03*
X128600000Y-126200000D03*
X130600000Y-128200000D03*
X129600000Y-127200000D03*
X128400000Y-120200000D03*
X128400000Y-119200000D03*
X128400000Y-118200000D03*
X128400000Y-123200000D03*
X128400000Y-124200000D03*
X128400000Y-125200000D03*
X136800000Y-116600000D03*
X137800000Y-117600000D03*
X138400000Y-121200000D03*
X138400000Y-122200000D03*
X138400000Y-120200000D03*
X138400000Y-119200000D03*
X138400000Y-118200000D03*
X138400000Y-125200000D03*
X138400000Y-124200000D03*
X138400000Y-123200000D03*
X135600000Y-121200000D03*
X135600000Y-123200000D03*
X135600000Y-120200000D03*
X135600000Y-118200000D03*
X135600000Y-119200000D03*
X135600000Y-124200000D03*
X135600000Y-125200000D03*
X135600000Y-126400000D03*
X136800000Y-121000000D03*
X136800000Y-120000000D03*
X136800000Y-119000000D03*
X136800000Y-123000000D03*
X136800000Y-124000000D03*
X136800000Y-125200000D03*
X135200000Y-117200000D03*
X136200000Y-118200000D03*
X130000000Y-116800000D03*
X129000000Y-117800000D03*
X131400000Y-115000000D03*
X132400000Y-115000000D03*
X134400000Y-115000000D03*
X135400000Y-115000000D03*
X143000000Y-120600000D03*
X143000000Y-121350000D03*
X144000000Y-120600000D03*
X144000000Y-121350000D03*
X146000000Y-120600000D03*
X145000000Y-121350000D03*
X145000000Y-120600000D03*
X146000000Y-121350000D03*
X143000000Y-124550000D03*
X143000000Y-125400000D03*
X144000000Y-124550000D03*
X144000000Y-125400000D03*
X146000000Y-124550000D03*
X145000000Y-125400000D03*
X145000000Y-124550000D03*
X146000000Y-125400000D03*
X134000000Y-121000000D03*
X134000000Y-120000000D03*
X134000000Y-119000000D03*
X134000000Y-124000000D03*
X134000000Y-123000000D03*
X134050000Y-125200000D03*
X132800000Y-121000000D03*
X132800000Y-120000000D03*
X132800000Y-119000000D03*
X132800000Y-124000000D03*
X132800000Y-123000000D03*
X132750000Y-125200000D03*
X131200000Y-121000000D03*
X131200000Y-122000000D03*
X131200000Y-123000000D03*
X131200000Y-118000000D03*
X131200000Y-119000000D03*
X131200000Y-120000000D03*
X131200000Y-124000000D03*
X131200000Y-125000000D03*
X131200000Y-126200000D03*
X130000000Y-122000000D03*
X130000000Y-123000000D03*
X130000000Y-124000000D03*
X130000000Y-119000000D03*
X130000000Y-120000000D03*
X130000000Y-121000000D03*
X130000000Y-125000000D03*
X131600000Y-117200000D03*
X130600000Y-118200000D03*
X131400000Y-126800000D03*
X130400000Y-125800000D03*
X134200000Y-112400000D03*
X134200000Y-114400000D03*
X134200000Y-113400000D03*
X132600000Y-114000000D03*
X141000000Y-106000000D03*
X140000000Y-106000000D03*
X142000000Y-106000000D03*
X139000000Y-106000000D03*
X138000000Y-106000000D03*
X138000000Y-107400000D03*
X139000000Y-107400000D03*
X141600000Y-107400000D03*
X135200000Y-107400000D03*
X134200000Y-108400000D03*
X134800000Y-106000000D03*
X133000000Y-107200000D03*
X134000000Y-106200000D03*
X138750000Y-110500000D03*
X139000000Y-109400000D03*
X139000000Y-108400000D03*
X140600000Y-107400000D03*
X140600000Y-108400000D03*
X140600000Y-109400000D03*
X143000000Y-104400000D03*
X143000000Y-103400000D03*
X144000000Y-103400000D03*
X143000000Y-105150000D03*
X146000000Y-103400000D03*
X145000000Y-103400000D03*
X146000000Y-105150000D03*
X144000000Y-105150000D03*
X146000000Y-104400000D03*
X145000000Y-105150000D03*
X145000000Y-104400000D03*
X144000000Y-104400000D03*
X143000000Y-110200000D03*
X144000000Y-110200000D03*
X146000000Y-110200000D03*
X146000000Y-109200000D03*
X145000000Y-110200000D03*
X146000000Y-108450000D03*
X143000000Y-108450000D03*
X143000000Y-109200000D03*
X145000000Y-109200000D03*
X145000000Y-108450000D03*
X144000000Y-109200000D03*
X144000000Y-108450000D03*
X143200000Y-139800000D03*
X144200000Y-139800000D03*
X144200000Y-140800000D03*
X144200000Y-141550000D03*
X143200000Y-140800000D03*
X143200000Y-141550000D03*
X146200000Y-141550000D03*
X145200000Y-141550000D03*
X146200000Y-139800000D03*
X146200000Y-140800000D03*
X145200000Y-140800000D03*
X145200000Y-139800000D03*
X143200000Y-145600000D03*
X145200000Y-144850000D03*
X144200000Y-144850000D03*
X145200000Y-145600000D03*
X144200000Y-145600000D03*
X145200000Y-146600000D03*
X143200000Y-146600000D03*
X144200000Y-146600000D03*
X146200000Y-144850000D03*
X143200000Y-144850000D03*
X146200000Y-145600000D03*
X146200000Y-146600000D03*
X144000000Y-119600000D03*
X143000000Y-119600000D03*
X145000000Y-119600000D03*
X146000000Y-119600000D03*
X143000000Y-126400000D03*
X144000000Y-126400000D03*
X146000000Y-126400000D03*
X145000000Y-126400000D03*
X147000000Y-103400000D03*
X147000000Y-119600000D03*
X147000000Y-125400000D03*
X147000000Y-110200000D03*
X147000000Y-109200000D03*
X147000000Y-124550000D03*
X147000000Y-108450000D03*
X147000000Y-105150000D03*
X147000000Y-120600000D03*
X147000000Y-121350000D03*
X147000000Y-104400000D03*
X147000000Y-126400000D03*
X142000000Y-108450000D03*
X122600000Y-101200000D03*
X121600000Y-101200000D03*
X119600000Y-101200000D03*
X120600000Y-101200000D03*
X118600000Y-101200000D03*
X123600000Y-101200000D03*
X127600000Y-101200000D03*
X126600000Y-101200000D03*
X124600000Y-101200000D03*
X125600000Y-101200000D03*
X129600000Y-101200000D03*
X133600000Y-101200000D03*
X132600000Y-101200000D03*
X131600000Y-101200000D03*
X130600000Y-101200000D03*
X128600000Y-101200000D03*
X135600000Y-101200000D03*
X134600000Y-101200000D03*
X136600000Y-101200000D03*
X148600000Y-101200000D03*
X146600000Y-101200000D03*
X147600000Y-101200000D03*
X143600000Y-101200000D03*
X144600000Y-101200000D03*
X145600000Y-101200000D03*
X142600000Y-101200000D03*
X141600000Y-101200000D03*
X139600000Y-101200000D03*
X140600000Y-101200000D03*
X137600000Y-101200000D03*
X138600000Y-101200000D03*
X103600000Y-101200000D03*
X102600000Y-101200000D03*
X101600000Y-101200000D03*
X105600000Y-101200000D03*
X104600000Y-101200000D03*
X106600000Y-101200000D03*
X116600000Y-101200000D03*
X117600000Y-101200000D03*
X113600000Y-101200000D03*
X114600000Y-101200000D03*
X115600000Y-101200000D03*
X112600000Y-101200000D03*
X111600000Y-101200000D03*
X109600000Y-101200000D03*
X110600000Y-101200000D03*
X107600000Y-101200000D03*
X108600000Y-101200000D03*
X121200000Y-149400000D03*
X120200000Y-149400000D03*
X118200000Y-149400000D03*
X119200000Y-149400000D03*
X117200000Y-149400000D03*
X116200000Y-149400000D03*
X115200000Y-149400000D03*
X104200000Y-149400000D03*
X103200000Y-149400000D03*
X102200000Y-149400000D03*
X105200000Y-149400000D03*
X109200000Y-149400000D03*
X112200000Y-149400000D03*
X111200000Y-149400000D03*
X110200000Y-149400000D03*
X114200000Y-149400000D03*
X113200000Y-149400000D03*
X106200000Y-149400000D03*
X108200000Y-149400000D03*
X107200000Y-149400000D03*
X123200000Y-149400000D03*
X122200000Y-149400000D03*
X124200000Y-149400000D03*
X125200000Y-149400000D03*
X127200000Y-149400000D03*
X126200000Y-149400000D03*
X129200000Y-149400000D03*
X130200000Y-149400000D03*
X128200000Y-149400000D03*
X131200000Y-149400000D03*
X143200000Y-149400000D03*
X142200000Y-149400000D03*
X141200000Y-149400000D03*
X139200000Y-149400000D03*
X140200000Y-149400000D03*
X146200000Y-149400000D03*
X147200000Y-149400000D03*
X144200000Y-149400000D03*
X145200000Y-149400000D03*
X148200000Y-149400000D03*
X136200000Y-149400000D03*
X132200000Y-149400000D03*
X134200000Y-149400000D03*
X133200000Y-149400000D03*
X135200000Y-149400000D03*
X137200000Y-149400000D03*
X138200000Y-149400000D03*
X101200000Y-137400000D03*
X101200000Y-139400000D03*
X101200000Y-132400000D03*
X101200000Y-135400000D03*
X101200000Y-133400000D03*
X101200000Y-131400000D03*
X101200000Y-129400000D03*
X101200000Y-142400000D03*
X101200000Y-149400000D03*
X101200000Y-141400000D03*
X101200000Y-140400000D03*
X101200000Y-146400000D03*
X101200000Y-147400000D03*
X101200000Y-144400000D03*
X101200000Y-143400000D03*
X101200000Y-148400000D03*
X101200000Y-145400000D03*
X101200000Y-126400000D03*
X101200000Y-127400000D03*
X101200000Y-124400000D03*
X101200000Y-123400000D03*
X101200000Y-125400000D03*
X101200000Y-119400000D03*
X101200000Y-122400000D03*
X101200000Y-120400000D03*
X101200000Y-121400000D03*
X101200000Y-105400000D03*
X101200000Y-106400000D03*
X101200000Y-107400000D03*
X101200000Y-102400000D03*
X101200000Y-103400000D03*
X101200000Y-104400000D03*
X101200000Y-108400000D03*
X101200000Y-110400000D03*
X101200000Y-109400000D03*
X101200000Y-111400000D03*
X101200000Y-112400000D03*
X101200000Y-113400000D03*
X101200000Y-115400000D03*
X101200000Y-114400000D03*
X101200000Y-117400000D03*
X101200000Y-118400000D03*
X101200000Y-116400000D03*
X148600000Y-102200000D03*
X148600000Y-113200000D03*
X148600000Y-116200000D03*
X148600000Y-112200000D03*
X148600000Y-115200000D03*
X148600000Y-114200000D03*
X148600000Y-111200000D03*
X148600000Y-117200000D03*
X148600000Y-118200000D03*
X148600000Y-132200000D03*
X148600000Y-128200000D03*
X148600000Y-130200000D03*
X148600000Y-129200000D03*
X148600000Y-131200000D03*
X148600000Y-134200000D03*
X148600000Y-133200000D03*
X148600000Y-136200000D03*
X148600000Y-135200000D03*
X148600000Y-138200000D03*
X148600000Y-137200000D03*
X147800000Y-138800000D03*
X148600000Y-148600000D03*
X148600000Y-147600000D03*
X148600000Y-127200000D03*
X125200000Y-146400000D03*
X125200000Y-135400000D03*
X125200000Y-140400000D03*
X125200000Y-138400000D03*
X125200000Y-137400000D03*
X125200000Y-136400000D03*
X125200000Y-143250000D03*
X125200000Y-108400000D03*
X125200000Y-109400000D03*
X125200000Y-111400000D03*
X125200000Y-110400000D03*
X125200000Y-107400000D03*
X124600000Y-103200000D03*
X124600000Y-102200000D03*
X125200000Y-120400000D03*
X125200000Y-122400000D03*
X125200000Y-119400000D03*
X125200000Y-121400000D03*
X125200000Y-123400000D03*
X125200000Y-129400000D03*
X125200000Y-133400000D03*
X125200000Y-115400000D03*
X125200000Y-116400000D03*
X125200000Y-117400000D03*
X125200000Y-125400000D03*
X125200000Y-126400000D03*
X125200000Y-128400000D03*
X125200000Y-127400000D03*
X125200000Y-124400000D03*
X111750000Y-130000000D03*
X111750000Y-128000000D03*
X108550000Y-114200000D03*
X110550000Y-114200000D03*
X113550000Y-132000000D03*
X115550000Y-132000000D03*
X114550000Y-133000000D03*
X113550000Y-134000000D03*
X115550000Y-134000000D03*
X110600000Y-119800000D03*
X111750000Y-134000000D03*
X111750000Y-132000000D03*
X102150000Y-129400000D03*
X103150000Y-128400000D03*
X101150000Y-128400000D03*
X102150000Y-127400000D03*
X101150000Y-132400000D03*
X102150000Y-135400000D03*
X102150000Y-133400000D03*
X101150000Y-134400000D03*
X103150000Y-134400000D03*
X103150000Y-132400000D03*
X106150000Y-139400000D03*
X106150000Y-137200000D03*
X105150000Y-136400000D03*
X105150000Y-138200000D03*
X104150000Y-137400000D03*
X104150000Y-139200000D03*
X106150000Y-133400000D03*
X106150000Y-135400000D03*
X104150000Y-135400000D03*
X105150000Y-132400000D03*
X104150000Y-133400000D03*
X105150000Y-134400000D03*
X103150000Y-136400000D03*
X103150000Y-138400000D03*
X102150000Y-137400000D03*
X101150000Y-138400000D03*
X102150000Y-139200000D03*
X101150000Y-136400000D03*
X105150000Y-128400000D03*
X104150000Y-127400000D03*
X104150000Y-129400000D03*
X106150000Y-127400000D03*
X104150000Y-125400000D03*
X105150000Y-124400000D03*
X106150000Y-125400000D03*
X105150000Y-126400000D03*
X103150000Y-124400000D03*
X103150000Y-126400000D03*
X106150000Y-131400000D03*
X104150000Y-131400000D03*
X106150000Y-129400000D03*
X105150000Y-130400000D03*
X103150000Y-130400000D03*
X101150000Y-130400000D03*
X102150000Y-131400000D03*
X102150000Y-125400000D03*
X114350000Y-112200000D03*
X116350000Y-112200000D03*
X115350000Y-113200000D03*
X116350000Y-114200000D03*
X114350000Y-114200000D03*
X113350000Y-111200000D03*
X113350000Y-113200000D03*
X112350000Y-110200000D03*
X112350000Y-112200000D03*
X113350000Y-109200000D03*
X115350000Y-109200000D03*
X115350000Y-111200000D03*
X114350000Y-110200000D03*
X112350000Y-114200000D03*
X111350000Y-113200000D03*
X111350000Y-111200000D03*
X111350000Y-109200000D03*
X104350000Y-110000000D03*
X106350000Y-110000000D03*
X105350000Y-111000000D03*
X106350000Y-112000000D03*
X104350000Y-112000000D03*
X102350000Y-112000000D03*
X103350000Y-111000000D03*
X102350000Y-110000000D03*
X103350000Y-109000000D03*
X105350000Y-109000000D03*
X108150000Y-103800000D03*
X106150000Y-103800000D03*
X105150000Y-102800000D03*
X107150000Y-102800000D03*
X108150000Y-101800000D03*
X104150000Y-103800000D03*
X104150000Y-101800000D03*
X106150000Y-101800000D03*
X110150000Y-101800000D03*
X111150000Y-102800000D03*
X110150000Y-103800000D03*
X109150000Y-102800000D03*
X114150000Y-101800000D03*
X114150000Y-103800000D03*
X115150000Y-102800000D03*
X112150000Y-103800000D03*
X113150000Y-102800000D03*
X112150000Y-101800000D03*
X117150000Y-102800000D03*
X118150000Y-103800000D03*
X116150000Y-101800000D03*
X119150000Y-102800000D03*
X118150000Y-101800000D03*
X116150000Y-103800000D03*
X127150000Y-103000000D03*
X126150000Y-102000000D03*
X128150000Y-102000000D03*
X131150000Y-103000000D03*
X133150000Y-103000000D03*
X132150000Y-102000000D03*
X129150000Y-103000000D03*
X130150000Y-102000000D03*
X138150000Y-102000000D03*
X137150000Y-102800000D03*
X134150000Y-102000000D03*
X136150000Y-102000000D03*
X141150000Y-103000000D03*
X139150000Y-103000000D03*
X140150000Y-102000000D03*
X124150000Y-112400000D03*
X123150000Y-113400000D03*
X124150000Y-110400000D03*
X123150000Y-111400000D03*
X123150000Y-107400000D03*
X124150000Y-108400000D03*
X123150000Y-109400000D03*
X127550000Y-124800000D03*
X126550000Y-125800000D03*
X126550000Y-123800000D03*
X127550000Y-126800000D03*
X126550000Y-127800000D03*
X126800000Y-121800000D03*
X128600000Y-129400000D03*
X126600000Y-131400000D03*
X127600000Y-130400000D03*
X119550000Y-137600000D03*
X120550000Y-136600000D03*
X121550000Y-137600000D03*
X122550000Y-136600000D03*
X140200000Y-144000000D03*
X138200000Y-146000000D03*
X141200000Y-143000000D03*
X139200000Y-145000000D03*
X141000000Y-145400000D03*
X139000000Y-147400000D03*
X142000000Y-144400000D03*
X140000000Y-146400000D03*
X137200000Y-147800000D03*
X135200000Y-147800000D03*
X134200000Y-147800000D03*
X136200000Y-147800000D03*
X132200000Y-147800000D03*
X133200000Y-147800000D03*
X136200000Y-146000000D03*
X137200000Y-146000000D03*
X135200000Y-146000000D03*
X133200000Y-146000000D03*
X138200000Y-147800000D03*
X134200000Y-146000000D03*
X123350000Y-121800000D03*
X121350000Y-125800000D03*
X122350000Y-122800000D03*
X123350000Y-125800000D03*
X123350000Y-123800000D03*
X121350000Y-123800000D03*
X122350000Y-124800000D03*
X123350000Y-127800000D03*
X122350000Y-126800000D03*
X120800000Y-128600000D03*
X121800000Y-129600000D03*
X122800000Y-130600000D03*
X129350000Y-105400000D03*
X130350000Y-106400000D03*
X132350000Y-106400000D03*
X133350000Y-105400000D03*
X131350000Y-105400000D03*
X126550000Y-107600000D03*
X126550000Y-109600000D03*
X127550000Y-106800000D03*
X127550000Y-108600000D03*
X129000000Y-107200000D03*
X141550000Y-105200000D03*
X138550000Y-104200000D03*
X140550000Y-104200000D03*
X139550000Y-105200000D03*
X137800000Y-109600000D03*
X136600000Y-110600000D03*
X136600000Y-112800000D03*
X136600000Y-114400000D03*
X135400000Y-113400000D03*
X142400000Y-102000000D03*
X144400000Y-102000000D03*
X146400000Y-102000000D03*
X119750000Y-103800000D03*
X121750000Y-103800000D03*
X120750000Y-102800000D03*
X122750000Y-102800000D03*
X121750000Y-101800000D03*
X119750000Y-101800000D03*
X106150000Y-123400000D03*
X107150000Y-124400000D03*
X109150000Y-124400000D03*
X108150000Y-123400000D03*
X107150000Y-126400000D03*
X123400000Y-117600000D03*
X122400000Y-118600000D03*
X121400000Y-119600000D03*
X127150000Y-118200000D03*
X127150000Y-120200000D03*
X141950000Y-111200000D03*
X144950000Y-112200000D03*
X145950000Y-113200000D03*
X146950000Y-112200000D03*
X145950000Y-111200000D03*
X143950000Y-115200000D03*
X142950000Y-116200000D03*
X143950000Y-117200000D03*
X142950000Y-118200000D03*
X142950000Y-114200000D03*
X143950000Y-111200000D03*
X142950000Y-112200000D03*
X143950000Y-113200000D03*
X144950000Y-114200000D03*
X145950000Y-115200000D03*
X146950000Y-116200000D03*
X144950000Y-116200000D03*
X146950000Y-114200000D03*
X146950000Y-118200000D03*
X145950000Y-117200000D03*
X144950000Y-118200000D03*
X139750000Y-115000000D03*
X139750000Y-117000000D03*
X139750000Y-119000000D03*
X139750000Y-121000000D03*
X139750000Y-123000000D03*
X143950000Y-128800000D03*
X142950000Y-127800000D03*
X142950000Y-129800000D03*
X145950000Y-128800000D03*
X146950000Y-127800000D03*
X144950000Y-127800000D03*
X144950000Y-129800000D03*
X146950000Y-129800000D03*
X142950000Y-137800000D03*
X142950000Y-135800000D03*
X145950000Y-132800000D03*
X144950000Y-133800000D03*
X146950000Y-133800000D03*
X145950000Y-134800000D03*
X143950000Y-130800000D03*
X146950000Y-131800000D03*
X144950000Y-131800000D03*
X145950000Y-130800000D03*
X144950000Y-137800000D03*
X146950000Y-135800000D03*
X144950000Y-135800000D03*
X146950000Y-137800000D03*
X145950000Y-136800000D03*
X143950000Y-136800000D03*
X139550000Y-128600000D03*
X140650000Y-127550000D03*
X138400000Y-129800000D03*
X140650000Y-129550000D03*
X139550000Y-130600000D03*
X138150000Y-144200000D03*
X136150000Y-144200000D03*
X137150000Y-145200000D03*
X137150000Y-143200000D03*
X139150000Y-141200000D03*
X139150000Y-143200000D03*
X140150000Y-142200000D03*
X140150000Y-140200000D03*
X141150000Y-141200000D03*
X138150000Y-142200000D03*
X141600000Y-146600000D03*
X141150000Y-148200000D03*
X143150000Y-148200000D03*
X145150000Y-148200000D03*
X147150000Y-148200000D03*
X130550000Y-148600000D03*
X132550000Y-148600000D03*
X134550000Y-148600000D03*
X136550000Y-148600000D03*
X138550000Y-148600000D03*
X109150000Y-105600000D03*
X109150000Y-107600000D03*
X102750000Y-102800000D03*
X102750000Y-106800000D03*
X102750000Y-104800000D03*
X121750000Y-146600000D03*
X122750000Y-147600000D03*
X117800000Y-141800000D03*
X116800000Y-140800000D03*
X115800000Y-139800000D03*
X108150000Y-141800000D03*
X108150000Y-147800000D03*
X108150000Y-145800000D03*
X108150000Y-143800000D03*
X102350000Y-148400000D03*
X103350000Y-147400000D03*
X104350000Y-148400000D03*
X142450000Y-130850000D03*
X123000000Y-140400000D03*
X123750000Y-141500000D03*
X121750000Y-141500000D03*
X127000000Y-137400000D03*
X127000000Y-135000000D03*
X140250000Y-134000000D03*
X137750000Y-135500000D03*
X136500000Y-133500000D03*
X132700000Y-133000000D03*
X139200000Y-114200000D03*
X140400000Y-114200072D03*
X121000000Y-134500000D03*
X118000000Y-128750000D03*
X117500000Y-127750000D03*
X120000000Y-129000000D03*
X120000000Y-127750000D03*
X135350000Y-109600000D03*
X135350000Y-110600000D03*
X129850000Y-110600000D03*
X129850000Y-111600000D03*
X135500000Y-112550000D03*
X128300000Y-135000000D03*
X126000000Y-146250000D03*
X129400000Y-145017390D03*
X113750000Y-147250000D03*
X135566257Y-141316257D03*
X139995469Y-111145626D03*
X133287500Y-137112500D03*
X135012500Y-137112500D03*
X135012500Y-135387500D03*
X133287500Y-135387500D03*
X132000000Y-111500000D03*
X133300000Y-111500000D03*
X133300000Y-110200000D03*
X132000000Y-110200000D03*
X109000000Y-134400000D03*
X110500000Y-144550000D03*
X110500000Y-143750000D03*
X120900000Y-138950000D03*
X135250000Y-131500000D03*
X130750000Y-112750000D03*
X138250000Y-131500000D03*
X129500000Y-131500000D03*
X135900000Y-121700000D03*
X136500000Y-122300000D03*
X133700000Y-121700000D03*
X133100000Y-122300000D03*
X130300000Y-121700000D03*
X130900000Y-122300000D03*
X133300000Y-133000000D03*
X134000000Y-133000000D03*
X134900000Y-133000012D03*
X137250000Y-135000000D03*
X127250000Y-136250000D03*
X114850000Y-144200004D03*
X112600000Y-139800000D03*
X131800000Y-107200000D03*
X137750000Y-138000000D03*
X131250000Y-107750000D03*
X113099998Y-141350000D03*
X137250000Y-137500000D03*
X113900000Y-140850000D03*
X135000000Y-139500000D03*
X119100000Y-142950000D03*
X137750000Y-137000000D03*
X120900000Y-142150000D03*
X137250000Y-136500000D03*
X124950000Y-141450000D03*
X132000000Y-139000000D03*
X132880602Y-139000000D03*
X125900000Y-141300000D03*
X131800000Y-114400000D03*
X127000000Y-128800000D03*
X116950000Y-136500000D03*
X135000000Y-114400000D03*
X135000000Y-128600000D03*
X120900000Y-140550000D03*
X120900000Y-139750000D03*
X133681788Y-118244183D03*
X133610456Y-125604825D03*
X133400000Y-119600010D03*
X133400000Y-124600000D03*
X117750000Y-136500000D03*
X132400000Y-108200000D03*
X115350000Y-136500000D03*
X140700000Y-111000000D03*
X120900000Y-141300000D03*
X110600000Y-142000000D03*
X110600000Y-142800000D03*
X120000000Y-124600000D03*
X120000000Y-125200000D03*
X137250000Y-115800000D03*
X128175000Y-115800000D03*
X117800000Y-125000000D03*
X117400000Y-124600000D03*
X123999986Y-146800000D03*
X124599986Y-147400000D03*
X128800000Y-115800000D03*
X138000000Y-115800000D03*
X114250000Y-135500000D03*
X111000000Y-147250000D03*
X118750000Y-148000000D03*
X131250000Y-134500000D03*
X137750000Y-106700000D03*
X120517390Y-132399991D03*
X120000000Y-131800000D03*
X143200000Y-134000000D03*
X144000000Y-134000000D03*
X123750000Y-134500000D03*
X128250000Y-141500000D03*
X127500000Y-141500000D03*
X123750000Y-134000000D03*
X108400000Y-116000000D03*
X118000000Y-129800000D03*
X132100000Y-142300000D03*
X136750000Y-142250000D03*
X137200000Y-111599964D03*
X129250000Y-113200000D03*
X127400000Y-133400000D03*
X128000000Y-134000000D03*
X134450000Y-102950000D03*
X134950000Y-102950000D03*
X137400000Y-108200000D03*
X116150000Y-138500000D03*
D22*
X137750000Y-135500000D02*
X138750000Y-135500000D01*
X138750000Y-135500000D02*
X140250000Y-134000000D01*
X140250000Y-134000000D02*
X137000000Y-134000000D01*
X137000000Y-134000000D02*
X136500000Y-133500000D01*
D23*
X120000000Y-123603810D02*
X120000000Y-124600000D01*
X120000000Y-124600000D02*
X120000000Y-125200000D01*
X128175000Y-115800000D02*
X127803810Y-115800000D01*
X127803810Y-115800000D02*
X120000000Y-123603810D01*
X128800000Y-115800000D02*
X137250000Y-115800000D01*
X137250000Y-115800000D02*
X138000000Y-115800000D01*
X128800000Y-115800000D02*
X128175000Y-115800000D01*
X123999986Y-146800000D02*
X118673101Y-141473115D01*
X118673101Y-141473115D02*
X118673101Y-125873101D01*
X118673101Y-125873101D02*
X117800000Y-125000000D01*
X117400000Y-124600000D02*
X117800000Y-125000000D01*
X123999986Y-146800000D02*
X124371387Y-147171401D01*
X124371387Y-147171401D02*
X124599986Y-147400000D01*
X103175000Y-140640000D02*
X103779010Y-140640000D01*
X103779010Y-140640000D02*
X108919010Y-135500000D01*
X108919010Y-135500000D02*
X113926711Y-135500000D01*
X113926711Y-135500000D02*
X114250000Y-135500000D01*
X118750000Y-148000000D02*
X118750000Y-144703810D01*
X114250000Y-135823289D02*
X114250000Y-135500000D01*
X118750000Y-144703810D02*
X114250000Y-140203810D01*
X114250000Y-140203810D02*
X114250000Y-135823289D01*
X114250000Y-135500000D02*
X111750000Y-138000000D01*
X111750000Y-138000000D02*
X111750000Y-146500000D01*
X111750000Y-146500000D02*
X111228599Y-147021401D01*
X111228599Y-147021401D02*
X111000000Y-147250000D01*
X144000000Y-134000000D02*
X142250000Y-132250000D01*
X142250000Y-132250000D02*
X120990670Y-132250000D01*
X120990670Y-132250000D02*
X120840679Y-132399991D01*
X120840679Y-132399991D02*
X120517390Y-132399991D01*
X120000000Y-131800000D02*
X120517390Y-132317390D01*
X120517390Y-132317390D02*
X120517390Y-132399991D01*
X144000000Y-134000000D02*
X143200000Y-134000000D01*
X123750000Y-134500000D02*
X123750000Y-137946190D01*
X123750000Y-137946190D02*
X127303810Y-141500000D01*
X127303810Y-141500000D02*
X127926711Y-141500000D01*
X127926711Y-141500000D02*
X128250000Y-141500000D01*
X123750000Y-134000000D02*
X123750000Y-134500000D01*
X127500000Y-141500000D02*
X128250000Y-141500000D01*
D22*
X132150000Y-142250000D02*
X132100000Y-142300000D01*
X136750000Y-142250000D02*
X132150000Y-142250000D01*
X136876711Y-111599964D02*
X137200000Y-111599964D01*
X134191806Y-111599964D02*
X136876711Y-111599964D01*
X132363171Y-113428599D02*
X134191806Y-111599964D01*
X129478599Y-113428599D02*
X132363171Y-113428599D01*
X129250000Y-113200000D02*
X129478599Y-113428599D01*
D24*
G36*
X149044000Y-102544000D02*
X147500000Y-102544000D01*
X147325496Y-102578711D01*
X147177559Y-102677559D01*
X147078711Y-102825496D01*
X147044000Y-103000000D01*
X147044000Y-110500000D01*
X147078711Y-110674504D01*
X147177559Y-110822441D01*
X147325496Y-110921289D01*
X147500000Y-110956000D01*
X149044000Y-110956000D01*
X149044000Y-118794000D01*
X147500000Y-118794000D01*
X147325496Y-118828711D01*
X147177559Y-118927559D01*
X147078711Y-119075496D01*
X147044000Y-119250000D01*
X147044000Y-126750000D01*
X147078711Y-126924504D01*
X147177559Y-127072441D01*
X147325496Y-127171289D01*
X147500000Y-127206000D01*
X149044000Y-127206000D01*
X149044000Y-139044000D01*
X147500000Y-139044000D01*
X147325496Y-139078711D01*
X147177559Y-139177559D01*
X147078711Y-139325496D01*
X147044000Y-139500000D01*
X147044000Y-147000000D01*
X147078711Y-147174504D01*
X147177559Y-147322441D01*
X147325496Y-147421289D01*
X147500000Y-147456000D01*
X149044000Y-147456000D01*
X149044000Y-149544000D01*
X100956000Y-149544000D01*
X100956000Y-145720000D01*
X101906017Y-145720000D01*
X102000757Y-146196288D01*
X102270552Y-146600065D01*
X102674329Y-146869860D01*
X103150617Y-146964600D01*
X103199383Y-146964600D01*
X103675671Y-146869860D01*
X104079448Y-146600065D01*
X104349243Y-146196288D01*
X104443983Y-145720000D01*
X104446017Y-145720000D01*
X104540757Y-146196288D01*
X104810552Y-146600065D01*
X105214329Y-146869860D01*
X105690617Y-146964600D01*
X105739383Y-146964600D01*
X106215671Y-146869860D01*
X106619448Y-146600065D01*
X106889243Y-146196288D01*
X106983983Y-145720000D01*
X106889243Y-145243712D01*
X106619448Y-144839935D01*
X106215671Y-144570140D01*
X105739383Y-144475400D01*
X105690617Y-144475400D01*
X105214329Y-144570140D01*
X104810552Y-144839935D01*
X104540757Y-145243712D01*
X104446017Y-145720000D01*
X104443983Y-145720000D01*
X104349243Y-145243712D01*
X104079448Y-144839935D01*
X103675671Y-144570140D01*
X103199383Y-144475400D01*
X103150617Y-144475400D01*
X102674329Y-144570140D01*
X102270552Y-144839935D01*
X102000757Y-145243712D01*
X101906017Y-145720000D01*
X100956000Y-145720000D01*
X100956000Y-143780054D01*
X102146670Y-143780054D01*
X102227074Y-143900460D01*
X102574939Y-144208374D01*
X102743200Y-144207833D01*
X102743200Y-143611800D01*
X103606800Y-143611800D01*
X103606800Y-144207833D01*
X103775061Y-144208374D01*
X104122926Y-143900460D01*
X104203330Y-143780054D01*
X104196321Y-143611800D01*
X103606800Y-143611800D01*
X102743200Y-143611800D01*
X102153679Y-143611800D01*
X102146670Y-143780054D01*
X100956000Y-143780054D01*
X100956000Y-143180000D01*
X104446017Y-143180000D01*
X104540757Y-143656288D01*
X104810552Y-144060065D01*
X105214329Y-144329860D01*
X105690617Y-144424600D01*
X105739383Y-144424600D01*
X106215671Y-144329860D01*
X106619448Y-144060065D01*
X106889243Y-143656288D01*
X106983983Y-143180000D01*
X106889243Y-142703712D01*
X106619448Y-142299935D01*
X106215671Y-142030140D01*
X105739383Y-141935400D01*
X105690617Y-141935400D01*
X105214329Y-142030140D01*
X104810552Y-142299935D01*
X104540757Y-142703712D01*
X104446017Y-143180000D01*
X100956000Y-143180000D01*
X100956000Y-142579946D01*
X102146670Y-142579946D01*
X102153679Y-142748200D01*
X102743200Y-142748200D01*
X102743200Y-142152167D01*
X103606800Y-142152167D01*
X103606800Y-142748200D01*
X104196321Y-142748200D01*
X104203330Y-142579946D01*
X104122926Y-142459540D01*
X103775061Y-142151626D01*
X103606800Y-142152167D01*
X102743200Y-142152167D01*
X102574939Y-142151626D01*
X102227074Y-142459540D01*
X102146670Y-142579946D01*
X100956000Y-142579946D01*
X100956000Y-139776400D01*
X101922936Y-139776400D01*
X101922936Y-141503600D01*
X101952506Y-141652259D01*
X102036714Y-141778286D01*
X102162741Y-141862494D01*
X102311400Y-141892064D01*
X104038600Y-141892064D01*
X104187259Y-141862494D01*
X104313286Y-141778286D01*
X104397494Y-141652259D01*
X104427064Y-141503600D01*
X104427064Y-140979774D01*
X104499245Y-140907593D01*
X104540757Y-141116288D01*
X104810552Y-141520065D01*
X105214329Y-141789860D01*
X105690617Y-141884600D01*
X105739383Y-141884600D01*
X106215671Y-141789860D01*
X106619448Y-141520065D01*
X106889243Y-141116288D01*
X106983983Y-140640000D01*
X106889243Y-140163712D01*
X106619448Y-139759935D01*
X106215671Y-139490140D01*
X105966301Y-139440537D01*
X109208338Y-136198500D01*
X112563672Y-136198500D01*
X111256086Y-137506086D01*
X111104670Y-137732695D01*
X111104670Y-137732696D01*
X111051500Y-138000000D01*
X111051500Y-141589430D01*
X110945762Y-141483507D01*
X110721789Y-141390506D01*
X110479275Y-141390294D01*
X110255140Y-141482905D01*
X110083507Y-141654238D01*
X109990506Y-141878211D01*
X109990294Y-142120725D01*
X110082905Y-142344860D01*
X110137894Y-142399946D01*
X110083507Y-142454238D01*
X109990506Y-142678211D01*
X109990294Y-142920725D01*
X110082905Y-143144860D01*
X110254238Y-143316493D01*
X110478211Y-143409494D01*
X110720725Y-143409706D01*
X110944860Y-143317095D01*
X111051500Y-143210641D01*
X111051500Y-146210672D01*
X110506086Y-146756086D01*
X110354670Y-146982695D01*
X110301500Y-147250000D01*
X110354670Y-147517305D01*
X110506086Y-147743914D01*
X110732695Y-147895330D01*
X111000000Y-147948500D01*
X111267305Y-147895330D01*
X111493914Y-147743914D01*
X112243914Y-146993914D01*
X112303231Y-146905140D01*
X112395330Y-146767304D01*
X112448500Y-146500000D01*
X112448500Y-144320729D01*
X114240294Y-144320729D01*
X114332905Y-144544864D01*
X114504238Y-144716497D01*
X114728211Y-144809498D01*
X114970725Y-144809710D01*
X115194860Y-144717099D01*
X115366493Y-144545766D01*
X115459494Y-144321793D01*
X115459706Y-144079279D01*
X115367095Y-143855144D01*
X115195762Y-143683511D01*
X114971789Y-143590510D01*
X114729275Y-143590298D01*
X114505140Y-143682909D01*
X114333507Y-143854242D01*
X114240506Y-144078215D01*
X114240294Y-144320729D01*
X112448500Y-144320729D01*
X112448500Y-140397157D01*
X112478211Y-140409494D01*
X112720725Y-140409706D01*
X112944860Y-140317095D01*
X113116493Y-140145762D01*
X113209494Y-139921789D01*
X113209706Y-139679275D01*
X113117095Y-139455140D01*
X112945762Y-139283507D01*
X112721789Y-139190506D01*
X112479275Y-139190294D01*
X112448500Y-139203010D01*
X112448500Y-138289328D01*
X113551500Y-137186328D01*
X113551500Y-140203810D01*
X113575505Y-140324490D01*
X113555140Y-140332905D01*
X113383507Y-140504238D01*
X113290506Y-140728211D01*
X113290470Y-140769026D01*
X113221787Y-140740506D01*
X112979273Y-140740294D01*
X112755138Y-140832905D01*
X112583505Y-141004238D01*
X112490504Y-141228211D01*
X112490292Y-141470725D01*
X112582903Y-141694860D01*
X112754236Y-141866493D01*
X112978209Y-141959494D01*
X113220723Y-141959706D01*
X113444858Y-141867095D01*
X113616491Y-141695762D01*
X113709492Y-141471789D01*
X113709528Y-141430974D01*
X113778211Y-141459494D01*
X114020725Y-141459706D01*
X114244860Y-141367095D01*
X114335237Y-141276875D01*
X118051500Y-144993138D01*
X118051500Y-148000000D01*
X118104670Y-148267304D01*
X118256086Y-148493914D01*
X118482696Y-148645330D01*
X118750000Y-148698500D01*
X119017304Y-148645330D01*
X119243914Y-148493914D01*
X119395330Y-148267304D01*
X119448500Y-148000000D01*
X119448500Y-144703810D01*
X119395330Y-144436505D01*
X119243914Y-144209896D01*
X114948500Y-139914482D01*
X114948500Y-138620725D01*
X115540294Y-138620725D01*
X115632905Y-138844860D01*
X115804238Y-139016493D01*
X116028211Y-139109494D01*
X116270725Y-139109706D01*
X116494860Y-139017095D01*
X116666493Y-138845762D01*
X116759494Y-138621789D01*
X116759706Y-138379275D01*
X116667095Y-138155140D01*
X116495762Y-137983507D01*
X116271789Y-137890506D01*
X116029275Y-137890294D01*
X115805140Y-137982905D01*
X115633507Y-138154238D01*
X115540506Y-138378211D01*
X115540294Y-138620725D01*
X114948500Y-138620725D01*
X114948500Y-136960657D01*
X115004238Y-137016493D01*
X115228211Y-137109494D01*
X115470725Y-137109706D01*
X115694860Y-137017095D01*
X115866493Y-136845762D01*
X115959494Y-136621789D01*
X115959494Y-136620725D01*
X116340294Y-136620725D01*
X116432905Y-136844860D01*
X116604238Y-137016493D01*
X116828211Y-137109494D01*
X117070725Y-137109706D01*
X117294860Y-137017095D01*
X117349946Y-136962106D01*
X117404238Y-137016493D01*
X117628211Y-137109494D01*
X117870725Y-137109706D01*
X117974601Y-137066785D01*
X117974601Y-141473115D01*
X118027771Y-141740420D01*
X118179187Y-141967029D01*
X118700053Y-142487895D01*
X118583507Y-142604238D01*
X118490506Y-142828211D01*
X118490294Y-143070725D01*
X118582905Y-143294860D01*
X118754238Y-143466493D01*
X118978211Y-143559494D01*
X119220725Y-143559706D01*
X119444860Y-143467095D01*
X119562159Y-143350001D01*
X124106072Y-147893914D01*
X124332681Y-148045330D01*
X124599986Y-148098500D01*
X124867291Y-148045330D01*
X125093900Y-147893914D01*
X125245316Y-147667305D01*
X125298486Y-147400000D01*
X125245316Y-147132695D01*
X125093900Y-146906086D01*
X120947456Y-142759642D01*
X121020725Y-142759706D01*
X121244860Y-142667095D01*
X121416493Y-142495762D01*
X121447650Y-142420725D01*
X131490294Y-142420725D01*
X131582905Y-142644860D01*
X131754238Y-142816493D01*
X131978211Y-142909494D01*
X132220725Y-142909706D01*
X132434199Y-142821500D01*
X136536711Y-142821500D01*
X136628211Y-142859494D01*
X136870725Y-142859706D01*
X137094860Y-142767095D01*
X137266493Y-142595762D01*
X137359494Y-142371789D01*
X137359706Y-142129275D01*
X137267095Y-141905140D01*
X137095762Y-141733507D01*
X136871789Y-141640506D01*
X136629275Y-141640294D01*
X136536810Y-141678500D01*
X132150005Y-141678500D01*
X132150000Y-141678499D01*
X132090215Y-141690391D01*
X131979275Y-141690294D01*
X131755140Y-141782905D01*
X131583507Y-141954238D01*
X131490506Y-142178211D01*
X131490294Y-142420725D01*
X121447650Y-142420725D01*
X121509494Y-142271789D01*
X121509706Y-142029275D01*
X121417095Y-141805140D01*
X121337106Y-141725011D01*
X121416493Y-141645762D01*
X121509494Y-141421789D01*
X121509706Y-141179275D01*
X121417095Y-140955140D01*
X121387106Y-140925098D01*
X121416493Y-140895762D01*
X121509494Y-140671789D01*
X121509706Y-140429275D01*
X121417095Y-140205140D01*
X121362106Y-140150054D01*
X121416493Y-140095762D01*
X121509494Y-139871789D01*
X121509706Y-139629275D01*
X121417095Y-139405140D01*
X121245762Y-139233507D01*
X121021789Y-139140506D01*
X120779275Y-139140294D01*
X120555140Y-139232905D01*
X120383507Y-139404238D01*
X120290506Y-139628211D01*
X120290294Y-139870725D01*
X120382905Y-140094860D01*
X120437894Y-140149946D01*
X120383507Y-140204238D01*
X120290506Y-140428211D01*
X120290294Y-140670725D01*
X120382905Y-140894860D01*
X120412894Y-140924902D01*
X120383507Y-140954238D01*
X120290506Y-141178211D01*
X120290294Y-141420725D01*
X120382905Y-141644860D01*
X120462894Y-141724989D01*
X120383507Y-141804238D01*
X120290506Y-142028211D01*
X120290441Y-142102627D01*
X119371601Y-141183787D01*
X119371601Y-134000000D01*
X123051500Y-134000000D01*
X123051500Y-137946190D01*
X123104670Y-138213495D01*
X123256086Y-138440104D01*
X125586096Y-140770114D01*
X125555140Y-140782905D01*
X125383507Y-140954238D01*
X125363810Y-141001674D01*
X125295762Y-140933507D01*
X125071789Y-140840506D01*
X124829275Y-140840294D01*
X124605140Y-140932905D01*
X124433507Y-141104238D01*
X124340506Y-141328211D01*
X124340294Y-141570725D01*
X124432905Y-141794860D01*
X124604238Y-141966493D01*
X124828211Y-142059494D01*
X125070725Y-142059706D01*
X125294860Y-141967095D01*
X125466493Y-141795762D01*
X125486190Y-141748326D01*
X125554238Y-141816493D01*
X125778211Y-141909494D01*
X126020725Y-141909706D01*
X126244860Y-141817095D01*
X126416493Y-141645762D01*
X126429770Y-141613788D01*
X126809896Y-141993914D01*
X127036506Y-142145330D01*
X127303810Y-142198500D01*
X128250000Y-142198500D01*
X128517304Y-142145330D01*
X128743914Y-141993914D01*
X128895330Y-141767304D01*
X128948500Y-141500000D01*
X128895330Y-141232696D01*
X128743914Y-141006086D01*
X128517304Y-140854670D01*
X128250000Y-140801500D01*
X127593138Y-140801500D01*
X126412363Y-139620725D01*
X134390294Y-139620725D01*
X134482905Y-139844860D01*
X134654238Y-140016493D01*
X134878211Y-140109494D01*
X135120725Y-140109706D01*
X135344860Y-140017095D01*
X135516493Y-139845762D01*
X135609494Y-139621789D01*
X135609706Y-139379275D01*
X135517095Y-139155140D01*
X135345762Y-138983507D01*
X135121789Y-138890506D01*
X134879275Y-138890294D01*
X134655140Y-138982905D01*
X134483507Y-139154238D01*
X134390506Y-139378211D01*
X134390294Y-139620725D01*
X126412363Y-139620725D01*
X125912363Y-139120725D01*
X131390294Y-139120725D01*
X131482905Y-139344860D01*
X131654238Y-139516493D01*
X131878211Y-139609494D01*
X132120725Y-139609706D01*
X132344860Y-139517095D01*
X132440317Y-139421805D01*
X132534840Y-139516493D01*
X132758813Y-139609494D01*
X133001327Y-139609706D01*
X133225462Y-139517095D01*
X133397095Y-139345762D01*
X133490096Y-139121789D01*
X133490308Y-138879275D01*
X133397697Y-138655140D01*
X133226364Y-138483507D01*
X133002391Y-138390506D01*
X132759877Y-138390294D01*
X132535742Y-138482905D01*
X132440285Y-138578195D01*
X132345762Y-138483507D01*
X132121789Y-138390506D01*
X131879275Y-138390294D01*
X131655140Y-138482905D01*
X131483507Y-138654238D01*
X131390506Y-138878211D01*
X131390294Y-139120725D01*
X125912363Y-139120725D01*
X124448500Y-137656862D01*
X124448500Y-136370725D01*
X126640294Y-136370725D01*
X126732905Y-136594860D01*
X126904238Y-136766493D01*
X127128211Y-136859494D01*
X127370725Y-136859706D01*
X127594860Y-136767095D01*
X127766493Y-136595762D01*
X127859494Y-136371789D01*
X127859706Y-136129275D01*
X127767095Y-135905140D01*
X127595762Y-135733507D01*
X127371789Y-135640506D01*
X127129275Y-135640294D01*
X126905140Y-135732905D01*
X126733507Y-135904238D01*
X126640506Y-136128211D01*
X126640294Y-136370725D01*
X124448500Y-136370725D01*
X124448500Y-134620725D01*
X130640294Y-134620725D01*
X130732905Y-134844860D01*
X130904238Y-135016493D01*
X131128211Y-135109494D01*
X131370725Y-135109706D01*
X131594860Y-135017095D01*
X131766493Y-134845762D01*
X131859494Y-134621789D01*
X131859706Y-134379275D01*
X131767095Y-134155140D01*
X131595762Y-133983507D01*
X131371789Y-133890506D01*
X131129275Y-133890294D01*
X130905140Y-133982905D01*
X130733507Y-134154238D01*
X130640506Y-134378211D01*
X130640294Y-134620725D01*
X124448500Y-134620725D01*
X124448500Y-134000000D01*
X124395330Y-133732696D01*
X124243914Y-133506086D01*
X124017304Y-133354670D01*
X123750000Y-133301500D01*
X123482696Y-133354670D01*
X123256086Y-133506086D01*
X123104670Y-133732696D01*
X123051500Y-134000000D01*
X119371601Y-134000000D01*
X119371601Y-132092644D01*
X119506086Y-132293914D01*
X119870221Y-132658049D01*
X119872060Y-132667295D01*
X120023476Y-132893905D01*
X120250086Y-133045321D01*
X120517390Y-133098491D01*
X120840679Y-133098491D01*
X121107984Y-133045321D01*
X121252886Y-132948500D01*
X126989430Y-132948500D01*
X126883507Y-133054238D01*
X126790506Y-133278211D01*
X126790294Y-133520725D01*
X126882905Y-133744860D01*
X127054238Y-133916493D01*
X127278211Y-134009494D01*
X127390391Y-134009592D01*
X127390294Y-134120725D01*
X127482905Y-134344860D01*
X127654238Y-134516493D01*
X127878211Y-134609494D01*
X128120725Y-134609706D01*
X128344860Y-134517095D01*
X128516493Y-134345762D01*
X128609494Y-134121789D01*
X128609706Y-133879275D01*
X128517095Y-133655140D01*
X128345762Y-133483507D01*
X128121789Y-133390506D01*
X128009609Y-133390408D01*
X128009706Y-133279275D01*
X127917095Y-133055140D01*
X127810641Y-132948500D01*
X132090445Y-132948500D01*
X132090294Y-133120725D01*
X132182905Y-133344860D01*
X132354238Y-133516493D01*
X132578211Y-133609494D01*
X132820725Y-133609706D01*
X133000164Y-133535563D01*
X133178211Y-133609494D01*
X133420725Y-133609706D01*
X133644860Y-133517095D01*
X133649858Y-133512106D01*
X133654238Y-133516493D01*
X133878211Y-133609494D01*
X134120725Y-133609706D01*
X134344860Y-133517095D01*
X134450027Y-133412112D01*
X134554238Y-133516505D01*
X134778211Y-133609506D01*
X135020725Y-133609718D01*
X135244860Y-133517107D01*
X135416493Y-133345774D01*
X135509494Y-133121801D01*
X135509645Y-132948500D01*
X136238406Y-132948500D01*
X136155140Y-132982905D01*
X135983507Y-133154238D01*
X135890506Y-133378211D01*
X135890294Y-133620725D01*
X135982905Y-133844860D01*
X136154238Y-134016493D01*
X136246636Y-134054860D01*
X136595886Y-134404109D01*
X136595888Y-134404112D01*
X136781296Y-134527997D01*
X136817582Y-134535215D01*
X136846897Y-134541046D01*
X136733507Y-134654238D01*
X136640506Y-134878211D01*
X136640294Y-135120725D01*
X136732905Y-135344860D01*
X136904238Y-135516493D01*
X137128211Y-135609494D01*
X137140304Y-135609505D01*
X137140294Y-135620725D01*
X137232905Y-135844860D01*
X137278390Y-135890424D01*
X137129275Y-135890294D01*
X136905140Y-135982905D01*
X136733507Y-136154238D01*
X136640506Y-136378211D01*
X136640294Y-136620725D01*
X136732905Y-136844860D01*
X136887894Y-137000121D01*
X136733507Y-137154238D01*
X136640506Y-137378211D01*
X136640294Y-137620725D01*
X136732905Y-137844860D01*
X136904238Y-138016493D01*
X137128211Y-138109494D01*
X137140304Y-138109505D01*
X137140294Y-138120725D01*
X137232905Y-138344860D01*
X137404238Y-138516493D01*
X137628211Y-138609494D01*
X137870725Y-138609706D01*
X138094860Y-138517095D01*
X138266493Y-138345762D01*
X138359494Y-138121789D01*
X138359706Y-137879275D01*
X138267095Y-137655140D01*
X138112106Y-137499879D01*
X138266493Y-137345762D01*
X138359494Y-137121789D01*
X138359706Y-136879275D01*
X138267095Y-136655140D01*
X138095762Y-136483507D01*
X137871789Y-136390506D01*
X137859696Y-136390495D01*
X137859706Y-136379275D01*
X137767095Y-136155140D01*
X137721610Y-136109576D01*
X137870725Y-136109706D01*
X137963190Y-136071500D01*
X138749995Y-136071500D01*
X138750000Y-136071501D01*
X138932418Y-136035215D01*
X138968704Y-136027997D01*
X139154112Y-135904112D01*
X140503293Y-134554930D01*
X140594860Y-134517095D01*
X140766493Y-134345762D01*
X140859494Y-134121789D01*
X140859706Y-133879275D01*
X140767095Y-133655140D01*
X140595762Y-133483507D01*
X140371789Y-133390506D01*
X140129275Y-133390294D01*
X140036810Y-133428500D01*
X137236723Y-133428500D01*
X137054929Y-133246706D01*
X137017095Y-133155140D01*
X136845762Y-132983507D01*
X136761455Y-132948500D01*
X141960672Y-132948500D01*
X142630853Y-133618681D01*
X142554670Y-133732696D01*
X142501500Y-134000000D01*
X142554670Y-134267304D01*
X142706086Y-134493914D01*
X142932696Y-134645330D01*
X143200000Y-134698500D01*
X144000000Y-134698500D01*
X144267305Y-134645330D01*
X144493914Y-134493914D01*
X144645330Y-134267305D01*
X144698500Y-134000000D01*
X144645330Y-133732695D01*
X144493914Y-133506086D01*
X142743914Y-131756086D01*
X142517305Y-131604670D01*
X142250000Y-131551500D01*
X120990670Y-131551500D01*
X120781028Y-131593200D01*
X120493914Y-131306086D01*
X120267305Y-131154670D01*
X120000000Y-131101500D01*
X119732695Y-131154670D01*
X119506086Y-131306086D01*
X119371601Y-131507356D01*
X119371601Y-128920725D01*
X126390294Y-128920725D01*
X126482905Y-129144860D01*
X126654238Y-129316493D01*
X126878211Y-129409494D01*
X127120725Y-129409706D01*
X127344860Y-129317095D01*
X127516493Y-129145762D01*
X127609494Y-128921789D01*
X127609669Y-128720725D01*
X134390294Y-128720725D01*
X134482905Y-128944860D01*
X134654238Y-129116493D01*
X134878211Y-129209494D01*
X135120725Y-129209706D01*
X135344860Y-129117095D01*
X135516493Y-128945762D01*
X135609494Y-128721789D01*
X135609706Y-128479275D01*
X135517095Y-128255140D01*
X135345762Y-128083507D01*
X135121789Y-127990506D01*
X134879275Y-127990294D01*
X134655140Y-128082905D01*
X134483507Y-128254238D01*
X134390506Y-128478211D01*
X134390294Y-128720725D01*
X127609669Y-128720725D01*
X127609706Y-128679275D01*
X127517095Y-128455140D01*
X127345762Y-128283507D01*
X127121789Y-128190506D01*
X126879275Y-128190294D01*
X126655140Y-128282905D01*
X126483507Y-128454238D01*
X126390506Y-128678211D01*
X126390294Y-128920725D01*
X119371601Y-128920725D01*
X119371601Y-125873101D01*
X119318431Y-125605797D01*
X119167015Y-125379187D01*
X117893914Y-124106086D01*
X117667305Y-123954670D01*
X117400000Y-123901500D01*
X117132695Y-123954670D01*
X116906086Y-124106086D01*
X116754670Y-124332695D01*
X116701500Y-124600000D01*
X116754670Y-124867305D01*
X116906086Y-125093914D01*
X117974601Y-126162429D01*
X117974601Y-129190377D01*
X117879275Y-129190294D01*
X117655140Y-129282905D01*
X117483507Y-129454238D01*
X117390506Y-129678211D01*
X117390294Y-129920725D01*
X117482905Y-130144860D01*
X117654238Y-130316493D01*
X117878211Y-130409494D01*
X117974601Y-130409578D01*
X117974601Y-135933197D01*
X117871789Y-135890506D01*
X117629275Y-135890294D01*
X117405140Y-135982905D01*
X117350054Y-136037894D01*
X117295762Y-135983507D01*
X117071789Y-135890506D01*
X116829275Y-135890294D01*
X116605140Y-135982905D01*
X116433507Y-136154238D01*
X116340506Y-136378211D01*
X116340294Y-136620725D01*
X115959494Y-136620725D01*
X115959706Y-136379275D01*
X115867095Y-136155140D01*
X115695762Y-135983507D01*
X115471789Y-135890506D01*
X115229275Y-135890294D01*
X115005140Y-135982905D01*
X114948500Y-136039446D01*
X114948500Y-135500000D01*
X114895330Y-135232696D01*
X114895330Y-135232695D01*
X114743914Y-135006086D01*
X114517305Y-134854670D01*
X114250000Y-134801500D01*
X108919010Y-134801500D01*
X108651705Y-134854670D01*
X108425096Y-135006086D01*
X104042475Y-139388707D01*
X104038600Y-139387936D01*
X102311400Y-139387936D01*
X102162741Y-139417506D01*
X102036714Y-139501714D01*
X101952506Y-139627741D01*
X101922936Y-139776400D01*
X100956000Y-139776400D01*
X100956000Y-130676400D01*
X107595536Y-130676400D01*
X107595536Y-132403600D01*
X107625106Y-132552259D01*
X107709314Y-132678286D01*
X107835341Y-132762494D01*
X107984000Y-132792064D01*
X110016000Y-132792064D01*
X110164659Y-132762494D01*
X110290686Y-132678286D01*
X110374894Y-132552259D01*
X110404464Y-132403600D01*
X110404464Y-130676400D01*
X110374894Y-130527741D01*
X110290686Y-130401714D01*
X110164659Y-130317506D01*
X110016000Y-130287936D01*
X107984000Y-130287936D01*
X107835341Y-130317506D01*
X107709314Y-130401714D01*
X107625106Y-130527741D01*
X107595536Y-130676400D01*
X100956000Y-130676400D01*
X100956000Y-129000000D01*
X107575631Y-129000000D01*
X107670371Y-129476288D01*
X107940166Y-129880065D01*
X108343943Y-130149860D01*
X108820231Y-130244600D01*
X109179769Y-130244600D01*
X109656057Y-130149860D01*
X110059834Y-129880065D01*
X110329629Y-129476288D01*
X110424369Y-129000000D01*
X110329629Y-128523712D01*
X110059834Y-128119935D01*
X109656057Y-127850140D01*
X109179769Y-127755400D01*
X108820231Y-127755400D01*
X108343943Y-127850140D01*
X107940166Y-128119935D01*
X107670371Y-128523712D01*
X107575631Y-129000000D01*
X100956000Y-129000000D01*
X100956000Y-126460000D01*
X107575631Y-126460000D01*
X107670371Y-126936288D01*
X107940166Y-127340065D01*
X108343943Y-127609860D01*
X108820231Y-127704600D01*
X109179769Y-127704600D01*
X109656057Y-127609860D01*
X110059834Y-127340065D01*
X110329629Y-126936288D01*
X110424369Y-126460000D01*
X110329629Y-125983712D01*
X110059834Y-125579935D01*
X109656057Y-125310140D01*
X109179769Y-125215400D01*
X108820231Y-125215400D01*
X108343943Y-125310140D01*
X107940166Y-125579935D01*
X107670371Y-125983712D01*
X107575631Y-126460000D01*
X100956000Y-126460000D01*
X100956000Y-123603810D01*
X119301500Y-123603810D01*
X119301500Y-125200000D01*
X119354670Y-125467304D01*
X119506086Y-125693914D01*
X119732696Y-125845330D01*
X120000000Y-125898500D01*
X120267304Y-125845330D01*
X120493914Y-125693914D01*
X120645330Y-125467304D01*
X120698500Y-125200000D01*
X120698500Y-124720725D01*
X132790294Y-124720725D01*
X132882905Y-124944860D01*
X133054238Y-125116493D01*
X133183157Y-125170025D01*
X133093963Y-125259063D01*
X133000962Y-125483036D01*
X133000750Y-125725550D01*
X133093361Y-125949685D01*
X133264694Y-126121318D01*
X133488667Y-126214319D01*
X133731181Y-126214531D01*
X133955316Y-126121920D01*
X134126949Y-125950587D01*
X134219950Y-125726614D01*
X134220162Y-125484100D01*
X134127551Y-125259965D01*
X133956218Y-125088332D01*
X133827299Y-125034800D01*
X133916493Y-124945762D01*
X134009494Y-124721789D01*
X134009706Y-124479275D01*
X133917095Y-124255140D01*
X133745762Y-124083507D01*
X133521789Y-123990506D01*
X133279275Y-123990294D01*
X133055140Y-124082905D01*
X132883507Y-124254238D01*
X132790506Y-124478211D01*
X132790294Y-124720725D01*
X120698500Y-124720725D01*
X120698500Y-123893138D01*
X124870903Y-119720735D01*
X132790294Y-119720735D01*
X132882905Y-119944870D01*
X133054238Y-120116503D01*
X133278211Y-120209504D01*
X133520725Y-120209716D01*
X133744860Y-120117105D01*
X133916493Y-119945772D01*
X134009494Y-119721799D01*
X134009706Y-119479285D01*
X133917095Y-119255150D01*
X133745762Y-119083517D01*
X133521789Y-118990516D01*
X133279275Y-118990304D01*
X133055140Y-119082915D01*
X132883507Y-119254248D01*
X132790506Y-119478221D01*
X132790294Y-119720735D01*
X124870903Y-119720735D01*
X126226730Y-118364908D01*
X133072082Y-118364908D01*
X133164693Y-118589043D01*
X133336026Y-118760676D01*
X133559999Y-118853677D01*
X133802513Y-118853889D01*
X134026648Y-118761278D01*
X134198281Y-118589945D01*
X134291282Y-118365972D01*
X134291494Y-118123458D01*
X134198883Y-117899323D01*
X134027550Y-117727690D01*
X133803577Y-117634689D01*
X133561063Y-117634477D01*
X133336928Y-117727088D01*
X133165295Y-117898421D01*
X133072294Y-118122394D01*
X133072082Y-118364908D01*
X126226730Y-118364908D01*
X128093138Y-116498500D01*
X138000000Y-116498500D01*
X138267304Y-116445330D01*
X138493914Y-116293914D01*
X138645330Y-116067304D01*
X138698500Y-115800000D01*
X138645330Y-115532696D01*
X138493914Y-115306086D01*
X138267304Y-115154670D01*
X138000000Y-115101500D01*
X127803810Y-115101500D01*
X127536505Y-115154670D01*
X127309896Y-115306086D01*
X119506086Y-123109896D01*
X119354670Y-123336505D01*
X119354670Y-123336506D01*
X119301500Y-123603810D01*
X100956000Y-123603810D01*
X100956000Y-122144750D01*
X102483000Y-122144750D01*
X102483000Y-122655045D01*
X102532783Y-122775231D01*
X102624770Y-122867217D01*
X102744956Y-122917000D01*
X103255250Y-122917000D01*
X103337000Y-122835250D01*
X103337000Y-122063000D01*
X104283000Y-122063000D01*
X104283000Y-122835250D01*
X104364750Y-122917000D01*
X104875044Y-122917000D01*
X104995230Y-122867217D01*
X105087217Y-122775231D01*
X105137000Y-122655045D01*
X105137000Y-122144750D01*
X105055250Y-122063000D01*
X104283000Y-122063000D01*
X103337000Y-122063000D01*
X102564750Y-122063000D01*
X102483000Y-122144750D01*
X100956000Y-122144750D01*
X100956000Y-119323493D01*
X102428761Y-119323493D01*
X102638563Y-119831251D01*
X103026705Y-120220072D01*
X103130087Y-120263000D01*
X102744956Y-120263000D01*
X102624770Y-120312783D01*
X102532783Y-120404769D01*
X102483000Y-120524955D01*
X102483000Y-121035250D01*
X102564750Y-121117000D01*
X103337000Y-121117000D01*
X103337000Y-121097000D01*
X104283000Y-121097000D01*
X104283000Y-121117000D01*
X105055250Y-121117000D01*
X105137000Y-121035250D01*
X105137000Y-120524955D01*
X105087217Y-120404769D01*
X104995230Y-120312783D01*
X104875044Y-120263000D01*
X104490661Y-120263000D01*
X104591251Y-120221437D01*
X104980072Y-119833295D01*
X105190759Y-119325903D01*
X105191239Y-118776507D01*
X104981437Y-118268749D01*
X104593295Y-117879928D01*
X104489913Y-117837000D01*
X104875044Y-117837000D01*
X104995230Y-117787217D01*
X105087217Y-117695231D01*
X105137000Y-117575045D01*
X105137000Y-117064750D01*
X105055250Y-116983000D01*
X104283000Y-116983000D01*
X104283000Y-117003000D01*
X103337000Y-117003000D01*
X103337000Y-116983000D01*
X102564750Y-116983000D01*
X102483000Y-117064750D01*
X102483000Y-117575045D01*
X102532783Y-117695231D01*
X102624770Y-117787217D01*
X102744956Y-117837000D01*
X103129339Y-117837000D01*
X103028749Y-117878563D01*
X102639928Y-118266705D01*
X102429241Y-118774097D01*
X102428761Y-119323493D01*
X100956000Y-119323493D01*
X100956000Y-116120725D01*
X107790294Y-116120725D01*
X107882905Y-116344860D01*
X108054238Y-116516493D01*
X108278211Y-116609494D01*
X108520725Y-116609706D01*
X108744860Y-116517095D01*
X108916493Y-116345762D01*
X109009494Y-116121789D01*
X109009706Y-115879275D01*
X108917095Y-115655140D01*
X108745762Y-115483507D01*
X108521789Y-115390506D01*
X108279275Y-115390294D01*
X108055140Y-115482905D01*
X107883507Y-115654238D01*
X107790506Y-115878211D01*
X107790294Y-116120725D01*
X100956000Y-116120725D01*
X100956000Y-114243493D01*
X102428761Y-114243493D01*
X102638563Y-114751251D01*
X103026705Y-115140072D01*
X103130087Y-115183000D01*
X102744956Y-115183000D01*
X102624770Y-115232783D01*
X102532783Y-115324769D01*
X102483000Y-115444955D01*
X102483000Y-115955250D01*
X102564750Y-116037000D01*
X103337000Y-116037000D01*
X103337000Y-116017000D01*
X104283000Y-116017000D01*
X104283000Y-116037000D01*
X105055250Y-116037000D01*
X105137000Y-115955250D01*
X105137000Y-115444955D01*
X105087217Y-115324769D01*
X104995230Y-115232783D01*
X104875044Y-115183000D01*
X104490661Y-115183000D01*
X104591251Y-115141437D01*
X104980072Y-114753295D01*
X105190759Y-114245903D01*
X105191239Y-113696507D01*
X105035969Y-113320725D01*
X128640294Y-113320725D01*
X128732905Y-113544860D01*
X128904238Y-113716493D01*
X128996637Y-113754860D01*
X129074485Y-113832708D01*
X129074487Y-113832711D01*
X129259895Y-113956596D01*
X129296181Y-113963814D01*
X129478599Y-114000100D01*
X129478604Y-114000099D01*
X131337741Y-114000099D01*
X131283507Y-114054238D01*
X131190506Y-114278211D01*
X131190294Y-114520725D01*
X131282905Y-114744860D01*
X131454238Y-114916493D01*
X131678211Y-115009494D01*
X131920725Y-115009706D01*
X132144860Y-114917095D01*
X132316493Y-114745762D01*
X132409494Y-114521789D01*
X132409494Y-114520725D01*
X134390294Y-114520725D01*
X134482905Y-114744860D01*
X134654238Y-114916493D01*
X134878211Y-115009494D01*
X135120725Y-115009706D01*
X135344860Y-114917095D01*
X135516493Y-114745762D01*
X135609494Y-114521789D01*
X135609706Y-114279275D01*
X135517095Y-114055140D01*
X135345762Y-113883507D01*
X135121789Y-113790506D01*
X134879275Y-113790294D01*
X134655140Y-113882905D01*
X134483507Y-114054238D01*
X134390506Y-114278211D01*
X134390294Y-114520725D01*
X132409494Y-114520725D01*
X132409706Y-114279275D01*
X132317095Y-114055140D01*
X132262150Y-114000099D01*
X132363166Y-114000099D01*
X132363171Y-114000100D01*
X132545589Y-113963814D01*
X132581875Y-113956596D01*
X132767283Y-113832711D01*
X134428529Y-112171464D01*
X136986711Y-112171464D01*
X137078211Y-112209458D01*
X137320725Y-112209670D01*
X137544860Y-112117059D01*
X137716493Y-111945726D01*
X137809494Y-111721753D01*
X137809706Y-111479239D01*
X137717095Y-111255104D01*
X137582951Y-111120725D01*
X140090294Y-111120725D01*
X140182905Y-111344860D01*
X140354238Y-111516493D01*
X140578211Y-111609494D01*
X140820725Y-111609706D01*
X141044860Y-111517095D01*
X141216493Y-111345762D01*
X141309494Y-111121789D01*
X141309706Y-110879275D01*
X141217095Y-110655140D01*
X141045762Y-110483507D01*
X140821789Y-110390506D01*
X140579275Y-110390294D01*
X140355140Y-110482905D01*
X140183507Y-110654238D01*
X140090506Y-110878211D01*
X140090294Y-111120725D01*
X137582951Y-111120725D01*
X137545762Y-111083471D01*
X137321789Y-110990470D01*
X137079275Y-110990258D01*
X136986810Y-111028464D01*
X134191806Y-111028464D01*
X133973102Y-111071967D01*
X133787694Y-111195852D01*
X133787692Y-111195855D01*
X132126447Y-112857099D01*
X129767904Y-112857099D01*
X129767095Y-112855140D01*
X129595762Y-112683507D01*
X129371789Y-112590506D01*
X129129275Y-112590294D01*
X128905140Y-112682905D01*
X128733507Y-112854238D01*
X128640506Y-113078211D01*
X128640294Y-113320725D01*
X105035969Y-113320725D01*
X104981437Y-113188749D01*
X104593295Y-112799928D01*
X104085903Y-112589241D01*
X103536507Y-112588761D01*
X103028749Y-112798563D01*
X102639928Y-113186705D01*
X102429241Y-113694097D01*
X102428761Y-114243493D01*
X100956000Y-114243493D01*
X100956000Y-111554750D01*
X106872860Y-111554750D01*
X106872860Y-112915045D01*
X106922643Y-113035231D01*
X107014630Y-113127217D01*
X107134816Y-113177000D01*
X108495110Y-113177000D01*
X108576860Y-113095250D01*
X108576860Y-111473000D01*
X109522860Y-111473000D01*
X109522860Y-113095250D01*
X109604610Y-113177000D01*
X110964904Y-113177000D01*
X111085090Y-113127217D01*
X111177077Y-113035231D01*
X111226860Y-112915045D01*
X111226860Y-111554750D01*
X111145110Y-111473000D01*
X109522860Y-111473000D01*
X108576860Y-111473000D01*
X106954610Y-111473000D01*
X106872860Y-111554750D01*
X100956000Y-111554750D01*
X100956000Y-109084955D01*
X106872860Y-109084955D01*
X106872860Y-110445250D01*
X106954610Y-110527000D01*
X108576860Y-110527000D01*
X108576860Y-108904750D01*
X109522860Y-108904750D01*
X109522860Y-110527000D01*
X111145110Y-110527000D01*
X111226860Y-110445250D01*
X111226860Y-109084955D01*
X111177077Y-108964769D01*
X111085090Y-108872783D01*
X111002237Y-108838464D01*
X114249860Y-108838464D01*
X114398519Y-108808894D01*
X114524546Y-108724686D01*
X114608754Y-108598659D01*
X114638324Y-108450000D01*
X114638324Y-107870725D01*
X130640294Y-107870725D01*
X130732905Y-108094860D01*
X130904238Y-108266493D01*
X131128211Y-108359494D01*
X131370725Y-108359706D01*
X131594860Y-108267095D01*
X131766493Y-108095762D01*
X131859494Y-107871789D01*
X131859548Y-107809653D01*
X131920725Y-107809706D01*
X131933337Y-107804495D01*
X131883507Y-107854238D01*
X131790506Y-108078211D01*
X131790294Y-108320725D01*
X131882905Y-108544860D01*
X132054238Y-108716493D01*
X132278211Y-108809494D01*
X132520725Y-108809706D01*
X132744860Y-108717095D01*
X132916493Y-108545762D01*
X133009494Y-108321789D01*
X133009494Y-108320725D01*
X136790294Y-108320725D01*
X136882905Y-108544860D01*
X137054238Y-108716493D01*
X137278211Y-108809494D01*
X137520725Y-108809706D01*
X137744860Y-108717095D01*
X137916493Y-108545762D01*
X138009494Y-108321789D01*
X138009706Y-108079275D01*
X137917095Y-107855140D01*
X137745762Y-107683507D01*
X137521789Y-107590506D01*
X137279275Y-107590294D01*
X137055140Y-107682905D01*
X136883507Y-107854238D01*
X136790506Y-108078211D01*
X136790294Y-108320725D01*
X133009494Y-108320725D01*
X133009706Y-108079275D01*
X132917095Y-107855140D01*
X132745762Y-107683507D01*
X132521789Y-107590506D01*
X132279275Y-107590294D01*
X132266663Y-107595505D01*
X132316493Y-107545762D01*
X132409494Y-107321789D01*
X132409706Y-107079275D01*
X132317095Y-106855140D01*
X132282741Y-106820725D01*
X137140294Y-106820725D01*
X137232905Y-107044860D01*
X137404238Y-107216493D01*
X137628211Y-107309494D01*
X137870725Y-107309706D01*
X138094860Y-107217095D01*
X138266493Y-107045762D01*
X138359494Y-106821789D01*
X138359706Y-106579275D01*
X138267095Y-106355140D01*
X138095762Y-106183507D01*
X137871789Y-106090506D01*
X137629275Y-106090294D01*
X137405140Y-106182905D01*
X137233507Y-106354238D01*
X137140506Y-106578211D01*
X137140294Y-106820725D01*
X132282741Y-106820725D01*
X132145762Y-106683507D01*
X131921789Y-106590506D01*
X131679275Y-106590294D01*
X131455140Y-106682905D01*
X131283507Y-106854238D01*
X131190506Y-107078211D01*
X131190452Y-107140347D01*
X131129275Y-107140294D01*
X130905140Y-107232905D01*
X130733507Y-107404238D01*
X130640506Y-107628211D01*
X130640294Y-107870725D01*
X114638324Y-107870725D01*
X114638324Y-104550000D01*
X114608754Y-104401341D01*
X114524546Y-104275314D01*
X114398519Y-104191106D01*
X114249860Y-104161536D01*
X110349860Y-104161536D01*
X110201201Y-104191106D01*
X110075174Y-104275314D01*
X109990966Y-104401341D01*
X109961396Y-104550000D01*
X109961396Y-108450000D01*
X109990966Y-108598659D01*
X110075174Y-108724686D01*
X110201201Y-108808894D01*
X110272117Y-108823000D01*
X109604610Y-108823000D01*
X109522860Y-108904750D01*
X108576860Y-108904750D01*
X108495110Y-108823000D01*
X107134816Y-108823000D01*
X107014630Y-108872783D01*
X106922643Y-108964769D01*
X106872860Y-109084955D01*
X100956000Y-109084955D01*
X100956000Y-107054750D01*
X103572860Y-107054750D01*
X103572860Y-108465045D01*
X103622643Y-108585231D01*
X103714630Y-108677217D01*
X103834816Y-108727000D01*
X105245110Y-108727000D01*
X105326860Y-108645250D01*
X105326860Y-106973000D01*
X106272860Y-106973000D01*
X106272860Y-108645250D01*
X106354610Y-108727000D01*
X107764904Y-108727000D01*
X107885090Y-108677217D01*
X107977077Y-108585231D01*
X108026860Y-108465045D01*
X108026860Y-107054750D01*
X107945110Y-106973000D01*
X106272860Y-106973000D01*
X105326860Y-106973000D01*
X103654610Y-106973000D01*
X103572860Y-107054750D01*
X100956000Y-107054750D01*
X100956000Y-104534955D01*
X103572860Y-104534955D01*
X103572860Y-105945250D01*
X103654610Y-106027000D01*
X105326860Y-106027000D01*
X105326860Y-104354750D01*
X106272860Y-104354750D01*
X106272860Y-106027000D01*
X107945110Y-106027000D01*
X108026860Y-105945250D01*
X108026860Y-104534955D01*
X107977077Y-104414769D01*
X107885090Y-104322783D01*
X107764904Y-104273000D01*
X106354610Y-104273000D01*
X106272860Y-104354750D01*
X105326860Y-104354750D01*
X105245110Y-104273000D01*
X103834816Y-104273000D01*
X103714630Y-104322783D01*
X103622643Y-104414769D01*
X103572860Y-104534955D01*
X100956000Y-104534955D01*
X100956000Y-103070725D01*
X133840294Y-103070725D01*
X133932905Y-103294860D01*
X134104238Y-103466493D01*
X134328211Y-103559494D01*
X134570725Y-103559706D01*
X134700041Y-103506274D01*
X134828211Y-103559494D01*
X135070725Y-103559706D01*
X135294860Y-103467095D01*
X135466493Y-103295762D01*
X135559494Y-103071789D01*
X135559706Y-102829275D01*
X135467095Y-102605140D01*
X135295762Y-102433507D01*
X135071789Y-102340506D01*
X134829275Y-102340294D01*
X134699959Y-102393726D01*
X134571789Y-102340506D01*
X134329275Y-102340294D01*
X134105140Y-102432905D01*
X133933507Y-102604238D01*
X133840506Y-102828211D01*
X133840294Y-103070725D01*
X100956000Y-103070725D01*
X100956000Y-100456000D01*
X149044000Y-100456000D01*
X149044000Y-102544000D01*
X149044000Y-102544000D01*
G37*
X149044000Y-102544000D02*
X147500000Y-102544000D01*
X147325496Y-102578711D01*
X147177559Y-102677559D01*
X147078711Y-102825496D01*
X147044000Y-103000000D01*
X147044000Y-110500000D01*
X147078711Y-110674504D01*
X147177559Y-110822441D01*
X147325496Y-110921289D01*
X147500000Y-110956000D01*
X149044000Y-110956000D01*
X149044000Y-118794000D01*
X147500000Y-118794000D01*
X147325496Y-118828711D01*
X147177559Y-118927559D01*
X147078711Y-119075496D01*
X147044000Y-119250000D01*
X147044000Y-126750000D01*
X147078711Y-126924504D01*
X147177559Y-127072441D01*
X147325496Y-127171289D01*
X147500000Y-127206000D01*
X149044000Y-127206000D01*
X149044000Y-139044000D01*
X147500000Y-139044000D01*
X147325496Y-139078711D01*
X147177559Y-139177559D01*
X147078711Y-139325496D01*
X147044000Y-139500000D01*
X147044000Y-147000000D01*
X147078711Y-147174504D01*
X147177559Y-147322441D01*
X147325496Y-147421289D01*
X147500000Y-147456000D01*
X149044000Y-147456000D01*
X149044000Y-149544000D01*
X100956000Y-149544000D01*
X100956000Y-145720000D01*
X101906017Y-145720000D01*
X102000757Y-146196288D01*
X102270552Y-146600065D01*
X102674329Y-146869860D01*
X103150617Y-146964600D01*
X103199383Y-146964600D01*
X103675671Y-146869860D01*
X104079448Y-146600065D01*
X104349243Y-146196288D01*
X104443983Y-145720000D01*
X104446017Y-145720000D01*
X104540757Y-146196288D01*
X104810552Y-146600065D01*
X105214329Y-146869860D01*
X105690617Y-146964600D01*
X105739383Y-146964600D01*
X106215671Y-146869860D01*
X106619448Y-146600065D01*
X106889243Y-146196288D01*
X106983983Y-145720000D01*
X106889243Y-145243712D01*
X106619448Y-144839935D01*
X106215671Y-144570140D01*
X105739383Y-144475400D01*
X105690617Y-144475400D01*
X105214329Y-144570140D01*
X104810552Y-144839935D01*
X104540757Y-145243712D01*
X104446017Y-145720000D01*
X104443983Y-145720000D01*
X104349243Y-145243712D01*
X104079448Y-144839935D01*
X103675671Y-144570140D01*
X103199383Y-144475400D01*
X103150617Y-144475400D01*
X102674329Y-144570140D01*
X102270552Y-144839935D01*
X102000757Y-145243712D01*
X101906017Y-145720000D01*
X100956000Y-145720000D01*
X100956000Y-143780054D01*
X102146670Y-143780054D01*
X102227074Y-143900460D01*
X102574939Y-144208374D01*
X102743200Y-144207833D01*
X102743200Y-143611800D01*
X103606800Y-143611800D01*
X103606800Y-144207833D01*
X103775061Y-144208374D01*
X104122926Y-143900460D01*
X104203330Y-143780054D01*
X104196321Y-143611800D01*
X103606800Y-143611800D01*
X102743200Y-143611800D01*
X102153679Y-143611800D01*
X102146670Y-143780054D01*
X100956000Y-143780054D01*
X100956000Y-143180000D01*
X104446017Y-143180000D01*
X104540757Y-143656288D01*
X104810552Y-144060065D01*
X105214329Y-144329860D01*
X105690617Y-144424600D01*
X105739383Y-144424600D01*
X106215671Y-144329860D01*
X106619448Y-144060065D01*
X106889243Y-143656288D01*
X106983983Y-143180000D01*
X106889243Y-142703712D01*
X106619448Y-142299935D01*
X106215671Y-142030140D01*
X105739383Y-141935400D01*
X105690617Y-141935400D01*
X105214329Y-142030140D01*
X104810552Y-142299935D01*
X104540757Y-142703712D01*
X104446017Y-143180000D01*
X100956000Y-143180000D01*
X100956000Y-142579946D01*
X102146670Y-142579946D01*
X102153679Y-142748200D01*
X102743200Y-142748200D01*
X102743200Y-142152167D01*
X103606800Y-142152167D01*
X103606800Y-142748200D01*
X104196321Y-142748200D01*
X104203330Y-142579946D01*
X104122926Y-142459540D01*
X103775061Y-142151626D01*
X103606800Y-142152167D01*
X102743200Y-142152167D01*
X102574939Y-142151626D01*
X102227074Y-142459540D01*
X102146670Y-142579946D01*
X100956000Y-142579946D01*
X100956000Y-139776400D01*
X101922936Y-139776400D01*
X101922936Y-141503600D01*
X101952506Y-141652259D01*
X102036714Y-141778286D01*
X102162741Y-141862494D01*
X102311400Y-141892064D01*
X104038600Y-141892064D01*
X104187259Y-141862494D01*
X104313286Y-141778286D01*
X104397494Y-141652259D01*
X104427064Y-141503600D01*
X104427064Y-140979774D01*
X104499245Y-140907593D01*
X104540757Y-141116288D01*
X104810552Y-141520065D01*
X105214329Y-141789860D01*
X105690617Y-141884600D01*
X105739383Y-141884600D01*
X106215671Y-141789860D01*
X106619448Y-141520065D01*
X106889243Y-141116288D01*
X106983983Y-140640000D01*
X106889243Y-140163712D01*
X106619448Y-139759935D01*
X106215671Y-139490140D01*
X105966301Y-139440537D01*
X109208338Y-136198500D01*
X112563672Y-136198500D01*
X111256086Y-137506086D01*
X111104670Y-137732695D01*
X111104670Y-137732696D01*
X111051500Y-138000000D01*
X111051500Y-141589430D01*
X110945762Y-141483507D01*
X110721789Y-141390506D01*
X110479275Y-141390294D01*
X110255140Y-141482905D01*
X110083507Y-141654238D01*
X109990506Y-141878211D01*
X109990294Y-142120725D01*
X110082905Y-142344860D01*
X110137894Y-142399946D01*
X110083507Y-142454238D01*
X109990506Y-142678211D01*
X109990294Y-142920725D01*
X110082905Y-143144860D01*
X110254238Y-143316493D01*
X110478211Y-143409494D01*
X110720725Y-143409706D01*
X110944860Y-143317095D01*
X111051500Y-143210641D01*
X111051500Y-146210672D01*
X110506086Y-146756086D01*
X110354670Y-146982695D01*
X110301500Y-147250000D01*
X110354670Y-147517305D01*
X110506086Y-147743914D01*
X110732695Y-147895330D01*
X111000000Y-147948500D01*
X111267305Y-147895330D01*
X111493914Y-147743914D01*
X112243914Y-146993914D01*
X112303231Y-146905140D01*
X112395330Y-146767304D01*
X112448500Y-146500000D01*
X112448500Y-144320729D01*
X114240294Y-144320729D01*
X114332905Y-144544864D01*
X114504238Y-144716497D01*
X114728211Y-144809498D01*
X114970725Y-144809710D01*
X115194860Y-144717099D01*
X115366493Y-144545766D01*
X115459494Y-144321793D01*
X115459706Y-144079279D01*
X115367095Y-143855144D01*
X115195762Y-143683511D01*
X114971789Y-143590510D01*
X114729275Y-143590298D01*
X114505140Y-143682909D01*
X114333507Y-143854242D01*
X114240506Y-144078215D01*
X114240294Y-144320729D01*
X112448500Y-144320729D01*
X112448500Y-140397157D01*
X112478211Y-140409494D01*
X112720725Y-140409706D01*
X112944860Y-140317095D01*
X113116493Y-140145762D01*
X113209494Y-139921789D01*
X113209706Y-139679275D01*
X113117095Y-139455140D01*
X112945762Y-139283507D01*
X112721789Y-139190506D01*
X112479275Y-139190294D01*
X112448500Y-139203010D01*
X112448500Y-138289328D01*
X113551500Y-137186328D01*
X113551500Y-140203810D01*
X113575505Y-140324490D01*
X113555140Y-140332905D01*
X113383507Y-140504238D01*
X113290506Y-140728211D01*
X113290470Y-140769026D01*
X113221787Y-140740506D01*
X112979273Y-140740294D01*
X112755138Y-140832905D01*
X112583505Y-141004238D01*
X112490504Y-141228211D01*
X112490292Y-141470725D01*
X112582903Y-141694860D01*
X112754236Y-141866493D01*
X112978209Y-141959494D01*
X113220723Y-141959706D01*
X113444858Y-141867095D01*
X113616491Y-141695762D01*
X113709492Y-141471789D01*
X113709528Y-141430974D01*
X113778211Y-141459494D01*
X114020725Y-141459706D01*
X114244860Y-141367095D01*
X114335237Y-141276875D01*
X118051500Y-144993138D01*
X118051500Y-148000000D01*
X118104670Y-148267304D01*
X118256086Y-148493914D01*
X118482696Y-148645330D01*
X118750000Y-148698500D01*
X119017304Y-148645330D01*
X119243914Y-148493914D01*
X119395330Y-148267304D01*
X119448500Y-148000000D01*
X119448500Y-144703810D01*
X119395330Y-144436505D01*
X119243914Y-144209896D01*
X114948500Y-139914482D01*
X114948500Y-138620725D01*
X115540294Y-138620725D01*
X115632905Y-138844860D01*
X115804238Y-139016493D01*
X116028211Y-139109494D01*
X116270725Y-139109706D01*
X116494860Y-139017095D01*
X116666493Y-138845762D01*
X116759494Y-138621789D01*
X116759706Y-138379275D01*
X116667095Y-138155140D01*
X116495762Y-137983507D01*
X116271789Y-137890506D01*
X116029275Y-137890294D01*
X115805140Y-137982905D01*
X115633507Y-138154238D01*
X115540506Y-138378211D01*
X115540294Y-138620725D01*
X114948500Y-138620725D01*
X114948500Y-136960657D01*
X115004238Y-137016493D01*
X115228211Y-137109494D01*
X115470725Y-137109706D01*
X115694860Y-137017095D01*
X115866493Y-136845762D01*
X115959494Y-136621789D01*
X115959494Y-136620725D01*
X116340294Y-136620725D01*
X116432905Y-136844860D01*
X116604238Y-137016493D01*
X116828211Y-137109494D01*
X117070725Y-137109706D01*
X117294860Y-137017095D01*
X117349946Y-136962106D01*
X117404238Y-137016493D01*
X117628211Y-137109494D01*
X117870725Y-137109706D01*
X117974601Y-137066785D01*
X117974601Y-141473115D01*
X118027771Y-141740420D01*
X118179187Y-141967029D01*
X118700053Y-142487895D01*
X118583507Y-142604238D01*
X118490506Y-142828211D01*
X118490294Y-143070725D01*
X118582905Y-143294860D01*
X118754238Y-143466493D01*
X118978211Y-143559494D01*
X119220725Y-143559706D01*
X119444860Y-143467095D01*
X119562159Y-143350001D01*
X124106072Y-147893914D01*
X124332681Y-148045330D01*
X124599986Y-148098500D01*
X124867291Y-148045330D01*
X125093900Y-147893914D01*
X125245316Y-147667305D01*
X125298486Y-147400000D01*
X125245316Y-147132695D01*
X125093900Y-146906086D01*
X120947456Y-142759642D01*
X121020725Y-142759706D01*
X121244860Y-142667095D01*
X121416493Y-142495762D01*
X121447650Y-142420725D01*
X131490294Y-142420725D01*
X131582905Y-142644860D01*
X131754238Y-142816493D01*
X131978211Y-142909494D01*
X132220725Y-142909706D01*
X132434199Y-142821500D01*
X136536711Y-142821500D01*
X136628211Y-142859494D01*
X136870725Y-142859706D01*
X137094860Y-142767095D01*
X137266493Y-142595762D01*
X137359494Y-142371789D01*
X137359706Y-142129275D01*
X137267095Y-141905140D01*
X137095762Y-141733507D01*
X136871789Y-141640506D01*
X136629275Y-141640294D01*
X136536810Y-141678500D01*
X132150005Y-141678500D01*
X132150000Y-141678499D01*
X132090215Y-141690391D01*
X131979275Y-141690294D01*
X131755140Y-141782905D01*
X131583507Y-141954238D01*
X131490506Y-142178211D01*
X131490294Y-142420725D01*
X121447650Y-142420725D01*
X121509494Y-142271789D01*
X121509706Y-142029275D01*
X121417095Y-141805140D01*
X121337106Y-141725011D01*
X121416493Y-141645762D01*
X121509494Y-141421789D01*
X121509706Y-141179275D01*
X121417095Y-140955140D01*
X121387106Y-140925098D01*
X121416493Y-140895762D01*
X121509494Y-140671789D01*
X121509706Y-140429275D01*
X121417095Y-140205140D01*
X121362106Y-140150054D01*
X121416493Y-140095762D01*
X121509494Y-139871789D01*
X121509706Y-139629275D01*
X121417095Y-139405140D01*
X121245762Y-139233507D01*
X121021789Y-139140506D01*
X120779275Y-139140294D01*
X120555140Y-139232905D01*
X120383507Y-139404238D01*
X120290506Y-139628211D01*
X120290294Y-139870725D01*
X120382905Y-140094860D01*
X120437894Y-140149946D01*
X120383507Y-140204238D01*
X120290506Y-140428211D01*
X120290294Y-140670725D01*
X120382905Y-140894860D01*
X120412894Y-140924902D01*
X120383507Y-140954238D01*
X120290506Y-141178211D01*
X120290294Y-141420725D01*
X120382905Y-141644860D01*
X120462894Y-141724989D01*
X120383507Y-141804238D01*
X120290506Y-142028211D01*
X120290441Y-142102627D01*
X119371601Y-141183787D01*
X119371601Y-134000000D01*
X123051500Y-134000000D01*
X123051500Y-137946190D01*
X123104670Y-138213495D01*
X123256086Y-138440104D01*
X125586096Y-140770114D01*
X125555140Y-140782905D01*
X125383507Y-140954238D01*
X125363810Y-141001674D01*
X125295762Y-140933507D01*
X125071789Y-140840506D01*
X124829275Y-140840294D01*
X124605140Y-140932905D01*
X124433507Y-141104238D01*
X124340506Y-141328211D01*
X124340294Y-141570725D01*
X124432905Y-141794860D01*
X124604238Y-141966493D01*
X124828211Y-142059494D01*
X125070725Y-142059706D01*
X125294860Y-141967095D01*
X125466493Y-141795762D01*
X125486190Y-141748326D01*
X125554238Y-141816493D01*
X125778211Y-141909494D01*
X126020725Y-141909706D01*
X126244860Y-141817095D01*
X126416493Y-141645762D01*
X126429770Y-141613788D01*
X126809896Y-141993914D01*
X127036506Y-142145330D01*
X127303810Y-142198500D01*
X128250000Y-142198500D01*
X128517304Y-142145330D01*
X128743914Y-141993914D01*
X128895330Y-141767304D01*
X128948500Y-141500000D01*
X128895330Y-141232696D01*
X128743914Y-141006086D01*
X128517304Y-140854670D01*
X128250000Y-140801500D01*
X127593138Y-140801500D01*
X126412363Y-139620725D01*
X134390294Y-139620725D01*
X134482905Y-139844860D01*
X134654238Y-140016493D01*
X134878211Y-140109494D01*
X135120725Y-140109706D01*
X135344860Y-140017095D01*
X135516493Y-139845762D01*
X135609494Y-139621789D01*
X135609706Y-139379275D01*
X135517095Y-139155140D01*
X135345762Y-138983507D01*
X135121789Y-138890506D01*
X134879275Y-138890294D01*
X134655140Y-138982905D01*
X134483507Y-139154238D01*
X134390506Y-139378211D01*
X134390294Y-139620725D01*
X126412363Y-139620725D01*
X125912363Y-139120725D01*
X131390294Y-139120725D01*
X131482905Y-139344860D01*
X131654238Y-139516493D01*
X131878211Y-139609494D01*
X132120725Y-139609706D01*
X132344860Y-139517095D01*
X132440317Y-139421805D01*
X132534840Y-139516493D01*
X132758813Y-139609494D01*
X133001327Y-139609706D01*
X133225462Y-139517095D01*
X133397095Y-139345762D01*
X133490096Y-139121789D01*
X133490308Y-138879275D01*
X133397697Y-138655140D01*
X133226364Y-138483507D01*
X133002391Y-138390506D01*
X132759877Y-138390294D01*
X132535742Y-138482905D01*
X132440285Y-138578195D01*
X132345762Y-138483507D01*
X132121789Y-138390506D01*
X131879275Y-138390294D01*
X131655140Y-138482905D01*
X131483507Y-138654238D01*
X131390506Y-138878211D01*
X131390294Y-139120725D01*
X125912363Y-139120725D01*
X124448500Y-137656862D01*
X124448500Y-136370725D01*
X126640294Y-136370725D01*
X126732905Y-136594860D01*
X126904238Y-136766493D01*
X127128211Y-136859494D01*
X127370725Y-136859706D01*
X127594860Y-136767095D01*
X127766493Y-136595762D01*
X127859494Y-136371789D01*
X127859706Y-136129275D01*
X127767095Y-135905140D01*
X127595762Y-135733507D01*
X127371789Y-135640506D01*
X127129275Y-135640294D01*
X126905140Y-135732905D01*
X126733507Y-135904238D01*
X126640506Y-136128211D01*
X126640294Y-136370725D01*
X124448500Y-136370725D01*
X124448500Y-134620725D01*
X130640294Y-134620725D01*
X130732905Y-134844860D01*
X130904238Y-135016493D01*
X131128211Y-135109494D01*
X131370725Y-135109706D01*
X131594860Y-135017095D01*
X131766493Y-134845762D01*
X131859494Y-134621789D01*
X131859706Y-134379275D01*
X131767095Y-134155140D01*
X131595762Y-133983507D01*
X131371789Y-133890506D01*
X131129275Y-133890294D01*
X130905140Y-133982905D01*
X130733507Y-134154238D01*
X130640506Y-134378211D01*
X130640294Y-134620725D01*
X124448500Y-134620725D01*
X124448500Y-134000000D01*
X124395330Y-133732696D01*
X124243914Y-133506086D01*
X124017304Y-133354670D01*
X123750000Y-133301500D01*
X123482696Y-133354670D01*
X123256086Y-133506086D01*
X123104670Y-133732696D01*
X123051500Y-134000000D01*
X119371601Y-134000000D01*
X119371601Y-132092644D01*
X119506086Y-132293914D01*
X119870221Y-132658049D01*
X119872060Y-132667295D01*
X120023476Y-132893905D01*
X120250086Y-133045321D01*
X120517390Y-133098491D01*
X120840679Y-133098491D01*
X121107984Y-133045321D01*
X121252886Y-132948500D01*
X126989430Y-132948500D01*
X126883507Y-133054238D01*
X126790506Y-133278211D01*
X126790294Y-133520725D01*
X126882905Y-133744860D01*
X127054238Y-133916493D01*
X127278211Y-134009494D01*
X127390391Y-134009592D01*
X127390294Y-134120725D01*
X127482905Y-134344860D01*
X127654238Y-134516493D01*
X127878211Y-134609494D01*
X128120725Y-134609706D01*
X128344860Y-134517095D01*
X128516493Y-134345762D01*
X128609494Y-134121789D01*
X128609706Y-133879275D01*
X128517095Y-133655140D01*
X128345762Y-133483507D01*
X128121789Y-133390506D01*
X128009609Y-133390408D01*
X128009706Y-133279275D01*
X127917095Y-133055140D01*
X127810641Y-132948500D01*
X132090445Y-132948500D01*
X132090294Y-133120725D01*
X132182905Y-133344860D01*
X132354238Y-133516493D01*
X132578211Y-133609494D01*
X132820725Y-133609706D01*
X133000164Y-133535563D01*
X133178211Y-133609494D01*
X133420725Y-133609706D01*
X133644860Y-133517095D01*
X133649858Y-133512106D01*
X133654238Y-133516493D01*
X133878211Y-133609494D01*
X134120725Y-133609706D01*
X134344860Y-133517095D01*
X134450027Y-133412112D01*
X134554238Y-133516505D01*
X134778211Y-133609506D01*
X135020725Y-133609718D01*
X135244860Y-133517107D01*
X135416493Y-133345774D01*
X135509494Y-133121801D01*
X135509645Y-132948500D01*
X136238406Y-132948500D01*
X136155140Y-132982905D01*
X135983507Y-133154238D01*
X135890506Y-133378211D01*
X135890294Y-133620725D01*
X135982905Y-133844860D01*
X136154238Y-134016493D01*
X136246636Y-134054860D01*
X136595886Y-134404109D01*
X136595888Y-134404112D01*
X136781296Y-134527997D01*
X136817582Y-134535215D01*
X136846897Y-134541046D01*
X136733507Y-134654238D01*
X136640506Y-134878211D01*
X136640294Y-135120725D01*
X136732905Y-135344860D01*
X136904238Y-135516493D01*
X137128211Y-135609494D01*
X137140304Y-135609505D01*
X137140294Y-135620725D01*
X137232905Y-135844860D01*
X137278390Y-135890424D01*
X137129275Y-135890294D01*
X136905140Y-135982905D01*
X136733507Y-136154238D01*
X136640506Y-136378211D01*
X136640294Y-136620725D01*
X136732905Y-136844860D01*
X136887894Y-137000121D01*
X136733507Y-137154238D01*
X136640506Y-137378211D01*
X136640294Y-137620725D01*
X136732905Y-137844860D01*
X136904238Y-138016493D01*
X137128211Y-138109494D01*
X137140304Y-138109505D01*
X137140294Y-138120725D01*
X137232905Y-138344860D01*
X137404238Y-138516493D01*
X137628211Y-138609494D01*
X137870725Y-138609706D01*
X138094860Y-138517095D01*
X138266493Y-138345762D01*
X138359494Y-138121789D01*
X138359706Y-137879275D01*
X138267095Y-137655140D01*
X138112106Y-137499879D01*
X138266493Y-137345762D01*
X138359494Y-137121789D01*
X138359706Y-136879275D01*
X138267095Y-136655140D01*
X138095762Y-136483507D01*
X137871789Y-136390506D01*
X137859696Y-136390495D01*
X137859706Y-136379275D01*
X137767095Y-136155140D01*
X137721610Y-136109576D01*
X137870725Y-136109706D01*
X137963190Y-136071500D01*
X138749995Y-136071500D01*
X138750000Y-136071501D01*
X138932418Y-136035215D01*
X138968704Y-136027997D01*
X139154112Y-135904112D01*
X140503293Y-134554930D01*
X140594860Y-134517095D01*
X140766493Y-134345762D01*
X140859494Y-134121789D01*
X140859706Y-133879275D01*
X140767095Y-133655140D01*
X140595762Y-133483507D01*
X140371789Y-133390506D01*
X140129275Y-133390294D01*
X140036810Y-133428500D01*
X137236723Y-133428500D01*
X137054929Y-133246706D01*
X137017095Y-133155140D01*
X136845762Y-132983507D01*
X136761455Y-132948500D01*
X141960672Y-132948500D01*
X142630853Y-133618681D01*
X142554670Y-133732696D01*
X142501500Y-134000000D01*
X142554670Y-134267304D01*
X142706086Y-134493914D01*
X142932696Y-134645330D01*
X143200000Y-134698500D01*
X144000000Y-134698500D01*
X144267305Y-134645330D01*
X144493914Y-134493914D01*
X144645330Y-134267305D01*
X144698500Y-134000000D01*
X144645330Y-133732695D01*
X144493914Y-133506086D01*
X142743914Y-131756086D01*
X142517305Y-131604670D01*
X142250000Y-131551500D01*
X120990670Y-131551500D01*
X120781028Y-131593200D01*
X120493914Y-131306086D01*
X120267305Y-131154670D01*
X120000000Y-131101500D01*
X119732695Y-131154670D01*
X119506086Y-131306086D01*
X119371601Y-131507356D01*
X119371601Y-128920725D01*
X126390294Y-128920725D01*
X126482905Y-129144860D01*
X126654238Y-129316493D01*
X126878211Y-129409494D01*
X127120725Y-129409706D01*
X127344860Y-129317095D01*
X127516493Y-129145762D01*
X127609494Y-128921789D01*
X127609669Y-128720725D01*
X134390294Y-128720725D01*
X134482905Y-128944860D01*
X134654238Y-129116493D01*
X134878211Y-129209494D01*
X135120725Y-129209706D01*
X135344860Y-129117095D01*
X135516493Y-128945762D01*
X135609494Y-128721789D01*
X135609706Y-128479275D01*
X135517095Y-128255140D01*
X135345762Y-128083507D01*
X135121789Y-127990506D01*
X134879275Y-127990294D01*
X134655140Y-128082905D01*
X134483507Y-128254238D01*
X134390506Y-128478211D01*
X134390294Y-128720725D01*
X127609669Y-128720725D01*
X127609706Y-128679275D01*
X127517095Y-128455140D01*
X127345762Y-128283507D01*
X127121789Y-128190506D01*
X126879275Y-128190294D01*
X126655140Y-128282905D01*
X126483507Y-128454238D01*
X126390506Y-128678211D01*
X126390294Y-128920725D01*
X119371601Y-128920725D01*
X119371601Y-125873101D01*
X119318431Y-125605797D01*
X119167015Y-125379187D01*
X117893914Y-124106086D01*
X117667305Y-123954670D01*
X117400000Y-123901500D01*
X117132695Y-123954670D01*
X116906086Y-124106086D01*
X116754670Y-124332695D01*
X116701500Y-124600000D01*
X116754670Y-124867305D01*
X116906086Y-125093914D01*
X117974601Y-126162429D01*
X117974601Y-129190377D01*
X117879275Y-129190294D01*
X117655140Y-129282905D01*
X117483507Y-129454238D01*
X117390506Y-129678211D01*
X117390294Y-129920725D01*
X117482905Y-130144860D01*
X117654238Y-130316493D01*
X117878211Y-130409494D01*
X117974601Y-130409578D01*
X117974601Y-135933197D01*
X117871789Y-135890506D01*
X117629275Y-135890294D01*
X117405140Y-135982905D01*
X117350054Y-136037894D01*
X117295762Y-135983507D01*
X117071789Y-135890506D01*
X116829275Y-135890294D01*
X116605140Y-135982905D01*
X116433507Y-136154238D01*
X116340506Y-136378211D01*
X116340294Y-136620725D01*
X115959494Y-136620725D01*
X115959706Y-136379275D01*
X115867095Y-136155140D01*
X115695762Y-135983507D01*
X115471789Y-135890506D01*
X115229275Y-135890294D01*
X115005140Y-135982905D01*
X114948500Y-136039446D01*
X114948500Y-135500000D01*
X114895330Y-135232696D01*
X114895330Y-135232695D01*
X114743914Y-135006086D01*
X114517305Y-134854670D01*
X114250000Y-134801500D01*
X108919010Y-134801500D01*
X108651705Y-134854670D01*
X108425096Y-135006086D01*
X104042475Y-139388707D01*
X104038600Y-139387936D01*
X102311400Y-139387936D01*
X102162741Y-139417506D01*
X102036714Y-139501714D01*
X101952506Y-139627741D01*
X101922936Y-139776400D01*
X100956000Y-139776400D01*
X100956000Y-130676400D01*
X107595536Y-130676400D01*
X107595536Y-132403600D01*
X107625106Y-132552259D01*
X107709314Y-132678286D01*
X107835341Y-132762494D01*
X107984000Y-132792064D01*
X110016000Y-132792064D01*
X110164659Y-132762494D01*
X110290686Y-132678286D01*
X110374894Y-132552259D01*
X110404464Y-132403600D01*
X110404464Y-130676400D01*
X110374894Y-130527741D01*
X110290686Y-130401714D01*
X110164659Y-130317506D01*
X110016000Y-130287936D01*
X107984000Y-130287936D01*
X107835341Y-130317506D01*
X107709314Y-130401714D01*
X107625106Y-130527741D01*
X107595536Y-130676400D01*
X100956000Y-130676400D01*
X100956000Y-129000000D01*
X107575631Y-129000000D01*
X107670371Y-129476288D01*
X107940166Y-129880065D01*
X108343943Y-130149860D01*
X108820231Y-130244600D01*
X109179769Y-130244600D01*
X109656057Y-130149860D01*
X110059834Y-129880065D01*
X110329629Y-129476288D01*
X110424369Y-129000000D01*
X110329629Y-128523712D01*
X110059834Y-128119935D01*
X109656057Y-127850140D01*
X109179769Y-127755400D01*
X108820231Y-127755400D01*
X108343943Y-127850140D01*
X107940166Y-128119935D01*
X107670371Y-128523712D01*
X107575631Y-129000000D01*
X100956000Y-129000000D01*
X100956000Y-126460000D01*
X107575631Y-126460000D01*
X107670371Y-126936288D01*
X107940166Y-127340065D01*
X108343943Y-127609860D01*
X108820231Y-127704600D01*
X109179769Y-127704600D01*
X109656057Y-127609860D01*
X110059834Y-127340065D01*
X110329629Y-126936288D01*
X110424369Y-126460000D01*
X110329629Y-125983712D01*
X110059834Y-125579935D01*
X109656057Y-125310140D01*
X109179769Y-125215400D01*
X108820231Y-125215400D01*
X108343943Y-125310140D01*
X107940166Y-125579935D01*
X107670371Y-125983712D01*
X107575631Y-126460000D01*
X100956000Y-126460000D01*
X100956000Y-123603810D01*
X119301500Y-123603810D01*
X119301500Y-125200000D01*
X119354670Y-125467304D01*
X119506086Y-125693914D01*
X119732696Y-125845330D01*
X120000000Y-125898500D01*
X120267304Y-125845330D01*
X120493914Y-125693914D01*
X120645330Y-125467304D01*
X120698500Y-125200000D01*
X120698500Y-124720725D01*
X132790294Y-124720725D01*
X132882905Y-124944860D01*
X133054238Y-125116493D01*
X133183157Y-125170025D01*
X133093963Y-125259063D01*
X133000962Y-125483036D01*
X133000750Y-125725550D01*
X133093361Y-125949685D01*
X133264694Y-126121318D01*
X133488667Y-126214319D01*
X133731181Y-126214531D01*
X133955316Y-126121920D01*
X134126949Y-125950587D01*
X134219950Y-125726614D01*
X134220162Y-125484100D01*
X134127551Y-125259965D01*
X133956218Y-125088332D01*
X133827299Y-125034800D01*
X133916493Y-124945762D01*
X134009494Y-124721789D01*
X134009706Y-124479275D01*
X133917095Y-124255140D01*
X133745762Y-124083507D01*
X133521789Y-123990506D01*
X133279275Y-123990294D01*
X133055140Y-124082905D01*
X132883507Y-124254238D01*
X132790506Y-124478211D01*
X132790294Y-124720725D01*
X120698500Y-124720725D01*
X120698500Y-123893138D01*
X124870903Y-119720735D01*
X132790294Y-119720735D01*
X132882905Y-119944870D01*
X133054238Y-120116503D01*
X133278211Y-120209504D01*
X133520725Y-120209716D01*
X133744860Y-120117105D01*
X133916493Y-119945772D01*
X134009494Y-119721799D01*
X134009706Y-119479285D01*
X133917095Y-119255150D01*
X133745762Y-119083517D01*
X133521789Y-118990516D01*
X133279275Y-118990304D01*
X133055140Y-119082915D01*
X132883507Y-119254248D01*
X132790506Y-119478221D01*
X132790294Y-119720735D01*
X124870903Y-119720735D01*
X126226730Y-118364908D01*
X133072082Y-118364908D01*
X133164693Y-118589043D01*
X133336026Y-118760676D01*
X133559999Y-118853677D01*
X133802513Y-118853889D01*
X134026648Y-118761278D01*
X134198281Y-118589945D01*
X134291282Y-118365972D01*
X134291494Y-118123458D01*
X134198883Y-117899323D01*
X134027550Y-117727690D01*
X133803577Y-117634689D01*
X133561063Y-117634477D01*
X133336928Y-117727088D01*
X133165295Y-117898421D01*
X133072294Y-118122394D01*
X133072082Y-118364908D01*
X126226730Y-118364908D01*
X128093138Y-116498500D01*
X138000000Y-116498500D01*
X138267304Y-116445330D01*
X138493914Y-116293914D01*
X138645330Y-116067304D01*
X138698500Y-115800000D01*
X138645330Y-115532696D01*
X138493914Y-115306086D01*
X138267304Y-115154670D01*
X138000000Y-115101500D01*
X127803810Y-115101500D01*
X127536505Y-115154670D01*
X127309896Y-115306086D01*
X119506086Y-123109896D01*
X119354670Y-123336505D01*
X119354670Y-123336506D01*
X119301500Y-123603810D01*
X100956000Y-123603810D01*
X100956000Y-122144750D01*
X102483000Y-122144750D01*
X102483000Y-122655045D01*
X102532783Y-122775231D01*
X102624770Y-122867217D01*
X102744956Y-122917000D01*
X103255250Y-122917000D01*
X103337000Y-122835250D01*
X103337000Y-122063000D01*
X104283000Y-122063000D01*
X104283000Y-122835250D01*
X104364750Y-122917000D01*
X104875044Y-122917000D01*
X104995230Y-122867217D01*
X105087217Y-122775231D01*
X105137000Y-122655045D01*
X105137000Y-122144750D01*
X105055250Y-122063000D01*
X104283000Y-122063000D01*
X103337000Y-122063000D01*
X102564750Y-122063000D01*
X102483000Y-122144750D01*
X100956000Y-122144750D01*
X100956000Y-119323493D01*
X102428761Y-119323493D01*
X102638563Y-119831251D01*
X103026705Y-120220072D01*
X103130087Y-120263000D01*
X102744956Y-120263000D01*
X102624770Y-120312783D01*
X102532783Y-120404769D01*
X102483000Y-120524955D01*
X102483000Y-121035250D01*
X102564750Y-121117000D01*
X103337000Y-121117000D01*
X103337000Y-121097000D01*
X104283000Y-121097000D01*
X104283000Y-121117000D01*
X105055250Y-121117000D01*
X105137000Y-121035250D01*
X105137000Y-120524955D01*
X105087217Y-120404769D01*
X104995230Y-120312783D01*
X104875044Y-120263000D01*
X104490661Y-120263000D01*
X104591251Y-120221437D01*
X104980072Y-119833295D01*
X105190759Y-119325903D01*
X105191239Y-118776507D01*
X104981437Y-118268749D01*
X104593295Y-117879928D01*
X104489913Y-117837000D01*
X104875044Y-117837000D01*
X104995230Y-117787217D01*
X105087217Y-117695231D01*
X105137000Y-117575045D01*
X105137000Y-117064750D01*
X105055250Y-116983000D01*
X104283000Y-116983000D01*
X104283000Y-117003000D01*
X103337000Y-117003000D01*
X103337000Y-116983000D01*
X102564750Y-116983000D01*
X102483000Y-117064750D01*
X102483000Y-117575045D01*
X102532783Y-117695231D01*
X102624770Y-117787217D01*
X102744956Y-117837000D01*
X103129339Y-117837000D01*
X103028749Y-117878563D01*
X102639928Y-118266705D01*
X102429241Y-118774097D01*
X102428761Y-119323493D01*
X100956000Y-119323493D01*
X100956000Y-116120725D01*
X107790294Y-116120725D01*
X107882905Y-116344860D01*
X108054238Y-116516493D01*
X108278211Y-116609494D01*
X108520725Y-116609706D01*
X108744860Y-116517095D01*
X108916493Y-116345762D01*
X109009494Y-116121789D01*
X109009706Y-115879275D01*
X108917095Y-115655140D01*
X108745762Y-115483507D01*
X108521789Y-115390506D01*
X108279275Y-115390294D01*
X108055140Y-115482905D01*
X107883507Y-115654238D01*
X107790506Y-115878211D01*
X107790294Y-116120725D01*
X100956000Y-116120725D01*
X100956000Y-114243493D01*
X102428761Y-114243493D01*
X102638563Y-114751251D01*
X103026705Y-115140072D01*
X103130087Y-115183000D01*
X102744956Y-115183000D01*
X102624770Y-115232783D01*
X102532783Y-115324769D01*
X102483000Y-115444955D01*
X102483000Y-115955250D01*
X102564750Y-116037000D01*
X103337000Y-116037000D01*
X103337000Y-116017000D01*
X104283000Y-116017000D01*
X104283000Y-116037000D01*
X105055250Y-116037000D01*
X105137000Y-115955250D01*
X105137000Y-115444955D01*
X105087217Y-115324769D01*
X104995230Y-115232783D01*
X104875044Y-115183000D01*
X104490661Y-115183000D01*
X104591251Y-115141437D01*
X104980072Y-114753295D01*
X105190759Y-114245903D01*
X105191239Y-113696507D01*
X105035969Y-113320725D01*
X128640294Y-113320725D01*
X128732905Y-113544860D01*
X128904238Y-113716493D01*
X128996637Y-113754860D01*
X129074485Y-113832708D01*
X129074487Y-113832711D01*
X129259895Y-113956596D01*
X129296181Y-113963814D01*
X129478599Y-114000100D01*
X129478604Y-114000099D01*
X131337741Y-114000099D01*
X131283507Y-114054238D01*
X131190506Y-114278211D01*
X131190294Y-114520725D01*
X131282905Y-114744860D01*
X131454238Y-114916493D01*
X131678211Y-115009494D01*
X131920725Y-115009706D01*
X132144860Y-114917095D01*
X132316493Y-114745762D01*
X132409494Y-114521789D01*
X132409494Y-114520725D01*
X134390294Y-114520725D01*
X134482905Y-114744860D01*
X134654238Y-114916493D01*
X134878211Y-115009494D01*
X135120725Y-115009706D01*
X135344860Y-114917095D01*
X135516493Y-114745762D01*
X135609494Y-114521789D01*
X135609706Y-114279275D01*
X135517095Y-114055140D01*
X135345762Y-113883507D01*
X135121789Y-113790506D01*
X134879275Y-113790294D01*
X134655140Y-113882905D01*
X134483507Y-114054238D01*
X134390506Y-114278211D01*
X134390294Y-114520725D01*
X132409494Y-114520725D01*
X132409706Y-114279275D01*
X132317095Y-114055140D01*
X132262150Y-114000099D01*
X132363166Y-114000099D01*
X132363171Y-114000100D01*
X132545589Y-113963814D01*
X132581875Y-113956596D01*
X132767283Y-113832711D01*
X134428529Y-112171464D01*
X136986711Y-112171464D01*
X137078211Y-112209458D01*
X137320725Y-112209670D01*
X137544860Y-112117059D01*
X137716493Y-111945726D01*
X137809494Y-111721753D01*
X137809706Y-111479239D01*
X137717095Y-111255104D01*
X137582951Y-111120725D01*
X140090294Y-111120725D01*
X140182905Y-111344860D01*
X140354238Y-111516493D01*
X140578211Y-111609494D01*
X140820725Y-111609706D01*
X141044860Y-111517095D01*
X141216493Y-111345762D01*
X141309494Y-111121789D01*
X141309706Y-110879275D01*
X141217095Y-110655140D01*
X141045762Y-110483507D01*
X140821789Y-110390506D01*
X140579275Y-110390294D01*
X140355140Y-110482905D01*
X140183507Y-110654238D01*
X140090506Y-110878211D01*
X140090294Y-111120725D01*
X137582951Y-111120725D01*
X137545762Y-111083471D01*
X137321789Y-110990470D01*
X137079275Y-110990258D01*
X136986810Y-111028464D01*
X134191806Y-111028464D01*
X133973102Y-111071967D01*
X133787694Y-111195852D01*
X133787692Y-111195855D01*
X132126447Y-112857099D01*
X129767904Y-112857099D01*
X129767095Y-112855140D01*
X129595762Y-112683507D01*
X129371789Y-112590506D01*
X129129275Y-112590294D01*
X128905140Y-112682905D01*
X128733507Y-112854238D01*
X128640506Y-113078211D01*
X128640294Y-113320725D01*
X105035969Y-113320725D01*
X104981437Y-113188749D01*
X104593295Y-112799928D01*
X104085903Y-112589241D01*
X103536507Y-112588761D01*
X103028749Y-112798563D01*
X102639928Y-113186705D01*
X102429241Y-113694097D01*
X102428761Y-114243493D01*
X100956000Y-114243493D01*
X100956000Y-111554750D01*
X106872860Y-111554750D01*
X106872860Y-112915045D01*
X106922643Y-113035231D01*
X107014630Y-113127217D01*
X107134816Y-113177000D01*
X108495110Y-113177000D01*
X108576860Y-113095250D01*
X108576860Y-111473000D01*
X109522860Y-111473000D01*
X109522860Y-113095250D01*
X109604610Y-113177000D01*
X110964904Y-113177000D01*
X111085090Y-113127217D01*
X111177077Y-113035231D01*
X111226860Y-112915045D01*
X111226860Y-111554750D01*
X111145110Y-111473000D01*
X109522860Y-111473000D01*
X108576860Y-111473000D01*
X106954610Y-111473000D01*
X106872860Y-111554750D01*
X100956000Y-111554750D01*
X100956000Y-109084955D01*
X106872860Y-109084955D01*
X106872860Y-110445250D01*
X106954610Y-110527000D01*
X108576860Y-110527000D01*
X108576860Y-108904750D01*
X109522860Y-108904750D01*
X109522860Y-110527000D01*
X111145110Y-110527000D01*
X111226860Y-110445250D01*
X111226860Y-109084955D01*
X111177077Y-108964769D01*
X111085090Y-108872783D01*
X111002237Y-108838464D01*
X114249860Y-108838464D01*
X114398519Y-108808894D01*
X114524546Y-108724686D01*
X114608754Y-108598659D01*
X114638324Y-108450000D01*
X114638324Y-107870725D01*
X130640294Y-107870725D01*
X130732905Y-108094860D01*
X130904238Y-108266493D01*
X131128211Y-108359494D01*
X131370725Y-108359706D01*
X131594860Y-108267095D01*
X131766493Y-108095762D01*
X131859494Y-107871789D01*
X131859548Y-107809653D01*
X131920725Y-107809706D01*
X131933337Y-107804495D01*
X131883507Y-107854238D01*
X131790506Y-108078211D01*
X131790294Y-108320725D01*
X131882905Y-108544860D01*
X132054238Y-108716493D01*
X132278211Y-108809494D01*
X132520725Y-108809706D01*
X132744860Y-108717095D01*
X132916493Y-108545762D01*
X133009494Y-108321789D01*
X133009494Y-108320725D01*
X136790294Y-108320725D01*
X136882905Y-108544860D01*
X137054238Y-108716493D01*
X137278211Y-108809494D01*
X137520725Y-108809706D01*
X137744860Y-108717095D01*
X137916493Y-108545762D01*
X138009494Y-108321789D01*
X138009706Y-108079275D01*
X137917095Y-107855140D01*
X137745762Y-107683507D01*
X137521789Y-107590506D01*
X137279275Y-107590294D01*
X137055140Y-107682905D01*
X136883507Y-107854238D01*
X136790506Y-108078211D01*
X136790294Y-108320725D01*
X133009494Y-108320725D01*
X133009706Y-108079275D01*
X132917095Y-107855140D01*
X132745762Y-107683507D01*
X132521789Y-107590506D01*
X132279275Y-107590294D01*
X132266663Y-107595505D01*
X132316493Y-107545762D01*
X132409494Y-107321789D01*
X132409706Y-107079275D01*
X132317095Y-106855140D01*
X132282741Y-106820725D01*
X137140294Y-106820725D01*
X137232905Y-107044860D01*
X137404238Y-107216493D01*
X137628211Y-107309494D01*
X137870725Y-107309706D01*
X138094860Y-107217095D01*
X138266493Y-107045762D01*
X138359494Y-106821789D01*
X138359706Y-106579275D01*
X138267095Y-106355140D01*
X138095762Y-106183507D01*
X137871789Y-106090506D01*
X137629275Y-106090294D01*
X137405140Y-106182905D01*
X137233507Y-106354238D01*
X137140506Y-106578211D01*
X137140294Y-106820725D01*
X132282741Y-106820725D01*
X132145762Y-106683507D01*
X131921789Y-106590506D01*
X131679275Y-106590294D01*
X131455140Y-106682905D01*
X131283507Y-106854238D01*
X131190506Y-107078211D01*
X131190452Y-107140347D01*
X131129275Y-107140294D01*
X130905140Y-107232905D01*
X130733507Y-107404238D01*
X130640506Y-107628211D01*
X130640294Y-107870725D01*
X114638324Y-107870725D01*
X114638324Y-104550000D01*
X114608754Y-104401341D01*
X114524546Y-104275314D01*
X114398519Y-104191106D01*
X114249860Y-104161536D01*
X110349860Y-104161536D01*
X110201201Y-104191106D01*
X110075174Y-104275314D01*
X109990966Y-104401341D01*
X109961396Y-104550000D01*
X109961396Y-108450000D01*
X109990966Y-108598659D01*
X110075174Y-108724686D01*
X110201201Y-108808894D01*
X110272117Y-108823000D01*
X109604610Y-108823000D01*
X109522860Y-108904750D01*
X108576860Y-108904750D01*
X108495110Y-108823000D01*
X107134816Y-108823000D01*
X107014630Y-108872783D01*
X106922643Y-108964769D01*
X106872860Y-109084955D01*
X100956000Y-109084955D01*
X100956000Y-107054750D01*
X103572860Y-107054750D01*
X103572860Y-108465045D01*
X103622643Y-108585231D01*
X103714630Y-108677217D01*
X103834816Y-108727000D01*
X105245110Y-108727000D01*
X105326860Y-108645250D01*
X105326860Y-106973000D01*
X106272860Y-106973000D01*
X106272860Y-108645250D01*
X106354610Y-108727000D01*
X107764904Y-108727000D01*
X107885090Y-108677217D01*
X107977077Y-108585231D01*
X108026860Y-108465045D01*
X108026860Y-107054750D01*
X107945110Y-106973000D01*
X106272860Y-106973000D01*
X105326860Y-106973000D01*
X103654610Y-106973000D01*
X103572860Y-107054750D01*
X100956000Y-107054750D01*
X100956000Y-104534955D01*
X103572860Y-104534955D01*
X103572860Y-105945250D01*
X103654610Y-106027000D01*
X105326860Y-106027000D01*
X105326860Y-104354750D01*
X106272860Y-104354750D01*
X106272860Y-106027000D01*
X107945110Y-106027000D01*
X108026860Y-105945250D01*
X108026860Y-104534955D01*
X107977077Y-104414769D01*
X107885090Y-104322783D01*
X107764904Y-104273000D01*
X106354610Y-104273000D01*
X106272860Y-104354750D01*
X105326860Y-104354750D01*
X105245110Y-104273000D01*
X103834816Y-104273000D01*
X103714630Y-104322783D01*
X103622643Y-104414769D01*
X103572860Y-104534955D01*
X100956000Y-104534955D01*
X100956000Y-103070725D01*
X133840294Y-103070725D01*
X133932905Y-103294860D01*
X134104238Y-103466493D01*
X134328211Y-103559494D01*
X134570725Y-103559706D01*
X134700041Y-103506274D01*
X134828211Y-103559494D01*
X135070725Y-103559706D01*
X135294860Y-103467095D01*
X135466493Y-103295762D01*
X135559494Y-103071789D01*
X135559706Y-102829275D01*
X135467095Y-102605140D01*
X135295762Y-102433507D01*
X135071789Y-102340506D01*
X134829275Y-102340294D01*
X134699959Y-102393726D01*
X134571789Y-102340506D01*
X134329275Y-102340294D01*
X134105140Y-102432905D01*
X133933507Y-102604238D01*
X133840506Y-102828211D01*
X133840294Y-103070725D01*
X100956000Y-103070725D01*
X100956000Y-100456000D01*
X149044000Y-100456000D01*
X149044000Y-102544000D01*
M02*
