M48
;DRILL file {KiCad 4.X.X-debug} date Sat Sep 24 21:23:56 2016
;FORMAT={-:-/ absolute / inch / decimal}
FMAT,2
INCH,TZ
T1C0.010
T2C0.012
T3C0.039
T4C0.040
T5C0.120
T6C0.138
%
G90
G05
M72
T1
X3.9823Y-5.0551
X3.9823Y-5.1339
X3.9823Y-5.2126
X3.9823Y-5.2913
X3.9823Y-5.3701
X3.9823Y-5.4488
X3.9843Y-4.0315
X3.9843Y-4.0709
X3.9843Y-4.1102
X3.9843Y-4.1496
X3.9843Y-4.189
X3.9843Y-4.2283
X3.9843Y-4.2677
X3.9843Y-4.3071
X3.9843Y-4.3465
X3.9843Y-4.3858
X3.9843Y-4.4252
X3.9843Y-4.4646
X3.9843Y-4.5039
X3.9843Y-4.5433
X3.9843Y-4.5827
X3.9843Y-4.622
X3.9843Y-4.6614
X3.9843Y-4.7008
X3.9843Y-4.7402
X3.9843Y-4.7795
X3.9843Y-4.8189
X3.9843Y-4.8583
X3.9843Y-4.8976
X3.9843Y-4.937
X3.9843Y-4.9764
X3.9843Y-5.0157
X3.9843Y-5.0945
X3.9843Y-5.1732
X3.9843Y-5.2126
X3.9843Y-5.252
X3.9843Y-5.3307
X3.9843Y-5.4094
X3.9843Y-5.4882
X3.9843Y-5.5276
X3.9843Y-5.5669
X3.9843Y-5.6063
X3.9843Y-5.6457
X3.9843Y-5.685
X3.9843Y-5.7244
X3.9843Y-5.7638
X3.9843Y-5.8031
X3.9843Y-5.8425
X3.9843Y-5.8819
X4.Y-3.9843
X4.0217Y-4.937
X4.0217Y-5.0157
X4.0217Y-5.0945
X4.0217Y-5.1732
X4.0217Y-5.252
X4.0217Y-5.3307
X4.0217Y-5.4094
X4.0217Y-5.4803
X4.0236Y-5.8819
X4.0295Y-4.3307
X4.0295Y-4.4094
X4.0295Y-5.8425
X4.0394Y-3.9843
X4.0453Y-4.0472
X4.0453Y-4.126
X4.0453Y-4.2047
X4.061Y-4.8976
X4.061Y-4.9764
X4.061Y-5.0551
X4.061Y-5.1339
X4.061Y-5.2126
X4.061Y-5.2913
X4.061Y-5.3701
X4.061Y-5.4488
X4.063Y-5.8819
X4.0689Y-4.2913
X4.0689Y-4.3701
X4.0689Y-5.8031
X4.0787Y-3.9843
X4.1004Y-4.0079
X4.1004Y-4.0866
X4.1004Y-4.937
X4.1004Y-5.0157
X4.1004Y-5.0945
X4.1004Y-5.1732
X4.1004Y-5.252
X4.1004Y-5.3307
X4.1004Y-5.4094
X4.1004Y-5.4803
X4.1024Y-5.8819
X4.1083Y-4.3307
X4.1083Y-4.4094
X4.1083Y-5.8425
X4.1181Y-3.9843
X4.1398Y-4.0472
X4.1398Y-4.8976
X4.1398Y-4.9764
X4.1398Y-5.0551
X4.1398Y-5.1339
X4.1398Y-5.2126
X4.1398Y-5.2913
X4.1398Y-5.3701
X4.1398Y-5.4409
X4.1417Y-5.8819
X4.1476Y-4.2913
X4.1476Y-4.3701
X4.1575Y-3.9843
X4.1791Y-4.0079
X4.1791Y-4.0866
X4.1791Y-4.8583
X4.1791Y-4.937
X4.1791Y-5.0157
X4.1791Y-5.0945
X4.1791Y-5.1732
X4.1791Y-5.252
X4.1791Y-5.3307
X4.1791Y-5.4016
X4.1791Y-5.4882
X4.1811Y-5.8819
X4.187Y-4.3307
X4.187Y-4.4094
X4.1969Y-3.9843
X4.2185Y-4.0472
X4.2185Y-4.8976
X4.2185Y-4.9764
X4.2205Y-5.8819
X4.2362Y-3.9843
X4.2579Y-4.0079
X4.2579Y-4.0866
X4.2579Y-4.8583
X4.2579Y-5.5827
X4.2579Y-5.6614
X4.2579Y-5.7402
X4.2579Y-5.8189
X4.2598Y-5.8819
X4.2677Y-4.5669
X4.2736Y-4.4961
X4.2756Y-3.9843
X4.2913Y-5.2913
X4.2972Y-4.0472
X4.2972Y-4.1575
X4.2972Y-4.2362
X4.2972Y-4.8976
X4.2992Y-5.8819
X4.315Y-3.9843
X4.3366Y-4.0079
X4.3366Y-4.0866
X4.3386Y-5.8819
X4.3504Y-5.6594
X4.3504Y-5.6909
X4.3524Y-4.4961
X4.3543Y-3.9843
X4.3543Y-4.7165
X4.3543Y-5.5906
X4.3543Y-5.622
X4.3701Y-5.7972
X4.376Y-4.0472
X4.378Y-5.8819
X4.3839Y-4.2992
X4.3839Y-4.378
X4.3839Y-4.4567
X4.3937Y-3.9843
X4.3996Y-5.0394
X4.3996Y-5.1181
X4.3996Y-5.1969
X4.3996Y-5.2756
X4.4154Y-4.0079
X4.4154Y-4.0866
X4.4173Y-5.8819
X4.4232Y-4.3386
X4.4232Y-4.4173
X4.4232Y-4.4961
X4.4331Y-3.9843
X4.4331Y-5.5039
X4.4528Y-5.565
X4.4547Y-4.0472
X4.4567Y-5.8819
X4.4626Y-4.2992
X4.4626Y-4.378
X4.4626Y-4.4567
X4.4705Y-5.1969
X4.4705Y-5.2756
X4.4724Y-3.9843
X4.4783Y-5.7972
X4.4843Y-5.5453
X4.4941Y-4.0079
X4.4941Y-4.0866
X4.4961Y-5.8819
X4.498Y-5.3346
X4.502Y-4.3386
X4.502Y-4.4173
X4.502Y-4.4961
X4.5098Y-5.2362
X4.5118Y-3.9843
X4.5217Y-5.6772
X4.5335Y-4.0472
X4.5354Y-5.8819
X4.5413Y-4.2992
X4.5413Y-4.378
X4.5413Y-4.4567
X4.5413Y-5.374
X4.5492Y-5.1969
X4.5492Y-5.2756
X4.5512Y-3.9843
X4.5591Y-5.5039
X4.5728Y-4.0079
X4.5728Y-4.0866
X4.5728Y-5.4528
X4.5748Y-5.8819
X4.5807Y-4.4173
X4.5807Y-4.4961
X4.5906Y-3.9843
X4.5984Y-5.5433
X4.6043Y-5.374
X4.6122Y-4.0472
X4.6142Y-5.8819
X4.622Y-4.9055
X4.626Y-5.0295
X4.6299Y-3.9843
X4.6358Y-5.374
X4.6378Y-4.9213
X4.6378Y-5.5827
X4.6457Y-5.0689
X4.6457Y-5.1102
X4.6516Y-4.0079
X4.6516Y-4.0866
X4.6535Y-5.8819
X4.6693Y-3.9843
X4.6752Y-5.8268
X4.689Y-5.628
X4.6909Y-4.0472
X4.6929Y-5.8819
X4.7067Y-5.4173
X4.7087Y-3.9843
X4.7146Y-4.0079
X4.7146Y-4.0866
X4.7244Y-4.9055
X4.7244Y-4.9291
X4.7244Y-5.0295
X4.7244Y-5.0787
X4.7244Y-5.189
X4.7323Y-5.8819
X4.7448Y-5.2126
X4.7461Y-5.378
X4.748Y-3.9843
X4.7539Y-4.0472
X4.7559Y-5.063
X4.7598Y-5.4705
X4.7598Y-5.502
X4.7598Y-5.5335
X4.7598Y-5.563
X4.7598Y-5.5965
X4.7638Y-5.2953
X4.7717Y-5.8819
X4.7776Y-4.874
X4.7776Y-4.9528
X4.7795Y-4.7087
X4.7854Y-5.4173
X4.7874Y-3.9843
X4.7933Y-4.0079
X4.7933Y-4.0866
X4.7933Y-5.5709
X4.7933Y-5.7717
X4.7953Y-5.1024
X4.811Y-5.8819
X4.8169Y-4.8346
X4.8169Y-4.9134
X4.8169Y-4.9921
X4.8189Y-4.6693
X4.8248Y-5.378
X4.8268Y-3.9843
X4.8327Y-4.0472
X4.8327Y-5.811
X4.8346Y-5.1417
X4.8425Y-5.5276
X4.8484Y-4.2283
X4.8484Y-4.3071
X4.8484Y-4.3858
X4.8484Y-4.4646
X4.8504Y-5.8819
X4.8563Y-4.7953
X4.8563Y-4.874
X4.8563Y-4.9528
X4.8563Y-5.0315
X4.8583Y-4.6299
X4.8661Y-3.9843
X4.872Y-5.2756
X4.872Y-5.2953
X4.872Y-5.5709
X4.8819Y-5.7795
X4.8878Y-4.2677
X4.8878Y-4.3465
X4.8878Y-4.4252
X4.8898Y-5.8819
X4.9055Y-5.8031
X4.9055Y-3.9843
X4.9055Y-4.0236
X4.9055Y-4.063
X4.9193Y-5.5689
X4.9291Y-4.2283
X4.9291Y-4.2677
X4.9291Y-4.3071
X4.9291Y-4.3465
X4.9291Y-4.3858
X4.9291Y-4.5433
X4.9291Y-4.5827
X4.9291Y-4.622
X4.9291Y-4.7008
X4.9291Y-4.7402
X4.9291Y-4.7795
X4.9291Y-4.8189
X4.9291Y-4.8583
X4.9291Y-4.8976
X4.9291Y-4.937
X4.9291Y-4.9764
X4.9291Y-5.0157
X4.9291Y-5.0551
X4.9291Y-5.0945
X4.9291Y-5.252
X4.9291Y-5.3307
X4.9291Y-5.3701
X4.9291Y-5.4094
X4.9291Y-5.4488
X4.9291Y-5.5276
X4.9291Y-5.6398
X4.9291Y-5.7638
X4.9291Y-5.8819
X4.9449Y-3.9843
X4.9567Y-5.563
X4.9606Y-5.7579
X4.9665Y-4.0157
X4.9685Y-5.8819
X4.9764Y-4.5276
X4.9823Y-4.2362
X4.9823Y-4.315
X4.9823Y-4.874
X4.9823Y-4.9528
X4.9823Y-5.0315
X4.9843Y-3.9843
X4.9843Y-5.1732
X4.9921Y-4.7953
X4.9921Y-4.8346
X5.Y-5.0709
X5.Y-5.315
X5.Y-5.4094
X5.0059Y-4.0551
X5.0059Y-4.6535
X5.0059Y-4.7323
X5.0079Y-5.8819
X5.0098Y-5.3642
X5.0157Y-5.252
X5.0197Y-5.5709
X5.0217Y-4.2047
X5.0217Y-4.2756
X5.0217Y-4.9134
X5.0217Y-4.9921
X5.0236Y-3.9843
X5.0236Y-5.1339
X5.0394Y-5.2756
X5.0453Y-4.0157
X5.0463Y-4.5591
X5.0472Y-5.8819
X5.0492Y-5.5709
X5.0512Y-5.315
X5.0551Y-4.6535
X5.0551Y-4.6929
X5.0551Y-4.7323
X5.0551Y-4.7717
X5.0551Y-4.8504
X5.0551Y-4.8898
X5.0551Y-4.9291
X5.063Y-3.9843
X5.063Y-4.9685
X5.063Y-5.0945
X5.0709Y-4.5591
X5.0787Y-4.2205
X5.0787Y-4.6378
X5.0846Y-4.0551
X5.0866Y-5.8819
X5.0886Y-4.4567
X5.0925Y-4.1496
X5.0945Y-5.7093
X5.0984Y-5.1772
X5.1024Y-3.9843
X5.1024Y-5.0079
X5.1122Y-4.3543
X5.1122Y-4.3937
X5.1181Y-4.5984
X5.1181Y-4.685
X5.1181Y-4.7244
X5.1181Y-4.7638
X5.1181Y-4.8031
X5.1181Y-4.8425
X5.1181Y-4.8819
X5.1181Y-4.9213
X5.124Y-4.0157
X5.126Y-5.8819
X5.1299Y-4.7913
X5.1319Y-4.189
X5.1339Y-4.9528
X5.1398Y-5.8504
X5.1417Y-3.9843
X5.1417Y-4.6535
X5.1417Y-5.0472
X5.1476Y-4.439
X5.1535Y-4.815
X5.1634Y-4.0551
X5.1654Y-4.6457
X5.1654Y-4.685
X5.1654Y-4.7244
X5.1654Y-4.7638
X5.1654Y-4.8031
X5.1654Y-4.8425
X5.1654Y-4.8819
X5.1654Y-4.9213
X5.1654Y-4.9685
X5.1654Y-5.8819
X5.1673Y-4.2421
X5.1673Y-5.2953
X5.1713Y-4.1496
X5.1732Y-4.5276
X5.1732Y-4.9921
X5.1811Y-3.9843
X5.1811Y-4.6142
X5.1811Y-5.0787
X5.189Y-4.2205
X5.189Y-4.5039
X5.1969Y-4.3386
X5.1969Y-4.3898
X5.1969Y-5.4724
X5.2008Y-5.6024
X5.2028Y-4.0157
X5.2047Y-5.8189
X5.2047Y-5.8819
X5.2106Y-4.189
X5.2126Y-4.2598
X5.2126Y-4.5276
X5.2185Y-5.8504
X5.2205Y-3.9843
X5.2205Y-4.4882
X5.2205Y-5.0787
X5.2205Y-5.1102
X5.2205Y-5.1496
X5.2244Y-5.2362
X5.2264Y-4.9291
X5.2283Y-4.685
X5.2283Y-4.7244
X5.2283Y-4.7638
X5.2283Y-4.8425
X5.2283Y-4.8819
X5.2315Y-5.4724
X5.2362Y-4.2205
X5.2402Y-4.815
X5.2421Y-4.0551
X5.2441Y-5.748
X5.2441Y-5.8189
X5.2441Y-5.8819
X5.2475Y-5.3302
X5.2475Y-5.3981
X5.248Y-4.3386
X5.248Y-4.3898
X5.248Y-5.2362
X5.25Y-4.1496
X5.252Y-4.7087
X5.252Y-4.9055
X5.2598Y-3.9843
X5.2603Y-4.9451
X5.2631Y-4.6553
X5.2638Y-4.7913
X5.2756Y-4.1811
X5.2756Y-4.685
X5.2756Y-4.7244
X5.2756Y-4.7638
X5.2756Y-4.8425
X5.2756Y-4.8819
X5.2756Y-5.0945
X5.2756Y-5.1339
X5.2756Y-5.2362
X5.2776Y-4.9291
X5.2815Y-4.0157
X5.2835Y-4.2677
X5.2835Y-4.4252
X5.2835Y-4.4646
X5.2835Y-4.5039
X5.2835Y-5.748
X5.2835Y-5.8189
X5.2835Y-5.8819
X5.2913Y-4.5276
X5.2933Y-4.0531
X5.2972Y-5.8504
X5.2992Y-3.9843
X5.3071Y-4.1732
X5.311Y-5.2362
X5.313Y-4.0531
X5.315Y-4.5039
X5.315Y-5.063
X5.315Y-5.0945
X5.315Y-5.4921
X5.3155Y-5.3302
X5.3155Y-5.3981
X5.3228Y-4.2283
X5.3228Y-4.6142
X5.3228Y-5.748
X5.3228Y-5.8189
X5.3228Y-5.8819
X5.3248Y-5.1772
X5.3287Y-4.315
X5.3287Y-4.3543
X5.3307Y-4.4646
X5.3307Y-4.5276
X5.3346Y-4.4311
X5.3373Y-5.5636
X5.3386Y-3.9843
X5.3386Y-4.6535
X5.3386Y-4.6929
X5.3386Y-4.7323
X5.3386Y-4.7717
X5.3386Y-4.8504
X5.3386Y-4.8898
X5.3386Y-4.9291
X5.3386Y-4.9764
X5.3504Y-4.7913
X5.3543Y-5.0551
X5.3602Y-4.0157
X5.3602Y-5.6772
X5.3622Y-4.6535
X5.3622Y-5.1339
X5.3622Y-5.748
X5.3622Y-5.8189
X5.3622Y-5.8819
X5.374Y-4.815
X5.374Y-5.2559
X5.376Y-5.8504
X5.378Y-3.9843
X5.378Y-4.3543
X5.378Y-4.4409
X5.378Y-4.5039
X5.3839Y-5.6004
X5.3858Y-4.5906
X5.3858Y-4.685
X5.3858Y-4.7244
X5.3858Y-4.7638
X5.3858Y-4.8425
X5.3858Y-4.8819
X5.3858Y-4.9291
X5.3937Y-5.0157
X5.3996Y-4.0472
X5.3996Y-5.6378
X5.3996Y-5.7165
X5.4016Y-4.3937
X5.4016Y-5.0945
X5.4016Y-5.748
X5.4016Y-5.8189
X5.4016Y-5.8819
X5.4035Y-4.5591
X5.4035Y-5.315
X5.4035Y-5.374
X5.4035Y-5.4134
X5.4094Y-4.2598
X5.4173Y-3.9843
X5.4232Y-4.2008
X5.4232Y-5.3346
X5.4232Y-5.3937
X5.4232Y-5.4331
X5.4252Y-4.315
X5.4252Y-4.6299
X5.4331Y-4.1732
X5.4331Y-4.2283
X5.4331Y-4.5591
X5.4331Y-4.9764
X5.439Y-4.0157
X5.439Y-5.5984
X5.439Y-5.6772
X5.4409Y-5.0551
X5.4409Y-5.748
X5.4409Y-5.8189
X5.4409Y-5.8819
X5.4429Y-5.1772
X5.4488Y-4.6535
X5.4488Y-4.6929
X5.4488Y-4.7323
X5.4488Y-4.7717
X5.4488Y-4.811
X5.4488Y-4.8504
X5.4488Y-4.8898
X5.4488Y-4.9291
X5.4488Y-5.1102
X5.4547Y-4.1024
X5.4547Y-5.8504
X5.4567Y-3.9843
X5.4626Y-4.3504
X5.4724Y-4.1732
X5.4724Y-4.2283
X5.4724Y-4.2677
X5.4724Y-4.3071
X5.4724Y-4.937
X5.4724Y-5.8031
X5.4783Y-4.0551
X5.4783Y-5.5591
X5.4783Y-5.6378
X5.4803Y-4.4961
X5.4803Y-5.0157
X5.4803Y-5.7087
X5.4803Y-5.8819
X5.4941Y-4.1417
X5.4941Y-5.063
X5.4941Y-5.1417
X5.4961Y-3.9843
X5.502Y-4.5276
X5.502Y-4.6063
X5.502Y-4.685
X5.502Y-4.7638
X5.502Y-4.8425
X5.5116Y-4.3758
X5.5118Y-4.1732
X5.5118Y-4.8976
X5.5118Y-5.7638
X5.5177Y-4.0157
X5.5177Y-5.5197
X5.5177Y-5.5984
X5.5197Y-4.9764
X5.5197Y-5.6693
X5.5197Y-5.8819
X5.5217Y-5.2756
X5.5276Y-4.4961
X5.5335Y-4.1024
X5.5354Y-3.9843
X5.5354Y-4.2283
X5.5354Y-4.2677
X5.5354Y-4.3071
X5.5374Y-5.0217
X5.5374Y-5.1004
X5.5394Y-4.3701
X5.5512Y-4.1732
X5.5512Y-5.7244
X5.5571Y-4.0551
X5.5571Y-5.5591
X5.5571Y-5.8346
X5.5591Y-4.937
X5.5591Y-5.6299
X5.5591Y-5.8819
X5.5728Y-4.1417
X5.5748Y-3.9843
X5.5748Y-4.2283
X5.5748Y-5.7717
X5.5886Y-4.378
X5.5906Y-4.1732
X5.5906Y-4.2697
X5.5906Y-5.685
X5.5984Y-4.8976
X5.5984Y-5.8819
X5.6063Y-4.0157
X5.6083Y-5.1516
X5.6142Y-3.9843
X5.628Y-4.4173
X5.628Y-4.4961
X5.628Y-4.5748
X5.628Y-4.6535
X5.628Y-5.0315
X5.628Y-5.1102
X5.628Y-5.3465
X5.628Y-5.4252
X5.6299Y-4.0709
X5.6299Y-4.1102
X5.6299Y-4.1398
X5.6299Y-4.2697
X5.6299Y-4.2992
X5.6299Y-4.3386
X5.6299Y-4.7087
X5.6299Y-4.748
X5.6299Y-4.7776
X5.6299Y-4.9035
X5.6299Y-4.937
X5.6299Y-4.9764
X5.6358Y-5.8346
X5.6378Y-5.2756
X5.6378Y-5.5039
X5.6378Y-5.5433
X5.6378Y-5.5728
X5.6378Y-5.7028
X5.6378Y-5.7323
X5.6378Y-5.7717
X5.6378Y-5.8819
X5.6535Y-3.9843
X5.6673Y-4.378
X5.6673Y-4.4567
X5.6673Y-4.5354
X5.6673Y-4.6142
X5.6673Y-5.0709
X5.6673Y-5.1496
X5.6673Y-5.3858
X5.6693Y-4.0709
X5.6693Y-4.1102
X5.6693Y-4.1398
X5.6693Y-4.2697
X5.6693Y-4.2992
X5.6693Y-4.3386
X5.6693Y-4.7087
X5.6693Y-4.748
X5.6693Y-4.7776
X5.6693Y-4.9035
X5.6693Y-4.937
X5.6693Y-4.9764
X5.6693Y-5.2756
X5.6772Y-5.5039
X5.6772Y-5.5433
X5.6772Y-5.5728
X5.6772Y-5.7028
X5.6772Y-5.7323
X5.6772Y-5.7717
X5.6772Y-5.8819
X5.685Y-4.0157
X5.6929Y-3.9843
X5.7067Y-4.4173
X5.7067Y-4.4961
X5.7067Y-4.5748
X5.7067Y-4.6535
X5.7067Y-5.0315
X5.7067Y-5.1102
X5.7067Y-5.189
X5.7067Y-5.2677
X5.7067Y-5.3465
X5.7067Y-5.4252
X5.7087Y-4.0709
X5.7087Y-4.1102
X5.7087Y-4.1398
X5.7087Y-4.2697
X5.7087Y-4.2992
X5.7087Y-4.3386
X5.7087Y-4.7087
X5.7087Y-4.748
X5.7087Y-4.7776
X5.7087Y-4.9035
X5.7087Y-4.937
X5.7087Y-4.9764
X5.7146Y-5.8346
X5.7165Y-5.5039
X5.7165Y-5.5433
X5.7165Y-5.5728
X5.7165Y-5.7028
X5.7165Y-5.7323
X5.7165Y-5.7717
X5.7165Y-5.8819
X5.7323Y-3.9843
X5.7461Y-4.378
X5.7461Y-4.4567
X5.7461Y-4.5354
X5.7461Y-4.6142
X5.7461Y-5.0709
X5.7461Y-5.1496
X5.7461Y-5.2283
X5.7461Y-5.3071
X5.7461Y-5.3858
X5.748Y-4.0709
X5.748Y-4.1102
X5.748Y-4.1398
X5.748Y-4.2697
X5.748Y-4.2992
X5.748Y-4.3386
X5.748Y-4.7087
X5.748Y-4.748
X5.748Y-4.7776
X5.748Y-4.9035
X5.748Y-4.937
X5.748Y-4.9764
X5.7559Y-5.5039
X5.7559Y-5.5433
X5.7559Y-5.5728
X5.7559Y-5.7028
X5.7559Y-5.7323
X5.7559Y-5.7717
X5.7559Y-5.8819
X5.7638Y-4.0157
X5.7717Y-3.9843
X5.7854Y-4.4173
X5.7854Y-4.4961
X5.7854Y-4.5748
X5.7854Y-4.6535
X5.7854Y-5.0315
X5.7854Y-5.1102
X5.7854Y-5.189
X5.7854Y-5.2677
X5.7854Y-5.3465
X5.7854Y-5.4252
X5.7874Y-4.0709
X5.7874Y-4.1102
X5.7874Y-4.1398
X5.7874Y-4.2697
X5.7874Y-4.2992
X5.7874Y-4.3386
X5.7874Y-4.7087
X5.7874Y-4.748
X5.7874Y-4.7776
X5.7874Y-4.9035
X5.7874Y-4.937
X5.7874Y-4.9764
X5.7933Y-5.8346
X5.7953Y-5.8819
X5.811Y-3.9843
X5.8189Y-5.4646
X5.8346Y-5.8819
X5.8504Y-3.9843
X5.8504Y-4.0236
X5.8504Y-4.378
X5.8504Y-4.4173
X5.8504Y-4.4567
X5.8504Y-4.4961
X5.8504Y-4.5354
X5.8504Y-4.5748
X5.8504Y-4.6142
X5.8504Y-4.6535
X5.8504Y-5.0079
X5.8504Y-5.0472
X5.8504Y-5.0866
X5.8504Y-5.126
X5.8504Y-5.1654
X5.8504Y-5.2047
X5.8504Y-5.2441
X5.8504Y-5.2835
X5.8504Y-5.3228
X5.8504Y-5.3622
X5.8504Y-5.4016
X5.8504Y-5.4409
X5.8504Y-5.811
X5.8504Y-5.8504
T2
X5.2126Y-5.0034
X5.2165Y-4.5974
X5.248Y-5.0034
X5.252Y-4.5974
X5.2835Y-5.0034
X5.2874Y-4.5974
T3
X4.087Y-4.487
X4.087Y-4.587
X4.087Y-4.687
X4.087Y-4.787
T4
X4.062Y-5.537
X4.062Y-5.637
X4.062Y-5.737
X4.162Y-5.537
X4.162Y-5.637
X4.162Y-5.737
X4.2913Y-4.9787
X4.2913Y-5.0787
X4.2913Y-5.1787
T5
X4.2933Y-4.3701
T6
X4.1653Y-4.1929
X4.4213Y-4.1929
T0
M30
