G04 #@! TF.FileFunction,Legend,Bot*
%FSLAX46Y46*%
G04 Gerber Fmt 4.6, Leading zero omitted, Abs format (unit mm)*
G04 Created by KiCad (PCBNEW 4.X.X-debug) date Sat Sep 24 21:23:53 2016*
%MOMM*%
%LPD*%
G01*
G04 APERTURE LIST*
%ADD10C,0.100000*%
%ADD11C,0.125000*%
%ADD12C,0.200000*%
%ADD13C,0.150000*%
%ADD14C,0.300000*%
%ADD15C,0.075000*%
%ADD16C,0.002540*%
G04 APERTURE END LIST*
D10*
D11*
X136383333Y-124066666D02*
X136383333Y-123366666D01*
X136083333Y-124066666D02*
X136083333Y-123700000D01*
X136116666Y-123633333D01*
X136183333Y-123600000D01*
X136283333Y-123600000D01*
X136350000Y-123633333D01*
X136383333Y-123666666D01*
X135850000Y-123600000D02*
X135583333Y-123600000D01*
X135750000Y-123366666D02*
X135750000Y-123966666D01*
X135716666Y-124033333D01*
X135650000Y-124066666D01*
X135583333Y-124066666D01*
X135450000Y-123600000D02*
X135183333Y-123600000D01*
X135350000Y-123366666D02*
X135350000Y-123966666D01*
X135316666Y-124033333D01*
X135250000Y-124066666D01*
X135183333Y-124066666D01*
X134950000Y-123600000D02*
X134950000Y-124300000D01*
X134950000Y-123633333D02*
X134883333Y-123600000D01*
X134750000Y-123600000D01*
X134683333Y-123633333D01*
X134650000Y-123666666D01*
X134616666Y-123733333D01*
X134616666Y-123933333D01*
X134650000Y-124000000D01*
X134683333Y-124033333D01*
X134750000Y-124066666D01*
X134883333Y-124066666D01*
X134950000Y-124033333D01*
X134350000Y-124033333D02*
X134283333Y-124066666D01*
X134150000Y-124066666D01*
X134083333Y-124033333D01*
X134050000Y-123966666D01*
X134050000Y-123933333D01*
X134083333Y-123866666D01*
X134150000Y-123833333D01*
X134250000Y-123833333D01*
X134316666Y-123800000D01*
X134350000Y-123733333D01*
X134350000Y-123700000D01*
X134316666Y-123633333D01*
X134250000Y-123600000D01*
X134150000Y-123600000D01*
X134083333Y-123633333D01*
X133750000Y-124000000D02*
X133716666Y-124033333D01*
X133750000Y-124066666D01*
X133783333Y-124033333D01*
X133750000Y-124000000D01*
X133750000Y-124066666D01*
X133750000Y-123633333D02*
X133716666Y-123666666D01*
X133750000Y-123700000D01*
X133783333Y-123666666D01*
X133750000Y-123633333D01*
X133750000Y-123700000D01*
X132916666Y-123333333D02*
X133516666Y-124233333D01*
X132183333Y-123333333D02*
X132783333Y-124233333D01*
X131650000Y-123600000D02*
X131650000Y-124166666D01*
X131683333Y-124233333D01*
X131716666Y-124266666D01*
X131783333Y-124300000D01*
X131883333Y-124300000D01*
X131950000Y-124266666D01*
X131650000Y-124033333D02*
X131716666Y-124066666D01*
X131850000Y-124066666D01*
X131916666Y-124033333D01*
X131950000Y-124000000D01*
X131983333Y-123933333D01*
X131983333Y-123733333D01*
X131950000Y-123666666D01*
X131916666Y-123633333D01*
X131850000Y-123600000D01*
X131716666Y-123600000D01*
X131650000Y-123633333D01*
X131316666Y-124066666D02*
X131316666Y-123600000D01*
X131316666Y-123366666D02*
X131350000Y-123400000D01*
X131316666Y-123433333D01*
X131283333Y-123400000D01*
X131316666Y-123366666D01*
X131316666Y-123433333D01*
X131083333Y-123600000D02*
X130816666Y-123600000D01*
X130983333Y-123366666D02*
X130983333Y-123966666D01*
X130950000Y-124033333D01*
X130883333Y-124066666D01*
X130816666Y-124066666D01*
X130583333Y-124066666D02*
X130583333Y-123366666D01*
X130283333Y-124066666D02*
X130283333Y-123700000D01*
X130316666Y-123633333D01*
X130383333Y-123600000D01*
X130483333Y-123600000D01*
X130550000Y-123633333D01*
X130583333Y-123666666D01*
X129650000Y-123600000D02*
X129650000Y-124066666D01*
X129950000Y-123600000D02*
X129950000Y-123966666D01*
X129916666Y-124033333D01*
X129850000Y-124066666D01*
X129750000Y-124066666D01*
X129683333Y-124033333D01*
X129650000Y-124000000D01*
X129316666Y-124066666D02*
X129316666Y-123366666D01*
X129316666Y-123633333D02*
X129250000Y-123600000D01*
X129116666Y-123600000D01*
X129050000Y-123633333D01*
X129016666Y-123666666D01*
X128983333Y-123733333D01*
X128983333Y-123933333D01*
X129016666Y-124000000D01*
X129050000Y-124033333D01*
X129116666Y-124066666D01*
X129250000Y-124066666D01*
X129316666Y-124033333D01*
X128683333Y-124000000D02*
X128650000Y-124033333D01*
X128683333Y-124066666D01*
X128716666Y-124033333D01*
X128683333Y-124000000D01*
X128683333Y-124066666D01*
X128050000Y-124033333D02*
X128116666Y-124066666D01*
X128250000Y-124066666D01*
X128316666Y-124033333D01*
X128350000Y-124000000D01*
X128383333Y-123933333D01*
X128383333Y-123733333D01*
X128350000Y-123666666D01*
X128316666Y-123633333D01*
X128250000Y-123600000D01*
X128116666Y-123600000D01*
X128050000Y-123633333D01*
X127650000Y-124066666D02*
X127716666Y-124033333D01*
X127750000Y-124000000D01*
X127783333Y-123933333D01*
X127783333Y-123733333D01*
X127750000Y-123666666D01*
X127716666Y-123633333D01*
X127650000Y-123600000D01*
X127550000Y-123600000D01*
X127483333Y-123633333D01*
X127450000Y-123666666D01*
X127416666Y-123733333D01*
X127416666Y-123933333D01*
X127450000Y-124000000D01*
X127483333Y-124033333D01*
X127550000Y-124066666D01*
X127650000Y-124066666D01*
X127116666Y-124066666D02*
X127116666Y-123600000D01*
X127116666Y-123666666D02*
X127083333Y-123633333D01*
X127016666Y-123600000D01*
X126916666Y-123600000D01*
X126850000Y-123633333D01*
X126816666Y-123700000D01*
X126816666Y-124066666D01*
X126816666Y-123700000D02*
X126783333Y-123633333D01*
X126716666Y-123600000D01*
X126616666Y-123600000D01*
X126550000Y-123633333D01*
X126516666Y-123700000D01*
X126516666Y-124066666D01*
X125683333Y-123333333D02*
X126283333Y-124233333D01*
X125116666Y-124066666D02*
X125450000Y-124066666D01*
X125450000Y-123366666D01*
X124616666Y-124033333D02*
X124683333Y-124066666D01*
X124816666Y-124066666D01*
X124883333Y-124033333D01*
X124916666Y-123966666D01*
X124916666Y-123700000D01*
X124883333Y-123633333D01*
X124816666Y-123600000D01*
X124683333Y-123600000D01*
X124616666Y-123633333D01*
X124583333Y-123700000D01*
X124583333Y-123766666D01*
X124916666Y-123833333D01*
X123983333Y-124066666D02*
X123983333Y-123700000D01*
X124016666Y-123633333D01*
X124083333Y-123600000D01*
X124216666Y-123600000D01*
X124283333Y-123633333D01*
X123983333Y-124033333D02*
X124050000Y-124066666D01*
X124216666Y-124066666D01*
X124283333Y-124033333D01*
X124316666Y-123966666D01*
X124316666Y-123900000D01*
X124283333Y-123833333D01*
X124216666Y-123800000D01*
X124050000Y-123800000D01*
X123983333Y-123766666D01*
X123683333Y-124033333D02*
X123616666Y-124066666D01*
X123483333Y-124066666D01*
X123416666Y-124033333D01*
X123383333Y-123966666D01*
X123383333Y-123933333D01*
X123416666Y-123866666D01*
X123483333Y-123833333D01*
X123583333Y-123833333D01*
X123650000Y-123800000D01*
X123683333Y-123733333D01*
X123683333Y-123700000D01*
X123650000Y-123633333D01*
X123583333Y-123600000D01*
X123483333Y-123600000D01*
X123416666Y-123633333D01*
X123183333Y-123600000D02*
X122916666Y-123600000D01*
X123083333Y-123366666D02*
X123083333Y-123966666D01*
X123050000Y-124033333D01*
X122983333Y-124066666D01*
X122916666Y-124066666D01*
X122716666Y-124033333D02*
X122616666Y-124066666D01*
X122450000Y-124066666D01*
X122383333Y-124033333D01*
X122350000Y-124000000D01*
X122316666Y-123933333D01*
X122316666Y-123866666D01*
X122350000Y-123800000D01*
X122383333Y-123766666D01*
X122450000Y-123733333D01*
X122583333Y-123700000D01*
X122650000Y-123666666D01*
X122683333Y-123633333D01*
X122716666Y-123566666D01*
X122716666Y-123500000D01*
X122683333Y-123433333D01*
X122650000Y-123400000D01*
X122583333Y-123366666D01*
X122416666Y-123366666D01*
X122316666Y-123400000D01*
X122016666Y-124066666D02*
X122016666Y-123600000D01*
X122016666Y-123366666D02*
X122050000Y-123400000D01*
X122016666Y-123433333D01*
X121983333Y-123400000D01*
X122016666Y-123366666D01*
X122016666Y-123433333D01*
X121383333Y-123600000D02*
X121383333Y-124166666D01*
X121416666Y-124233333D01*
X121450000Y-124266666D01*
X121516666Y-124300000D01*
X121616666Y-124300000D01*
X121683333Y-124266666D01*
X121383333Y-124033333D02*
X121450000Y-124066666D01*
X121583333Y-124066666D01*
X121650000Y-124033333D01*
X121683333Y-124000000D01*
X121716666Y-123933333D01*
X121716666Y-123733333D01*
X121683333Y-123666666D01*
X121650000Y-123633333D01*
X121583333Y-123600000D01*
X121450000Y-123600000D01*
X121383333Y-123633333D01*
X121050000Y-123600000D02*
X121050000Y-124066666D01*
X121050000Y-123666666D02*
X121016666Y-123633333D01*
X120950000Y-123600000D01*
X120850000Y-123600000D01*
X120783333Y-123633333D01*
X120750000Y-123700000D01*
X120750000Y-124066666D01*
X120416666Y-124066666D02*
X120416666Y-123600000D01*
X120416666Y-123366666D02*
X120450000Y-123400000D01*
X120416666Y-123433333D01*
X120383333Y-123400000D01*
X120416666Y-123366666D01*
X120416666Y-123433333D01*
X120183333Y-123600000D02*
X119916666Y-123600000D01*
X120083333Y-124066666D02*
X120083333Y-123466666D01*
X120050000Y-123400000D01*
X119983333Y-123366666D01*
X119916666Y-123366666D01*
X119683333Y-124066666D02*
X119683333Y-123600000D01*
X119683333Y-123366666D02*
X119716666Y-123400000D01*
X119683333Y-123433333D01*
X119650000Y-123400000D01*
X119683333Y-123366666D01*
X119683333Y-123433333D01*
X119050000Y-124033333D02*
X119116666Y-124066666D01*
X119250000Y-124066666D01*
X119316666Y-124033333D01*
X119350000Y-124000000D01*
X119383333Y-123933333D01*
X119383333Y-123733333D01*
X119350000Y-123666666D01*
X119316666Y-123633333D01*
X119250000Y-123600000D01*
X119116666Y-123600000D01*
X119050000Y-123633333D01*
X118450000Y-124066666D02*
X118450000Y-123700000D01*
X118483333Y-123633333D01*
X118550000Y-123600000D01*
X118683333Y-123600000D01*
X118750000Y-123633333D01*
X118450000Y-124033333D02*
X118516666Y-124066666D01*
X118683333Y-124066666D01*
X118750000Y-124033333D01*
X118783333Y-123966666D01*
X118783333Y-123900000D01*
X118750000Y-123833333D01*
X118683333Y-123800000D01*
X118516666Y-123800000D01*
X118450000Y-123766666D01*
X118116666Y-123600000D02*
X118116666Y-124066666D01*
X118116666Y-123666666D02*
X118083333Y-123633333D01*
X118016666Y-123600000D01*
X117916666Y-123600000D01*
X117850000Y-123633333D01*
X117816666Y-123700000D01*
X117816666Y-124066666D01*
X117583333Y-123600000D02*
X117316666Y-123600000D01*
X117483333Y-123366666D02*
X117483333Y-123966666D01*
X117450000Y-124033333D01*
X117383333Y-124066666D01*
X117316666Y-124066666D01*
X116850000Y-123700000D02*
X116750000Y-123733333D01*
X116716666Y-123766666D01*
X116683333Y-123833333D01*
X116683333Y-123933333D01*
X116716666Y-124000000D01*
X116750000Y-124033333D01*
X116816666Y-124066666D01*
X117083333Y-124066666D01*
X117083333Y-123366666D01*
X116850000Y-123366666D01*
X116783333Y-123400000D01*
X116750000Y-123433333D01*
X116716666Y-123500000D01*
X116716666Y-123566666D01*
X116750000Y-123633333D01*
X116783333Y-123666666D01*
X116850000Y-123700000D01*
X117083333Y-123700000D01*
X116383333Y-124066666D02*
X116383333Y-123600000D01*
X116383333Y-123366666D02*
X116416666Y-123400000D01*
X116383333Y-123433333D01*
X116350000Y-123400000D01*
X116383333Y-123366666D01*
X116383333Y-123433333D01*
X116150000Y-123600000D02*
X115883333Y-123600000D01*
X116050000Y-123366666D02*
X116050000Y-123966666D01*
X116016666Y-124033333D01*
X115950000Y-124066666D01*
X115883333Y-124066666D01*
X115150000Y-123333333D02*
X115750000Y-124233333D01*
X114683333Y-123700000D02*
X114916666Y-123700000D01*
X114916666Y-124066666D02*
X114916666Y-123366666D01*
X114583333Y-123366666D01*
X114316666Y-124066666D02*
X114316666Y-123600000D01*
X114316666Y-123733333D02*
X114283333Y-123666666D01*
X114250000Y-123633333D01*
X114183333Y-123600000D01*
X114116666Y-123600000D01*
X113616666Y-124033333D02*
X113683333Y-124066666D01*
X113816666Y-124066666D01*
X113883333Y-124033333D01*
X113916666Y-123966666D01*
X113916666Y-123700000D01*
X113883333Y-123633333D01*
X113816666Y-123600000D01*
X113683333Y-123600000D01*
X113616666Y-123633333D01*
X113583333Y-123700000D01*
X113583333Y-123766666D01*
X113916666Y-123833333D01*
X112983333Y-123600000D02*
X112983333Y-124300000D01*
X112983333Y-124033333D02*
X113050000Y-124066666D01*
X113183333Y-124066666D01*
X113250000Y-124033333D01*
X113283333Y-124000000D01*
X113316666Y-123933333D01*
X113316666Y-123733333D01*
X113283333Y-123666666D01*
X113250000Y-123633333D01*
X113183333Y-123600000D01*
X113050000Y-123600000D01*
X112983333Y-123633333D01*
X112683333Y-124033333D02*
X112583333Y-124066666D01*
X112416666Y-124066666D01*
X112350000Y-124033333D01*
X112316666Y-124000000D01*
X112283333Y-123933333D01*
X112283333Y-123866666D01*
X112316666Y-123800000D01*
X112350000Y-123766666D01*
X112416666Y-123733333D01*
X112550000Y-123700000D01*
X112616666Y-123666666D01*
X112650000Y-123633333D01*
X112683333Y-123566666D01*
X112683333Y-123500000D01*
X112650000Y-123433333D01*
X112616666Y-123400000D01*
X112550000Y-123366666D01*
X112383333Y-123366666D01*
X112283333Y-123400000D01*
X112050000Y-123600000D02*
X111883333Y-124066666D01*
X111716666Y-123600000D02*
X111883333Y-124066666D01*
X111950000Y-124233333D01*
X111983333Y-124266666D01*
X112050000Y-124300000D01*
X111450000Y-123600000D02*
X111450000Y-124066666D01*
X111450000Y-123666666D02*
X111416666Y-123633333D01*
X111350000Y-123600000D01*
X111250000Y-123600000D01*
X111183333Y-123633333D01*
X111150000Y-123700000D01*
X111150000Y-124066666D01*
X110916666Y-123600000D02*
X110650000Y-123600000D01*
X110816666Y-123366666D02*
X110816666Y-123966666D01*
X110783333Y-124033333D01*
X110716666Y-124066666D01*
X110650000Y-124066666D01*
X110416666Y-124066666D02*
X110416666Y-123366666D01*
X110116666Y-124066666D02*
X110116666Y-123700000D01*
X110150000Y-123633333D01*
X110216666Y-123600000D01*
X110316666Y-123600000D01*
X110383333Y-123633333D01*
X110416666Y-123666666D01*
X107928428Y-142145857D02*
X107964714Y-142254714D01*
X107964714Y-142436142D01*
X107928428Y-142508714D01*
X107892142Y-142545000D01*
X107819571Y-142581285D01*
X107747000Y-142581285D01*
X107674428Y-142545000D01*
X107638142Y-142508714D01*
X107601857Y-142436142D01*
X107565571Y-142291000D01*
X107529285Y-142218428D01*
X107493000Y-142182142D01*
X107420428Y-142145857D01*
X107347857Y-142145857D01*
X107275285Y-142182142D01*
X107239000Y-142218428D01*
X107202714Y-142291000D01*
X107202714Y-142472428D01*
X107239000Y-142581285D01*
X107202714Y-142835285D02*
X107964714Y-143016714D01*
X107420428Y-143161857D01*
X107964714Y-143307000D01*
X107202714Y-143488428D01*
X107964714Y-143778714D02*
X107202714Y-143778714D01*
X107202714Y-143960142D01*
X107239000Y-144069000D01*
X107311571Y-144141571D01*
X107384142Y-144177857D01*
X107529285Y-144214142D01*
X107638142Y-144214142D01*
X107783285Y-144177857D01*
X107855857Y-144141571D01*
X107928428Y-144069000D01*
X107964714Y-143960142D01*
X107964714Y-143778714D01*
D12*
X115703571Y-102880000D02*
X115703571Y-102594285D01*
X115775000Y-102451428D01*
X115846428Y-102380000D01*
X116060714Y-102237142D01*
X116346428Y-102165714D01*
X116917857Y-102165714D01*
X117060714Y-102237142D01*
X117132142Y-102308571D01*
X117203571Y-102451428D01*
X117203571Y-102737142D01*
X117132142Y-102880000D01*
X117060714Y-102951428D01*
X116917857Y-103022857D01*
X116560714Y-103022857D01*
X116417857Y-102951428D01*
X116346428Y-102880000D01*
X116275000Y-102737142D01*
X116275000Y-102451428D01*
X116346428Y-102308571D01*
X116417857Y-102237142D01*
X116560714Y-102165714D01*
X117060714Y-103665714D02*
X117132142Y-103737142D01*
X117203571Y-103665714D01*
X117132142Y-103594285D01*
X117060714Y-103665714D01*
X117203571Y-103665714D01*
X115703571Y-105094285D02*
X115703571Y-104380000D01*
X116417857Y-104308571D01*
X116346428Y-104380000D01*
X116275000Y-104522857D01*
X116275000Y-104880000D01*
X116346428Y-105022857D01*
X116417857Y-105094285D01*
X116560714Y-105165714D01*
X116917857Y-105165714D01*
X117060714Y-105094285D01*
X117132142Y-105022857D01*
X117203571Y-104880000D01*
X117203571Y-104522857D01*
X117132142Y-104380000D01*
X117060714Y-104308571D01*
X116632142Y-106951428D02*
X116632142Y-108094285D01*
X117203571Y-110737142D02*
X117203571Y-109880000D01*
X117203571Y-110308571D02*
X115703571Y-110308571D01*
X115917857Y-110165714D01*
X116060714Y-110022857D01*
X116132142Y-109880000D01*
X115703571Y-112022857D02*
X115703571Y-111737142D01*
X115775000Y-111594285D01*
X115846428Y-111522857D01*
X116060714Y-111380000D01*
X116346428Y-111308571D01*
X116917857Y-111308571D01*
X117060714Y-111380000D01*
X117132142Y-111451428D01*
X117203571Y-111594285D01*
X117203571Y-111880000D01*
X117132142Y-112022857D01*
X117060714Y-112094285D01*
X116917857Y-112165714D01*
X116560714Y-112165714D01*
X116417857Y-112094285D01*
X116346428Y-112022857D01*
X116275000Y-111880000D01*
X116275000Y-111594285D01*
X116346428Y-111451428D01*
X116417857Y-111380000D01*
X116560714Y-111308571D01*
X115703571Y-112594285D02*
X117203571Y-113094285D01*
X115703571Y-113594285D01*
X118653571Y-102237142D02*
X119082142Y-103380000D01*
X119510714Y-102237142D01*
X118153571Y-104380000D02*
X118153571Y-104522857D01*
X118225000Y-104665714D01*
X118296428Y-104737142D01*
X118439285Y-104808571D01*
X118725000Y-104880000D01*
X119082142Y-104880000D01*
X119367857Y-104808571D01*
X119510714Y-104737142D01*
X119582142Y-104665714D01*
X119653571Y-104522857D01*
X119653571Y-104380000D01*
X119582142Y-104237142D01*
X119510714Y-104165714D01*
X119367857Y-104094285D01*
X119082142Y-104022857D01*
X118725000Y-104022857D01*
X118439285Y-104094285D01*
X118296428Y-104165714D01*
X118225000Y-104237142D01*
X118153571Y-104380000D01*
X119510714Y-105522857D02*
X119582142Y-105594285D01*
X119653571Y-105522857D01*
X119582142Y-105451428D01*
X119510714Y-105522857D01*
X119653571Y-105522857D01*
X118796428Y-106451428D02*
X118725000Y-106308571D01*
X118653571Y-106237142D01*
X118510714Y-106165714D01*
X118439285Y-106165714D01*
X118296428Y-106237142D01*
X118225000Y-106308571D01*
X118153571Y-106451428D01*
X118153571Y-106737142D01*
X118225000Y-106880000D01*
X118296428Y-106951428D01*
X118439285Y-107022857D01*
X118510714Y-107022857D01*
X118653571Y-106951428D01*
X118725000Y-106880000D01*
X118796428Y-106737142D01*
X118796428Y-106451428D01*
X118867857Y-106308571D01*
X118939285Y-106237142D01*
X119082142Y-106165714D01*
X119367857Y-106165714D01*
X119510714Y-106237142D01*
X119582142Y-106308571D01*
X119653571Y-106451428D01*
X119653571Y-106737142D01*
X119582142Y-106880000D01*
X119510714Y-106951428D01*
X119367857Y-107022857D01*
X119082142Y-107022857D01*
X118939285Y-106951428D01*
X118867857Y-106880000D01*
X118796428Y-106737142D01*
X119225000Y-108737142D02*
X119225000Y-109451428D01*
X119653571Y-108594285D02*
X118153571Y-109094285D01*
X119653571Y-109594285D01*
X140928571Y-140594285D02*
X140214285Y-140094285D01*
X140928571Y-139737142D02*
X139428571Y-139737142D01*
X139428571Y-140308571D01*
X139500000Y-140451428D01*
X139571428Y-140522857D01*
X139714285Y-140594285D01*
X139928571Y-140594285D01*
X140071428Y-140522857D01*
X140142857Y-140451428D01*
X140214285Y-140308571D01*
X140214285Y-139737142D01*
X140142857Y-141237142D02*
X140142857Y-141737142D01*
X140928571Y-141951428D02*
X140928571Y-141237142D01*
X139428571Y-141237142D01*
X139428571Y-141951428D01*
X140142857Y-143094285D02*
X140142857Y-142594285D01*
X140928571Y-142594285D02*
X139428571Y-142594285D01*
X139428571Y-143308571D01*
X140928571Y-145022857D02*
X139428571Y-145022857D01*
X140928571Y-145737142D02*
X139428571Y-145737142D01*
X140928571Y-146594285D01*
X139428571Y-146594285D01*
X141428571Y-121594285D02*
X140714285Y-121094285D01*
X141428571Y-120737142D02*
X139928571Y-120737142D01*
X139928571Y-121308571D01*
X140000000Y-121451428D01*
X140071428Y-121522857D01*
X140214285Y-121594285D01*
X140428571Y-121594285D01*
X140571428Y-121522857D01*
X140642857Y-121451428D01*
X140714285Y-121308571D01*
X140714285Y-120737142D01*
X140642857Y-122737142D02*
X140642857Y-122237142D01*
X141428571Y-122237142D02*
X139928571Y-122237142D01*
X139928571Y-122951428D01*
X140071428Y-124594285D02*
X140000000Y-124665714D01*
X139928571Y-124808571D01*
X139928571Y-125165714D01*
X140000000Y-125308571D01*
X140071428Y-125380000D01*
X140214285Y-125451428D01*
X140357142Y-125451428D01*
X140571428Y-125380000D01*
X141428571Y-124522857D01*
X141428571Y-125451428D01*
X140928571Y-105344285D02*
X140214285Y-104844285D01*
X140928571Y-104487142D02*
X139428571Y-104487142D01*
X139428571Y-105058571D01*
X139500000Y-105201428D01*
X139571428Y-105272857D01*
X139714285Y-105344285D01*
X139928571Y-105344285D01*
X140071428Y-105272857D01*
X140142857Y-105201428D01*
X140214285Y-105058571D01*
X140214285Y-104487142D01*
X140142857Y-106487142D02*
X140142857Y-105987142D01*
X140928571Y-105987142D02*
X139428571Y-105987142D01*
X139428571Y-106701428D01*
X140928571Y-109201428D02*
X140928571Y-108344285D01*
X140928571Y-108772857D02*
X139428571Y-108772857D01*
X139642857Y-108630000D01*
X139785714Y-108487142D01*
X139857142Y-108344285D01*
D11*
X101832714Y-125962142D02*
X101832714Y-126397571D01*
X102594714Y-126179857D02*
X101832714Y-126179857D01*
X102594714Y-126579000D02*
X102086714Y-126978142D01*
X102086714Y-126579000D02*
X102594714Y-126978142D01*
X102594714Y-128865000D02*
X102231857Y-128611000D01*
X102594714Y-128429571D02*
X101832714Y-128429571D01*
X101832714Y-128719857D01*
X101869000Y-128792428D01*
X101905285Y-128828714D01*
X101977857Y-128865000D01*
X102086714Y-128865000D01*
X102159285Y-128828714D01*
X102195571Y-128792428D01*
X102231857Y-128719857D01*
X102231857Y-128429571D01*
X102594714Y-129119000D02*
X102086714Y-129518142D01*
X102086714Y-129119000D02*
X102594714Y-129518142D01*
X101869000Y-131368714D02*
X101832714Y-131296142D01*
X101832714Y-131187285D01*
X101869000Y-131078428D01*
X101941571Y-131005857D01*
X102014142Y-130969571D01*
X102159285Y-130933285D01*
X102268142Y-130933285D01*
X102413285Y-130969571D01*
X102485857Y-131005857D01*
X102558428Y-131078428D01*
X102594714Y-131187285D01*
X102594714Y-131259857D01*
X102558428Y-131368714D01*
X102522142Y-131405000D01*
X102268142Y-131405000D01*
X102268142Y-131259857D01*
X102594714Y-131731571D02*
X101832714Y-131731571D01*
X102594714Y-132167000D01*
X101832714Y-132167000D01*
X102594714Y-132529857D02*
X101832714Y-132529857D01*
X101832714Y-132711285D01*
X101869000Y-132820142D01*
X101941571Y-132892714D01*
X102014142Y-132929000D01*
X102159285Y-132965285D01*
X102268142Y-132965285D01*
X102413285Y-132929000D01*
X102485857Y-132892714D01*
X102558428Y-132820142D01*
X102594714Y-132711285D01*
X102594714Y-132529857D01*
D12*
X135762857Y-116442857D02*
X136262857Y-116442857D01*
X136262857Y-117228571D02*
X136262857Y-115728571D01*
X135548571Y-115728571D01*
X134977142Y-117228571D02*
X134977142Y-116228571D01*
X134977142Y-116514285D02*
X134905714Y-116371428D01*
X134834285Y-116300000D01*
X134691428Y-116228571D01*
X134548571Y-116228571D01*
X133477142Y-117157142D02*
X133620000Y-117228571D01*
X133905714Y-117228571D01*
X134048571Y-117157142D01*
X134120000Y-117014285D01*
X134120000Y-116442857D01*
X134048571Y-116300000D01*
X133905714Y-116228571D01*
X133620000Y-116228571D01*
X133477142Y-116300000D01*
X133405714Y-116442857D01*
X133405714Y-116585714D01*
X134120000Y-116728571D01*
X132120000Y-116228571D02*
X132120000Y-117728571D01*
X132120000Y-117157142D02*
X132262857Y-117228571D01*
X132548571Y-117228571D01*
X132691428Y-117157142D01*
X132762857Y-117085714D01*
X132834285Y-116942857D01*
X132834285Y-116514285D01*
X132762857Y-116371428D01*
X132691428Y-116300000D01*
X132548571Y-116228571D01*
X132262857Y-116228571D01*
X132120000Y-116300000D01*
X130762857Y-116228571D02*
X130762857Y-117228571D01*
X131405714Y-116228571D02*
X131405714Y-117014285D01*
X131334285Y-117157142D01*
X131191428Y-117228571D01*
X130977142Y-117228571D01*
X130834285Y-117157142D01*
X130762857Y-117085714D01*
X129477142Y-117157142D02*
X129620000Y-117228571D01*
X129905714Y-117228571D01*
X130048571Y-117157142D01*
X130120000Y-117014285D01*
X130120000Y-116442857D01*
X130048571Y-116300000D01*
X129905714Y-116228571D01*
X129620000Y-116228571D01*
X129477142Y-116300000D01*
X129405714Y-116442857D01*
X129405714Y-116585714D01*
X130120000Y-116728571D01*
X128762857Y-116228571D02*
X128762857Y-117228571D01*
X128762857Y-116371428D02*
X128691428Y-116300000D01*
X128548571Y-116228571D01*
X128334285Y-116228571D01*
X128191428Y-116300000D01*
X128120000Y-116442857D01*
X128120000Y-117228571D01*
X126762857Y-117157142D02*
X126905714Y-117228571D01*
X127191428Y-117228571D01*
X127334285Y-117157142D01*
X127405714Y-117085714D01*
X127477142Y-116942857D01*
X127477142Y-116514285D01*
X127405714Y-116371428D01*
X127334285Y-116300000D01*
X127191428Y-116228571D01*
X126905714Y-116228571D01*
X126762857Y-116300000D01*
X126262857Y-116228571D02*
X125905714Y-117228571D01*
X125548571Y-116228571D02*
X125905714Y-117228571D01*
X126048571Y-117585714D01*
X126120000Y-117657142D01*
X126262857Y-117728571D01*
X123905714Y-117157142D02*
X123691428Y-117228571D01*
X123334285Y-117228571D01*
X123191428Y-117157142D01*
X123120000Y-117085714D01*
X123048571Y-116942857D01*
X123048571Y-116800000D01*
X123120000Y-116657142D01*
X123191428Y-116585714D01*
X123334285Y-116514285D01*
X123620000Y-116442857D01*
X123762857Y-116371428D01*
X123834285Y-116300000D01*
X123905714Y-116157142D01*
X123905714Y-116014285D01*
X123834285Y-115871428D01*
X123762857Y-115800000D01*
X123620000Y-115728571D01*
X123262857Y-115728571D01*
X123048571Y-115800000D01*
X122548571Y-116228571D02*
X122191428Y-117228571D01*
X121834285Y-116228571D02*
X122191428Y-117228571D01*
X122334285Y-117585714D01*
X122405714Y-117657142D01*
X122548571Y-117728571D01*
X121262857Y-116228571D02*
X121262857Y-117228571D01*
X121262857Y-116371428D02*
X121191428Y-116300000D01*
X121048571Y-116228571D01*
X120834285Y-116228571D01*
X120691428Y-116300000D01*
X120620000Y-116442857D01*
X120620000Y-117228571D01*
X120120000Y-116228571D02*
X119548571Y-116228571D01*
X119905714Y-115728571D02*
X119905714Y-117014285D01*
X119834285Y-117157142D01*
X119691428Y-117228571D01*
X119548571Y-117228571D01*
X119048571Y-117228571D02*
X119048571Y-115728571D01*
X118405714Y-117228571D02*
X118405714Y-116442857D01*
X118477142Y-116300000D01*
X118620000Y-116228571D01*
X118834285Y-116228571D01*
X118977142Y-116300000D01*
X119048571Y-116371428D01*
X117120000Y-117157142D02*
X117262857Y-117228571D01*
X117548571Y-117228571D01*
X117691428Y-117157142D01*
X117762857Y-117014285D01*
X117762857Y-116442857D01*
X117691428Y-116300000D01*
X117548571Y-116228571D01*
X117262857Y-116228571D01*
X117120000Y-116300000D01*
X117048571Y-116442857D01*
X117048571Y-116585714D01*
X117762857Y-116728571D01*
X116477142Y-117157142D02*
X116334285Y-117228571D01*
X116048571Y-117228571D01*
X115905714Y-117157142D01*
X115834285Y-117014285D01*
X115834285Y-116942857D01*
X115905714Y-116800000D01*
X116048571Y-116728571D01*
X116262857Y-116728571D01*
X116405714Y-116657142D01*
X116477142Y-116514285D01*
X116477142Y-116442857D01*
X116405714Y-116300000D01*
X116262857Y-116228571D01*
X116048571Y-116228571D01*
X115905714Y-116300000D01*
X115191428Y-117228571D02*
X115191428Y-116228571D01*
X115191428Y-115728571D02*
X115262857Y-115800000D01*
X115191428Y-115871428D01*
X115120000Y-115800000D01*
X115191428Y-115728571D01*
X115191428Y-115871428D01*
X114620000Y-116228571D02*
X113834285Y-116228571D01*
X114620000Y-117228571D01*
X113834285Y-117228571D01*
X112691428Y-117157142D02*
X112834285Y-117228571D01*
X113120000Y-117228571D01*
X113262857Y-117157142D01*
X113334285Y-117014285D01*
X113334285Y-116442857D01*
X113262857Y-116300000D01*
X113120000Y-116228571D01*
X112834285Y-116228571D01*
X112691428Y-116300000D01*
X112620000Y-116442857D01*
X112620000Y-116585714D01*
X113334285Y-116728571D01*
X111977142Y-117228571D02*
X111977142Y-116228571D01*
X111977142Y-116514285D02*
X111905714Y-116371428D01*
X111834285Y-116300000D01*
X111691428Y-116228571D01*
X111548571Y-116228571D01*
X136477142Y-118178571D02*
X135977142Y-119678571D01*
X135477142Y-118178571D01*
X133048571Y-119678571D02*
X133905714Y-119678571D01*
X133477142Y-119678571D02*
X133477142Y-118178571D01*
X133620000Y-118392857D01*
X133762857Y-118535714D01*
X133905714Y-118607142D01*
X132405714Y-119535714D02*
X132334285Y-119607142D01*
X132405714Y-119678571D01*
X132477142Y-119607142D01*
X132405714Y-119535714D01*
X132405714Y-119678571D01*
X131405714Y-118178571D02*
X131262857Y-118178571D01*
X131120000Y-118250000D01*
X131048571Y-118321428D01*
X130977142Y-118464285D01*
X130905714Y-118750000D01*
X130905714Y-119107142D01*
X130977142Y-119392857D01*
X131048571Y-119535714D01*
X131120000Y-119607142D01*
X131262857Y-119678571D01*
X131405714Y-119678571D01*
X131548571Y-119607142D01*
X131620000Y-119535714D01*
X131691428Y-119392857D01*
X131762857Y-119107142D01*
X131762857Y-118750000D01*
X131691428Y-118464285D01*
X131620000Y-118321428D01*
X131548571Y-118250000D01*
X131405714Y-118178571D01*
X136262857Y-122128571D02*
X136262857Y-120628571D01*
X135762857Y-121700000D01*
X135262857Y-120628571D01*
X135262857Y-122128571D01*
X133905714Y-122128571D02*
X133905714Y-121342857D01*
X133977142Y-121200000D01*
X134120000Y-121128571D01*
X134405714Y-121128571D01*
X134548571Y-121200000D01*
X133905714Y-122057142D02*
X134048571Y-122128571D01*
X134405714Y-122128571D01*
X134548571Y-122057142D01*
X134620000Y-121914285D01*
X134620000Y-121771428D01*
X134548571Y-121628571D01*
X134405714Y-121557142D01*
X134048571Y-121557142D01*
X133905714Y-121485714D01*
X133191428Y-122128571D02*
X133191428Y-121128571D01*
X133191428Y-121414285D02*
X133120000Y-121271428D01*
X133048571Y-121200000D01*
X132905714Y-121128571D01*
X132762857Y-121128571D01*
X132477142Y-121128571D02*
X131905714Y-121128571D01*
X132262857Y-120628571D02*
X132262857Y-121914285D01*
X132191428Y-122057142D01*
X132048571Y-122128571D01*
X131905714Y-122128571D01*
X131405714Y-122128571D02*
X131405714Y-121128571D01*
X131405714Y-120628571D02*
X131477142Y-120700000D01*
X131405714Y-120771428D01*
X131334285Y-120700000D01*
X131405714Y-120628571D01*
X131405714Y-120771428D01*
X130691428Y-121128571D02*
X130691428Y-122128571D01*
X130691428Y-121271428D02*
X130620000Y-121200000D01*
X130477142Y-121128571D01*
X130262857Y-121128571D01*
X130120000Y-121200000D01*
X130048571Y-121342857D01*
X130048571Y-122128571D01*
X127691428Y-121342857D02*
X127477142Y-121414285D01*
X127405714Y-121485714D01*
X127334285Y-121628571D01*
X127334285Y-121842857D01*
X127405714Y-121985714D01*
X127477142Y-122057142D01*
X127620000Y-122128571D01*
X128191428Y-122128571D01*
X128191428Y-120628571D01*
X127691428Y-120628571D01*
X127548571Y-120700000D01*
X127477142Y-120771428D01*
X127405714Y-120914285D01*
X127405714Y-121057142D01*
X127477142Y-121200000D01*
X127548571Y-121271428D01*
X127691428Y-121342857D01*
X128191428Y-121342857D01*
X126120000Y-122057142D02*
X126262857Y-122128571D01*
X126548571Y-122128571D01*
X126691428Y-122057142D01*
X126762857Y-121914285D01*
X126762857Y-121342857D01*
X126691428Y-121200000D01*
X126548571Y-121128571D01*
X126262857Y-121128571D01*
X126120000Y-121200000D01*
X126048571Y-121342857D01*
X126048571Y-121485714D01*
X126762857Y-121628571D01*
X125405714Y-122128571D02*
X125405714Y-121128571D01*
X125405714Y-121414285D02*
X125334285Y-121271428D01*
X125262857Y-121200000D01*
X125120000Y-121128571D01*
X124977142Y-121128571D01*
X123834285Y-121128571D02*
X123834285Y-122342857D01*
X123905714Y-122485714D01*
X123977142Y-122557142D01*
X124120000Y-122628571D01*
X124334285Y-122628571D01*
X124477142Y-122557142D01*
X123834285Y-122057142D02*
X123977142Y-122128571D01*
X124262857Y-122128571D01*
X124405714Y-122057142D01*
X124477142Y-121985714D01*
X124548571Y-121842857D01*
X124548571Y-121414285D01*
X124477142Y-121271428D01*
X124405714Y-121200000D01*
X124262857Y-121128571D01*
X123977142Y-121128571D01*
X123834285Y-121200000D01*
X122905714Y-122128571D02*
X123048571Y-122057142D01*
X123120000Y-121914285D01*
X123120000Y-120628571D01*
X121691428Y-121128571D02*
X121691428Y-122128571D01*
X122334285Y-121128571D02*
X122334285Y-121914285D01*
X122262857Y-122057142D01*
X122120000Y-122128571D01*
X121905714Y-122128571D01*
X121762857Y-122057142D01*
X121691428Y-121985714D01*
X120977142Y-121128571D02*
X120977142Y-122128571D01*
X120977142Y-121271428D02*
X120905714Y-121200000D01*
X120762857Y-121128571D01*
X120548571Y-121128571D01*
X120405714Y-121200000D01*
X120334285Y-121342857D01*
X120334285Y-122128571D01*
X118977142Y-122128571D02*
X118977142Y-120628571D01*
X118977142Y-122057142D02*
X119120000Y-122128571D01*
X119405714Y-122128571D01*
X119548571Y-122057142D01*
X119620000Y-121985714D01*
X119691428Y-121842857D01*
X119691428Y-121414285D01*
X119620000Y-121271428D01*
X119548571Y-121200000D01*
X119405714Y-121128571D01*
X119120000Y-121128571D01*
X118977142Y-121200000D01*
X117191428Y-120771428D02*
X117120000Y-120700000D01*
X116977142Y-120628571D01*
X116620000Y-120628571D01*
X116477142Y-120700000D01*
X116405714Y-120771428D01*
X116334285Y-120914285D01*
X116334285Y-121057142D01*
X116405714Y-121271428D01*
X117262857Y-122128571D01*
X116334285Y-122128571D01*
X115405714Y-120628571D02*
X115262857Y-120628571D01*
X115120000Y-120700000D01*
X115048571Y-120771428D01*
X114977142Y-120914285D01*
X114905714Y-121200000D01*
X114905714Y-121557142D01*
X114977142Y-121842857D01*
X115048571Y-121985714D01*
X115120000Y-122057142D01*
X115262857Y-122128571D01*
X115405714Y-122128571D01*
X115548571Y-122057142D01*
X115620000Y-121985714D01*
X115691428Y-121842857D01*
X115762857Y-121557142D01*
X115762857Y-121200000D01*
X115691428Y-120914285D01*
X115620000Y-120771428D01*
X115548571Y-120700000D01*
X115405714Y-120628571D01*
X113477142Y-122128571D02*
X114334285Y-122128571D01*
X113905714Y-122128571D02*
X113905714Y-120628571D01*
X114048571Y-120842857D01*
X114191428Y-120985714D01*
X114334285Y-121057142D01*
X112191428Y-120628571D02*
X112477142Y-120628571D01*
X112620000Y-120700000D01*
X112691428Y-120771428D01*
X112834285Y-120985714D01*
X112905714Y-121271428D01*
X112905714Y-121842857D01*
X112834285Y-121985714D01*
X112762857Y-122057142D01*
X112620000Y-122128571D01*
X112334285Y-122128571D01*
X112191428Y-122057142D01*
X112120000Y-121985714D01*
X112048571Y-121842857D01*
X112048571Y-121485714D01*
X112120000Y-121342857D01*
X112191428Y-121271428D01*
X112334285Y-121200000D01*
X112620000Y-121200000D01*
X112762857Y-121271428D01*
X112834285Y-121342857D01*
X112905714Y-121485714D01*
D13*
X136650000Y-104150000D02*
X136650000Y-104850000D01*
X137850000Y-104850000D02*
X137850000Y-104150000D01*
X130100000Y-132400000D02*
X129400000Y-132400000D01*
X129400000Y-133600000D02*
X130100000Y-133600000D01*
X137900000Y-133600000D02*
X138600000Y-133600000D01*
X138600000Y-132400000D02*
X137900000Y-132400000D01*
X133650000Y-104150000D02*
X133650000Y-104850000D01*
X134850000Y-104850000D02*
X134850000Y-104150000D01*
X136350000Y-104850000D02*
X136350000Y-104150000D01*
X135150000Y-104150000D02*
X135150000Y-104850000D01*
X130100000Y-134400000D02*
X129400000Y-134400000D01*
X129400000Y-135600000D02*
X130100000Y-135600000D01*
X129400000Y-134600000D02*
X130100000Y-134600000D01*
X130100000Y-133400000D02*
X129400000Y-133400000D01*
X133675000Y-132150000D02*
X133675000Y-131650000D01*
X134725000Y-131650000D02*
X134725000Y-132150000D01*
X132675000Y-132150000D02*
X132675000Y-131650000D01*
X133725000Y-131650000D02*
X133725000Y-132150000D01*
X131705546Y-132748008D02*
X131351992Y-132394454D01*
X132094454Y-131651992D02*
X132448008Y-132005546D01*
X135270190Y-131987348D02*
X135623744Y-131633794D01*
X136366206Y-132376256D02*
X136012652Y-132729810D01*
X102650000Y-104900000D02*
X103350000Y-104900000D01*
X103000000Y-105250000D02*
X103000000Y-104550000D01*
X103000000Y-108950000D02*
X103000000Y-108250000D01*
X102650000Y-107300000D02*
G75*
G02X102450000Y-106400000I350000J550000D01*
G01*
X103550000Y-106400000D02*
G75*
G02X103350000Y-107300000I-550000J-350000D01*
G01*
D14*
X103200000Y-106750000D02*
G75*
G03X103200000Y-106750000I-200000J0D01*
G01*
X103100000Y-106750000D02*
G75*
G03X103100000Y-106750000I-100000J0D01*
G01*
D13*
X103000000Y-105550000D02*
X103000000Y-106450000D01*
X103650000Y-104900000D02*
G75*
G03X103650000Y-104900000I-650000J0D01*
G01*
X103650000Y-108600000D02*
G75*
G03X103650000Y-108600000I-650000J0D01*
G01*
X103000000Y-107400000D02*
X103000000Y-107950000D01*
X103000000Y-107400000D02*
G75*
G02X102350000Y-106750000I0J650000D01*
G01*
X103650000Y-106750000D02*
G75*
G02X103000000Y-107400000I-650000J0D01*
G01*
D15*
X119840000Y-144620000D02*
X119840000Y-145080000D01*
X119750000Y-144620000D02*
X119700000Y-144620000D01*
X119800000Y-144650000D02*
X119750000Y-144620000D01*
X119820000Y-144670000D02*
X119800000Y-144650000D01*
X119840000Y-144740000D02*
X119820000Y-144670000D01*
X119400000Y-145080000D02*
X119350000Y-145050000D01*
X119500000Y-145080000D02*
X119400000Y-145080000D01*
X119540000Y-145050000D02*
X119500000Y-145080000D01*
X119560000Y-144980000D02*
X119540000Y-145050000D01*
X119560000Y-144710000D02*
X119560000Y-144980000D01*
X119530000Y-144650000D02*
X119560000Y-144710000D01*
X119490000Y-144620000D02*
X119530000Y-144650000D01*
X119390000Y-144620000D02*
X119490000Y-144620000D01*
X119350000Y-144660000D02*
X119390000Y-144620000D01*
X119330000Y-144730000D02*
X119350000Y-144660000D01*
X119330000Y-144850000D02*
X119330000Y-144730000D01*
X119330000Y-144850000D02*
X119560000Y-144850000D01*
X120080000Y-144710000D02*
X120080000Y-145080000D01*
X120110000Y-144650000D02*
X120080000Y-144710000D01*
X120150000Y-144620000D02*
X120110000Y-144650000D01*
X120250000Y-144620000D02*
X120150000Y-144620000D01*
X120300000Y-144650000D02*
X120250000Y-144620000D01*
X120240000Y-144810000D02*
X120290000Y-144840000D01*
X120120000Y-144810000D02*
X120240000Y-144810000D01*
X120080000Y-144780000D02*
X120120000Y-144810000D01*
X120130000Y-145080000D02*
X120080000Y-145040000D01*
X120250000Y-145080000D02*
X120130000Y-145080000D01*
X120300000Y-145040000D02*
X120250000Y-145080000D01*
X120320000Y-144980000D02*
X120300000Y-145040000D01*
X120320000Y-144910000D02*
X120320000Y-144980000D01*
X120290000Y-144840000D02*
X120320000Y-144910000D01*
X120870000Y-144620000D02*
X120770000Y-145080000D01*
X120770000Y-145080000D02*
X120680000Y-144740000D01*
X120680000Y-144740000D02*
X120580000Y-145080000D01*
X120580000Y-145080000D02*
X120480000Y-144620000D01*
X121060000Y-145050000D02*
X121100000Y-145080000D01*
X121100000Y-145080000D02*
X121210000Y-145080000D01*
X121210000Y-145080000D02*
X121250000Y-145050000D01*
X121250000Y-145050000D02*
X121270000Y-145020000D01*
X121270000Y-145020000D02*
X121300000Y-144950000D01*
X121300000Y-144950000D02*
X121300000Y-144750000D01*
X121300000Y-144750000D02*
X121270000Y-144680000D01*
X121270000Y-144680000D02*
X121250000Y-144650000D01*
X121250000Y-144650000D02*
X121190000Y-144610000D01*
X121190000Y-144610000D02*
X121120000Y-144610000D01*
X121120000Y-144610000D02*
X121060000Y-144650000D01*
X121060000Y-144380000D02*
X121060000Y-145080000D01*
X121580000Y-144740000D02*
X121560000Y-144670000D01*
X121560000Y-144670000D02*
X121540000Y-144650000D01*
X121540000Y-144650000D02*
X121490000Y-144620000D01*
X121490000Y-144620000D02*
X121440000Y-144620000D01*
X121580000Y-144620000D02*
X121580000Y-145080000D01*
X122030000Y-144840000D02*
X122060000Y-144910000D01*
X122060000Y-144910000D02*
X122060000Y-144980000D01*
X122060000Y-144980000D02*
X122040000Y-145040000D01*
X122040000Y-145040000D02*
X121990000Y-145080000D01*
X121990000Y-145080000D02*
X121870000Y-145080000D01*
X121870000Y-145080000D02*
X121820000Y-145040000D01*
X121820000Y-144780000D02*
X121860000Y-144810000D01*
X121860000Y-144810000D02*
X121980000Y-144810000D01*
X121980000Y-144810000D02*
X122030000Y-144840000D01*
X122040000Y-144650000D02*
X121990000Y-144620000D01*
X121990000Y-144620000D02*
X121890000Y-144620000D01*
X121890000Y-144620000D02*
X121850000Y-144650000D01*
X121850000Y-144650000D02*
X121820000Y-144710000D01*
X121820000Y-144710000D02*
X121820000Y-145080000D01*
X122490000Y-144690000D02*
X122470000Y-144650000D01*
X122470000Y-144650000D02*
X122420000Y-144620000D01*
X122420000Y-144620000D02*
X122340000Y-144620000D01*
X122340000Y-144620000D02*
X122300000Y-144650000D01*
X122300000Y-144650000D02*
X122280000Y-144710000D01*
X122280000Y-144710000D02*
X122280000Y-145080000D01*
X122490000Y-144380000D02*
X122490000Y-145080000D01*
X123540000Y-144850000D02*
X123770000Y-144850000D01*
X123320000Y-144680000D02*
X123300000Y-144650000D01*
X123300000Y-144650000D02*
X123260000Y-144620000D01*
X123260000Y-144620000D02*
X123170000Y-144620000D01*
X123170000Y-144620000D02*
X123130000Y-144650000D01*
X123130000Y-144650000D02*
X123110000Y-144710000D01*
X123110000Y-144710000D02*
X123110000Y-145080000D01*
X123320000Y-144620000D02*
X123320000Y-145080000D01*
X123540000Y-144850000D02*
X123540000Y-144730000D01*
X123540000Y-144730000D02*
X123560000Y-144660000D01*
X123560000Y-144660000D02*
X123600000Y-144620000D01*
X123600000Y-144620000D02*
X123700000Y-144620000D01*
X123700000Y-144620000D02*
X123740000Y-144650000D01*
X123740000Y-144650000D02*
X123770000Y-144710000D01*
X123770000Y-144710000D02*
X123770000Y-144980000D01*
X123770000Y-144980000D02*
X123750000Y-145050000D01*
X123750000Y-145050000D02*
X123710000Y-145080000D01*
X123710000Y-145080000D02*
X123610000Y-145080000D01*
X123610000Y-145080000D02*
X123560000Y-145050000D01*
X124200000Y-144650000D02*
X124160000Y-144620000D01*
X124160000Y-144620000D02*
X124060000Y-144620000D01*
X124060000Y-144620000D02*
X124020000Y-144650000D01*
X124020000Y-144650000D02*
X123990000Y-144680000D01*
X123990000Y-144680000D02*
X123970000Y-144740000D01*
X123970000Y-144740000D02*
X123970000Y-144960000D01*
X123970000Y-144960000D02*
X123990000Y-145020000D01*
X123990000Y-145020000D02*
X124010000Y-145050000D01*
X124010000Y-145050000D02*
X124050000Y-145080000D01*
X124050000Y-145080000D02*
X124150000Y-145080000D01*
X124150000Y-145080000D02*
X124200000Y-145050000D01*
X124200000Y-145320000D02*
X124200000Y-144620000D01*
X124510000Y-144620000D02*
X124590000Y-144620000D01*
X124590000Y-144620000D02*
X124630000Y-144650000D01*
X124630000Y-144650000D02*
X124650000Y-144680000D01*
X124650000Y-144680000D02*
X124680000Y-144750000D01*
X124590000Y-145080000D02*
X124510000Y-145080000D01*
X124510000Y-145080000D02*
X124460000Y-145050000D01*
X124460000Y-145050000D02*
X124440000Y-145020000D01*
X124440000Y-145020000D02*
X124420000Y-144950000D01*
X124420000Y-144950000D02*
X124420000Y-144750000D01*
X124420000Y-144750000D02*
X124440000Y-144690000D01*
X124440000Y-144690000D02*
X124460000Y-144660000D01*
X124460000Y-144660000D02*
X124510000Y-144620000D01*
X124680000Y-144750000D02*
X124680000Y-144950000D01*
X124680000Y-144950000D02*
X124660000Y-145010000D01*
X124660000Y-145010000D02*
X124640000Y-145040000D01*
X124640000Y-145040000D02*
X124590000Y-145080000D01*
D16*
G36*
X123513840Y-144245360D02*
X123488440Y-144230120D01*
X123430020Y-144194560D01*
X123346200Y-144138680D01*
X123247140Y-144072640D01*
X123148080Y-144006600D01*
X123066800Y-143953260D01*
X123010920Y-143915160D01*
X122985520Y-143902460D01*
X122972820Y-143907540D01*
X122927100Y-143930400D01*
X122858520Y-143965960D01*
X122817880Y-143986280D01*
X122756920Y-144011680D01*
X122723900Y-144019300D01*
X122718820Y-144009140D01*
X122695960Y-143960880D01*
X122660400Y-143879600D01*
X122614680Y-143770380D01*
X122558800Y-143643380D01*
X122502920Y-143508760D01*
X122444500Y-143369060D01*
X122388620Y-143234440D01*
X122340360Y-143115060D01*
X122299720Y-143018540D01*
X122274320Y-142949960D01*
X122264160Y-142922020D01*
X122266700Y-142914400D01*
X122299720Y-142883920D01*
X122353060Y-142843280D01*
X122472440Y-142746760D01*
X122589280Y-142601980D01*
X122660400Y-142436880D01*
X122683260Y-142251460D01*
X122662940Y-142081280D01*
X122596900Y-141918720D01*
X122482600Y-141771400D01*
X122342900Y-141662180D01*
X122180340Y-141593600D01*
X122000000Y-141570740D01*
X121827280Y-141591060D01*
X121659640Y-141657100D01*
X121512320Y-141768860D01*
X121448820Y-141839980D01*
X121362460Y-141989840D01*
X121314200Y-142147320D01*
X121309120Y-142187960D01*
X121316740Y-142363220D01*
X121367540Y-142533400D01*
X121461520Y-142683260D01*
X121591060Y-142807720D01*
X121606300Y-142817880D01*
X121664720Y-142863600D01*
X121705360Y-142894080D01*
X121735840Y-142919480D01*
X121512320Y-143457960D01*
X121476760Y-143541780D01*
X121415800Y-143689100D01*
X121362460Y-143816100D01*
X121319280Y-143917700D01*
X121288800Y-143983740D01*
X121276100Y-144011680D01*
X121276100Y-144014220D01*
X121255780Y-144016760D01*
X121215140Y-144001520D01*
X121138940Y-143965960D01*
X121090680Y-143940560D01*
X121032260Y-143912620D01*
X121006860Y-143902460D01*
X120984000Y-143915160D01*
X120930660Y-143950720D01*
X120849380Y-144004060D01*
X120752860Y-144067560D01*
X120661420Y-144131060D01*
X120577600Y-144186940D01*
X120516640Y-144225040D01*
X120486160Y-144242820D01*
X120481080Y-144242820D01*
X120455680Y-144227580D01*
X120407420Y-144186940D01*
X120333760Y-144118360D01*
X120229620Y-144014220D01*
X120214380Y-143998980D01*
X120128020Y-143912620D01*
X120059440Y-143838960D01*
X120013720Y-143788160D01*
X119995940Y-143765300D01*
X119995940Y-143765300D01*
X120011180Y-143734820D01*
X120049280Y-143673860D01*
X120105160Y-143587500D01*
X120173740Y-143488440D01*
X120351540Y-143229360D01*
X120255020Y-142985520D01*
X120224540Y-142909320D01*
X120186440Y-142820420D01*
X120158500Y-142754380D01*
X120143260Y-142726440D01*
X120117860Y-142716280D01*
X120049280Y-142701040D01*
X119952760Y-142680720D01*
X119838460Y-142660400D01*
X119726700Y-142640080D01*
X119627640Y-142619760D01*
X119556520Y-142607060D01*
X119523500Y-142599440D01*
X119515880Y-142594360D01*
X119508260Y-142579120D01*
X119505720Y-142546100D01*
X119503180Y-142485140D01*
X119500640Y-142391160D01*
X119500640Y-142251460D01*
X119500640Y-142236220D01*
X119503180Y-142106680D01*
X119505720Y-142000000D01*
X119508260Y-141933960D01*
X119513340Y-141906020D01*
X119513340Y-141906020D01*
X119543820Y-141898400D01*
X119614940Y-141883160D01*
X119714000Y-141865380D01*
X119833380Y-141842520D01*
X119841000Y-141839980D01*
X119957840Y-141817120D01*
X120056900Y-141796800D01*
X120128020Y-141781560D01*
X120155960Y-141771400D01*
X120163580Y-141763780D01*
X120186440Y-141718060D01*
X120219460Y-141644400D01*
X120260100Y-141555500D01*
X120298200Y-141461520D01*
X120331220Y-141377700D01*
X120354080Y-141316740D01*
X120361700Y-141288800D01*
X120359160Y-141286260D01*
X120341380Y-141258320D01*
X120300740Y-141197360D01*
X120244860Y-141113540D01*
X120176280Y-141011940D01*
X120171200Y-141004320D01*
X120102620Y-140905260D01*
X120046740Y-140818900D01*
X120011180Y-140760480D01*
X119995940Y-140732540D01*
X119995940Y-140730000D01*
X120018800Y-140699520D01*
X120069600Y-140643640D01*
X120143260Y-140567440D01*
X120229620Y-140478540D01*
X120257560Y-140453140D01*
X120356620Y-140356620D01*
X120422660Y-140295660D01*
X120465840Y-140262640D01*
X120486160Y-140255020D01*
X120486160Y-140255020D01*
X120516640Y-140272800D01*
X120580140Y-140313440D01*
X120663960Y-140371860D01*
X120765560Y-140440440D01*
X120773180Y-140445520D01*
X120872240Y-140514100D01*
X120956060Y-140569980D01*
X121014480Y-140610620D01*
X121042420Y-140625860D01*
X121044960Y-140625860D01*
X121085600Y-140613160D01*
X121156720Y-140587760D01*
X121245620Y-140554740D01*
X121337060Y-140516640D01*
X121420880Y-140481080D01*
X121484380Y-140453140D01*
X121514860Y-140435360D01*
X121514860Y-140435360D01*
X121525020Y-140399800D01*
X121542800Y-140323600D01*
X121563120Y-140222000D01*
X121588520Y-140100080D01*
X121591060Y-140079760D01*
X121613920Y-139960380D01*
X121631700Y-139861320D01*
X121646940Y-139792740D01*
X121654560Y-139764800D01*
X121669800Y-139762260D01*
X121728220Y-139757180D01*
X121817120Y-139754640D01*
X121926340Y-139754640D01*
X122038100Y-139754640D01*
X122147320Y-139757180D01*
X122241300Y-139759720D01*
X122309880Y-139764800D01*
X122337820Y-139769880D01*
X122337820Y-139772420D01*
X122347980Y-139810520D01*
X122365760Y-139884180D01*
X122386080Y-139988320D01*
X122408940Y-140110240D01*
X122414020Y-140133100D01*
X122436880Y-140249940D01*
X122457200Y-140349000D01*
X122469900Y-140415040D01*
X122477520Y-140442980D01*
X122490220Y-140448060D01*
X122538480Y-140468380D01*
X122617220Y-140501400D01*
X122716280Y-140542040D01*
X122944880Y-140633480D01*
X123226820Y-140442980D01*
X123252220Y-140425200D01*
X123353820Y-140356620D01*
X123435100Y-140300740D01*
X123493520Y-140262640D01*
X123516380Y-140249940D01*
X123518920Y-140249940D01*
X123546860Y-140275340D01*
X123602740Y-140328680D01*
X123678940Y-140402340D01*
X123767840Y-140488700D01*
X123831340Y-140554740D01*
X123910080Y-140633480D01*
X123958340Y-140686820D01*
X123986280Y-140719840D01*
X123993900Y-140740160D01*
X123991360Y-140755400D01*
X123973580Y-140783340D01*
X123932940Y-140844300D01*
X123874520Y-140930660D01*
X123805940Y-141029720D01*
X123750060Y-141113540D01*
X123689100Y-141207520D01*
X123651000Y-141273560D01*
X123635760Y-141306580D01*
X123640840Y-141319280D01*
X123658620Y-141375160D01*
X123694180Y-141458980D01*
X123734820Y-141558040D01*
X123833880Y-141779020D01*
X123978660Y-141806960D01*
X124067560Y-141824740D01*
X124189480Y-141847600D01*
X124308860Y-141870460D01*
X124491740Y-141906020D01*
X124499360Y-142581660D01*
X124471420Y-142594360D01*
X124443480Y-142601980D01*
X124374900Y-142617220D01*
X124278380Y-142637540D01*
X124161540Y-142657860D01*
X124065020Y-142675640D01*
X123965960Y-142695960D01*
X123894840Y-142708660D01*
X123864360Y-142716280D01*
X123854200Y-142726440D01*
X123831340Y-142774700D01*
X123795780Y-142850900D01*
X123755140Y-142942340D01*
X123717040Y-143036320D01*
X123681480Y-143125220D01*
X123658620Y-143191260D01*
X123648460Y-143224280D01*
X123661160Y-143252220D01*
X123699260Y-143310640D01*
X123752600Y-143391920D01*
X123821180Y-143490980D01*
X123887220Y-143587500D01*
X123945640Y-143671320D01*
X123983740Y-143732280D01*
X124001520Y-143760220D01*
X123991360Y-143778000D01*
X123953260Y-143826260D01*
X123879600Y-143902460D01*
X123767840Y-144011680D01*
X123750060Y-144029460D01*
X123663700Y-144113280D01*
X123590040Y-144181860D01*
X123536700Y-144227580D01*
X123513840Y-144245360D01*
X123513840Y-144245360D01*
G37*
X123513840Y-144245360D02*
X123488440Y-144230120D01*
X123430020Y-144194560D01*
X123346200Y-144138680D01*
X123247140Y-144072640D01*
X123148080Y-144006600D01*
X123066800Y-143953260D01*
X123010920Y-143915160D01*
X122985520Y-143902460D01*
X122972820Y-143907540D01*
X122927100Y-143930400D01*
X122858520Y-143965960D01*
X122817880Y-143986280D01*
X122756920Y-144011680D01*
X122723900Y-144019300D01*
X122718820Y-144009140D01*
X122695960Y-143960880D01*
X122660400Y-143879600D01*
X122614680Y-143770380D01*
X122558800Y-143643380D01*
X122502920Y-143508760D01*
X122444500Y-143369060D01*
X122388620Y-143234440D01*
X122340360Y-143115060D01*
X122299720Y-143018540D01*
X122274320Y-142949960D01*
X122264160Y-142922020D01*
X122266700Y-142914400D01*
X122299720Y-142883920D01*
X122353060Y-142843280D01*
X122472440Y-142746760D01*
X122589280Y-142601980D01*
X122660400Y-142436880D01*
X122683260Y-142251460D01*
X122662940Y-142081280D01*
X122596900Y-141918720D01*
X122482600Y-141771400D01*
X122342900Y-141662180D01*
X122180340Y-141593600D01*
X122000000Y-141570740D01*
X121827280Y-141591060D01*
X121659640Y-141657100D01*
X121512320Y-141768860D01*
X121448820Y-141839980D01*
X121362460Y-141989840D01*
X121314200Y-142147320D01*
X121309120Y-142187960D01*
X121316740Y-142363220D01*
X121367540Y-142533400D01*
X121461520Y-142683260D01*
X121591060Y-142807720D01*
X121606300Y-142817880D01*
X121664720Y-142863600D01*
X121705360Y-142894080D01*
X121735840Y-142919480D01*
X121512320Y-143457960D01*
X121476760Y-143541780D01*
X121415800Y-143689100D01*
X121362460Y-143816100D01*
X121319280Y-143917700D01*
X121288800Y-143983740D01*
X121276100Y-144011680D01*
X121276100Y-144014220D01*
X121255780Y-144016760D01*
X121215140Y-144001520D01*
X121138940Y-143965960D01*
X121090680Y-143940560D01*
X121032260Y-143912620D01*
X121006860Y-143902460D01*
X120984000Y-143915160D01*
X120930660Y-143950720D01*
X120849380Y-144004060D01*
X120752860Y-144067560D01*
X120661420Y-144131060D01*
X120577600Y-144186940D01*
X120516640Y-144225040D01*
X120486160Y-144242820D01*
X120481080Y-144242820D01*
X120455680Y-144227580D01*
X120407420Y-144186940D01*
X120333760Y-144118360D01*
X120229620Y-144014220D01*
X120214380Y-143998980D01*
X120128020Y-143912620D01*
X120059440Y-143838960D01*
X120013720Y-143788160D01*
X119995940Y-143765300D01*
X119995940Y-143765300D01*
X120011180Y-143734820D01*
X120049280Y-143673860D01*
X120105160Y-143587500D01*
X120173740Y-143488440D01*
X120351540Y-143229360D01*
X120255020Y-142985520D01*
X120224540Y-142909320D01*
X120186440Y-142820420D01*
X120158500Y-142754380D01*
X120143260Y-142726440D01*
X120117860Y-142716280D01*
X120049280Y-142701040D01*
X119952760Y-142680720D01*
X119838460Y-142660400D01*
X119726700Y-142640080D01*
X119627640Y-142619760D01*
X119556520Y-142607060D01*
X119523500Y-142599440D01*
X119515880Y-142594360D01*
X119508260Y-142579120D01*
X119505720Y-142546100D01*
X119503180Y-142485140D01*
X119500640Y-142391160D01*
X119500640Y-142251460D01*
X119500640Y-142236220D01*
X119503180Y-142106680D01*
X119505720Y-142000000D01*
X119508260Y-141933960D01*
X119513340Y-141906020D01*
X119513340Y-141906020D01*
X119543820Y-141898400D01*
X119614940Y-141883160D01*
X119714000Y-141865380D01*
X119833380Y-141842520D01*
X119841000Y-141839980D01*
X119957840Y-141817120D01*
X120056900Y-141796800D01*
X120128020Y-141781560D01*
X120155960Y-141771400D01*
X120163580Y-141763780D01*
X120186440Y-141718060D01*
X120219460Y-141644400D01*
X120260100Y-141555500D01*
X120298200Y-141461520D01*
X120331220Y-141377700D01*
X120354080Y-141316740D01*
X120361700Y-141288800D01*
X120359160Y-141286260D01*
X120341380Y-141258320D01*
X120300740Y-141197360D01*
X120244860Y-141113540D01*
X120176280Y-141011940D01*
X120171200Y-141004320D01*
X120102620Y-140905260D01*
X120046740Y-140818900D01*
X120011180Y-140760480D01*
X119995940Y-140732540D01*
X119995940Y-140730000D01*
X120018800Y-140699520D01*
X120069600Y-140643640D01*
X120143260Y-140567440D01*
X120229620Y-140478540D01*
X120257560Y-140453140D01*
X120356620Y-140356620D01*
X120422660Y-140295660D01*
X120465840Y-140262640D01*
X120486160Y-140255020D01*
X120486160Y-140255020D01*
X120516640Y-140272800D01*
X120580140Y-140313440D01*
X120663960Y-140371860D01*
X120765560Y-140440440D01*
X120773180Y-140445520D01*
X120872240Y-140514100D01*
X120956060Y-140569980D01*
X121014480Y-140610620D01*
X121042420Y-140625860D01*
X121044960Y-140625860D01*
X121085600Y-140613160D01*
X121156720Y-140587760D01*
X121245620Y-140554740D01*
X121337060Y-140516640D01*
X121420880Y-140481080D01*
X121484380Y-140453140D01*
X121514860Y-140435360D01*
X121514860Y-140435360D01*
X121525020Y-140399800D01*
X121542800Y-140323600D01*
X121563120Y-140222000D01*
X121588520Y-140100080D01*
X121591060Y-140079760D01*
X121613920Y-139960380D01*
X121631700Y-139861320D01*
X121646940Y-139792740D01*
X121654560Y-139764800D01*
X121669800Y-139762260D01*
X121728220Y-139757180D01*
X121817120Y-139754640D01*
X121926340Y-139754640D01*
X122038100Y-139754640D01*
X122147320Y-139757180D01*
X122241300Y-139759720D01*
X122309880Y-139764800D01*
X122337820Y-139769880D01*
X122337820Y-139772420D01*
X122347980Y-139810520D01*
X122365760Y-139884180D01*
X122386080Y-139988320D01*
X122408940Y-140110240D01*
X122414020Y-140133100D01*
X122436880Y-140249940D01*
X122457200Y-140349000D01*
X122469900Y-140415040D01*
X122477520Y-140442980D01*
X122490220Y-140448060D01*
X122538480Y-140468380D01*
X122617220Y-140501400D01*
X122716280Y-140542040D01*
X122944880Y-140633480D01*
X123226820Y-140442980D01*
X123252220Y-140425200D01*
X123353820Y-140356620D01*
X123435100Y-140300740D01*
X123493520Y-140262640D01*
X123516380Y-140249940D01*
X123518920Y-140249940D01*
X123546860Y-140275340D01*
X123602740Y-140328680D01*
X123678940Y-140402340D01*
X123767840Y-140488700D01*
X123831340Y-140554740D01*
X123910080Y-140633480D01*
X123958340Y-140686820D01*
X123986280Y-140719840D01*
X123993900Y-140740160D01*
X123991360Y-140755400D01*
X123973580Y-140783340D01*
X123932940Y-140844300D01*
X123874520Y-140930660D01*
X123805940Y-141029720D01*
X123750060Y-141113540D01*
X123689100Y-141207520D01*
X123651000Y-141273560D01*
X123635760Y-141306580D01*
X123640840Y-141319280D01*
X123658620Y-141375160D01*
X123694180Y-141458980D01*
X123734820Y-141558040D01*
X123833880Y-141779020D01*
X123978660Y-141806960D01*
X124067560Y-141824740D01*
X124189480Y-141847600D01*
X124308860Y-141870460D01*
X124491740Y-141906020D01*
X124499360Y-142581660D01*
X124471420Y-142594360D01*
X124443480Y-142601980D01*
X124374900Y-142617220D01*
X124278380Y-142637540D01*
X124161540Y-142657860D01*
X124065020Y-142675640D01*
X123965960Y-142695960D01*
X123894840Y-142708660D01*
X123864360Y-142716280D01*
X123854200Y-142726440D01*
X123831340Y-142774700D01*
X123795780Y-142850900D01*
X123755140Y-142942340D01*
X123717040Y-143036320D01*
X123681480Y-143125220D01*
X123658620Y-143191260D01*
X123648460Y-143224280D01*
X123661160Y-143252220D01*
X123699260Y-143310640D01*
X123752600Y-143391920D01*
X123821180Y-143490980D01*
X123887220Y-143587500D01*
X123945640Y-143671320D01*
X123983740Y-143732280D01*
X124001520Y-143760220D01*
X123991360Y-143778000D01*
X123953260Y-143826260D01*
X123879600Y-143902460D01*
X123767840Y-144011680D01*
X123750060Y-144029460D01*
X123663700Y-144113280D01*
X123590040Y-144181860D01*
X123536700Y-144227580D01*
X123513840Y-144245360D01*
D10*
X137507142Y-102930952D02*
X137697619Y-102930952D01*
X137697619Y-102530952D01*
X137392857Y-102569047D02*
X137373809Y-102550000D01*
X137335714Y-102530952D01*
X137240476Y-102530952D01*
X137202380Y-102550000D01*
X137183333Y-102569047D01*
X137164285Y-102607142D01*
X137164285Y-102645238D01*
X137183333Y-102702380D01*
X137411904Y-102930952D01*
X137164285Y-102930952D01*
X136783333Y-102930952D02*
X137011904Y-102930952D01*
X136897619Y-102930952D02*
X136897619Y-102530952D01*
X136935714Y-102588095D01*
X136973809Y-102626190D01*
X137011904Y-102645238D01*
X128057142Y-133042857D02*
X128076190Y-133061904D01*
X128133333Y-133080952D01*
X128171428Y-133080952D01*
X128228571Y-133061904D01*
X128266666Y-133023809D01*
X128285714Y-132985714D01*
X128304761Y-132909523D01*
X128304761Y-132852380D01*
X128285714Y-132776190D01*
X128266666Y-132738095D01*
X128228571Y-132700000D01*
X128171428Y-132680952D01*
X128133333Y-132680952D01*
X128076190Y-132700000D01*
X128057142Y-132719047D01*
X127676190Y-133080952D02*
X127904761Y-133080952D01*
X127790476Y-133080952D02*
X127790476Y-132680952D01*
X127828571Y-132738095D01*
X127866666Y-132776190D01*
X127904761Y-132795238D01*
X127295238Y-133080952D02*
X127523809Y-133080952D01*
X127409523Y-133080952D02*
X127409523Y-132680952D01*
X127447619Y-132738095D01*
X127485714Y-132776190D01*
X127523809Y-132795238D01*
X138316666Y-134392857D02*
X138335714Y-134411904D01*
X138392857Y-134430952D01*
X138430952Y-134430952D01*
X138488095Y-134411904D01*
X138526190Y-134373809D01*
X138545238Y-134335714D01*
X138564285Y-134259523D01*
X138564285Y-134202380D01*
X138545238Y-134126190D01*
X138526190Y-134088095D01*
X138488095Y-134050000D01*
X138430952Y-134030952D01*
X138392857Y-134030952D01*
X138335714Y-134050000D01*
X138316666Y-134069047D01*
X137973809Y-134030952D02*
X138050000Y-134030952D01*
X138088095Y-134050000D01*
X138107142Y-134069047D01*
X138145238Y-134126190D01*
X138164285Y-134202380D01*
X138164285Y-134354761D01*
X138145238Y-134392857D01*
X138126190Y-134411904D01*
X138088095Y-134430952D01*
X138011904Y-134430952D01*
X137973809Y-134411904D01*
X137954761Y-134392857D01*
X137935714Y-134354761D01*
X137935714Y-134259523D01*
X137954761Y-134221428D01*
X137973809Y-134202380D01*
X138011904Y-134183333D01*
X138088095Y-134183333D01*
X138126190Y-134202380D01*
X138145238Y-134221428D01*
X138164285Y-134259523D01*
X134557142Y-102892857D02*
X134576190Y-102911904D01*
X134633333Y-102930952D01*
X134671428Y-102930952D01*
X134728571Y-102911904D01*
X134766666Y-102873809D01*
X134785714Y-102835714D01*
X134804761Y-102759523D01*
X134804761Y-102702380D01*
X134785714Y-102626190D01*
X134766666Y-102588095D01*
X134728571Y-102550000D01*
X134671428Y-102530952D01*
X134633333Y-102530952D01*
X134576190Y-102550000D01*
X134557142Y-102569047D01*
X134195238Y-102530952D02*
X134385714Y-102530952D01*
X134404761Y-102721428D01*
X134385714Y-102702380D01*
X134347619Y-102683333D01*
X134252380Y-102683333D01*
X134214285Y-102702380D01*
X134195238Y-102721428D01*
X134176190Y-102759523D01*
X134176190Y-102854761D01*
X134195238Y-102892857D01*
X134214285Y-102911904D01*
X134252380Y-102930952D01*
X134347619Y-102930952D01*
X134385714Y-102911904D01*
X134404761Y-102892857D01*
X133928571Y-102530952D02*
X133890476Y-102530952D01*
X133852380Y-102550000D01*
X133833333Y-102569047D01*
X133814285Y-102607142D01*
X133795238Y-102683333D01*
X133795238Y-102778571D01*
X133814285Y-102854761D01*
X133833333Y-102892857D01*
X133852380Y-102911904D01*
X133890476Y-102930952D01*
X133928571Y-102930952D01*
X133966666Y-102911904D01*
X133985714Y-102892857D01*
X134004761Y-102854761D01*
X134023809Y-102778571D01*
X134023809Y-102683333D01*
X134004761Y-102607142D01*
X133985714Y-102569047D01*
X133966666Y-102550000D01*
X133928571Y-102530952D01*
X136007142Y-102892857D02*
X136026190Y-102911904D01*
X136083333Y-102930952D01*
X136121428Y-102930952D01*
X136178571Y-102911904D01*
X136216666Y-102873809D01*
X136235714Y-102835714D01*
X136254761Y-102759523D01*
X136254761Y-102702380D01*
X136235714Y-102626190D01*
X136216666Y-102588095D01*
X136178571Y-102550000D01*
X136121428Y-102530952D01*
X136083333Y-102530952D01*
X136026190Y-102550000D01*
X136007142Y-102569047D01*
X135645238Y-102530952D02*
X135835714Y-102530952D01*
X135854761Y-102721428D01*
X135835714Y-102702380D01*
X135797619Y-102683333D01*
X135702380Y-102683333D01*
X135664285Y-102702380D01*
X135645238Y-102721428D01*
X135626190Y-102759523D01*
X135626190Y-102854761D01*
X135645238Y-102892857D01*
X135664285Y-102911904D01*
X135702380Y-102930952D01*
X135797619Y-102930952D01*
X135835714Y-102911904D01*
X135854761Y-102892857D01*
X135473809Y-102569047D02*
X135454761Y-102550000D01*
X135416666Y-102530952D01*
X135321428Y-102530952D01*
X135283333Y-102550000D01*
X135264285Y-102569047D01*
X135245238Y-102607142D01*
X135245238Y-102645238D01*
X135264285Y-102702380D01*
X135492857Y-102930952D01*
X135245238Y-102930952D01*
X128007142Y-135142857D02*
X128026190Y-135161904D01*
X128083333Y-135180952D01*
X128121428Y-135180952D01*
X128178571Y-135161904D01*
X128216666Y-135123809D01*
X128235714Y-135085714D01*
X128254761Y-135009523D01*
X128254761Y-134952380D01*
X128235714Y-134876190D01*
X128216666Y-134838095D01*
X128178571Y-134800000D01*
X128121428Y-134780952D01*
X128083333Y-134780952D01*
X128026190Y-134800000D01*
X128007142Y-134819047D01*
X127626190Y-135180952D02*
X127854761Y-135180952D01*
X127740476Y-135180952D02*
X127740476Y-134780952D01*
X127778571Y-134838095D01*
X127816666Y-134876190D01*
X127854761Y-134895238D01*
X127492857Y-134780952D02*
X127226190Y-134780952D01*
X127397619Y-135180952D01*
X127866666Y-134080952D02*
X128057142Y-134080952D01*
X128057142Y-133680952D01*
X127561904Y-133814285D02*
X127561904Y-134080952D01*
X127657142Y-133661904D02*
X127752380Y-133947619D01*
X127504761Y-133947619D01*
X134316666Y-133430952D02*
X134450000Y-133240476D01*
X134545238Y-133430952D02*
X134545238Y-133030952D01*
X134392857Y-133030952D01*
X134354761Y-133050000D01*
X134335714Y-133069047D01*
X134316666Y-133107142D01*
X134316666Y-133164285D01*
X134335714Y-133202380D01*
X134354761Y-133221428D01*
X134392857Y-133240476D01*
X134545238Y-133240476D01*
X133954761Y-133030952D02*
X134145238Y-133030952D01*
X134164285Y-133221428D01*
X134145238Y-133202380D01*
X134107142Y-133183333D01*
X134011904Y-133183333D01*
X133973809Y-133202380D01*
X133954761Y-133221428D01*
X133935714Y-133259523D01*
X133935714Y-133354761D01*
X133954761Y-133392857D01*
X133973809Y-133411904D01*
X134011904Y-133430952D01*
X134107142Y-133430952D01*
X134145238Y-133411904D01*
X134164285Y-133392857D01*
X133316666Y-133430952D02*
X133450000Y-133240476D01*
X133545238Y-133430952D02*
X133545238Y-133030952D01*
X133392857Y-133030952D01*
X133354761Y-133050000D01*
X133335714Y-133069047D01*
X133316666Y-133107142D01*
X133316666Y-133164285D01*
X133335714Y-133202380D01*
X133354761Y-133221428D01*
X133392857Y-133240476D01*
X133545238Y-133240476D01*
X133126190Y-133430952D02*
X133050000Y-133430952D01*
X133011904Y-133411904D01*
X132992857Y-133392857D01*
X132954761Y-133335714D01*
X132935714Y-133259523D01*
X132935714Y-133107142D01*
X132954761Y-133069047D01*
X132973809Y-133050000D01*
X133011904Y-133030952D01*
X133088095Y-133030952D01*
X133126190Y-133050000D01*
X133145238Y-133069047D01*
X133164285Y-133107142D01*
X133164285Y-133202380D01*
X133145238Y-133240476D01*
X133126190Y-133259523D01*
X133088095Y-133278571D01*
X133011904Y-133278571D01*
X132973809Y-133259523D01*
X132954761Y-133240476D01*
X132935714Y-133202380D01*
X132257142Y-133430952D02*
X132390476Y-133240476D01*
X132485714Y-133430952D02*
X132485714Y-133030952D01*
X132333333Y-133030952D01*
X132295238Y-133050000D01*
X132276190Y-133069047D01*
X132257142Y-133107142D01*
X132257142Y-133164285D01*
X132276190Y-133202380D01*
X132295238Y-133221428D01*
X132333333Y-133240476D01*
X132485714Y-133240476D01*
X131876190Y-133430952D02*
X132104761Y-133430952D01*
X131990476Y-133430952D02*
X131990476Y-133030952D01*
X132028571Y-133088095D01*
X132066666Y-133126190D01*
X132104761Y-133145238D01*
X131628571Y-133030952D02*
X131590476Y-133030952D01*
X131552380Y-133050000D01*
X131533333Y-133069047D01*
X131514285Y-133107142D01*
X131495238Y-133183333D01*
X131495238Y-133278571D01*
X131514285Y-133354761D01*
X131533333Y-133392857D01*
X131552380Y-133411904D01*
X131590476Y-133430952D01*
X131628571Y-133430952D01*
X131666666Y-133411904D01*
X131685714Y-133392857D01*
X131704761Y-133354761D01*
X131723809Y-133278571D01*
X131723809Y-133183333D01*
X131704761Y-133107142D01*
X131685714Y-133069047D01*
X131666666Y-133050000D01*
X131628571Y-133030952D01*
X136066665Y-133430952D02*
X136199999Y-133240476D01*
X136295237Y-133430952D02*
X136295237Y-133030952D01*
X136142856Y-133030952D01*
X136104760Y-133050000D01*
X136085713Y-133069047D01*
X136066665Y-133107142D01*
X136066665Y-133164285D01*
X136085713Y-133202380D01*
X136104760Y-133221428D01*
X136142856Y-133240476D01*
X136295237Y-133240476D01*
X135723808Y-133030952D02*
X135799999Y-133030952D01*
X135838094Y-133050000D01*
X135857141Y-133069047D01*
X135895237Y-133126190D01*
X135914284Y-133202380D01*
X135914284Y-133354761D01*
X135895237Y-133392857D01*
X135876189Y-133411904D01*
X135838094Y-133430952D01*
X135761903Y-133430952D01*
X135723808Y-133411904D01*
X135704760Y-133392857D01*
X135685713Y-133354761D01*
X135685713Y-133259523D01*
X135704760Y-133221428D01*
X135723808Y-133202380D01*
X135761903Y-133183333D01*
X135838094Y-133183333D01*
X135876189Y-133202380D01*
X135895237Y-133221428D01*
X135914284Y-133259523D01*
M02*
