G04 #@! TF.FileFunction,Soldermask,Top*
%FSLAX46Y46*%
G04 Gerber Fmt 4.6, Leading zero omitted, Abs format (unit mm)*
G04 Created by KiCad (PCBNEW 4.X.X-debug) date Sat Sep 24 21:23:53 2016*
%MOMM*%
%LPD*%
G01*
G04 APERTURE LIST*
%ADD10C,0.100000*%
%ADD11C,0.508000*%
G04 APERTURE END LIST*
D10*
D11*
X136750000Y-131500000D02*
X136400000Y-131500000D01*
X137600000Y-125550000D02*
X137600000Y-124850000D01*
X131400000Y-131500000D02*
X131050000Y-131500000D01*
X142400000Y-123100000D02*
X134200000Y-131300000D01*
X134400000Y-127950000D02*
X135150000Y-127950000D01*
X129200000Y-118900000D02*
X129200000Y-118600000D01*
X133300000Y-131100000D02*
X133300000Y-128400000D01*
X134450000Y-126050000D02*
X134800000Y-125700000D01*
X131400000Y-127900000D02*
X132000000Y-127900000D01*
X132000000Y-125800000D02*
X132200000Y-126000000D01*
X132000000Y-125200000D02*
X132000000Y-125800000D01*
X132300000Y-117750000D02*
X132000000Y-118050000D01*
X134800000Y-118050000D02*
X134500000Y-117750000D01*
X134800000Y-118050000D02*
X134800000Y-118800000D01*
X132000000Y-118050000D02*
X132000000Y-118500000D01*
X132300000Y-115900000D02*
X131900000Y-115900000D01*
X131900000Y-115900000D02*
X129200000Y-118600000D01*
X137600000Y-125550000D02*
X135150000Y-127950000D01*
X131400000Y-127900000D02*
X129200000Y-125700000D01*
X137525000Y-118400000D02*
X135000000Y-115900000D01*
X135000000Y-115900000D02*
X134550000Y-115900000D01*
X133400000Y-113800000D02*
X133400000Y-113400000D01*
X133400000Y-115400000D02*
X133400000Y-114850000D01*
X133400000Y-108300000D02*
X133400000Y-107900000D01*
X134600000Y-106700000D02*
X135225000Y-106700000D01*
X137800000Y-106700000D02*
X140300000Y-106700000D01*
X141850000Y-106700000D02*
X142600000Y-106700000D01*
D10*
G36*
X127463500Y-148688500D02*
X126536500Y-148688500D01*
X126536500Y-147811500D01*
X127463500Y-147811500D01*
X127463500Y-148688500D01*
X127463500Y-148688500D01*
G37*
G36*
X125963500Y-148688500D02*
X125036500Y-148688500D01*
X125036500Y-147811500D01*
X125963500Y-147811500D01*
X125963500Y-148688500D01*
X125963500Y-148688500D01*
G37*
G36*
X111463500Y-148438500D02*
X110536500Y-148438500D01*
X110536500Y-147561500D01*
X111463500Y-147561500D01*
X111463500Y-148438500D01*
X111463500Y-148438500D01*
G37*
G36*
X109963500Y-148438500D02*
X109036500Y-148438500D01*
X109036500Y-147561500D01*
X109963500Y-147561500D01*
X109963500Y-148438500D01*
X109963500Y-148438500D01*
G37*
G36*
X131988500Y-148288500D02*
X130861500Y-148288500D01*
X130861500Y-147261500D01*
X131988500Y-147261500D01*
X131988500Y-148288500D01*
X131988500Y-148288500D01*
G37*
G36*
X130138500Y-148288500D02*
X129011500Y-148288500D01*
X129011500Y-147261500D01*
X130138500Y-147261500D01*
X130138500Y-148288500D01*
X130138500Y-148288500D01*
G37*
G36*
X115213500Y-147688500D02*
X114286500Y-147688500D01*
X114286500Y-146811500D01*
X115213500Y-146811500D01*
X115213500Y-147688500D01*
X115213500Y-147688500D01*
G37*
G36*
X117713500Y-147688500D02*
X115786500Y-147688500D01*
X115786500Y-146811500D01*
X117713500Y-146811500D01*
X117713500Y-147688500D01*
X117713500Y-147688500D01*
G37*
G36*
X119213500Y-147688500D02*
X118286500Y-147688500D01*
X118286500Y-146811500D01*
X119213500Y-146811500D01*
X119213500Y-147688500D01*
X119213500Y-147688500D01*
G37*
G36*
X134663130Y-147388110D02*
X134137350Y-147388110D01*
X134137350Y-146511810D01*
X134663130Y-146511810D01*
X134663130Y-147388110D01*
X134663130Y-147388110D01*
G37*
G36*
X134012890Y-147388110D02*
X133487110Y-147388110D01*
X133487110Y-146511810D01*
X134012890Y-146511810D01*
X134012890Y-147388110D01*
X134012890Y-147388110D01*
G37*
G36*
X133362650Y-147388110D02*
X132836870Y-147388110D01*
X132836870Y-146511810D01*
X133362650Y-146511810D01*
X133362650Y-147388110D01*
X133362650Y-147388110D01*
G37*
G36*
X109963500Y-146938500D02*
X109036500Y-146938500D01*
X109036500Y-146061500D01*
X109963500Y-146061500D01*
X109963500Y-146938500D01*
X109963500Y-146938500D01*
G37*
G36*
X111463500Y-146938500D02*
X110536500Y-146938500D01*
X110536500Y-146061500D01*
X111463500Y-146061500D01*
X111463500Y-146938500D01*
X111463500Y-146938500D01*
G37*
G36*
X131988500Y-146738500D02*
X130861500Y-146738500D01*
X130861500Y-145711500D01*
X131988500Y-145711500D01*
X131988500Y-146738500D01*
X131988500Y-146738500D01*
G37*
G36*
X130138500Y-146738500D02*
X129011500Y-146738500D01*
X129011500Y-145711500D01*
X130138500Y-145711500D01*
X130138500Y-146738500D01*
X130138500Y-146738500D01*
G37*
G36*
X147603500Y-146703500D02*
X142396500Y-146703500D01*
X142396500Y-144876500D01*
X147603500Y-144876500D01*
X147603500Y-146703500D01*
X147603500Y-146703500D01*
G37*
G36*
X139827150Y-146042982D02*
X139171662Y-146698470D01*
X138551530Y-146078338D01*
X139207018Y-145422850D01*
X139827150Y-146042982D01*
X139827150Y-146042982D01*
G37*
G36*
X127213500Y-146688500D02*
X126286500Y-146688500D01*
X126286500Y-145811500D01*
X127213500Y-145811500D01*
X127213500Y-146688500D01*
X127213500Y-146688500D01*
G37*
G36*
X128713500Y-146688500D02*
X127786500Y-146688500D01*
X127786500Y-145811500D01*
X128713500Y-145811500D01*
X128713500Y-146688500D01*
X128713500Y-146688500D01*
G37*
G36*
X117298260Y-146648260D02*
X116601740Y-146648260D01*
X116601740Y-145351740D01*
X117298260Y-145351740D01*
X117298260Y-146648260D01*
X117298260Y-146648260D01*
G37*
G36*
X116498260Y-146648260D02*
X115801740Y-146648260D01*
X115801740Y-145351740D01*
X116498260Y-145351740D01*
X116498260Y-146648260D01*
X116498260Y-146648260D01*
G37*
G36*
X115698260Y-146648260D02*
X115001740Y-146648260D01*
X115001740Y-145351740D01*
X115698260Y-145351740D01*
X115698260Y-146648260D01*
X115698260Y-146648260D01*
G37*
G36*
X114898260Y-146648260D02*
X114201740Y-146648260D01*
X114201740Y-145351740D01*
X114898260Y-145351740D01*
X114898260Y-146648260D01*
X114898260Y-146648260D01*
G37*
G36*
X113298260Y-146648260D02*
X112601740Y-146648260D01*
X112601740Y-145351740D01*
X113298260Y-145351740D01*
X113298260Y-146648260D01*
X113298260Y-146648260D01*
G37*
G36*
X118098260Y-146648260D02*
X117401740Y-146648260D01*
X117401740Y-145351740D01*
X118098260Y-145351740D01*
X118098260Y-146648260D01*
X118098260Y-146648260D01*
G37*
G36*
X118898260Y-146648260D02*
X118201740Y-146648260D01*
X118201740Y-145351740D01*
X118898260Y-145351740D01*
X118898260Y-146648260D01*
X118898260Y-146648260D01*
G37*
G36*
X114098260Y-146648260D02*
X113401740Y-146648260D01*
X113401740Y-145351740D01*
X114098260Y-145351740D01*
X114098260Y-146648260D01*
X114098260Y-146648260D01*
G37*
G36*
X105724639Y-144792936D02*
X105732430Y-144792990D01*
X105912241Y-144813159D01*
X106084710Y-144867870D01*
X106243267Y-144955037D01*
X106381874Y-145071342D01*
X106495250Y-145212354D01*
X106579078Y-145372702D01*
X106630165Y-145546279D01*
X106630168Y-145546315D01*
X106630171Y-145546324D01*
X106646565Y-145726470D01*
X106627657Y-145906372D01*
X106627654Y-145906382D01*
X106627650Y-145906419D01*
X106574145Y-146079266D01*
X106488087Y-146238428D01*
X106372752Y-146377843D01*
X106232535Y-146492201D01*
X106072776Y-146577147D01*
X105899561Y-146629444D01*
X105719486Y-146647100D01*
X105710477Y-146647100D01*
X105705361Y-146647064D01*
X105697570Y-146647010D01*
X105517759Y-146626841D01*
X105345290Y-146572130D01*
X105186733Y-146484963D01*
X105048126Y-146368658D01*
X104934750Y-146227646D01*
X104850922Y-146067298D01*
X104799835Y-145893721D01*
X104799832Y-145893685D01*
X104799829Y-145893676D01*
X104783435Y-145713530D01*
X104802343Y-145533628D01*
X104802346Y-145533618D01*
X104802350Y-145533581D01*
X104855855Y-145360734D01*
X104941913Y-145201572D01*
X105057248Y-145062157D01*
X105197465Y-144947799D01*
X105357224Y-144862853D01*
X105530439Y-144810556D01*
X105710514Y-144792900D01*
X105719523Y-144792900D01*
X105724639Y-144792936D01*
X105724639Y-144792936D01*
G37*
G36*
X103184639Y-144792936D02*
X103192430Y-144792990D01*
X103372241Y-144813159D01*
X103544710Y-144867870D01*
X103703267Y-144955037D01*
X103841874Y-145071342D01*
X103955250Y-145212354D01*
X104039078Y-145372702D01*
X104090165Y-145546279D01*
X104090168Y-145546315D01*
X104090171Y-145546324D01*
X104106565Y-145726470D01*
X104087657Y-145906372D01*
X104087654Y-145906382D01*
X104087650Y-145906419D01*
X104034145Y-146079266D01*
X103948087Y-146238428D01*
X103832752Y-146377843D01*
X103692535Y-146492201D01*
X103532776Y-146577147D01*
X103359561Y-146629444D01*
X103179486Y-146647100D01*
X103170477Y-146647100D01*
X103165361Y-146647064D01*
X103157570Y-146647010D01*
X102977759Y-146626841D01*
X102805290Y-146572130D01*
X102646733Y-146484963D01*
X102508126Y-146368658D01*
X102394750Y-146227646D01*
X102310922Y-146067298D01*
X102259835Y-145893721D01*
X102259832Y-145893685D01*
X102259829Y-145893676D01*
X102243435Y-145713530D01*
X102262343Y-145533628D01*
X102262346Y-145533618D01*
X102262350Y-145533581D01*
X102315855Y-145360734D01*
X102401913Y-145201572D01*
X102517248Y-145062157D01*
X102657465Y-144947799D01*
X102817224Y-144862853D01*
X102990439Y-144810556D01*
X103170514Y-144792900D01*
X103179523Y-144792900D01*
X103184639Y-144792936D01*
X103184639Y-144792936D01*
G37*
G36*
X140887810Y-144982322D02*
X140232322Y-145637810D01*
X139612190Y-145017678D01*
X140267678Y-144362190D01*
X140887810Y-144982322D01*
X140887810Y-144982322D01*
G37*
G36*
X134663130Y-145488190D02*
X134137350Y-145488190D01*
X134137350Y-144611890D01*
X134663130Y-144611890D01*
X134663130Y-145488190D01*
X134663130Y-145488190D01*
G37*
G36*
X134012890Y-145488190D02*
X133487110Y-145488190D01*
X133487110Y-144611890D01*
X134012890Y-144611890D01*
X134012890Y-145488190D01*
X134012890Y-145488190D01*
G37*
G36*
X133362650Y-145488190D02*
X132836870Y-145488190D01*
X132836870Y-144611890D01*
X133362650Y-144611890D01*
X133362650Y-145488190D01*
X133362650Y-145488190D01*
G37*
G36*
X131963500Y-144938500D02*
X131036500Y-144938500D01*
X131036500Y-144061500D01*
X131963500Y-144061500D01*
X131963500Y-144938500D01*
X131963500Y-144938500D01*
G37*
G36*
X130463500Y-144938500D02*
X129536500Y-144938500D01*
X129536500Y-144061500D01*
X130463500Y-144061500D01*
X130463500Y-144938500D01*
X130463500Y-144938500D01*
G37*
G36*
X120648260Y-144898260D02*
X119351740Y-144898260D01*
X119351740Y-144201740D01*
X120648260Y-144201740D01*
X120648260Y-144898260D01*
X120648260Y-144898260D01*
G37*
G36*
X112148260Y-144898260D02*
X110851740Y-144898260D01*
X110851740Y-144201740D01*
X112148260Y-144201740D01*
X112148260Y-144898260D01*
X112148260Y-144898260D01*
G37*
G36*
X147603500Y-144163500D02*
X142396500Y-144163500D01*
X142396500Y-142336500D01*
X147603500Y-142336500D01*
X147603500Y-144163500D01*
X147603500Y-144163500D01*
G37*
G36*
X105724639Y-142252936D02*
X105732430Y-142252990D01*
X105912241Y-142273159D01*
X106084710Y-142327870D01*
X106243267Y-142415037D01*
X106381874Y-142531342D01*
X106495250Y-142672354D01*
X106579078Y-142832702D01*
X106630165Y-143006279D01*
X106630168Y-143006315D01*
X106630171Y-143006324D01*
X106646565Y-143186470D01*
X106627657Y-143366372D01*
X106627654Y-143366382D01*
X106627650Y-143366419D01*
X106574145Y-143539266D01*
X106488087Y-143698428D01*
X106372752Y-143837843D01*
X106232535Y-143952201D01*
X106072776Y-144037147D01*
X105899561Y-144089444D01*
X105719486Y-144107100D01*
X105710477Y-144107100D01*
X105705361Y-144107064D01*
X105697570Y-144107010D01*
X105517759Y-144086841D01*
X105345290Y-144032130D01*
X105186733Y-143944963D01*
X105048126Y-143828658D01*
X104934750Y-143687646D01*
X104850922Y-143527298D01*
X104799835Y-143353721D01*
X104799832Y-143353685D01*
X104799829Y-143353676D01*
X104783435Y-143173530D01*
X104802343Y-142993628D01*
X104802346Y-142993618D01*
X104802350Y-142993581D01*
X104855855Y-142820734D01*
X104941913Y-142661572D01*
X105057248Y-142522157D01*
X105197465Y-142407799D01*
X105357224Y-142322853D01*
X105530439Y-142270556D01*
X105710514Y-142252900D01*
X105719523Y-142252900D01*
X105724639Y-142252936D01*
X105724639Y-142252936D01*
G37*
G36*
X103184639Y-142252936D02*
X103192430Y-142252990D01*
X103372241Y-142273159D01*
X103544710Y-142327870D01*
X103703267Y-142415037D01*
X103841874Y-142531342D01*
X103955250Y-142672354D01*
X104039078Y-142832702D01*
X104090165Y-143006279D01*
X104090168Y-143006315D01*
X104090171Y-143006324D01*
X104106565Y-143186470D01*
X104087657Y-143366372D01*
X104087654Y-143366382D01*
X104087650Y-143366419D01*
X104034145Y-143539266D01*
X103948087Y-143698428D01*
X103832752Y-143837843D01*
X103692535Y-143952201D01*
X103532776Y-144037147D01*
X103359561Y-144089444D01*
X103179486Y-144107100D01*
X103170477Y-144107100D01*
X103165361Y-144107064D01*
X103157570Y-144107010D01*
X102977759Y-144086841D01*
X102805290Y-144032130D01*
X102646733Y-143944963D01*
X102508126Y-143828658D01*
X102394750Y-143687646D01*
X102310922Y-143527298D01*
X102259835Y-143353721D01*
X102259832Y-143353685D01*
X102259829Y-143353676D01*
X102243435Y-143173530D01*
X102262343Y-142993628D01*
X102262346Y-142993618D01*
X102262350Y-142993581D01*
X102315855Y-142820734D01*
X102401913Y-142661572D01*
X102517248Y-142522157D01*
X102657465Y-142407799D01*
X102817224Y-142322853D01*
X102990439Y-142270556D01*
X103170514Y-142252900D01*
X103179523Y-142252900D01*
X103184639Y-142252936D01*
X103184639Y-142252936D01*
G37*
G36*
X120648260Y-144098260D02*
X119351740Y-144098260D01*
X119351740Y-143401740D01*
X120648260Y-143401740D01*
X120648260Y-144098260D01*
X120648260Y-144098260D01*
G37*
G36*
X112148260Y-144098260D02*
X110851740Y-144098260D01*
X110851740Y-143401740D01*
X112148260Y-143401740D01*
X112148260Y-144098260D01*
X112148260Y-144098260D01*
G37*
G36*
X133213500Y-143763500D02*
X132586500Y-143763500D01*
X132586500Y-142736500D01*
X133213500Y-142736500D01*
X133213500Y-143763500D01*
X133213500Y-143763500D01*
G37*
G36*
X134713500Y-143763500D02*
X134086500Y-143763500D01*
X134086500Y-142736500D01*
X134713500Y-142736500D01*
X134713500Y-143763500D01*
X134713500Y-143763500D01*
G37*
G36*
X120648260Y-143298260D02*
X119351740Y-143298260D01*
X119351740Y-142601740D01*
X120648260Y-142601740D01*
X120648260Y-143298260D01*
X120648260Y-143298260D01*
G37*
G36*
X112148260Y-143298260D02*
X110851740Y-143298260D01*
X110851740Y-142601740D01*
X112148260Y-142601740D01*
X112148260Y-143298260D01*
X112148260Y-143298260D01*
G37*
G36*
X120648260Y-142498260D02*
X119351740Y-142498260D01*
X119351740Y-141801740D01*
X120648260Y-141801740D01*
X120648260Y-142498260D01*
X120648260Y-142498260D01*
G37*
G36*
X112148260Y-142498260D02*
X110851740Y-142498260D01*
X110851740Y-141801740D01*
X112148260Y-141801740D01*
X112148260Y-142498260D01*
X112148260Y-142498260D01*
G37*
G36*
X132213500Y-141938500D02*
X131286500Y-141938500D01*
X131286500Y-141061500D01*
X132213500Y-141061500D01*
X132213500Y-141938500D01*
X132213500Y-141938500D01*
G37*
G36*
X133713500Y-141938500D02*
X132786500Y-141938500D01*
X132786500Y-141061500D01*
X133713500Y-141061500D01*
X133713500Y-141938500D01*
X133713500Y-141938500D01*
G37*
G36*
X135713500Y-141938500D02*
X134786500Y-141938500D01*
X134786500Y-141061500D01*
X135713500Y-141061500D01*
X135713500Y-141938500D01*
X135713500Y-141938500D01*
G37*
G36*
X129463500Y-141938500D02*
X128536500Y-141938500D01*
X128536500Y-141061500D01*
X129463500Y-141061500D01*
X129463500Y-141938500D01*
X129463500Y-141938500D01*
G37*
G36*
X137213500Y-141938500D02*
X136286500Y-141938500D01*
X136286500Y-141061500D01*
X137213500Y-141061500D01*
X137213500Y-141938500D01*
X137213500Y-141938500D01*
G37*
G36*
X130963500Y-141938500D02*
X130036500Y-141938500D01*
X130036500Y-141061500D01*
X130963500Y-141061500D01*
X130963500Y-141938500D01*
X130963500Y-141938500D01*
G37*
G36*
X112148260Y-141698260D02*
X110851740Y-141698260D01*
X110851740Y-141001740D01*
X112148260Y-141001740D01*
X112148260Y-141698260D01*
X112148260Y-141698260D01*
G37*
G36*
X120648260Y-141698260D02*
X119351740Y-141698260D01*
X119351740Y-141001740D01*
X120648260Y-141001740D01*
X120648260Y-141698260D01*
X120648260Y-141698260D01*
G37*
G36*
X147603500Y-141623500D02*
X142396500Y-141623500D01*
X142396500Y-139796500D01*
X147603500Y-139796500D01*
X147603500Y-141623500D01*
X147603500Y-141623500D01*
G37*
G36*
X105724639Y-139712936D02*
X105732430Y-139712990D01*
X105912241Y-139733159D01*
X106084710Y-139787870D01*
X106243267Y-139875037D01*
X106381874Y-139991342D01*
X106495250Y-140132354D01*
X106579078Y-140292702D01*
X106630165Y-140466279D01*
X106630168Y-140466315D01*
X106630171Y-140466324D01*
X106646565Y-140646470D01*
X106627657Y-140826372D01*
X106627654Y-140826382D01*
X106627650Y-140826419D01*
X106574145Y-140999266D01*
X106488087Y-141158428D01*
X106372752Y-141297843D01*
X106232535Y-141412201D01*
X106072776Y-141497147D01*
X105899561Y-141549444D01*
X105719486Y-141567100D01*
X105710477Y-141567100D01*
X105705361Y-141567064D01*
X105697570Y-141567010D01*
X105517759Y-141546841D01*
X105345290Y-141492130D01*
X105186733Y-141404963D01*
X105048126Y-141288658D01*
X104934750Y-141147646D01*
X104850922Y-140987298D01*
X104799835Y-140813721D01*
X104799832Y-140813685D01*
X104799829Y-140813676D01*
X104783435Y-140633530D01*
X104802343Y-140453628D01*
X104802346Y-140453618D01*
X104802350Y-140453581D01*
X104855855Y-140280734D01*
X104941913Y-140121572D01*
X105057248Y-139982157D01*
X105197465Y-139867799D01*
X105357224Y-139782853D01*
X105530439Y-139730556D01*
X105710514Y-139712900D01*
X105719523Y-139712900D01*
X105724639Y-139712936D01*
X105724639Y-139712936D01*
G37*
G36*
X104102100Y-141567100D02*
X102247900Y-141567100D01*
X102247900Y-139712900D01*
X104102100Y-139712900D01*
X104102100Y-141567100D01*
X104102100Y-141567100D01*
G37*
G36*
X112148260Y-140898260D02*
X110851740Y-140898260D01*
X110851740Y-140201740D01*
X112148260Y-140201740D01*
X112148260Y-140898260D01*
X112148260Y-140898260D01*
G37*
G36*
X120648260Y-140898260D02*
X119351740Y-140898260D01*
X119351740Y-140201740D01*
X120648260Y-140201740D01*
X120648260Y-140898260D01*
X120648260Y-140898260D01*
G37*
G36*
X137213500Y-140688500D02*
X136286500Y-140688500D01*
X136286500Y-139811500D01*
X137213500Y-139811500D01*
X137213500Y-140688500D01*
X137213500Y-140688500D01*
G37*
G36*
X135713500Y-140688500D02*
X134786500Y-140688500D01*
X134786500Y-139811500D01*
X135713500Y-139811500D01*
X135713500Y-140688500D01*
X135713500Y-140688500D01*
G37*
G36*
X130963500Y-140688500D02*
X130036500Y-140688500D01*
X130036500Y-139811500D01*
X130963500Y-139811500D01*
X130963500Y-140688500D01*
X130963500Y-140688500D01*
G37*
G36*
X133713500Y-140688500D02*
X132786500Y-140688500D01*
X132786500Y-139811500D01*
X133713500Y-139811500D01*
X133713500Y-140688500D01*
X133713500Y-140688500D01*
G37*
G36*
X132213500Y-140688500D02*
X131286500Y-140688500D01*
X131286500Y-139811500D01*
X132213500Y-139811500D01*
X132213500Y-140688500D01*
X132213500Y-140688500D01*
G37*
G36*
X129463500Y-140688500D02*
X128536500Y-140688500D01*
X128536500Y-139811500D01*
X129463500Y-139811500D01*
X129463500Y-140688500D01*
X129463500Y-140688500D01*
G37*
G36*
X120648260Y-140098260D02*
X119351740Y-140098260D01*
X119351740Y-139401740D01*
X120648260Y-139401740D01*
X120648260Y-140098260D01*
X120648260Y-140098260D01*
G37*
G36*
X112148260Y-140098260D02*
X110851740Y-140098260D01*
X110851740Y-139401740D01*
X112148260Y-139401740D01*
X112148260Y-140098260D01*
X112148260Y-140098260D01*
G37*
G36*
X129463500Y-139438500D02*
X128536500Y-139438500D01*
X128536500Y-138561500D01*
X129463500Y-138561500D01*
X129463500Y-139438500D01*
X129463500Y-139438500D01*
G37*
G36*
X130963500Y-139438500D02*
X130036500Y-139438500D01*
X130036500Y-138561500D01*
X130963500Y-138561500D01*
X130963500Y-139438500D01*
X130963500Y-139438500D01*
G37*
G36*
X120648260Y-139298260D02*
X119351740Y-139298260D01*
X119351740Y-138601740D01*
X120648260Y-138601740D01*
X120648260Y-139298260D01*
X120648260Y-139298260D01*
G37*
G36*
X112148260Y-139298260D02*
X110851740Y-139298260D01*
X110851740Y-138601740D01*
X112148260Y-138601740D01*
X112148260Y-139298260D01*
X112148260Y-139298260D01*
G37*
G36*
X139313500Y-139263500D02*
X138686500Y-139263500D01*
X138686500Y-138236500D01*
X139313500Y-138236500D01*
X139313500Y-139263500D01*
X139313500Y-139263500D01*
G37*
G36*
X140813500Y-139263500D02*
X140186500Y-139263500D01*
X140186500Y-138236500D01*
X140813500Y-138236500D01*
X140813500Y-139263500D01*
X140813500Y-139263500D01*
G37*
G36*
X133088500Y-139063500D02*
X132711500Y-139063500D01*
X132711500Y-138236500D01*
X133088500Y-138236500D01*
X133088500Y-139063500D01*
X133088500Y-139063500D01*
G37*
G36*
X136088500Y-138239300D02*
X136088500Y-139063500D01*
X135711500Y-139063500D01*
X135711500Y-138236500D01*
X136085700Y-138236500D01*
X136088806Y-138236194D01*
X136088500Y-138239300D01*
X136088500Y-138239300D01*
G37*
G36*
X132214300Y-138236500D02*
X132588500Y-138236500D01*
X132588500Y-139063500D01*
X132211500Y-139063500D01*
X132211500Y-138239300D01*
X132211194Y-138236194D01*
X132214300Y-138236500D01*
X132214300Y-138236500D01*
G37*
G36*
X133588500Y-139063500D02*
X133211500Y-139063500D01*
X133211500Y-138236500D01*
X133588500Y-138236500D01*
X133588500Y-139063500D01*
X133588500Y-139063500D01*
G37*
G36*
X134088500Y-139063500D02*
X133711500Y-139063500D01*
X133711500Y-138236500D01*
X134088500Y-138236500D01*
X134088500Y-139063500D01*
X134088500Y-139063500D01*
G37*
G36*
X134588500Y-139063500D02*
X134211500Y-139063500D01*
X134211500Y-138236500D01*
X134588500Y-138236500D01*
X134588500Y-139063500D01*
X134588500Y-139063500D01*
G37*
G36*
X135088500Y-139063500D02*
X134711500Y-139063500D01*
X134711500Y-138236500D01*
X135088500Y-138236500D01*
X135088500Y-139063500D01*
X135088500Y-139063500D01*
G37*
G36*
X135588500Y-139063500D02*
X135211500Y-139063500D01*
X135211500Y-138236500D01*
X135588500Y-138236500D01*
X135588500Y-139063500D01*
X135588500Y-139063500D01*
G37*
G36*
X129313500Y-138263500D02*
X128686500Y-138263500D01*
X128686500Y-137236500D01*
X129313500Y-137236500D01*
X129313500Y-138263500D01*
X129313500Y-138263500D01*
G37*
G36*
X130813500Y-138263500D02*
X130186500Y-138263500D01*
X130186500Y-137236500D01*
X130813500Y-137236500D01*
X130813500Y-138263500D01*
X130813500Y-138263500D01*
G37*
G36*
X136963500Y-138188500D02*
X136139300Y-138188500D01*
X136136194Y-138188806D01*
X136136500Y-138185700D01*
X136136500Y-137811500D01*
X136963500Y-137811500D01*
X136963500Y-138188500D01*
X136963500Y-138188500D01*
G37*
G36*
X132163500Y-138185700D02*
X132163806Y-138188806D01*
X132160700Y-138188500D01*
X131336500Y-138188500D01*
X131336500Y-137811500D01*
X132163500Y-137811500D01*
X132163500Y-138185700D01*
X132163500Y-138185700D01*
G37*
G36*
X118098260Y-138148260D02*
X117401740Y-138148260D01*
X117401740Y-136851740D01*
X118098260Y-136851740D01*
X118098260Y-138148260D01*
X118098260Y-138148260D01*
G37*
G36*
X114098260Y-138148260D02*
X113401740Y-138148260D01*
X113401740Y-136851740D01*
X114098260Y-136851740D01*
X114098260Y-138148260D01*
X114098260Y-138148260D01*
G37*
G36*
X117298260Y-138148260D02*
X116601740Y-138148260D01*
X116601740Y-136851740D01*
X117298260Y-136851740D01*
X117298260Y-138148260D01*
X117298260Y-138148260D01*
G37*
G36*
X116498260Y-138148260D02*
X115801740Y-138148260D01*
X115801740Y-136851740D01*
X116498260Y-136851740D01*
X116498260Y-138148260D01*
X116498260Y-138148260D01*
G37*
G36*
X114898260Y-138148260D02*
X114201740Y-138148260D01*
X114201740Y-136851740D01*
X114898260Y-136851740D01*
X114898260Y-138148260D01*
X114898260Y-138148260D01*
G37*
G36*
X115698260Y-138148260D02*
X115001740Y-138148260D01*
X115001740Y-136851740D01*
X115698260Y-136851740D01*
X115698260Y-138148260D01*
X115698260Y-138148260D01*
G37*
G36*
X113298260Y-138148260D02*
X112601740Y-138148260D01*
X112601740Y-136851740D01*
X113298260Y-136851740D01*
X113298260Y-138148260D01*
X113298260Y-138148260D01*
G37*
G36*
X118898260Y-138148260D02*
X118201740Y-138148260D01*
X118201740Y-136851740D01*
X118898260Y-136851740D01*
X118898260Y-138148260D01*
X118898260Y-138148260D01*
G37*
G36*
X135938500Y-138038500D02*
X132361500Y-138038500D01*
X132361500Y-134461500D01*
X135938500Y-134461500D01*
X135938500Y-138038500D01*
X135938500Y-138038500D01*
G37*
G36*
X139313500Y-138013500D02*
X138686500Y-138013500D01*
X138686500Y-136986500D01*
X139313500Y-136986500D01*
X139313500Y-138013500D01*
X139313500Y-138013500D01*
G37*
G36*
X140813500Y-138013500D02*
X140186500Y-138013500D01*
X140186500Y-136986500D01*
X140813500Y-136986500D01*
X140813500Y-138013500D01*
X140813500Y-138013500D01*
G37*
G36*
X132163500Y-137688500D02*
X131336500Y-137688500D01*
X131336500Y-137311500D01*
X132163500Y-137311500D01*
X132163500Y-137688500D01*
X132163500Y-137688500D01*
G37*
G36*
X136963500Y-137688500D02*
X136136500Y-137688500D01*
X136136500Y-137311500D01*
X136963500Y-137311500D01*
X136963500Y-137688500D01*
X136963500Y-137688500D01*
G37*
G36*
X132163500Y-137188500D02*
X131336500Y-137188500D01*
X131336500Y-136811500D01*
X132163500Y-136811500D01*
X132163500Y-137188500D01*
X132163500Y-137188500D01*
G37*
G36*
X136963500Y-137188500D02*
X136136500Y-137188500D01*
X136136500Y-136811500D01*
X136963500Y-136811500D01*
X136963500Y-137188500D01*
X136963500Y-137188500D01*
G37*
G36*
X126813500Y-136763500D02*
X126186500Y-136763500D01*
X126186500Y-135736500D01*
X126813500Y-135736500D01*
X126813500Y-136763500D01*
X126813500Y-136763500D01*
G37*
G36*
X128313500Y-136763500D02*
X127686500Y-136763500D01*
X127686500Y-135736500D01*
X128313500Y-135736500D01*
X128313500Y-136763500D01*
X128313500Y-136763500D01*
G37*
G36*
X139463500Y-136688500D02*
X138536500Y-136688500D01*
X138536500Y-135811500D01*
X139463500Y-135811500D01*
X139463500Y-136688500D01*
X139463500Y-136688500D01*
G37*
G36*
X129463500Y-136688500D02*
X128536500Y-136688500D01*
X128536500Y-135811500D01*
X129463500Y-135811500D01*
X129463500Y-136688500D01*
X129463500Y-136688500D01*
G37*
G36*
X130963500Y-136688500D02*
X130036500Y-136688500D01*
X130036500Y-135811500D01*
X130963500Y-135811500D01*
X130963500Y-136688500D01*
X130963500Y-136688500D01*
G37*
G36*
X132163500Y-136688500D02*
X131336500Y-136688500D01*
X131336500Y-136311500D01*
X132163500Y-136311500D01*
X132163500Y-136688500D01*
X132163500Y-136688500D01*
G37*
G36*
X136963500Y-136688500D02*
X136136500Y-136688500D01*
X136136500Y-136311500D01*
X136963500Y-136311500D01*
X136963500Y-136688500D01*
X136963500Y-136688500D01*
G37*
G36*
X140963500Y-136688500D02*
X140036500Y-136688500D01*
X140036500Y-135811500D01*
X140963500Y-135811500D01*
X140963500Y-136688500D01*
X140963500Y-136688500D01*
G37*
G36*
X132163500Y-136188500D02*
X131336500Y-136188500D01*
X131336500Y-135811500D01*
X132163500Y-135811500D01*
X132163500Y-136188500D01*
X132163500Y-136188500D01*
G37*
G36*
X136963500Y-136188500D02*
X136136500Y-136188500D01*
X136136500Y-135811500D01*
X136963500Y-135811500D01*
X136963500Y-136188500D01*
X136963500Y-136188500D01*
G37*
G36*
X122188500Y-135963500D02*
X121311500Y-135963500D01*
X121311500Y-135036500D01*
X122188500Y-135036500D01*
X122188500Y-135963500D01*
X122188500Y-135963500D01*
G37*
G36*
X119188500Y-135963500D02*
X118311500Y-135963500D01*
X118311500Y-135036500D01*
X119188500Y-135036500D01*
X119188500Y-135963500D01*
X119188500Y-135963500D01*
G37*
G36*
X123638500Y-135963500D02*
X122761500Y-135963500D01*
X122761500Y-135036500D01*
X123638500Y-135036500D01*
X123638500Y-135963500D01*
X123638500Y-135963500D01*
G37*
G36*
X120688500Y-135963500D02*
X119811500Y-135963500D01*
X119811500Y-135036500D01*
X120688500Y-135036500D01*
X120688500Y-135963500D01*
X120688500Y-135963500D01*
G37*
G36*
X132163500Y-135688500D02*
X131336500Y-135688500D01*
X131336500Y-135311500D01*
X132163500Y-135311500D01*
X132163500Y-135688500D01*
X132163500Y-135688500D01*
G37*
G36*
X136963500Y-135688500D02*
X136136500Y-135688500D01*
X136136500Y-135311500D01*
X136963500Y-135311500D01*
X136963500Y-135688500D01*
X136963500Y-135688500D01*
G37*
G36*
X129463500Y-135688500D02*
X128536500Y-135688500D01*
X128536500Y-134811500D01*
X129463500Y-134811500D01*
X129463500Y-135688500D01*
X129463500Y-135688500D01*
G37*
G36*
X130963500Y-135688500D02*
X130036500Y-135688500D01*
X130036500Y-134811500D01*
X130963500Y-134811500D01*
X130963500Y-135688500D01*
X130963500Y-135688500D01*
G37*
G36*
X140963500Y-135438500D02*
X140036500Y-135438500D01*
X140036500Y-134561500D01*
X140963500Y-134561500D01*
X140963500Y-135438500D01*
X140963500Y-135438500D01*
G37*
G36*
X139463500Y-135438500D02*
X138536500Y-135438500D01*
X138536500Y-134561500D01*
X139463500Y-134561500D01*
X139463500Y-135438500D01*
X139463500Y-135438500D01*
G37*
G36*
X109513500Y-135313500D02*
X108486500Y-135313500D01*
X108486500Y-134686500D01*
X109513500Y-134686500D01*
X109513500Y-135313500D01*
X109513500Y-135313500D01*
G37*
G36*
X132163500Y-135188500D02*
X131336500Y-135188500D01*
X131336500Y-134811500D01*
X132163500Y-134811500D01*
X132163500Y-135188500D01*
X132163500Y-135188500D01*
G37*
G36*
X136963500Y-135188500D02*
X136136500Y-135188500D01*
X136136500Y-134811500D01*
X136963500Y-134811500D01*
X136963500Y-135188500D01*
X136963500Y-135188500D01*
G37*
G36*
X132163500Y-134314300D02*
X132163500Y-134688500D01*
X131336500Y-134688500D01*
X131336500Y-134311500D01*
X132160700Y-134311500D01*
X132163806Y-134311194D01*
X132163500Y-134314300D01*
X132163500Y-134314300D01*
G37*
G36*
X129463500Y-134688500D02*
X128536500Y-134688500D01*
X128536500Y-133811500D01*
X129463500Y-133811500D01*
X129463500Y-134688500D01*
X129463500Y-134688500D01*
G37*
G36*
X130963500Y-134688500D02*
X130036500Y-134688500D01*
X130036500Y-133811500D01*
X130963500Y-133811500D01*
X130963500Y-134688500D01*
X130963500Y-134688500D01*
G37*
G36*
X136139300Y-134311500D02*
X136963500Y-134311500D01*
X136963500Y-134688500D01*
X136136500Y-134688500D01*
X136136500Y-134314300D01*
X136136194Y-134311194D01*
X136139300Y-134311500D01*
X136139300Y-134311500D01*
G37*
G36*
X122188500Y-134463500D02*
X121311500Y-134463500D01*
X121311500Y-133536500D01*
X122188500Y-133536500D01*
X122188500Y-134463500D01*
X122188500Y-134463500D01*
G37*
G36*
X119188500Y-134463500D02*
X118311500Y-134463500D01*
X118311500Y-132536500D01*
X119188500Y-132536500D01*
X119188500Y-134463500D01*
X119188500Y-134463500D01*
G37*
G36*
X120688500Y-134463500D02*
X119811500Y-134463500D01*
X119811500Y-133536500D01*
X120688500Y-133536500D01*
X120688500Y-134463500D01*
X120688500Y-134463500D01*
G37*
G36*
X123638500Y-134463500D02*
X122761500Y-134463500D01*
X122761500Y-133536500D01*
X123638500Y-133536500D01*
X123638500Y-134463500D01*
X123638500Y-134463500D01*
G37*
G36*
X142963500Y-134438500D02*
X142036500Y-134438500D01*
X142036500Y-133561500D01*
X142963500Y-133561500D01*
X142963500Y-134438500D01*
X142963500Y-134438500D01*
G37*
G36*
X141463500Y-134438500D02*
X140536500Y-134438500D01*
X140536500Y-133561500D01*
X141463500Y-133561500D01*
X141463500Y-134438500D01*
X141463500Y-134438500D01*
G37*
G36*
X132588500Y-134263500D02*
X132214300Y-134263500D01*
X132211194Y-134263806D01*
X132211500Y-134260700D01*
X132211500Y-133436500D01*
X132588500Y-133436500D01*
X132588500Y-134263500D01*
X132588500Y-134263500D01*
G37*
G36*
X136088500Y-134260700D02*
X136088806Y-134263806D01*
X136085700Y-134263500D01*
X135711500Y-134263500D01*
X135711500Y-133436500D01*
X136088500Y-133436500D01*
X136088500Y-134260700D01*
X136088500Y-134260700D01*
G37*
G36*
X135588500Y-134263500D02*
X135211500Y-134263500D01*
X135211500Y-133436500D01*
X135588500Y-133436500D01*
X135588500Y-134263500D01*
X135588500Y-134263500D01*
G37*
G36*
X134588500Y-134263500D02*
X134211500Y-134263500D01*
X134211500Y-133436500D01*
X134588500Y-133436500D01*
X134588500Y-134263500D01*
X134588500Y-134263500D01*
G37*
G36*
X134088500Y-134263500D02*
X133711500Y-134263500D01*
X133711500Y-133436500D01*
X134088500Y-133436500D01*
X134088500Y-134263500D01*
X134088500Y-134263500D01*
G37*
G36*
X133588500Y-134263500D02*
X133211500Y-134263500D01*
X133211500Y-133436500D01*
X133588500Y-133436500D01*
X133588500Y-134263500D01*
X133588500Y-134263500D01*
G37*
G36*
X133088500Y-134263500D02*
X132711500Y-134263500D01*
X132711500Y-133436500D01*
X133088500Y-133436500D01*
X133088500Y-134263500D01*
X133088500Y-134263500D01*
G37*
G36*
X135088500Y-134263500D02*
X134711500Y-134263500D01*
X134711500Y-133436500D01*
X135088500Y-133436500D01*
X135088500Y-134263500D01*
X135088500Y-134263500D01*
G37*
G36*
X109513500Y-133813500D02*
X108486500Y-133813500D01*
X108486500Y-133186500D01*
X109513500Y-133186500D01*
X109513500Y-133813500D01*
X109513500Y-133813500D01*
G37*
G36*
X141463500Y-133438500D02*
X140536500Y-133438500D01*
X140536500Y-132561500D01*
X141463500Y-132561500D01*
X141463500Y-133438500D01*
X141463500Y-133438500D01*
G37*
G36*
X142963500Y-133438500D02*
X142036500Y-133438500D01*
X142036500Y-132561500D01*
X142963500Y-132561500D01*
X142963500Y-133438500D01*
X142963500Y-133438500D01*
G37*
G36*
X135889802Y-132503554D02*
X135375736Y-133017620D01*
X134932380Y-132574264D01*
X135446446Y-132060198D01*
X135889802Y-132503554D01*
X135889802Y-132503554D01*
G37*
G36*
X132778711Y-132485355D02*
X132335355Y-132928711D01*
X131821289Y-132414645D01*
X132264645Y-131971289D01*
X132778711Y-132485355D01*
X132778711Y-132485355D01*
G37*
G36*
X134463500Y-132813500D02*
X133836500Y-132813500D01*
X133836500Y-132086500D01*
X134463500Y-132086500D01*
X134463500Y-132813500D01*
X134463500Y-132813500D01*
G37*
G36*
X133613500Y-132813500D02*
X132986500Y-132813500D01*
X132986500Y-132086500D01*
X133613500Y-132086500D01*
X133613500Y-132813500D01*
X133613500Y-132813500D01*
G37*
G36*
X110079500Y-132467100D02*
X107920500Y-132467100D01*
X107920500Y-130612900D01*
X110079500Y-130612900D01*
X110079500Y-132467100D01*
X110079500Y-132467100D01*
G37*
G36*
X141463500Y-132438500D02*
X140536500Y-132438500D01*
X140536500Y-131561500D01*
X141463500Y-131561500D01*
X141463500Y-132438500D01*
X141463500Y-132438500D01*
G37*
G36*
X142963500Y-132438500D02*
X142036500Y-132438500D01*
X142036500Y-131561500D01*
X142963500Y-131561500D01*
X142963500Y-132438500D01*
X142963500Y-132438500D01*
G37*
G36*
X137063500Y-131863500D02*
X136550898Y-131863500D01*
X136540987Y-131864476D01*
X136531458Y-131867367D01*
X136522675Y-131872061D01*
X136514977Y-131878379D01*
X136153554Y-132239802D01*
X135710198Y-131796446D01*
X136224264Y-131282380D01*
X136449779Y-131507895D01*
X136457477Y-131514213D01*
X136466260Y-131518907D01*
X136475789Y-131521798D01*
X136485700Y-131522774D01*
X136495611Y-131521798D01*
X136505140Y-131518907D01*
X136513923Y-131514213D01*
X136521621Y-131507895D01*
X136527939Y-131500197D01*
X136532633Y-131491414D01*
X136535524Y-131481885D01*
X136536500Y-131471974D01*
X136536500Y-131136500D01*
X137063500Y-131136500D01*
X137063500Y-131863500D01*
X137063500Y-131863500D01*
G37*
G36*
X131213500Y-131344156D02*
X131214476Y-131354067D01*
X131217367Y-131363596D01*
X131222061Y-131372379D01*
X131228379Y-131380077D01*
X131236077Y-131386395D01*
X131244860Y-131391089D01*
X131254389Y-131393980D01*
X131264300Y-131394956D01*
X131274211Y-131393980D01*
X131283740Y-131391089D01*
X131292523Y-131386395D01*
X131300221Y-131380077D01*
X131486827Y-131193471D01*
X132000893Y-131707537D01*
X131557537Y-132150893D01*
X131285023Y-131878379D01*
X131277325Y-131872061D01*
X131268542Y-131867367D01*
X131259013Y-131864476D01*
X131249102Y-131863500D01*
X130686500Y-131863500D01*
X130686500Y-131136500D01*
X131213500Y-131136500D01*
X131213500Y-131344156D01*
X131213500Y-131344156D01*
G37*
G36*
X119188500Y-131963500D02*
X118311500Y-131963500D01*
X118311500Y-130036500D01*
X119188500Y-130036500D01*
X119188500Y-131963500D01*
X119188500Y-131963500D01*
G37*
G36*
X116848260Y-131938260D02*
X116001740Y-131938260D01*
X116001740Y-131561740D01*
X116848260Y-131561740D01*
X116848260Y-131938260D01*
X116848260Y-131938260D01*
G37*
G36*
X117998260Y-131938260D02*
X117151740Y-131938260D01*
X117151740Y-131561740D01*
X117998260Y-131561740D01*
X117998260Y-131938260D01*
X117998260Y-131938260D01*
G37*
G36*
X137963500Y-131863500D02*
X137436500Y-131863500D01*
X137436500Y-131136500D01*
X137963500Y-131136500D01*
X137963500Y-131863500D01*
X137963500Y-131863500D01*
G37*
G36*
X130313500Y-131863500D02*
X129786500Y-131863500D01*
X129786500Y-131136500D01*
X130313500Y-131136500D01*
X130313500Y-131863500D01*
X130313500Y-131863500D01*
G37*
G36*
X133613500Y-131713500D02*
X132986500Y-131713500D01*
X132986500Y-130986500D01*
X133613500Y-130986500D01*
X133613500Y-131713500D01*
X133613500Y-131713500D01*
G37*
G36*
X134463500Y-131713500D02*
X133836500Y-131713500D01*
X133836500Y-130986500D01*
X134463500Y-130986500D01*
X134463500Y-131713500D01*
X134463500Y-131713500D01*
G37*
G36*
X117998260Y-131438260D02*
X117151740Y-131438260D01*
X117151740Y-131061740D01*
X117998260Y-131061740D01*
X117998260Y-131438260D01*
X117998260Y-131438260D01*
G37*
G36*
X116848260Y-131438260D02*
X116001740Y-131438260D01*
X116001740Y-131061740D01*
X116848260Y-131061740D01*
X116848260Y-131438260D01*
X116848260Y-131438260D01*
G37*
G36*
X115438500Y-130963500D02*
X114561500Y-130963500D01*
X114561500Y-130036500D01*
X115438500Y-130036500D01*
X115438500Y-130963500D01*
X115438500Y-130963500D01*
G37*
G36*
X117998260Y-130938260D02*
X117151740Y-130938260D01*
X117151740Y-130561740D01*
X117998260Y-130561740D01*
X117998260Y-130938260D01*
X117998260Y-130938260D01*
G37*
G36*
X116848260Y-130938260D02*
X116001740Y-130938260D01*
X116001740Y-130561740D01*
X116848260Y-130561740D01*
X116848260Y-130938260D01*
X116848260Y-130938260D01*
G37*
G36*
X109162776Y-128072936D02*
X109170567Y-128072990D01*
X109350378Y-128093159D01*
X109522847Y-128147870D01*
X109681404Y-128235037D01*
X109820011Y-128351342D01*
X109933387Y-128492354D01*
X110017215Y-128652702D01*
X110068302Y-128826279D01*
X110068305Y-128826315D01*
X110068308Y-128826324D01*
X110084702Y-129006470D01*
X110065794Y-129186372D01*
X110065791Y-129186382D01*
X110065787Y-129186419D01*
X110012282Y-129359266D01*
X109926224Y-129518428D01*
X109810889Y-129657843D01*
X109670672Y-129772201D01*
X109510913Y-129857147D01*
X109337698Y-129909444D01*
X109157623Y-129927100D01*
X108842340Y-129927100D01*
X108837224Y-129927064D01*
X108829433Y-129927010D01*
X108649622Y-129906841D01*
X108477153Y-129852130D01*
X108318596Y-129764963D01*
X108179989Y-129648658D01*
X108066613Y-129507646D01*
X107982785Y-129347298D01*
X107931698Y-129173721D01*
X107931695Y-129173685D01*
X107931692Y-129173676D01*
X107915298Y-128993530D01*
X107934206Y-128813628D01*
X107934209Y-128813618D01*
X107934213Y-128813581D01*
X107987718Y-128640734D01*
X108073776Y-128481572D01*
X108189111Y-128342157D01*
X108329328Y-128227799D01*
X108489087Y-128142853D01*
X108662302Y-128090556D01*
X108842377Y-128072900D01*
X109157660Y-128072900D01*
X109162776Y-128072936D01*
X109162776Y-128072936D01*
G37*
G36*
X119188500Y-129463500D02*
X118311500Y-129463500D01*
X118311500Y-128536500D01*
X119188500Y-128536500D01*
X119188500Y-129463500D01*
X119188500Y-129463500D01*
G37*
G36*
X115438500Y-129463500D02*
X114561500Y-129463500D01*
X114561500Y-128536500D01*
X115438500Y-128536500D01*
X115438500Y-129463500D01*
X115438500Y-129463500D01*
G37*
G36*
X134473260Y-128285293D02*
X134126740Y-128285293D01*
X134126740Y-127638773D01*
X134473260Y-127638773D01*
X134473260Y-128285293D01*
X134473260Y-128285293D01*
G37*
G36*
X133973260Y-128285293D02*
X133626740Y-128285293D01*
X133626740Y-127638773D01*
X133973260Y-127638773D01*
X133973260Y-128285293D01*
X133973260Y-128285293D01*
G37*
G36*
X132473260Y-128285293D02*
X132126740Y-128285293D01*
X132126740Y-127638773D01*
X132473260Y-127638773D01*
X132473260Y-128285293D01*
X132473260Y-128285293D01*
G37*
G36*
X133473260Y-128285293D02*
X133126740Y-128285293D01*
X133126740Y-127638773D01*
X133473260Y-127638773D01*
X133473260Y-128285293D01*
X133473260Y-128285293D01*
G37*
G36*
X132973260Y-128285293D02*
X132626740Y-128285293D01*
X132626740Y-127638773D01*
X132973260Y-127638773D01*
X132973260Y-128285293D01*
X132973260Y-128285293D01*
G37*
G36*
X119188500Y-128213500D02*
X118311500Y-128213500D01*
X118311500Y-127286500D01*
X119188500Y-127286500D01*
X119188500Y-128213500D01*
X119188500Y-128213500D01*
G37*
G36*
X134548260Y-127515293D02*
X132051740Y-127515293D01*
X132051740Y-126658773D01*
X134548260Y-126658773D01*
X134548260Y-127515293D01*
X134548260Y-127515293D01*
G37*
G36*
X109162776Y-125532936D02*
X109170567Y-125532990D01*
X109350378Y-125553159D01*
X109522847Y-125607870D01*
X109681404Y-125695037D01*
X109820011Y-125811342D01*
X109933387Y-125952354D01*
X110017215Y-126112702D01*
X110068302Y-126286279D01*
X110068305Y-126286315D01*
X110068308Y-126286324D01*
X110084702Y-126466470D01*
X110065794Y-126646372D01*
X110065791Y-126646382D01*
X110065787Y-126646419D01*
X110012282Y-126819266D01*
X109926224Y-126978428D01*
X109810889Y-127117843D01*
X109670672Y-127232201D01*
X109510913Y-127317147D01*
X109337698Y-127369444D01*
X109157623Y-127387100D01*
X108842340Y-127387100D01*
X108837224Y-127387064D01*
X108829433Y-127387010D01*
X108649622Y-127366841D01*
X108477153Y-127312130D01*
X108318596Y-127224963D01*
X108179989Y-127108658D01*
X108066613Y-126967646D01*
X107982785Y-126807298D01*
X107931698Y-126633721D01*
X107931695Y-126633685D01*
X107931692Y-126633676D01*
X107915298Y-126453530D01*
X107934206Y-126273628D01*
X107934209Y-126273618D01*
X107934213Y-126273581D01*
X107987718Y-126100734D01*
X108073776Y-125941572D01*
X108189111Y-125802157D01*
X108329328Y-125687799D01*
X108489087Y-125602853D01*
X108662302Y-125550556D01*
X108842377Y-125532900D01*
X109157660Y-125532900D01*
X109162776Y-125532936D01*
X109162776Y-125532936D01*
G37*
G36*
X119188500Y-126713500D02*
X118311500Y-126713500D01*
X118311500Y-124786500D01*
X119188500Y-124786500D01*
X119188500Y-126713500D01*
X119188500Y-126713500D01*
G37*
G36*
X116848260Y-126688260D02*
X116001740Y-126688260D01*
X116001740Y-126311740D01*
X116848260Y-126311740D01*
X116848260Y-126688260D01*
X116848260Y-126688260D01*
G37*
G36*
X117998260Y-126688260D02*
X117151740Y-126688260D01*
X117151740Y-126311740D01*
X117998260Y-126311740D01*
X117998260Y-126688260D01*
X117998260Y-126688260D01*
G37*
G36*
X133973260Y-126535293D02*
X133626740Y-126535293D01*
X133626740Y-125888773D01*
X133973260Y-125888773D01*
X133973260Y-126535293D01*
X133973260Y-126535293D01*
G37*
G36*
X133473260Y-126535293D02*
X133126740Y-126535293D01*
X133126740Y-125888773D01*
X133473260Y-125888773D01*
X133473260Y-126535293D01*
X133473260Y-126535293D01*
G37*
G36*
X132973260Y-126535293D02*
X132626740Y-126535293D01*
X132626740Y-125888773D01*
X132973260Y-125888773D01*
X132973260Y-126535293D01*
X132973260Y-126535293D01*
G37*
G36*
X132473260Y-126535293D02*
X132126740Y-126535293D01*
X132126740Y-125888773D01*
X132473260Y-125888773D01*
X132473260Y-126535293D01*
X132473260Y-126535293D01*
G37*
G36*
X134473260Y-126535293D02*
X134126740Y-126535293D01*
X134126740Y-125888773D01*
X134435700Y-125888773D01*
X134445611Y-125887797D01*
X134455140Y-125884906D01*
X134463923Y-125880212D01*
X134471621Y-125873894D01*
X134473260Y-125871897D01*
X134473260Y-126535293D01*
X134473260Y-126535293D01*
G37*
G36*
X147603500Y-126453500D02*
X142396500Y-126453500D01*
X142396500Y-124626500D01*
X147603500Y-124626500D01*
X147603500Y-126453500D01*
X147603500Y-126453500D01*
G37*
G36*
X117998260Y-126188260D02*
X117151740Y-126188260D01*
X117151740Y-125811740D01*
X117998260Y-125811740D01*
X117998260Y-126188260D01*
X117998260Y-126188260D01*
G37*
G36*
X116848260Y-126188260D02*
X116001740Y-126188260D01*
X116001740Y-125811740D01*
X116848260Y-125811740D01*
X116848260Y-126188260D01*
X116848260Y-126188260D01*
G37*
G36*
X129513500Y-126013500D02*
X128886500Y-126013500D01*
X128886500Y-125286500D01*
X129513500Y-125286500D01*
X129513500Y-126013500D01*
X129513500Y-126013500D01*
G37*
G36*
X135113500Y-125813500D02*
X134524060Y-125813500D01*
X134514149Y-125814476D01*
X134504620Y-125817367D01*
X134495837Y-125822061D01*
X134488139Y-125828379D01*
X134486500Y-125830376D01*
X134486500Y-125086500D01*
X135113500Y-125086500D01*
X135113500Y-125813500D01*
X135113500Y-125813500D01*
G37*
G36*
X115438500Y-125713500D02*
X114561500Y-125713500D01*
X114561500Y-124786500D01*
X115438500Y-124786500D01*
X115438500Y-125713500D01*
X115438500Y-125713500D01*
G37*
G36*
X117998260Y-125688260D02*
X117151740Y-125688260D01*
X117151740Y-125311740D01*
X117998260Y-125311740D01*
X117998260Y-125688260D01*
X117998260Y-125688260D01*
G37*
G36*
X116848260Y-125688260D02*
X116001740Y-125688260D01*
X116001740Y-125311740D01*
X116848260Y-125311740D01*
X116848260Y-125688260D01*
X116848260Y-125688260D01*
G37*
G36*
X132313500Y-125213500D02*
X131686500Y-125213500D01*
X131686500Y-124486500D01*
X132313500Y-124486500D01*
X132313500Y-125213500D01*
X132313500Y-125213500D01*
G37*
G36*
X137913500Y-125213500D02*
X137286500Y-125213500D01*
X137286500Y-124486500D01*
X137913500Y-124486500D01*
X137913500Y-125213500D01*
X137913500Y-125213500D01*
G37*
G36*
X129513500Y-124913500D02*
X128886500Y-124913500D01*
X128886500Y-123686500D01*
X129513500Y-123686500D01*
X129513500Y-124913500D01*
X129513500Y-124913500D01*
G37*
G36*
X135113500Y-124713500D02*
X134486500Y-124713500D01*
X134486500Y-123486500D01*
X135113500Y-123486500D01*
X135113500Y-124713500D01*
X135113500Y-124713500D01*
G37*
G36*
X112713500Y-124438500D02*
X111786500Y-124438500D01*
X111786500Y-123561500D01*
X112713500Y-123561500D01*
X112713500Y-124438500D01*
X112713500Y-124438500D01*
G37*
G36*
X114213500Y-124438500D02*
X113286500Y-124438500D01*
X113286500Y-123561500D01*
X114213500Y-123561500D01*
X114213500Y-124438500D01*
X114213500Y-124438500D01*
G37*
G36*
X115438500Y-124213500D02*
X114561500Y-124213500D01*
X114561500Y-123286500D01*
X115438500Y-123286500D01*
X115438500Y-124213500D01*
X115438500Y-124213500D01*
G37*
G36*
X119188500Y-124213500D02*
X118311500Y-124213500D01*
X118311500Y-123286500D01*
X119188500Y-123286500D01*
X119188500Y-124213500D01*
X119188500Y-124213500D01*
G37*
G36*
X132313500Y-124113500D02*
X131686500Y-124113500D01*
X131686500Y-122886500D01*
X132313500Y-122886500D01*
X132313500Y-124113500D01*
X132313500Y-124113500D01*
G37*
G36*
X137913500Y-124113500D02*
X137286500Y-124113500D01*
X137286500Y-122886500D01*
X137913500Y-122886500D01*
X137913500Y-124113500D01*
X137913500Y-124113500D01*
G37*
G36*
X147603500Y-123913500D02*
X142396500Y-123913500D01*
X142396500Y-122086500D01*
X147603500Y-122086500D01*
X147603500Y-123913500D01*
X147603500Y-123913500D01*
G37*
G36*
X129513500Y-121935700D02*
X129514476Y-121945611D01*
X129517367Y-121955140D01*
X129522061Y-121963923D01*
X129528379Y-121971621D01*
X129536077Y-121977939D01*
X129544860Y-121982633D01*
X129554389Y-121985524D01*
X129564300Y-121986500D01*
X129613500Y-121986500D01*
X129613500Y-122613500D01*
X129564300Y-122613500D01*
X129554389Y-122614476D01*
X129544860Y-122617367D01*
X129536077Y-122622061D01*
X129528379Y-122628379D01*
X129522061Y-122636077D01*
X129517367Y-122644860D01*
X129514476Y-122654389D01*
X129513500Y-122664300D01*
X129513500Y-123313500D01*
X128886500Y-123313500D01*
X128886500Y-122789300D01*
X128885524Y-122779389D01*
X128882633Y-122769860D01*
X128877939Y-122761077D01*
X128871621Y-122753379D01*
X128863923Y-122747061D01*
X128855140Y-122742367D01*
X128845611Y-122739476D01*
X128835700Y-122738500D01*
X128536500Y-122738500D01*
X128536500Y-121861500D01*
X128835700Y-121861500D01*
X128845611Y-121860524D01*
X128855140Y-121857633D01*
X128863923Y-121852939D01*
X128871621Y-121846621D01*
X128877939Y-121838923D01*
X128882633Y-121830140D01*
X128885524Y-121820611D01*
X128886500Y-121810700D01*
X128886500Y-121286500D01*
X129513500Y-121286500D01*
X129513500Y-121935700D01*
X129513500Y-121935700D01*
G37*
G36*
X135113500Y-121935700D02*
X135114476Y-121945611D01*
X135117367Y-121955140D01*
X135122061Y-121963923D01*
X135128379Y-121971621D01*
X135136077Y-121977939D01*
X135144860Y-121982633D01*
X135154389Y-121985524D01*
X135163500Y-121986421D01*
X135163500Y-122613579D01*
X135154389Y-122614476D01*
X135144860Y-122617367D01*
X135136077Y-122622061D01*
X135128379Y-122628379D01*
X135122061Y-122636077D01*
X135117367Y-122644860D01*
X135114476Y-122654389D01*
X135113500Y-122664300D01*
X135113500Y-123113500D01*
X134486500Y-123113500D01*
X134486500Y-122664300D01*
X134485524Y-122654389D01*
X134482633Y-122644860D01*
X134477939Y-122636077D01*
X134471621Y-122628379D01*
X134463923Y-122622061D01*
X134455140Y-122617367D01*
X134445611Y-122614476D01*
X134436500Y-122613579D01*
X134436500Y-121986421D01*
X134445611Y-121985524D01*
X134455140Y-121982633D01*
X134463923Y-121977939D01*
X134471621Y-121971621D01*
X134477939Y-121963923D01*
X134482633Y-121955140D01*
X134485524Y-121945611D01*
X134486500Y-121935700D01*
X134486500Y-121486500D01*
X135113500Y-121486500D01*
X135113500Y-121935700D01*
X135113500Y-121935700D01*
G37*
G36*
X127963500Y-122738500D02*
X127036500Y-122738500D01*
X127036500Y-121861500D01*
X127963500Y-121861500D01*
X127963500Y-122738500D01*
X127963500Y-122738500D01*
G37*
G36*
X114563500Y-122688500D02*
X113436500Y-122688500D01*
X113436500Y-121311500D01*
X114563500Y-121311500D01*
X114563500Y-122688500D01*
X114563500Y-122688500D01*
G37*
G36*
X112563500Y-122688500D02*
X111436500Y-122688500D01*
X111436500Y-121311500D01*
X112563500Y-121311500D01*
X112563500Y-122688500D01*
X112563500Y-122688500D01*
G37*
G36*
X104873500Y-122653500D02*
X102746500Y-122653500D01*
X102746500Y-120526500D01*
X104873500Y-120526500D01*
X104873500Y-122653500D01*
X104873500Y-122653500D01*
G37*
G36*
X131263500Y-122013500D02*
X130764300Y-122013500D01*
X130754389Y-122014476D01*
X130744860Y-122017367D01*
X130736077Y-122022061D01*
X130728379Y-122028379D01*
X130722061Y-122036077D01*
X130717367Y-122044860D01*
X130714476Y-122054389D01*
X130713500Y-122064300D01*
X130713500Y-122613500D01*
X129986500Y-122613500D01*
X129986500Y-121986500D01*
X130485700Y-121986500D01*
X130495611Y-121985524D01*
X130505140Y-121982633D01*
X130513923Y-121977939D01*
X130521621Y-121971621D01*
X130527939Y-121963923D01*
X130532633Y-121955140D01*
X130535524Y-121945611D01*
X130536500Y-121935700D01*
X130536500Y-121386500D01*
X131263500Y-121386500D01*
X131263500Y-122013500D01*
X131263500Y-122013500D01*
G37*
G36*
X133463500Y-121935700D02*
X133464476Y-121945611D01*
X133467367Y-121955140D01*
X133472061Y-121963923D01*
X133478379Y-121971621D01*
X133486077Y-121977939D01*
X133494860Y-121982633D01*
X133504389Y-121985524D01*
X133514300Y-121986500D01*
X134063500Y-121986500D01*
X134063500Y-122613500D01*
X133336500Y-122613500D01*
X133336500Y-122064300D01*
X133335524Y-122054389D01*
X133332633Y-122044860D01*
X133327939Y-122036077D01*
X133321621Y-122028379D01*
X133313923Y-122022061D01*
X133305140Y-122017367D01*
X133295611Y-122014476D01*
X133285700Y-122013500D01*
X132736500Y-122013500D01*
X132736500Y-121386500D01*
X133463500Y-121386500D01*
X133463500Y-121935700D01*
X133463500Y-121935700D01*
G37*
G36*
X136863500Y-122013500D02*
X136314300Y-122013500D01*
X136304389Y-122014476D01*
X136294860Y-122017367D01*
X136286077Y-122022061D01*
X136278379Y-122028379D01*
X136272061Y-122036077D01*
X136267367Y-122044860D01*
X136264476Y-122054389D01*
X136263500Y-122064300D01*
X136263500Y-122613500D01*
X135536500Y-122613500D01*
X135536500Y-121986500D01*
X136085700Y-121986500D01*
X136095611Y-121985524D01*
X136105140Y-121982633D01*
X136113923Y-121977939D01*
X136121621Y-121971621D01*
X136127939Y-121963923D01*
X136132633Y-121955140D01*
X136135524Y-121945611D01*
X136136500Y-121935700D01*
X136136500Y-121386500D01*
X136863500Y-121386500D01*
X136863500Y-122013500D01*
X136863500Y-122013500D01*
G37*
G36*
X137913500Y-121335700D02*
X137914476Y-121345611D01*
X137917367Y-121355140D01*
X137922061Y-121363923D01*
X137928379Y-121371621D01*
X137936077Y-121377939D01*
X137944860Y-121382633D01*
X137954389Y-121385524D01*
X137963500Y-121386421D01*
X137963500Y-122013579D01*
X137954389Y-122014476D01*
X137944860Y-122017367D01*
X137936077Y-122022061D01*
X137928379Y-122028379D01*
X137922061Y-122036077D01*
X137917367Y-122044860D01*
X137914476Y-122054389D01*
X137913500Y-122064300D01*
X137913500Y-122513500D01*
X137286500Y-122513500D01*
X137286500Y-122064300D01*
X137285524Y-122054389D01*
X137282633Y-122044860D01*
X137277939Y-122036077D01*
X137271621Y-122028379D01*
X137263923Y-122022061D01*
X137255140Y-122017367D01*
X137245611Y-122014476D01*
X137236500Y-122013579D01*
X137236500Y-121386421D01*
X137245611Y-121385524D01*
X137255140Y-121382633D01*
X137263923Y-121377939D01*
X137271621Y-121371621D01*
X137277939Y-121363923D01*
X137282633Y-121355140D01*
X137285524Y-121345611D01*
X137286500Y-121335700D01*
X137286500Y-120886500D01*
X137913500Y-120886500D01*
X137913500Y-121335700D01*
X137913500Y-121335700D01*
G37*
G36*
X132313500Y-121335700D02*
X132314476Y-121345611D01*
X132317367Y-121355140D01*
X132322061Y-121363923D01*
X132328379Y-121371621D01*
X132336077Y-121377939D01*
X132344860Y-121382633D01*
X132354389Y-121385524D01*
X132363500Y-121386421D01*
X132363500Y-122013579D01*
X132354389Y-122014476D01*
X132344860Y-122017367D01*
X132336077Y-122022061D01*
X132328379Y-122028379D01*
X132322061Y-122036077D01*
X132317367Y-122044860D01*
X132314476Y-122054389D01*
X132313500Y-122064300D01*
X132313500Y-122513500D01*
X131686500Y-122513500D01*
X131686500Y-122064300D01*
X131685524Y-122054389D01*
X131682633Y-122044860D01*
X131677939Y-122036077D01*
X131671621Y-122028379D01*
X131663923Y-122022061D01*
X131655140Y-122017367D01*
X131645611Y-122014476D01*
X131636500Y-122013579D01*
X131636500Y-121386421D01*
X131645611Y-121385524D01*
X131655140Y-121382633D01*
X131663923Y-121377939D01*
X131671621Y-121371621D01*
X131677939Y-121363923D01*
X131682633Y-121355140D01*
X131685524Y-121345611D01*
X131686500Y-121335700D01*
X131686500Y-120886500D01*
X132313500Y-120886500D01*
X132313500Y-121335700D01*
X132313500Y-121335700D01*
G37*
G36*
X118063500Y-122513500D02*
X117436500Y-122513500D01*
X117436500Y-121486500D01*
X118063500Y-121486500D01*
X118063500Y-122513500D01*
X118063500Y-122513500D01*
G37*
G36*
X116563500Y-122513500D02*
X115936500Y-122513500D01*
X115936500Y-121486500D01*
X116563500Y-121486500D01*
X116563500Y-122513500D01*
X116563500Y-122513500D01*
G37*
G36*
X139063500Y-122013500D02*
X138336500Y-122013500D01*
X138336500Y-121386500D01*
X139063500Y-121386500D01*
X139063500Y-122013500D01*
X139063500Y-122013500D01*
G37*
G36*
X107498500Y-121383500D02*
X106471500Y-121383500D01*
X106471500Y-120756500D01*
X107498500Y-120756500D01*
X107498500Y-121383500D01*
X107498500Y-121383500D01*
G37*
G36*
X147603500Y-121373500D02*
X142396500Y-121373500D01*
X142396500Y-119546500D01*
X147603500Y-119546500D01*
X147603500Y-121373500D01*
X147603500Y-121373500D01*
G37*
G36*
X135113500Y-121113500D02*
X134486500Y-121113500D01*
X134486500Y-119886500D01*
X135113500Y-119886500D01*
X135113500Y-121113500D01*
X135113500Y-121113500D01*
G37*
G36*
X120513500Y-121063500D02*
X119486500Y-121063500D01*
X119486500Y-120436500D01*
X120513500Y-120436500D01*
X120513500Y-121063500D01*
X120513500Y-121063500D01*
G37*
G36*
X118513500Y-121063500D02*
X117486500Y-121063500D01*
X117486500Y-120436500D01*
X118513500Y-120436500D01*
X118513500Y-121063500D01*
X118513500Y-121063500D01*
G37*
G36*
X129513500Y-120913500D02*
X128886500Y-120913500D01*
X128886500Y-119686500D01*
X129513500Y-119686500D01*
X129513500Y-120913500D01*
X129513500Y-120913500D01*
G37*
G36*
X132313500Y-120513500D02*
X131686500Y-120513500D01*
X131686500Y-119286500D01*
X132313500Y-119286500D01*
X132313500Y-120513500D01*
X132313500Y-120513500D01*
G37*
G36*
X137913500Y-120513500D02*
X137286500Y-120513500D01*
X137286500Y-119286500D01*
X137913500Y-119286500D01*
X137913500Y-120513500D01*
X137913500Y-120513500D01*
G37*
G36*
X116063500Y-120413500D02*
X111936500Y-120413500D01*
X111936500Y-118786500D01*
X116063500Y-118786500D01*
X116063500Y-120413500D01*
X116063500Y-120413500D01*
G37*
G36*
X103921708Y-117987206D02*
X104126004Y-118029142D01*
X104318278Y-118109967D01*
X104491184Y-118226593D01*
X104638144Y-118374583D01*
X104753559Y-118548298D01*
X104833037Y-118741124D01*
X104873478Y-118945369D01*
X104873478Y-118945374D01*
X104873546Y-118945718D01*
X104870219Y-119183937D01*
X104870143Y-119184271D01*
X104870143Y-119184284D01*
X104824014Y-119387321D01*
X104739186Y-119577849D01*
X104618962Y-119748276D01*
X104467925Y-119892106D01*
X104291828Y-120003861D01*
X104097380Y-120079282D01*
X103891988Y-120115499D01*
X103683468Y-120111131D01*
X103479768Y-120066344D01*
X103288647Y-119982846D01*
X103117392Y-119863820D01*
X102972507Y-119713787D01*
X102859528Y-119538477D01*
X102782748Y-119344555D01*
X102745100Y-119139424D01*
X102748011Y-118930880D01*
X102791375Y-118726872D01*
X102873535Y-118535175D01*
X102991368Y-118363086D01*
X103140380Y-118217163D01*
X103314900Y-118102960D01*
X103508278Y-118024830D01*
X103713143Y-117985750D01*
X103921708Y-117987206D01*
X103921708Y-117987206D01*
G37*
G36*
X107498500Y-119883500D02*
X106471500Y-119883500D01*
X106471500Y-119256500D01*
X107498500Y-119256500D01*
X107498500Y-119883500D01*
X107498500Y-119883500D01*
G37*
G36*
X118513500Y-119563500D02*
X117486500Y-119563500D01*
X117486500Y-118936500D01*
X118513500Y-118936500D01*
X118513500Y-119563500D01*
X118513500Y-119563500D01*
G37*
G36*
X120513500Y-119563500D02*
X119486500Y-119563500D01*
X119486500Y-118936500D01*
X120513500Y-118936500D01*
X120513500Y-119563500D01*
X120513500Y-119563500D01*
G37*
G36*
X135113500Y-119513500D02*
X134486500Y-119513500D01*
X134486500Y-118786500D01*
X135113500Y-118786500D01*
X135113500Y-119513500D01*
X135113500Y-119513500D01*
G37*
G36*
X129513500Y-119313500D02*
X128886500Y-119313500D01*
X128886500Y-118586500D01*
X129513500Y-118586500D01*
X129513500Y-119313500D01*
X129513500Y-119313500D01*
G37*
G36*
X137913500Y-118913500D02*
X137286500Y-118913500D01*
X137286500Y-118186500D01*
X137913500Y-118186500D01*
X137913500Y-118913500D01*
X137913500Y-118913500D01*
G37*
G36*
X132313500Y-118913500D02*
X131686500Y-118913500D01*
X131686500Y-118186500D01*
X132313500Y-118186500D01*
X132313500Y-118913500D01*
X132313500Y-118913500D01*
G37*
G36*
X119888500Y-118693500D02*
X119111500Y-118693500D01*
X119111500Y-117506500D01*
X119888500Y-117506500D01*
X119888500Y-118693500D01*
X119888500Y-118693500D01*
G37*
G36*
X118938500Y-118693500D02*
X118161500Y-118693500D01*
X118161500Y-117506500D01*
X118938500Y-117506500D01*
X118938500Y-118693500D01*
X118938500Y-118693500D01*
G37*
G36*
X117988500Y-118693500D02*
X117211500Y-118693500D01*
X117211500Y-117506500D01*
X117988500Y-117506500D01*
X117988500Y-118693500D01*
X117988500Y-118693500D01*
G37*
G36*
X110938500Y-118303500D02*
X110061500Y-118303500D01*
X110061500Y-117376500D01*
X110938500Y-117376500D01*
X110938500Y-118303500D01*
X110938500Y-118303500D01*
G37*
G36*
X121763500Y-118063500D02*
X120736500Y-118063500D01*
X120736500Y-117436500D01*
X121763500Y-117436500D01*
X121763500Y-118063500D01*
X121763500Y-118063500D01*
G37*
G36*
X132573260Y-117973260D02*
X132226740Y-117973260D01*
X132226740Y-117326740D01*
X132573260Y-117326740D01*
X132573260Y-117973260D01*
X132573260Y-117973260D01*
G37*
G36*
X133073260Y-117973260D02*
X132726740Y-117973260D01*
X132726740Y-117326740D01*
X133073260Y-117326740D01*
X133073260Y-117973260D01*
X133073260Y-117973260D01*
G37*
G36*
X134573260Y-117973260D02*
X134226740Y-117973260D01*
X134226740Y-117326740D01*
X134573260Y-117326740D01*
X134573260Y-117973260D01*
X134573260Y-117973260D01*
G37*
G36*
X134073260Y-117973260D02*
X133726740Y-117973260D01*
X133726740Y-117326740D01*
X134073260Y-117326740D01*
X134073260Y-117973260D01*
X134073260Y-117973260D01*
G37*
G36*
X133573260Y-117973260D02*
X133226740Y-117973260D01*
X133226740Y-117326740D01*
X133573260Y-117326740D01*
X133573260Y-117973260D01*
X133573260Y-117973260D01*
G37*
G36*
X104873500Y-117573500D02*
X102746500Y-117573500D01*
X102746500Y-115446500D01*
X104873500Y-115446500D01*
X104873500Y-117573500D01*
X104873500Y-117573500D01*
G37*
G36*
X134648260Y-117203260D02*
X132151740Y-117203260D01*
X132151740Y-116346740D01*
X134648260Y-116346740D01*
X134648260Y-117203260D01*
X134648260Y-117203260D01*
G37*
G36*
X116063500Y-116813500D02*
X111936500Y-116813500D01*
X111936500Y-115186500D01*
X116063500Y-115186500D01*
X116063500Y-116813500D01*
X116063500Y-116813500D01*
G37*
G36*
X110938500Y-116803500D02*
X110061500Y-116803500D01*
X110061500Y-115876500D01*
X110938500Y-115876500D01*
X110938500Y-116803500D01*
X110938500Y-116803500D01*
G37*
G36*
X121763500Y-116563500D02*
X120736500Y-116563500D01*
X120736500Y-115936500D01*
X121763500Y-115936500D01*
X121763500Y-116563500D01*
X121763500Y-116563500D01*
G37*
G36*
X119888500Y-116493500D02*
X119111500Y-116493500D01*
X119111500Y-115306500D01*
X119888500Y-115306500D01*
X119888500Y-116493500D01*
X119888500Y-116493500D01*
G37*
G36*
X118938500Y-116493500D02*
X118161500Y-116493500D01*
X118161500Y-115306500D01*
X118938500Y-115306500D01*
X118938500Y-116493500D01*
X118938500Y-116493500D01*
G37*
G36*
X117988500Y-116493500D02*
X117211500Y-116493500D01*
X117211500Y-115306500D01*
X117988500Y-115306500D01*
X117988500Y-116493500D01*
X117988500Y-116493500D01*
G37*
G36*
X107498500Y-116303500D02*
X106471500Y-116303500D01*
X106471500Y-115676500D01*
X107498500Y-115676500D01*
X107498500Y-116303500D01*
X107498500Y-116303500D01*
G37*
G36*
X134073260Y-116223260D02*
X133726740Y-116223260D01*
X133726740Y-115576740D01*
X134073260Y-115576740D01*
X134073260Y-116223260D01*
X134073260Y-116223260D01*
G37*
G36*
X132573260Y-116223260D02*
X132226740Y-116223260D01*
X132226740Y-115576740D01*
X132573260Y-115576740D01*
X132573260Y-116223260D01*
X132573260Y-116223260D01*
G37*
G36*
X133073260Y-116223260D02*
X132726740Y-116223260D01*
X132726740Y-115576740D01*
X133073260Y-115576740D01*
X133073260Y-116223260D01*
X133073260Y-116223260D01*
G37*
G36*
X133573260Y-116223260D02*
X133226740Y-116223260D01*
X133226740Y-115576740D01*
X133573260Y-115576740D01*
X133573260Y-116223260D01*
X133573260Y-116223260D01*
G37*
G36*
X134573260Y-116223260D02*
X134226740Y-116223260D01*
X134226740Y-115576740D01*
X134573260Y-115576740D01*
X134573260Y-116223260D01*
X134573260Y-116223260D01*
G37*
G36*
X133713500Y-115263500D02*
X133086500Y-115263500D01*
X133086500Y-114536500D01*
X133713500Y-114536500D01*
X133713500Y-115263500D01*
X133713500Y-115263500D01*
G37*
G36*
X103921708Y-112907206D02*
X104126004Y-112949142D01*
X104318278Y-113029967D01*
X104491184Y-113146593D01*
X104638144Y-113294583D01*
X104753559Y-113468298D01*
X104833037Y-113661124D01*
X104873478Y-113865369D01*
X104873478Y-113865374D01*
X104873546Y-113865718D01*
X104870219Y-114103937D01*
X104870143Y-114104271D01*
X104870143Y-114104284D01*
X104824014Y-114307321D01*
X104739186Y-114497849D01*
X104618962Y-114668276D01*
X104467925Y-114812106D01*
X104291828Y-114923861D01*
X104097380Y-114999282D01*
X103891988Y-115035499D01*
X103683468Y-115031131D01*
X103479768Y-114986344D01*
X103288647Y-114902846D01*
X103117392Y-114783820D01*
X102972507Y-114633787D01*
X102859528Y-114458477D01*
X102782748Y-114264555D01*
X102745100Y-114059424D01*
X102748011Y-113850880D01*
X102791375Y-113646872D01*
X102873535Y-113455175D01*
X102991368Y-113283086D01*
X103140380Y-113137163D01*
X103314900Y-113022960D01*
X103508278Y-112944830D01*
X103713143Y-112905750D01*
X103921708Y-112907206D01*
X103921708Y-112907206D01*
G37*
G36*
X107498500Y-114803500D02*
X106471500Y-114803500D01*
X106471500Y-114176500D01*
X107498500Y-114176500D01*
X107498500Y-114803500D01*
X107498500Y-114803500D01*
G37*
G36*
X128213500Y-114438500D02*
X127286500Y-114438500D01*
X127286500Y-113561500D01*
X128213500Y-113561500D01*
X128213500Y-114438500D01*
X128213500Y-114438500D01*
G37*
G36*
X129713500Y-114438500D02*
X128786500Y-114438500D01*
X128786500Y-113561500D01*
X129713500Y-113561500D01*
X129713500Y-114438500D01*
X129713500Y-114438500D01*
G37*
G36*
X133713500Y-114163500D02*
X133086500Y-114163500D01*
X133086500Y-113436500D01*
X133713500Y-113436500D01*
X133713500Y-114163500D01*
X133713500Y-114163500D01*
G37*
G36*
X118463500Y-113938500D02*
X117536500Y-113938500D01*
X117536500Y-113061500D01*
X118463500Y-113061500D01*
X118463500Y-113938500D01*
X118463500Y-113938500D01*
G37*
G36*
X119963500Y-113938500D02*
X119036500Y-113938500D01*
X119036500Y-113061500D01*
X119963500Y-113061500D01*
X119963500Y-113938500D01*
X119963500Y-113938500D01*
G37*
G36*
X140838500Y-113863500D02*
X139961500Y-113863500D01*
X139961500Y-112936500D01*
X140838500Y-112936500D01*
X140838500Y-113863500D01*
X140838500Y-113863500D01*
G37*
G36*
X139638500Y-113863500D02*
X138761500Y-113863500D01*
X138761500Y-112936500D01*
X139638500Y-112936500D01*
X139638500Y-113863500D01*
X139638500Y-113863500D01*
G37*
G36*
X138388500Y-113863500D02*
X137511500Y-113863500D01*
X137511500Y-112936500D01*
X138388500Y-112936500D01*
X138388500Y-113863500D01*
X138388500Y-113863500D01*
G37*
G36*
X133098260Y-113273260D02*
X132701740Y-113273260D01*
X132701740Y-112326740D01*
X133098260Y-112326740D01*
X133098260Y-113273260D01*
X133098260Y-113273260D01*
G37*
G36*
X135073260Y-112298260D02*
X134149060Y-112298260D01*
X134139149Y-112299236D01*
X134129620Y-112302127D01*
X134120837Y-112306821D01*
X134113139Y-112313139D01*
X134106821Y-112320837D01*
X134102127Y-112329620D01*
X134099236Y-112339149D01*
X134098260Y-112349060D01*
X134098260Y-113273260D01*
X133701740Y-113273260D01*
X133701740Y-112326740D01*
X134075940Y-112326740D01*
X134085851Y-112325764D01*
X134095380Y-112322873D01*
X134104163Y-112318179D01*
X134111861Y-112311861D01*
X134118179Y-112304163D01*
X134122873Y-112295380D01*
X134125764Y-112285851D01*
X134126740Y-112275940D01*
X134126740Y-111901740D01*
X135073260Y-111901740D01*
X135073260Y-112298260D01*
X135073260Y-112298260D01*
G37*
G36*
X133598260Y-113273260D02*
X133201740Y-113273260D01*
X133201740Y-112326740D01*
X133598260Y-112326740D01*
X133598260Y-113273260D01*
X133598260Y-113273260D01*
G37*
G36*
X132598260Y-113273260D02*
X132201740Y-113273260D01*
X132201740Y-112326740D01*
X132598260Y-112326740D01*
X132598260Y-113273260D01*
X132598260Y-113273260D01*
G37*
G36*
X132098260Y-113273260D02*
X131701740Y-113273260D01*
X131701740Y-112326740D01*
X132098260Y-112326740D01*
X132098260Y-113273260D01*
X132098260Y-113273260D01*
G37*
G36*
X131173260Y-112275940D02*
X131174236Y-112285851D01*
X131177127Y-112295380D01*
X131181821Y-112304163D01*
X131188139Y-112311861D01*
X131195837Y-112318179D01*
X131204620Y-112322873D01*
X131214149Y-112325764D01*
X131224060Y-112326740D01*
X131598260Y-112326740D01*
X131598260Y-113273260D01*
X131201740Y-113273260D01*
X131201740Y-112349060D01*
X131200764Y-112339149D01*
X131197873Y-112329620D01*
X131193179Y-112320837D01*
X131186861Y-112313139D01*
X131179163Y-112306821D01*
X131170380Y-112302127D01*
X131160851Y-112299236D01*
X131150940Y-112298260D01*
X130226740Y-112298260D01*
X130226740Y-111901740D01*
X131173260Y-111901740D01*
X131173260Y-112275940D01*
X131173260Y-112275940D01*
G37*
G36*
X129713500Y-112938500D02*
X128786500Y-112938500D01*
X128786500Y-112061500D01*
X129713500Y-112061500D01*
X129713500Y-112938500D01*
X129713500Y-112938500D01*
G37*
G36*
X128213500Y-112938500D02*
X127286500Y-112938500D01*
X127286500Y-112061500D01*
X128213500Y-112061500D01*
X128213500Y-112938500D01*
X128213500Y-112938500D01*
G37*
G36*
X110963360Y-112913500D02*
X107136360Y-112913500D01*
X107136360Y-109086500D01*
X110963360Y-109086500D01*
X110963360Y-112913500D01*
X110963360Y-112913500D01*
G37*
G36*
X120313500Y-112438500D02*
X119186500Y-112438500D01*
X119186500Y-111061500D01*
X120313500Y-111061500D01*
X120313500Y-112438500D01*
X120313500Y-112438500D01*
G37*
G36*
X118313500Y-112438500D02*
X117186500Y-112438500D01*
X117186500Y-111061500D01*
X118313500Y-111061500D01*
X118313500Y-112438500D01*
X118313500Y-112438500D01*
G37*
G36*
X138388500Y-112363500D02*
X137511500Y-112363500D01*
X137511500Y-111436500D01*
X138388500Y-111436500D01*
X138388500Y-112363500D01*
X138388500Y-112363500D01*
G37*
G36*
X139638500Y-112363500D02*
X138761500Y-112363500D01*
X138761500Y-111436500D01*
X139638500Y-111436500D01*
X139638500Y-112363500D01*
X139638500Y-112363500D01*
G37*
G36*
X140838500Y-112363500D02*
X139961500Y-112363500D01*
X139961500Y-111436500D01*
X140838500Y-111436500D01*
X140838500Y-112363500D01*
X140838500Y-112363500D01*
G37*
G36*
X133998260Y-112198260D02*
X131301740Y-112198260D01*
X131301740Y-109501740D01*
X133998260Y-109501740D01*
X133998260Y-112198260D01*
X133998260Y-112198260D01*
G37*
G36*
X135073260Y-111798260D02*
X134126740Y-111798260D01*
X134126740Y-111401740D01*
X135073260Y-111401740D01*
X135073260Y-111798260D01*
X135073260Y-111798260D01*
G37*
G36*
X131173260Y-111798260D02*
X130226740Y-111798260D01*
X130226740Y-111401740D01*
X131173260Y-111401740D01*
X131173260Y-111798260D01*
X131173260Y-111798260D01*
G37*
G36*
X135073260Y-111298260D02*
X134126740Y-111298260D01*
X134126740Y-110901740D01*
X135073260Y-110901740D01*
X135073260Y-111298260D01*
X135073260Y-111298260D01*
G37*
G36*
X131173260Y-111298260D02*
X130226740Y-111298260D01*
X130226740Y-110901740D01*
X131173260Y-110901740D01*
X131173260Y-111298260D01*
X131173260Y-111298260D01*
G37*
G36*
X135073260Y-110798260D02*
X134126740Y-110798260D01*
X134126740Y-110401740D01*
X135073260Y-110401740D01*
X135073260Y-110798260D01*
X135073260Y-110798260D01*
G37*
G36*
X131173260Y-110798260D02*
X130226740Y-110798260D01*
X130226740Y-110401740D01*
X131173260Y-110401740D01*
X131173260Y-110798260D01*
X131173260Y-110798260D01*
G37*
G36*
X139406284Y-110346339D02*
X139416531Y-110349604D01*
X139444764Y-110355399D01*
X139471995Y-110366846D01*
X139496489Y-110383368D01*
X139517303Y-110404327D01*
X139533654Y-110428936D01*
X139544912Y-110456251D01*
X139550074Y-110482321D01*
X139552956Y-110491853D01*
X139557573Y-110500509D01*
X139553640Y-110507612D01*
X139550741Y-110516492D01*
X139543632Y-110547783D01*
X139531618Y-110574767D01*
X139514588Y-110598908D01*
X139493193Y-110619283D01*
X139468249Y-110635112D01*
X139440704Y-110645797D01*
X139411616Y-110650925D01*
X139382077Y-110650306D01*
X139353220Y-110643962D01*
X139326155Y-110632138D01*
X139301893Y-110615275D01*
X139281371Y-110594024D01*
X139265367Y-110569190D01*
X139254492Y-110541723D01*
X139249159Y-110512669D01*
X139249571Y-110483129D01*
X139255715Y-110454228D01*
X139267352Y-110427077D01*
X139284043Y-110402700D01*
X139305149Y-110382031D01*
X139329871Y-110365854D01*
X139357263Y-110354786D01*
X139381897Y-110350087D01*
X139391449Y-110347271D01*
X139399987Y-110342794D01*
X139406284Y-110346339D01*
X139406284Y-110346339D01*
G37*
G36*
X139806284Y-110346339D02*
X139816531Y-110349604D01*
X139844764Y-110355399D01*
X139871995Y-110366846D01*
X139896489Y-110383368D01*
X139917303Y-110404327D01*
X139933654Y-110428936D01*
X139944912Y-110456251D01*
X139950074Y-110482321D01*
X139952956Y-110491853D01*
X139957573Y-110500509D01*
X139953640Y-110507612D01*
X139950741Y-110516492D01*
X139943632Y-110547783D01*
X139931618Y-110574767D01*
X139914588Y-110598908D01*
X139893193Y-110619283D01*
X139868249Y-110635112D01*
X139840704Y-110645797D01*
X139811616Y-110650925D01*
X139782077Y-110650306D01*
X139753220Y-110643962D01*
X139726155Y-110632138D01*
X139701893Y-110615275D01*
X139681371Y-110594024D01*
X139665367Y-110569190D01*
X139654494Y-110541728D01*
X139650245Y-110518577D01*
X139647496Y-110509006D01*
X139642932Y-110500154D01*
X139642625Y-110499769D01*
X139646822Y-110491934D01*
X139649596Y-110483015D01*
X139655715Y-110454228D01*
X139667352Y-110427077D01*
X139684043Y-110402700D01*
X139705149Y-110382031D01*
X139729871Y-110365854D01*
X139757263Y-110354786D01*
X139781897Y-110350087D01*
X139791449Y-110347271D01*
X139799987Y-110342794D01*
X139806284Y-110346339D01*
X139806284Y-110346339D01*
G37*
G36*
X140206284Y-110346339D02*
X140216531Y-110349604D01*
X140244764Y-110355399D01*
X140271995Y-110366846D01*
X140296489Y-110383368D01*
X140317303Y-110404327D01*
X140333654Y-110428936D01*
X140344910Y-110456247D01*
X140350579Y-110484880D01*
X140350579Y-110484885D01*
X140350647Y-110485229D01*
X140350175Y-110518972D01*
X140350099Y-110519306D01*
X140350099Y-110519320D01*
X140343632Y-110547782D01*
X140331618Y-110574767D01*
X140314588Y-110598908D01*
X140293193Y-110619283D01*
X140268249Y-110635112D01*
X140240704Y-110645797D01*
X140211616Y-110650925D01*
X140182077Y-110650306D01*
X140153220Y-110643962D01*
X140126155Y-110632138D01*
X140101893Y-110615275D01*
X140081371Y-110594024D01*
X140065367Y-110569190D01*
X140054494Y-110541728D01*
X140050245Y-110518577D01*
X140047496Y-110509006D01*
X140042932Y-110500154D01*
X140042625Y-110499769D01*
X140046822Y-110491934D01*
X140049596Y-110483015D01*
X140055715Y-110454228D01*
X140067352Y-110427077D01*
X140084043Y-110402700D01*
X140105149Y-110382031D01*
X140129871Y-110365854D01*
X140157263Y-110354786D01*
X140181897Y-110350087D01*
X140191449Y-110347271D01*
X140199987Y-110342794D01*
X140206284Y-110346339D01*
X140206284Y-110346339D01*
G37*
G36*
X116998500Y-110423500D02*
X115961500Y-110423500D01*
X115961500Y-109076500D01*
X116998500Y-109076500D01*
X116998500Y-110423500D01*
X116998500Y-110423500D01*
G37*
G36*
X120268500Y-110423500D02*
X119231500Y-110423500D01*
X119231500Y-109076500D01*
X120268500Y-109076500D01*
X120268500Y-110423500D01*
X120268500Y-110423500D01*
G37*
G36*
X131173260Y-110298260D02*
X130226740Y-110298260D01*
X130226740Y-109901740D01*
X131173260Y-109901740D01*
X131173260Y-110298260D01*
X131173260Y-110298260D01*
G37*
G36*
X135073260Y-110298260D02*
X134126740Y-110298260D01*
X134126740Y-109901740D01*
X135073260Y-109901740D01*
X135073260Y-110298260D01*
X135073260Y-110298260D01*
G37*
G36*
X140215822Y-109949458D02*
X140244765Y-109955399D01*
X140271995Y-109966846D01*
X140296489Y-109983368D01*
X140317303Y-110004327D01*
X140333654Y-110028936D01*
X140344910Y-110056247D01*
X140350579Y-110084880D01*
X140350579Y-110084885D01*
X140350647Y-110085229D01*
X140350175Y-110118972D01*
X140350099Y-110119306D01*
X140350099Y-110119320D01*
X140343632Y-110147782D01*
X140331618Y-110174767D01*
X140314588Y-110198908D01*
X140293193Y-110219283D01*
X140268249Y-110235112D01*
X140240704Y-110245796D01*
X140217923Y-110249813D01*
X140208333Y-110252495D01*
X140199450Y-110256996D01*
X140199173Y-110257213D01*
X140192186Y-110253408D01*
X140183286Y-110250572D01*
X140153221Y-110243962D01*
X140126155Y-110232138D01*
X140101893Y-110215275D01*
X140081371Y-110194024D01*
X140065367Y-110169190D01*
X140054494Y-110141728D01*
X140050245Y-110118577D01*
X140047496Y-110109006D01*
X140042932Y-110100154D01*
X140042625Y-110099769D01*
X140046822Y-110091934D01*
X140049596Y-110083015D01*
X140055715Y-110054228D01*
X140067352Y-110027077D01*
X140084043Y-110002700D01*
X140105149Y-109982031D01*
X140129871Y-109965854D01*
X140157264Y-109954786D01*
X140186278Y-109949252D01*
X140215822Y-109949458D01*
X140215822Y-109949458D01*
G37*
G36*
X139815822Y-109949458D02*
X139844765Y-109955399D01*
X139871995Y-109966846D01*
X139896489Y-109983368D01*
X139917303Y-110004327D01*
X139933654Y-110028936D01*
X139944912Y-110056251D01*
X139950074Y-110082321D01*
X139952956Y-110091853D01*
X139957573Y-110100509D01*
X139953640Y-110107612D01*
X139950741Y-110116492D01*
X139943632Y-110147783D01*
X139931618Y-110174767D01*
X139914588Y-110198908D01*
X139893193Y-110219283D01*
X139868249Y-110235112D01*
X139840704Y-110245796D01*
X139817923Y-110249813D01*
X139808333Y-110252495D01*
X139799450Y-110256996D01*
X139799173Y-110257213D01*
X139792186Y-110253408D01*
X139783286Y-110250572D01*
X139753221Y-110243962D01*
X139726155Y-110232138D01*
X139701893Y-110215275D01*
X139681371Y-110194024D01*
X139665367Y-110169190D01*
X139654494Y-110141728D01*
X139650245Y-110118577D01*
X139647496Y-110109006D01*
X139642932Y-110100154D01*
X139642625Y-110099769D01*
X139646822Y-110091934D01*
X139649596Y-110083015D01*
X139655715Y-110054228D01*
X139667352Y-110027077D01*
X139684043Y-110002700D01*
X139705149Y-109982031D01*
X139729871Y-109965854D01*
X139757264Y-109954786D01*
X139786278Y-109949252D01*
X139815822Y-109949458D01*
X139815822Y-109949458D01*
G37*
G36*
X139415822Y-109949458D02*
X139444765Y-109955399D01*
X139471995Y-109966846D01*
X139496489Y-109983368D01*
X139517303Y-110004327D01*
X139533654Y-110028936D01*
X139544912Y-110056251D01*
X139550074Y-110082321D01*
X139552956Y-110091853D01*
X139557573Y-110100509D01*
X139553640Y-110107612D01*
X139550741Y-110116492D01*
X139543632Y-110147783D01*
X139531618Y-110174767D01*
X139514588Y-110198908D01*
X139493193Y-110219283D01*
X139468249Y-110235112D01*
X139440704Y-110245796D01*
X139417923Y-110249813D01*
X139408333Y-110252495D01*
X139399450Y-110256996D01*
X139399173Y-110257213D01*
X139392186Y-110253408D01*
X139383286Y-110250572D01*
X139353221Y-110243962D01*
X139326155Y-110232138D01*
X139301893Y-110215275D01*
X139281371Y-110194024D01*
X139265367Y-110169190D01*
X139254492Y-110141723D01*
X139249159Y-110112669D01*
X139249571Y-110083129D01*
X139255715Y-110054228D01*
X139267352Y-110027077D01*
X139284043Y-110002700D01*
X139305149Y-109982031D01*
X139329871Y-109965854D01*
X139357264Y-109954786D01*
X139386278Y-109949252D01*
X139415822Y-109949458D01*
X139415822Y-109949458D01*
G37*
G36*
X147603500Y-110203500D02*
X142396500Y-110203500D01*
X142396500Y-108376500D01*
X147603500Y-108376500D01*
X147603500Y-110203500D01*
X147603500Y-110203500D01*
G37*
G36*
X134098260Y-109350940D02*
X134099236Y-109360851D01*
X134102127Y-109370380D01*
X134106821Y-109379163D01*
X134113139Y-109386861D01*
X134120837Y-109393179D01*
X134129620Y-109397873D01*
X134139149Y-109400764D01*
X134149060Y-109401740D01*
X135073260Y-109401740D01*
X135073260Y-109798260D01*
X134126740Y-109798260D01*
X134126740Y-109424060D01*
X134125764Y-109414149D01*
X134122873Y-109404620D01*
X134118179Y-109395837D01*
X134111861Y-109388139D01*
X134104163Y-109381821D01*
X134095380Y-109377127D01*
X134085851Y-109374236D01*
X134075940Y-109373260D01*
X133701740Y-109373260D01*
X133701740Y-108426740D01*
X134098260Y-108426740D01*
X134098260Y-109350940D01*
X134098260Y-109350940D01*
G37*
G36*
X131598260Y-109373260D02*
X131224060Y-109373260D01*
X131214149Y-109374236D01*
X131204620Y-109377127D01*
X131195837Y-109381821D01*
X131188139Y-109388139D01*
X131181821Y-109395837D01*
X131177127Y-109404620D01*
X131174236Y-109414149D01*
X131173260Y-109424060D01*
X131173260Y-109798260D01*
X130226740Y-109798260D01*
X130226740Y-109401740D01*
X131150940Y-109401740D01*
X131160851Y-109400764D01*
X131170380Y-109397873D01*
X131179163Y-109393179D01*
X131186861Y-109386861D01*
X131193179Y-109379163D01*
X131197873Y-109370380D01*
X131200764Y-109360851D01*
X131201740Y-109350940D01*
X131201740Y-108426740D01*
X131598260Y-108426740D01*
X131598260Y-109373260D01*
X131598260Y-109373260D01*
G37*
G36*
X140113500Y-109613500D02*
X139486500Y-109613500D01*
X139486500Y-108886500D01*
X140113500Y-108886500D01*
X140113500Y-109613500D01*
X140113500Y-109613500D01*
G37*
G36*
X132098260Y-109373260D02*
X131701740Y-109373260D01*
X131701740Y-108426740D01*
X132098260Y-108426740D01*
X132098260Y-109373260D01*
X132098260Y-109373260D01*
G37*
G36*
X133098260Y-109373260D02*
X132701740Y-109373260D01*
X132701740Y-108426740D01*
X133098260Y-108426740D01*
X133098260Y-109373260D01*
X133098260Y-109373260D01*
G37*
G36*
X133598260Y-109373260D02*
X133201740Y-109373260D01*
X133201740Y-108426740D01*
X133598260Y-108426740D01*
X133598260Y-109373260D01*
X133598260Y-109373260D01*
G37*
G36*
X132598260Y-109373260D02*
X132201740Y-109373260D01*
X132201740Y-108426740D01*
X132598260Y-108426740D01*
X132598260Y-109373260D01*
X132598260Y-109373260D01*
G37*
G36*
X140163500Y-107863579D02*
X140154389Y-107864476D01*
X140144860Y-107867367D01*
X140136077Y-107872061D01*
X140128379Y-107878379D01*
X140122061Y-107886077D01*
X140117367Y-107894860D01*
X140114476Y-107904389D01*
X140113500Y-107914300D01*
X140113500Y-108513500D01*
X139486500Y-108513500D01*
X139486500Y-107914300D01*
X139485524Y-107904389D01*
X139482633Y-107894860D01*
X139477939Y-107886077D01*
X139471621Y-107878379D01*
X139463923Y-107872061D01*
X139455140Y-107867367D01*
X139445611Y-107864476D01*
X139436500Y-107863579D01*
X139436500Y-107336500D01*
X140163500Y-107336500D01*
X140163500Y-107863579D01*
X140163500Y-107863579D01*
G37*
G36*
X114313360Y-108513500D02*
X110286360Y-108513500D01*
X110286360Y-104486500D01*
X114313360Y-104486500D01*
X114313360Y-108513500D01*
X114313360Y-108513500D01*
G37*
G36*
X107763360Y-108463500D02*
X103836360Y-108463500D01*
X103836360Y-104536500D01*
X107763360Y-104536500D01*
X107763360Y-108463500D01*
X107763360Y-108463500D01*
G37*
G36*
X120750000Y-108250000D02*
X118850000Y-108250000D01*
X118850000Y-104650000D01*
X120750000Y-104650000D01*
X120750000Y-108250000D01*
X120750000Y-108250000D01*
G37*
G36*
X116550000Y-108250000D02*
X114650000Y-108250000D01*
X114650000Y-104650000D01*
X116550000Y-104650000D01*
X116550000Y-108250000D01*
X116550000Y-108250000D01*
G37*
G36*
X134089802Y-107653554D02*
X133575736Y-108167620D01*
X133132380Y-107724264D01*
X133646446Y-107210198D01*
X134089802Y-107653554D01*
X134089802Y-107653554D01*
G37*
G36*
X135898260Y-107898260D02*
X135301740Y-107898260D01*
X135301740Y-107501740D01*
X135898260Y-107501740D01*
X135898260Y-107898260D01*
X135898260Y-107898260D01*
G37*
G36*
X137698260Y-107898260D02*
X137101740Y-107898260D01*
X137101740Y-107501740D01*
X137698260Y-107501740D01*
X137698260Y-107898260D01*
X137698260Y-107898260D01*
G37*
G36*
X136948260Y-107878260D02*
X136051740Y-107878260D01*
X136051740Y-106021740D01*
X136948260Y-106021740D01*
X136948260Y-107878260D01*
X136948260Y-107878260D01*
G37*
G36*
X147603500Y-107663500D02*
X142396500Y-107663500D01*
X142396500Y-105836500D01*
X147603500Y-105836500D01*
X147603500Y-107663500D01*
X147603500Y-107663500D01*
G37*
G36*
X135898260Y-107398260D02*
X135301740Y-107398260D01*
X135301740Y-107001740D01*
X135898260Y-107001740D01*
X135898260Y-107398260D01*
X135898260Y-107398260D01*
G37*
G36*
X137698260Y-107398260D02*
X137101740Y-107398260D01*
X137101740Y-107001740D01*
X137698260Y-107001740D01*
X137698260Y-107398260D01*
X137698260Y-107398260D01*
G37*
G36*
X134867620Y-106875736D02*
X134353554Y-107389802D01*
X133910198Y-106946446D01*
X134424264Y-106432380D01*
X134867620Y-106875736D01*
X134867620Y-106875736D01*
G37*
G36*
X142013500Y-107013500D02*
X141286500Y-107013500D01*
X141286500Y-106386500D01*
X142013500Y-106386500D01*
X142013500Y-107013500D01*
X142013500Y-107013500D01*
G37*
G36*
X140913500Y-107013500D02*
X140186421Y-107013500D01*
X140185524Y-107004389D01*
X140182633Y-106994860D01*
X140177939Y-106986077D01*
X140171621Y-106978379D01*
X140163923Y-106972061D01*
X140155140Y-106967367D01*
X140145611Y-106964476D01*
X140135700Y-106963500D01*
X139436500Y-106963500D01*
X139436500Y-106436500D01*
X140135700Y-106436500D01*
X140145611Y-106435524D01*
X140155140Y-106432633D01*
X140163923Y-106427939D01*
X140171621Y-106421621D01*
X140177939Y-106413923D01*
X140182633Y-106405140D01*
X140185524Y-106395611D01*
X140186421Y-106386500D01*
X140913500Y-106386500D01*
X140913500Y-107013500D01*
X140913500Y-107013500D01*
G37*
G36*
X137698260Y-106898260D02*
X137101740Y-106898260D01*
X137101740Y-106501740D01*
X137698260Y-106501740D01*
X137698260Y-106898260D01*
X137698260Y-106898260D01*
G37*
G36*
X135898260Y-106898260D02*
X135301740Y-106898260D01*
X135301740Y-106501740D01*
X135898260Y-106501740D01*
X135898260Y-106898260D01*
X135898260Y-106898260D01*
G37*
G36*
X137698260Y-106398260D02*
X137101740Y-106398260D01*
X137101740Y-106001740D01*
X137698260Y-106001740D01*
X137698260Y-106398260D01*
X137698260Y-106398260D01*
G37*
G36*
X135898260Y-106398260D02*
X135301740Y-106398260D01*
X135301740Y-106001740D01*
X135898260Y-106001740D01*
X135898260Y-106398260D01*
X135898260Y-106398260D01*
G37*
G36*
X127693500Y-106288500D02*
X126506500Y-106288500D01*
X126506500Y-105511500D01*
X127693500Y-105511500D01*
X127693500Y-106288500D01*
X127693500Y-106288500D01*
G37*
G36*
X125493500Y-106288500D02*
X124306500Y-106288500D01*
X124306500Y-105511500D01*
X125493500Y-105511500D01*
X125493500Y-106288500D01*
X125493500Y-106288500D01*
G37*
G36*
X129188500Y-105963500D02*
X128311500Y-105963500D01*
X128311500Y-105036500D01*
X129188500Y-105036500D01*
X129188500Y-105963500D01*
X129188500Y-105963500D01*
G37*
G36*
X123688500Y-105963500D02*
X122811500Y-105963500D01*
X122811500Y-105036500D01*
X123688500Y-105036500D01*
X123688500Y-105963500D01*
X123688500Y-105963500D01*
G37*
G36*
X136313500Y-105338500D02*
X135386500Y-105338500D01*
X135386500Y-104461500D01*
X136313500Y-104461500D01*
X136313500Y-105338500D01*
X136313500Y-105338500D01*
G37*
G36*
X137813500Y-105338500D02*
X136886500Y-105338500D01*
X136886500Y-104461500D01*
X137813500Y-104461500D01*
X137813500Y-105338500D01*
X137813500Y-105338500D01*
G37*
G36*
X125493500Y-105338500D02*
X124306500Y-105338500D01*
X124306500Y-104561500D01*
X125493500Y-104561500D01*
X125493500Y-105338500D01*
X125493500Y-105338500D01*
G37*
G36*
X135213500Y-105213500D02*
X134186500Y-105213500D01*
X134186500Y-104586500D01*
X135213500Y-104586500D01*
X135213500Y-105213500D01*
X135213500Y-105213500D01*
G37*
G36*
X147603500Y-105123500D02*
X142396500Y-105123500D01*
X142396500Y-103296500D01*
X147603500Y-103296500D01*
X147603500Y-105123500D01*
X147603500Y-105123500D01*
G37*
G36*
X133813500Y-104838500D02*
X132886500Y-104838500D01*
X132886500Y-103961500D01*
X133813500Y-103961500D01*
X133813500Y-104838500D01*
X133813500Y-104838500D01*
G37*
G36*
X132313500Y-104838500D02*
X131386500Y-104838500D01*
X131386500Y-103961500D01*
X132313500Y-103961500D01*
X132313500Y-104838500D01*
X132313500Y-104838500D01*
G37*
G36*
X129188500Y-104463500D02*
X128311500Y-104463500D01*
X128311500Y-103536500D01*
X129188500Y-103536500D01*
X129188500Y-104463500D01*
X129188500Y-104463500D01*
G37*
G36*
X123688500Y-104463500D02*
X122811500Y-104463500D01*
X122811500Y-103536500D01*
X123688500Y-103536500D01*
X123688500Y-104463500D01*
X123688500Y-104463500D01*
G37*
G36*
X127693500Y-104388500D02*
X126506500Y-104388500D01*
X126506500Y-103611500D01*
X127693500Y-103611500D01*
X127693500Y-104388500D01*
X127693500Y-104388500D01*
G37*
G36*
X125493500Y-104388500D02*
X124306500Y-104388500D01*
X124306500Y-103611500D01*
X125493500Y-103611500D01*
X125493500Y-104388500D01*
X125493500Y-104388500D01*
G37*
G36*
X137813500Y-104138500D02*
X136886500Y-104138500D01*
X136886500Y-103261500D01*
X137813500Y-103261500D01*
X137813500Y-104138500D01*
X137813500Y-104138500D01*
G37*
G36*
X136313500Y-104138500D02*
X135386500Y-104138500D01*
X135386500Y-103261500D01*
X136313500Y-103261500D01*
X136313500Y-104138500D01*
X136313500Y-104138500D01*
G37*
G36*
X135213500Y-103713500D02*
X134186500Y-103713500D01*
X134186500Y-103086500D01*
X135213500Y-103086500D01*
X135213500Y-103713500D01*
X135213500Y-103713500D01*
G37*
M02*
