G04 #@! TF.FileFunction,Legend,Top*
%FSLAX46Y46*%
G04 Gerber Fmt 4.6, Leading zero omitted, Abs format (unit mm)*
G04 Created by KiCad (PCBNEW 4.X.X-debug) date Sat Sep 24 21:23:53 2016*
%MOMM*%
%LPD*%
G01*
G04 APERTURE LIST*
%ADD10C,0.100000*%
%ADD11C,0.150000*%
%ADD12C,0.127000*%
G04 APERTURE END LIST*
D10*
D11*
X134800000Y-146500000D02*
X134800000Y-145450000D01*
X132700000Y-145450000D02*
X132700000Y-146500000D01*
X132419040Y-147160780D02*
X132419040Y-147770380D01*
X132419040Y-147770380D02*
X132850840Y-147780540D01*
X108325000Y-134750000D02*
X108325000Y-133750000D01*
X109675000Y-133750000D02*
X109675000Y-134750000D01*
X130250000Y-138425000D02*
X129250000Y-138425000D01*
X129250000Y-137075000D02*
X130250000Y-137075000D01*
X139250000Y-136825000D02*
X140250000Y-136825000D01*
X140250000Y-138175000D02*
X139250000Y-138175000D01*
X126750000Y-135575000D02*
X127750000Y-135575000D01*
X127750000Y-136925000D02*
X126750000Y-136925000D01*
X139250000Y-138075000D02*
X140250000Y-138075000D01*
X140250000Y-139425000D02*
X139250000Y-139425000D01*
X131525000Y-138875000D02*
X131525000Y-138350000D01*
X136775000Y-133625000D02*
X136775000Y-134150000D01*
X131525000Y-133625000D02*
X131525000Y-134150000D01*
X136775000Y-138875000D02*
X136250000Y-138875000D01*
X136775000Y-133625000D02*
X136250000Y-133625000D01*
X131525000Y-133625000D02*
X132050000Y-133625000D01*
X131525000Y-138875000D02*
X132050000Y-138875000D01*
X131700000Y-117375000D02*
X131700000Y-118275000D01*
X134900000Y-117775000D02*
X131900000Y-117775000D01*
X131900000Y-117775000D02*
X131900000Y-115775000D01*
X131900000Y-115775000D02*
X134900000Y-115775000D01*
X134900000Y-115775000D02*
X134900000Y-117775000D01*
X135000000Y-126487033D02*
X135000000Y-125587033D01*
X131800000Y-126087033D02*
X134800000Y-126087033D01*
X134800000Y-126087033D02*
X134800000Y-128087033D01*
X134800000Y-128087033D02*
X131800000Y-128087033D01*
X131800000Y-128087033D02*
X131800000Y-126087033D01*
X117797500Y-109750000D02*
X117416500Y-109750000D01*
X118813500Y-109750000D02*
X118432500Y-109750000D01*
X118432500Y-109750000D02*
X117797500Y-110131000D01*
X117797500Y-110131000D02*
X117797500Y-109369000D01*
X117797500Y-109369000D02*
X118432500Y-109750000D01*
X118432500Y-110258000D02*
X118432500Y-109242000D01*
X120115000Y-108850000D02*
X116575000Y-108850000D01*
X120115000Y-110650000D02*
X116575000Y-110650000D01*
X132850000Y-140850000D02*
X132150000Y-140850000D01*
X132150000Y-139650000D02*
X132850000Y-139650000D01*
X132850000Y-142100000D02*
X132150000Y-142100000D01*
X132150000Y-140900000D02*
X132850000Y-140900000D01*
X129400000Y-135650000D02*
X130100000Y-135650000D01*
X130100000Y-136850000D02*
X129400000Y-136850000D01*
X140100000Y-135600000D02*
X139400000Y-135600000D01*
X139400000Y-134400000D02*
X140100000Y-134400000D01*
X139400000Y-135650000D02*
X140100000Y-135650000D01*
X140100000Y-136850000D02*
X139400000Y-136850000D01*
X129400000Y-134650000D02*
X130100000Y-134650000D01*
X130100000Y-135850000D02*
X129400000Y-135850000D01*
X129400000Y-138400000D02*
X130100000Y-138400000D01*
X130100000Y-139600000D02*
X129400000Y-139600000D01*
X129400000Y-139650000D02*
X130100000Y-139650000D01*
X130100000Y-140850000D02*
X129400000Y-140850000D01*
X119100000Y-114100000D02*
X118400000Y-114100000D01*
X118400000Y-112900000D02*
X119100000Y-112900000D01*
X136950000Y-105500000D02*
X136250000Y-105500000D01*
X136250000Y-104300000D02*
X136950000Y-104300000D01*
X136350000Y-140850000D02*
X135650000Y-140850000D01*
X135650000Y-139650000D02*
X136350000Y-139650000D01*
X136350000Y-142100000D02*
X135650000Y-142100000D01*
X135650000Y-140900000D02*
X136350000Y-140900000D01*
X128850000Y-113100000D02*
X128150000Y-113100000D01*
X128150000Y-111900000D02*
X128850000Y-111900000D01*
X139047919Y-145353553D02*
X139542893Y-144858579D01*
X140391421Y-145707107D02*
X139896447Y-146202081D01*
X128850000Y-114600000D02*
X128150000Y-114600000D01*
X128150000Y-113400000D02*
X128850000Y-113400000D01*
X131100000Y-145100000D02*
X130400000Y-145100000D01*
X130400000Y-143900000D02*
X131100000Y-143900000D01*
X141400000Y-132400000D02*
X142100000Y-132400000D01*
X142100000Y-133600000D02*
X141400000Y-133600000D01*
X130100000Y-134850000D02*
X129400000Y-134850000D01*
X129400000Y-133650000D02*
X130100000Y-133650000D01*
X127850000Y-146850000D02*
X127150000Y-146850000D01*
X127150000Y-145650000D02*
X127850000Y-145650000D01*
X135600000Y-121825000D02*
X135100000Y-121825000D01*
X135100000Y-122775000D02*
X135600000Y-122775000D01*
X135275000Y-119950000D02*
X135275000Y-119450000D01*
X134325000Y-119450000D02*
X134325000Y-119950000D01*
X134325000Y-124650000D02*
X134325000Y-125150000D01*
X135275000Y-125150000D02*
X135275000Y-124650000D01*
X132475000Y-119350000D02*
X132475000Y-118850000D01*
X131525000Y-118850000D02*
X131525000Y-119350000D01*
X131525000Y-124050000D02*
X131525000Y-124550000D01*
X132475000Y-124550000D02*
X132475000Y-124050000D01*
X130050000Y-121825000D02*
X129550000Y-121825000D01*
X129550000Y-122775000D02*
X130050000Y-122775000D01*
X132423743Y-131901992D02*
X132070190Y-131548439D01*
X131398439Y-132220190D02*
X131751992Y-132573743D01*
X128725000Y-119250000D02*
X128725000Y-119750000D01*
X129675000Y-119750000D02*
X129675000Y-119250000D01*
X128725000Y-124850000D02*
X128725000Y-125350000D01*
X129675000Y-125350000D02*
X129675000Y-124850000D01*
X137125000Y-124050000D02*
X137125000Y-124550000D01*
X138075000Y-124550000D02*
X138075000Y-124050000D01*
X138075000Y-119350000D02*
X138075000Y-118850000D01*
X137125000Y-118850000D02*
X137125000Y-119350000D01*
X134159099Y-107812652D02*
X134512652Y-107459099D01*
X133840901Y-106787348D02*
X133487348Y-107140901D01*
X107660000Y-119820000D02*
X107660000Y-120820000D01*
X106310000Y-120820000D02*
X106310000Y-119820000D01*
X135375000Y-103650000D02*
X135375000Y-104650000D01*
X134025000Y-104650000D02*
X134025000Y-103650000D01*
X140325000Y-107400000D02*
X140325000Y-106900000D01*
X139275000Y-106900000D02*
X139275000Y-107400000D01*
X129675000Y-123750000D02*
X129675000Y-123250000D01*
X128725000Y-123250000D02*
X128725000Y-123750000D01*
X128725000Y-120850000D02*
X128725000Y-121350000D01*
X129675000Y-121350000D02*
X129675000Y-120850000D01*
X131200000Y-122175000D02*
X131700000Y-122175000D01*
X131700000Y-121225000D02*
X131200000Y-121225000D01*
X132475000Y-122950000D02*
X132475000Y-122450000D01*
X131525000Y-122450000D02*
X131525000Y-122950000D01*
X132800000Y-121225000D02*
X132300000Y-121225000D01*
X132300000Y-122175000D02*
X132800000Y-122175000D01*
X134000000Y-122775000D02*
X134500000Y-122775000D01*
X134500000Y-121825000D02*
X134000000Y-121825000D01*
X134325000Y-121050000D02*
X134325000Y-121550000D01*
X135275000Y-121550000D02*
X135275000Y-121050000D01*
X135275000Y-123550000D02*
X135275000Y-123050000D01*
X134325000Y-123050000D02*
X134325000Y-123550000D01*
X136800000Y-122175000D02*
X137300000Y-122175000D01*
X137300000Y-121225000D02*
X136800000Y-121225000D01*
X138400000Y-121225000D02*
X137900000Y-121225000D01*
X137900000Y-122175000D02*
X138400000Y-122175000D01*
X138075000Y-122950000D02*
X138075000Y-122450000D01*
X137125000Y-122450000D02*
X137125000Y-122950000D01*
X137125000Y-120450000D02*
X137125000Y-120950000D01*
X138075000Y-120950000D02*
X138075000Y-120450000D01*
X134625000Y-132150000D02*
X134625000Y-131650000D01*
X133675000Y-131650000D02*
X133675000Y-132150000D01*
X135959099Y-132662652D02*
X136312652Y-132309099D01*
X135640901Y-131637348D02*
X135287348Y-131990901D01*
X133775000Y-132150000D02*
X133775000Y-131650000D01*
X132825000Y-131650000D02*
X132825000Y-132150000D01*
X141400000Y-131400000D02*
X142100000Y-131400000D01*
X142100000Y-132600000D02*
X141400000Y-132600000D01*
X123850000Y-104400000D02*
X123850000Y-105100000D01*
X122650000Y-105100000D02*
X122650000Y-104400000D01*
X136950000Y-104300000D02*
X136250000Y-104300000D01*
X136250000Y-103100000D02*
X136950000Y-103100000D01*
X133875000Y-114600000D02*
X133875000Y-114100000D01*
X132925000Y-114100000D02*
X132925000Y-114600000D01*
X140850000Y-107175000D02*
X141350000Y-107175000D01*
X141350000Y-106225000D02*
X140850000Y-106225000D01*
X139325000Y-108450000D02*
X139325000Y-108950000D01*
X140275000Y-108950000D02*
X140275000Y-108450000D01*
X141000000Y-112300000D02*
X141000000Y-113000000D01*
X139800000Y-113000000D02*
X139800000Y-112300000D01*
X139800000Y-112300000D02*
X139800000Y-113000000D01*
X138600000Y-113000000D02*
X138600000Y-112300000D01*
X128600000Y-122900000D02*
X127900000Y-122900000D01*
X127900000Y-121700000D02*
X128600000Y-121700000D01*
X131525000Y-120450000D02*
X131525000Y-120950000D01*
X132475000Y-120950000D02*
X132475000Y-120450000D01*
X110300000Y-133090000D02*
X110300000Y-131540000D01*
X109000000Y-133090000D02*
X110300000Y-133090000D01*
X104809000Y-131667000D02*
X98967000Y-131667000D01*
X98967000Y-131667000D02*
X98967000Y-131413000D01*
X98967000Y-131413000D02*
X104809000Y-131413000D01*
X104809000Y-131413000D02*
X104809000Y-131540000D01*
X104809000Y-131540000D02*
X98967000Y-131540000D01*
X107476000Y-131794000D02*
X107857000Y-131794000D01*
X107476000Y-131286000D02*
X107857000Y-131286000D01*
X107476000Y-129254000D02*
X107857000Y-129254000D01*
X107476000Y-128746000D02*
X107857000Y-128746000D01*
X107476000Y-126714000D02*
X107857000Y-126714000D01*
X107476000Y-126206000D02*
X107857000Y-126206000D01*
X104936000Y-130270000D02*
X104936000Y-132810000D01*
X98840000Y-131286000D02*
X104936000Y-131286000D01*
X98840000Y-131794000D02*
X98840000Y-131286000D01*
X104936000Y-131794000D02*
X98840000Y-131794000D01*
X107476000Y-130270000D02*
X104936000Y-130270000D01*
X107476000Y-132810000D02*
X107476000Y-130270000D01*
X107476000Y-132810000D02*
X104936000Y-132810000D01*
X107476000Y-127730000D02*
X104936000Y-127730000D01*
X107476000Y-127730000D02*
X107476000Y-125190000D01*
X104936000Y-126714000D02*
X98840000Y-126714000D01*
X98840000Y-126714000D02*
X98840000Y-126206000D01*
X98840000Y-126206000D02*
X104936000Y-126206000D01*
X104936000Y-125190000D02*
X104936000Y-127730000D01*
X104936000Y-127730000D02*
X104936000Y-130270000D01*
X98840000Y-128746000D02*
X104936000Y-128746000D01*
X98840000Y-129254000D02*
X98840000Y-128746000D01*
X104936000Y-129254000D02*
X98840000Y-129254000D01*
X107476000Y-127730000D02*
X104936000Y-127730000D01*
X107476000Y-130270000D02*
X107476000Y-127730000D01*
X107476000Y-130270000D02*
X104936000Y-130270000D01*
X107476000Y-125190000D02*
X104936000Y-125190000D01*
X130500000Y-108700000D02*
X131025000Y-108700000D01*
X134800000Y-113000000D02*
X134275000Y-113000000D01*
X134800000Y-108700000D02*
X134275000Y-108700000D01*
X130500000Y-113000000D02*
X130500000Y-112475000D01*
X134800000Y-113000000D02*
X134800000Y-112475000D01*
X134800000Y-108700000D02*
X134800000Y-109225000D01*
X130500000Y-108700000D02*
X130500000Y-109225000D01*
X140650000Y-109450000D02*
X140650000Y-110050000D01*
X140450000Y-109850000D02*
X140450000Y-110750000D01*
X140450000Y-110750000D02*
X139150000Y-110750000D01*
X139150000Y-110750000D02*
X139150000Y-109850000D01*
X139150000Y-109850000D02*
X140450000Y-109850000D01*
X129100000Y-146900000D02*
X129100000Y-147100000D01*
X130700000Y-148100000D02*
X130300000Y-148100000D01*
X131800000Y-146900000D02*
X131800000Y-147100000D01*
X130300000Y-145900000D02*
X130700000Y-145900000D01*
X128750000Y-148700000D02*
G75*
G03X128750000Y-148700000I-150000J0D01*
G01*
D12*
X118800000Y-108050000D02*
X116600000Y-108050000D01*
X116600000Y-104850000D02*
X118800000Y-104850000D01*
D11*
X118150000Y-135100000D02*
X118150000Y-134400000D01*
X119350000Y-134400000D02*
X119350000Y-135100000D01*
X119650000Y-135100000D02*
X119650000Y-134400000D01*
X120850000Y-134400000D02*
X120850000Y-135100000D01*
X125900000Y-147650000D02*
X126600000Y-147650000D01*
X126600000Y-148850000D02*
X125900000Y-148850000D01*
X123800000Y-134400000D02*
X123800000Y-135100000D01*
X122600000Y-135100000D02*
X122600000Y-134400000D01*
X142100000Y-134600000D02*
X141400000Y-134600000D01*
X141400000Y-133400000D02*
X142100000Y-133400000D01*
X129400000Y-140900000D02*
X130100000Y-140900000D01*
X130100000Y-142100000D02*
X129400000Y-142100000D01*
X137350000Y-113000000D02*
X137350000Y-112300000D01*
X138550000Y-112300000D02*
X138550000Y-113000000D01*
X132250000Y-103800000D02*
X132950000Y-103800000D01*
X132950000Y-105000000D02*
X132250000Y-105000000D01*
X120350000Y-116600000D02*
G75*
G03X120350000Y-116600000I-100000J0D01*
G01*
X120000000Y-117250000D02*
X120000000Y-116750000D01*
X117100000Y-117250000D02*
X120000000Y-117250000D01*
X117100000Y-116750000D02*
X117100000Y-117250000D01*
X120000000Y-116750000D02*
X117100000Y-116750000D01*
X125800000Y-103250000D02*
G75*
G03X125800000Y-103250000I-100000J0D01*
G01*
X126250000Y-103500000D02*
X125750000Y-103500000D01*
X126250000Y-106400000D02*
X126250000Y-103500000D01*
X125750000Y-106400000D02*
X126250000Y-106400000D01*
X125750000Y-103500000D02*
X125750000Y-106400000D01*
X117325000Y-120500000D02*
X117325000Y-119500000D01*
X118675000Y-119500000D02*
X118675000Y-120500000D01*
X120575000Y-117500000D02*
X120575000Y-116500000D01*
X121925000Y-116500000D02*
X121925000Y-117500000D01*
X120675000Y-119500000D02*
X120675000Y-120500000D01*
X119325000Y-120500000D02*
X119325000Y-119500000D01*
X116500000Y-121325000D02*
X117500000Y-121325000D01*
X117500000Y-122675000D02*
X116500000Y-122675000D01*
X115900000Y-130450000D02*
X115900000Y-130800000D01*
X117800000Y-130450000D02*
X115900000Y-130450000D01*
X116200000Y-132100000D02*
X117800000Y-132100000D01*
X115900000Y-125200000D02*
X115900000Y-125550000D01*
X117800000Y-125200000D02*
X115900000Y-125200000D01*
X116200000Y-126850000D02*
X117800000Y-126850000D01*
X111460000Y-120340000D02*
X111460000Y-115260000D01*
X116540000Y-120340000D02*
X116540000Y-115260000D01*
X112500000Y-122850000D02*
X113500000Y-122850000D01*
X113500000Y-121150000D02*
X112500000Y-121150000D01*
X118250000Y-112600000D02*
X119250000Y-112600000D01*
X119250000Y-110900000D02*
X118250000Y-110900000D01*
X113350000Y-124600000D02*
X112650000Y-124600000D01*
X112650000Y-123400000D02*
X113350000Y-123400000D01*
X109900000Y-117440000D02*
X109900000Y-116740000D01*
X111100000Y-116740000D02*
X111100000Y-117440000D01*
X119350000Y-126650000D02*
X119350000Y-127350000D01*
X118150000Y-127350000D02*
X118150000Y-126650000D01*
X114400000Y-124850000D02*
X114400000Y-124150000D01*
X115600000Y-124150000D02*
X115600000Y-124850000D01*
X119350000Y-124150000D02*
X119350000Y-124850000D01*
X118150000Y-124850000D02*
X118150000Y-124150000D01*
X119350000Y-131900000D02*
X119350000Y-132600000D01*
X118150000Y-132600000D02*
X118150000Y-131900000D01*
X114400000Y-130100000D02*
X114400000Y-129400000D01*
X115600000Y-129400000D02*
X115600000Y-130100000D01*
X119350000Y-129400000D02*
X119350000Y-130100000D01*
X118150000Y-130100000D02*
X118150000Y-129400000D01*
X129350000Y-104400000D02*
X129350000Y-105100000D01*
X128150000Y-105100000D02*
X128150000Y-104400000D01*
X135850000Y-108100000D02*
X137150000Y-108100000D01*
X135275000Y-105800000D02*
X137150000Y-105800000D01*
X121150000Y-135100000D02*
X121150000Y-134400000D01*
X122350000Y-134400000D02*
X122350000Y-135100000D01*
X110600000Y-148600000D02*
X109900000Y-148600000D01*
X109900000Y-147400000D02*
X110600000Y-147400000D01*
X110600000Y-147100000D02*
X109900000Y-147100000D01*
X109900000Y-145900000D02*
X110600000Y-145900000D01*
X115850000Y-147850000D02*
X115150000Y-147850000D01*
X115150000Y-146650000D02*
X115850000Y-146650000D01*
X133150000Y-142575000D02*
X134150000Y-142575000D01*
X134150000Y-143925000D02*
X133150000Y-143925000D01*
X118350000Y-147850000D02*
X117650000Y-147850000D01*
X117650000Y-146650000D02*
X118350000Y-146650000D01*
X112125000Y-145375000D02*
X112350000Y-145375000D01*
X112125000Y-138125000D02*
X112425000Y-138125000D01*
X119375000Y-138125000D02*
X119075000Y-138125000D01*
X119375000Y-145375000D02*
X119075000Y-145375000D01*
X112125000Y-145375000D02*
X112125000Y-145075000D01*
X119375000Y-145375000D02*
X119375000Y-145075000D01*
X119375000Y-138125000D02*
X119375000Y-138425000D01*
X112125000Y-138125000D02*
X112125000Y-138425000D01*
X112350000Y-145375000D02*
X112350000Y-146600000D01*
X107660000Y-114740000D02*
X107660000Y-115740000D01*
X106310000Y-115740000D02*
X106310000Y-114740000D01*
X101905000Y-141910000D02*
X101905000Y-146990000D01*
X101625000Y-139090000D02*
X103175000Y-139090000D01*
X104445000Y-139370000D02*
X104445000Y-141910000D01*
X104445000Y-141910000D02*
X101905000Y-141910000D01*
X101905000Y-146990000D02*
X106985000Y-146990000D01*
X106985000Y-146990000D02*
X106985000Y-141910000D01*
X101625000Y-139090000D02*
X101625000Y-140640000D01*
X106985000Y-139370000D02*
X104445000Y-139370000D01*
X106985000Y-141910000D02*
X106985000Y-139370000D01*
X105124000Y-116709000D02*
X104924000Y-116709000D01*
X102530000Y-116709000D02*
X102710000Y-116709000D01*
X102840357Y-113481256D02*
G75*
G03X102524000Y-116709000I1003643J-1727744D01*
G01*
X102710932Y-114156994D02*
G75*
G03X102710000Y-116260000I1133068J-1052006D01*
G01*
X105150726Y-116696220D02*
G75*
G03X104804000Y-113459000I-1306726J1497220D01*
G01*
X104923253Y-116222889D02*
G75*
G03X104904000Y-114175000I-1079253J1013889D01*
G01*
X105124000Y-121789000D02*
X104924000Y-121789000D01*
X102530000Y-121789000D02*
X102710000Y-121789000D01*
X102840357Y-118561256D02*
G75*
G03X102524000Y-121789000I1003643J-1727744D01*
G01*
X102710932Y-119236994D02*
G75*
G03X102710000Y-121340000I1133068J-1052006D01*
G01*
X105150726Y-121776220D02*
G75*
G03X104804000Y-118539000I-1306726J1497220D01*
G01*
X104923253Y-121302889D02*
G75*
G03X104904000Y-119255000I-1079253J1013889D01*
G01*
X101799360Y-101999120D02*
X101799360Y-111000880D01*
X98299240Y-101999120D02*
X98299240Y-111000880D01*
X98299240Y-111000880D02*
X112800100Y-111000880D01*
X112800100Y-111000880D02*
X112800100Y-101999120D01*
X112800100Y-101999120D02*
X98299240Y-101999120D01*
X130250000Y-132025000D02*
X130750000Y-132025000D01*
X130750000Y-130975000D02*
X130250000Y-130975000D01*
X137500000Y-130975000D02*
X137000000Y-130975000D01*
X137000000Y-132025000D02*
X137500000Y-132025000D01*
D10*
X135195238Y-145780952D02*
X135195238Y-146104761D01*
X135214285Y-146142857D01*
X135233333Y-146161904D01*
X135271428Y-146180952D01*
X135347619Y-146180952D01*
X135385714Y-146161904D01*
X135404761Y-146142857D01*
X135423809Y-146104761D01*
X135423809Y-145780952D01*
X135595238Y-145819047D02*
X135614285Y-145800000D01*
X135652380Y-145780952D01*
X135747619Y-145780952D01*
X135785714Y-145800000D01*
X135804761Y-145819047D01*
X135823809Y-145857142D01*
X135823809Y-145895238D01*
X135804761Y-145952380D01*
X135576190Y-146180952D01*
X135823809Y-146180952D01*
X110183333Y-134430952D02*
X110050000Y-134240476D01*
X109954761Y-134430952D02*
X109954761Y-134030952D01*
X110107142Y-134030952D01*
X110145238Y-134050000D01*
X110164285Y-134069047D01*
X110183333Y-134107142D01*
X110183333Y-134164285D01*
X110164285Y-134202380D01*
X110145238Y-134221428D01*
X110107142Y-134240476D01*
X109954761Y-134240476D01*
X110335714Y-134069047D02*
X110354761Y-134050000D01*
X110392857Y-134030952D01*
X110488095Y-134030952D01*
X110526190Y-134050000D01*
X110545238Y-134069047D01*
X110564285Y-134107142D01*
X110564285Y-134145238D01*
X110545238Y-134202380D01*
X110316666Y-134430952D01*
X110564285Y-134430952D01*
X127683333Y-137980952D02*
X127550000Y-137790476D01*
X127454761Y-137980952D02*
X127454761Y-137580952D01*
X127607142Y-137580952D01*
X127645238Y-137600000D01*
X127664285Y-137619047D01*
X127683333Y-137657142D01*
X127683333Y-137714285D01*
X127664285Y-137752380D01*
X127645238Y-137771428D01*
X127607142Y-137790476D01*
X127454761Y-137790476D01*
X127816666Y-137580952D02*
X128064285Y-137580952D01*
X127930952Y-137733333D01*
X127988095Y-137733333D01*
X128026190Y-137752380D01*
X128045238Y-137771428D01*
X128064285Y-137809523D01*
X128064285Y-137904761D01*
X128045238Y-137942857D01*
X128026190Y-137961904D01*
X127988095Y-137980952D01*
X127873809Y-137980952D01*
X127835714Y-137961904D01*
X127816666Y-137942857D01*
X141433333Y-137680952D02*
X141300000Y-137490476D01*
X141204761Y-137680952D02*
X141204761Y-137280952D01*
X141357142Y-137280952D01*
X141395238Y-137300000D01*
X141414285Y-137319047D01*
X141433333Y-137357142D01*
X141433333Y-137414285D01*
X141414285Y-137452380D01*
X141395238Y-137471428D01*
X141357142Y-137490476D01*
X141204761Y-137490476D01*
X141776190Y-137414285D02*
X141776190Y-137680952D01*
X141680952Y-137261904D02*
X141585714Y-137547619D01*
X141833333Y-137547619D01*
X124683333Y-136430952D02*
X124550000Y-136240476D01*
X124454761Y-136430952D02*
X124454761Y-136030952D01*
X124607142Y-136030952D01*
X124645238Y-136050000D01*
X124664285Y-136069047D01*
X124683333Y-136107142D01*
X124683333Y-136164285D01*
X124664285Y-136202380D01*
X124645238Y-136221428D01*
X124607142Y-136240476D01*
X124454761Y-136240476D01*
X124911904Y-136202380D02*
X124873809Y-136183333D01*
X124854761Y-136164285D01*
X124835714Y-136126190D01*
X124835714Y-136107142D01*
X124854761Y-136069047D01*
X124873809Y-136050000D01*
X124911904Y-136030952D01*
X124988095Y-136030952D01*
X125026190Y-136050000D01*
X125045238Y-136069047D01*
X125064285Y-136107142D01*
X125064285Y-136126190D01*
X125045238Y-136164285D01*
X125026190Y-136183333D01*
X124988095Y-136202380D01*
X124911904Y-136202380D01*
X124873809Y-136221428D01*
X124854761Y-136240476D01*
X124835714Y-136278571D01*
X124835714Y-136354761D01*
X124854761Y-136392857D01*
X124873809Y-136411904D01*
X124911904Y-136430952D01*
X124988095Y-136430952D01*
X125026190Y-136411904D01*
X125045238Y-136392857D01*
X125064285Y-136354761D01*
X125064285Y-136278571D01*
X125045238Y-136240476D01*
X125026190Y-136221428D01*
X124988095Y-136202380D01*
X141433333Y-138930952D02*
X141300000Y-138740476D01*
X141204761Y-138930952D02*
X141204761Y-138530952D01*
X141357142Y-138530952D01*
X141395238Y-138550000D01*
X141414285Y-138569047D01*
X141433333Y-138607142D01*
X141433333Y-138664285D01*
X141414285Y-138702380D01*
X141395238Y-138721428D01*
X141357142Y-138740476D01*
X141204761Y-138740476D01*
X141566666Y-138530952D02*
X141833333Y-138530952D01*
X141661904Y-138930952D01*
X137095238Y-139030952D02*
X137095238Y-139354761D01*
X137114285Y-139392857D01*
X137133333Y-139411904D01*
X137171428Y-139430952D01*
X137247619Y-139430952D01*
X137285714Y-139411904D01*
X137304761Y-139392857D01*
X137323809Y-139354761D01*
X137323809Y-139030952D01*
X137723809Y-139430952D02*
X137495238Y-139430952D01*
X137609523Y-139430952D02*
X137609523Y-139030952D01*
X137571428Y-139088095D01*
X137533333Y-139126190D01*
X137495238Y-139145238D01*
X130809238Y-117280952D02*
X130809238Y-117604761D01*
X130828285Y-117642857D01*
X130847333Y-117661904D01*
X130885428Y-117680952D01*
X130961619Y-117680952D01*
X130999714Y-117661904D01*
X131018761Y-117642857D01*
X131037809Y-117604761D01*
X131037809Y-117280952D01*
X131190190Y-117280952D02*
X131456857Y-117280952D01*
X131285428Y-117680952D01*
X135281238Y-125992985D02*
X135281238Y-126316794D01*
X135300285Y-126354890D01*
X135319333Y-126373937D01*
X135357428Y-126392985D01*
X135433619Y-126392985D01*
X135471714Y-126373937D01*
X135490761Y-126354890D01*
X135509809Y-126316794D01*
X135509809Y-125992985D01*
X135757428Y-126164413D02*
X135719333Y-126145366D01*
X135700285Y-126126318D01*
X135681238Y-126088223D01*
X135681238Y-126069175D01*
X135700285Y-126031080D01*
X135719333Y-126012033D01*
X135757428Y-125992985D01*
X135833619Y-125992985D01*
X135871714Y-126012033D01*
X135890761Y-126031080D01*
X135909809Y-126069175D01*
X135909809Y-126088223D01*
X135890761Y-126126318D01*
X135871714Y-126145366D01*
X135833619Y-126164413D01*
X135757428Y-126164413D01*
X135719333Y-126183461D01*
X135700285Y-126202509D01*
X135681238Y-126240604D01*
X135681238Y-126316794D01*
X135700285Y-126354890D01*
X135719333Y-126373937D01*
X135757428Y-126392985D01*
X135833619Y-126392985D01*
X135871714Y-126373937D01*
X135890761Y-126354890D01*
X135909809Y-126316794D01*
X135909809Y-126240604D01*
X135890761Y-126202509D01*
X135871714Y-126183461D01*
X135833619Y-126164413D01*
X120954761Y-109930952D02*
X120954761Y-109530952D01*
X121050000Y-109530952D01*
X121107142Y-109550000D01*
X121145238Y-109588095D01*
X121164285Y-109626190D01*
X121183333Y-109702380D01*
X121183333Y-109759523D01*
X121164285Y-109835714D01*
X121145238Y-109873809D01*
X121107142Y-109911904D01*
X121050000Y-109930952D01*
X120954761Y-109930952D01*
X121564285Y-109930952D02*
X121335714Y-109930952D01*
X121450000Y-109930952D02*
X121450000Y-109530952D01*
X121411904Y-109588095D01*
X121373809Y-109626190D01*
X121335714Y-109645238D01*
X133992857Y-140392857D02*
X133973809Y-140411904D01*
X133916666Y-140430952D01*
X133878571Y-140430952D01*
X133821428Y-140411904D01*
X133783333Y-140373809D01*
X133764285Y-140335714D01*
X133745238Y-140259523D01*
X133745238Y-140202380D01*
X133764285Y-140126190D01*
X133783333Y-140088095D01*
X133821428Y-140050000D01*
X133878571Y-140030952D01*
X133916666Y-140030952D01*
X133973809Y-140050000D01*
X133992857Y-140069047D01*
X134373809Y-140430952D02*
X134145238Y-140430952D01*
X134259523Y-140430952D02*
X134259523Y-140030952D01*
X134221428Y-140088095D01*
X134183333Y-140126190D01*
X134145238Y-140145238D01*
X134716666Y-140164285D02*
X134716666Y-140430952D01*
X134621428Y-140011904D02*
X134526190Y-140297619D01*
X134773809Y-140297619D01*
X133992857Y-141642857D02*
X133973809Y-141661904D01*
X133916666Y-141680952D01*
X133878571Y-141680952D01*
X133821428Y-141661904D01*
X133783333Y-141623809D01*
X133764285Y-141585714D01*
X133745238Y-141509523D01*
X133745238Y-141452380D01*
X133764285Y-141376190D01*
X133783333Y-141338095D01*
X133821428Y-141300000D01*
X133878571Y-141280952D01*
X133916666Y-141280952D01*
X133973809Y-141300000D01*
X133992857Y-141319047D01*
X134373809Y-141680952D02*
X134145238Y-141680952D01*
X134259523Y-141680952D02*
X134259523Y-141280952D01*
X134221428Y-141338095D01*
X134183333Y-141376190D01*
X134145238Y-141395238D01*
X134507142Y-141280952D02*
X134754761Y-141280952D01*
X134621428Y-141433333D01*
X134678571Y-141433333D01*
X134716666Y-141452380D01*
X134735714Y-141471428D01*
X134754761Y-141509523D01*
X134754761Y-141604761D01*
X134735714Y-141642857D01*
X134716666Y-141661904D01*
X134678571Y-141680952D01*
X134564285Y-141680952D01*
X134526190Y-141661904D01*
X134507142Y-141642857D01*
X125683333Y-136392857D02*
X125664285Y-136411904D01*
X125607142Y-136430952D01*
X125569047Y-136430952D01*
X125511904Y-136411904D01*
X125473809Y-136373809D01*
X125454761Y-136335714D01*
X125435714Y-136259523D01*
X125435714Y-136202380D01*
X125454761Y-136126190D01*
X125473809Y-136088095D01*
X125511904Y-136050000D01*
X125569047Y-136030952D01*
X125607142Y-136030952D01*
X125664285Y-136050000D01*
X125683333Y-136069047D01*
X125911904Y-136202380D02*
X125873809Y-136183333D01*
X125854761Y-136164285D01*
X125835714Y-136126190D01*
X125835714Y-136107142D01*
X125854761Y-136069047D01*
X125873809Y-136050000D01*
X125911904Y-136030952D01*
X125988095Y-136030952D01*
X126026190Y-136050000D01*
X126045238Y-136069047D01*
X126064285Y-136107142D01*
X126064285Y-136126190D01*
X126045238Y-136164285D01*
X126026190Y-136183333D01*
X125988095Y-136202380D01*
X125911904Y-136202380D01*
X125873809Y-136221428D01*
X125854761Y-136240476D01*
X125835714Y-136278571D01*
X125835714Y-136354761D01*
X125854761Y-136392857D01*
X125873809Y-136411904D01*
X125911904Y-136430952D01*
X125988095Y-136430952D01*
X126026190Y-136411904D01*
X126045238Y-136392857D01*
X126064285Y-136354761D01*
X126064285Y-136278571D01*
X126045238Y-136240476D01*
X126026190Y-136221428D01*
X125988095Y-136202380D01*
X141433333Y-135142857D02*
X141414285Y-135161904D01*
X141357142Y-135180952D01*
X141319047Y-135180952D01*
X141261904Y-135161904D01*
X141223809Y-135123809D01*
X141204761Y-135085714D01*
X141185714Y-135009523D01*
X141185714Y-134952380D01*
X141204761Y-134876190D01*
X141223809Y-134838095D01*
X141261904Y-134800000D01*
X141319047Y-134780952D01*
X141357142Y-134780952D01*
X141414285Y-134800000D01*
X141433333Y-134819047D01*
X141566666Y-134780952D02*
X141833333Y-134780952D01*
X141661904Y-135180952D01*
X141433333Y-136392857D02*
X141414285Y-136411904D01*
X141357142Y-136430952D01*
X141319047Y-136430952D01*
X141261904Y-136411904D01*
X141223809Y-136373809D01*
X141204761Y-136335714D01*
X141185714Y-136259523D01*
X141185714Y-136202380D01*
X141204761Y-136126190D01*
X141223809Y-136088095D01*
X141261904Y-136050000D01*
X141319047Y-136030952D01*
X141357142Y-136030952D01*
X141414285Y-136050000D01*
X141433333Y-136069047D01*
X141795238Y-136030952D02*
X141604761Y-136030952D01*
X141585714Y-136221428D01*
X141604761Y-136202380D01*
X141642857Y-136183333D01*
X141738095Y-136183333D01*
X141776190Y-136202380D01*
X141795238Y-136221428D01*
X141814285Y-136259523D01*
X141814285Y-136354761D01*
X141795238Y-136392857D01*
X141776190Y-136411904D01*
X141738095Y-136430952D01*
X141642857Y-136430952D01*
X141604761Y-136411904D01*
X141585714Y-136392857D01*
X127683333Y-135392857D02*
X127664285Y-135411904D01*
X127607142Y-135430952D01*
X127569047Y-135430952D01*
X127511904Y-135411904D01*
X127473809Y-135373809D01*
X127454761Y-135335714D01*
X127435714Y-135259523D01*
X127435714Y-135202380D01*
X127454761Y-135126190D01*
X127473809Y-135088095D01*
X127511904Y-135050000D01*
X127569047Y-135030952D01*
X127607142Y-135030952D01*
X127664285Y-135050000D01*
X127683333Y-135069047D01*
X128026190Y-135164285D02*
X128026190Y-135430952D01*
X127930952Y-135011904D02*
X127835714Y-135297619D01*
X128083333Y-135297619D01*
X127683333Y-139142857D02*
X127664285Y-139161904D01*
X127607142Y-139180952D01*
X127569047Y-139180952D01*
X127511904Y-139161904D01*
X127473809Y-139123809D01*
X127454761Y-139085714D01*
X127435714Y-139009523D01*
X127435714Y-138952380D01*
X127454761Y-138876190D01*
X127473809Y-138838095D01*
X127511904Y-138800000D01*
X127569047Y-138780952D01*
X127607142Y-138780952D01*
X127664285Y-138800000D01*
X127683333Y-138819047D01*
X127816666Y-138780952D02*
X128064285Y-138780952D01*
X127930952Y-138933333D01*
X127988095Y-138933333D01*
X128026190Y-138952380D01*
X128045238Y-138971428D01*
X128064285Y-139009523D01*
X128064285Y-139104761D01*
X128045238Y-139142857D01*
X128026190Y-139161904D01*
X127988095Y-139180952D01*
X127873809Y-139180952D01*
X127835714Y-139161904D01*
X127816666Y-139142857D01*
X127683333Y-140392857D02*
X127664285Y-140411904D01*
X127607142Y-140430952D01*
X127569047Y-140430952D01*
X127511904Y-140411904D01*
X127473809Y-140373809D01*
X127454761Y-140335714D01*
X127435714Y-140259523D01*
X127435714Y-140202380D01*
X127454761Y-140126190D01*
X127473809Y-140088095D01*
X127511904Y-140050000D01*
X127569047Y-140030952D01*
X127607142Y-140030952D01*
X127664285Y-140050000D01*
X127683333Y-140069047D01*
X127835714Y-140069047D02*
X127854761Y-140050000D01*
X127892857Y-140030952D01*
X127988095Y-140030952D01*
X128026190Y-140050000D01*
X128045238Y-140069047D01*
X128064285Y-140107142D01*
X128064285Y-140145238D01*
X128045238Y-140202380D01*
X127816666Y-140430952D01*
X128064285Y-140430952D01*
X121242857Y-113642857D02*
X121223809Y-113661904D01*
X121166666Y-113680952D01*
X121128571Y-113680952D01*
X121071428Y-113661904D01*
X121033333Y-113623809D01*
X121014285Y-113585714D01*
X120995238Y-113509523D01*
X120995238Y-113452380D01*
X121014285Y-113376190D01*
X121033333Y-113338095D01*
X121071428Y-113300000D01*
X121128571Y-113280952D01*
X121166666Y-113280952D01*
X121223809Y-113300000D01*
X121242857Y-113319047D01*
X121395238Y-113319047D02*
X121414285Y-113300000D01*
X121452380Y-113280952D01*
X121547619Y-113280952D01*
X121585714Y-113300000D01*
X121604761Y-113319047D01*
X121623809Y-113357142D01*
X121623809Y-113395238D01*
X121604761Y-113452380D01*
X121376190Y-113680952D01*
X121623809Y-113680952D01*
X121966666Y-113280952D02*
X121890476Y-113280952D01*
X121852380Y-113300000D01*
X121833333Y-113319047D01*
X121795238Y-113376190D01*
X121776190Y-113452380D01*
X121776190Y-113604761D01*
X121795238Y-113642857D01*
X121814285Y-113661904D01*
X121852380Y-113680952D01*
X121928571Y-113680952D01*
X121966666Y-113661904D01*
X121985714Y-113642857D01*
X122004761Y-113604761D01*
X122004761Y-113509523D01*
X121985714Y-113471428D01*
X121966666Y-113452380D01*
X121928571Y-113433333D01*
X121852380Y-113433333D01*
X121814285Y-113452380D01*
X121795238Y-113471428D01*
X121776190Y-113509523D01*
X138492857Y-105142857D02*
X138473809Y-105161904D01*
X138416666Y-105180952D01*
X138378571Y-105180952D01*
X138321428Y-105161904D01*
X138283333Y-105123809D01*
X138264285Y-105085714D01*
X138245238Y-105009523D01*
X138245238Y-104952380D01*
X138264285Y-104876190D01*
X138283333Y-104838095D01*
X138321428Y-104800000D01*
X138378571Y-104780952D01*
X138416666Y-104780952D01*
X138473809Y-104800000D01*
X138492857Y-104819047D01*
X138854761Y-104780952D02*
X138664285Y-104780952D01*
X138645238Y-104971428D01*
X138664285Y-104952380D01*
X138702380Y-104933333D01*
X138797619Y-104933333D01*
X138835714Y-104952380D01*
X138854761Y-104971428D01*
X138873809Y-105009523D01*
X138873809Y-105104761D01*
X138854761Y-105142857D01*
X138835714Y-105161904D01*
X138797619Y-105180952D01*
X138702380Y-105180952D01*
X138664285Y-105161904D01*
X138645238Y-105142857D01*
X139254761Y-105180952D02*
X139026190Y-105180952D01*
X139140476Y-105180952D02*
X139140476Y-104780952D01*
X139102380Y-104838095D01*
X139064285Y-104876190D01*
X139026190Y-104895238D01*
X137742857Y-140392857D02*
X137723809Y-140411904D01*
X137666666Y-140430952D01*
X137628571Y-140430952D01*
X137571428Y-140411904D01*
X137533333Y-140373809D01*
X137514285Y-140335714D01*
X137495238Y-140259523D01*
X137495238Y-140202380D01*
X137514285Y-140126190D01*
X137533333Y-140088095D01*
X137571428Y-140050000D01*
X137628571Y-140030952D01*
X137666666Y-140030952D01*
X137723809Y-140050000D01*
X137742857Y-140069047D01*
X138123809Y-140430952D02*
X137895238Y-140430952D01*
X138009523Y-140430952D02*
X138009523Y-140030952D01*
X137971428Y-140088095D01*
X137933333Y-140126190D01*
X137895238Y-140145238D01*
X138466666Y-140030952D02*
X138390476Y-140030952D01*
X138352380Y-140050000D01*
X138333333Y-140069047D01*
X138295238Y-140126190D01*
X138276190Y-140202380D01*
X138276190Y-140354761D01*
X138295238Y-140392857D01*
X138314285Y-140411904D01*
X138352380Y-140430952D01*
X138428571Y-140430952D01*
X138466666Y-140411904D01*
X138485714Y-140392857D01*
X138504761Y-140354761D01*
X138504761Y-140259523D01*
X138485714Y-140221428D01*
X138466666Y-140202380D01*
X138428571Y-140183333D01*
X138352380Y-140183333D01*
X138314285Y-140202380D01*
X138295238Y-140221428D01*
X138276190Y-140259523D01*
X137742857Y-141642857D02*
X137723809Y-141661904D01*
X137666666Y-141680952D01*
X137628571Y-141680952D01*
X137571428Y-141661904D01*
X137533333Y-141623809D01*
X137514285Y-141585714D01*
X137495238Y-141509523D01*
X137495238Y-141452380D01*
X137514285Y-141376190D01*
X137533333Y-141338095D01*
X137571428Y-141300000D01*
X137628571Y-141280952D01*
X137666666Y-141280952D01*
X137723809Y-141300000D01*
X137742857Y-141319047D01*
X138123809Y-141680952D02*
X137895238Y-141680952D01*
X138009523Y-141680952D02*
X138009523Y-141280952D01*
X137971428Y-141338095D01*
X137933333Y-141376190D01*
X137895238Y-141395238D01*
X138485714Y-141280952D02*
X138295238Y-141280952D01*
X138276190Y-141471428D01*
X138295238Y-141452380D01*
X138333333Y-141433333D01*
X138428571Y-141433333D01*
X138466666Y-141452380D01*
X138485714Y-141471428D01*
X138504761Y-141509523D01*
X138504761Y-141604761D01*
X138485714Y-141642857D01*
X138466666Y-141661904D01*
X138428571Y-141680952D01*
X138333333Y-141680952D01*
X138295238Y-141661904D01*
X138276190Y-141642857D01*
X126392857Y-112642857D02*
X126373809Y-112661904D01*
X126316666Y-112680952D01*
X126278571Y-112680952D01*
X126221428Y-112661904D01*
X126183333Y-112623809D01*
X126164285Y-112585714D01*
X126145238Y-112509523D01*
X126145238Y-112452380D01*
X126164285Y-112376190D01*
X126183333Y-112338095D01*
X126221428Y-112300000D01*
X126278571Y-112280952D01*
X126316666Y-112280952D01*
X126373809Y-112300000D01*
X126392857Y-112319047D01*
X126754761Y-112280952D02*
X126564285Y-112280952D01*
X126545238Y-112471428D01*
X126564285Y-112452380D01*
X126602380Y-112433333D01*
X126697619Y-112433333D01*
X126735714Y-112452380D01*
X126754761Y-112471428D01*
X126773809Y-112509523D01*
X126773809Y-112604761D01*
X126754761Y-112642857D01*
X126735714Y-112661904D01*
X126697619Y-112680952D01*
X126602380Y-112680952D01*
X126564285Y-112661904D01*
X126545238Y-112642857D01*
X127002380Y-112452380D02*
X126964285Y-112433333D01*
X126945238Y-112414285D01*
X126926190Y-112376190D01*
X126926190Y-112357142D01*
X126945238Y-112319047D01*
X126964285Y-112300000D01*
X127002380Y-112280952D01*
X127078571Y-112280952D01*
X127116666Y-112300000D01*
X127135714Y-112319047D01*
X127154761Y-112357142D01*
X127154761Y-112376190D01*
X127135714Y-112414285D01*
X127116666Y-112433333D01*
X127078571Y-112452380D01*
X127002380Y-112452380D01*
X126964285Y-112471428D01*
X126945238Y-112490476D01*
X126926190Y-112528571D01*
X126926190Y-112604761D01*
X126945238Y-112642857D01*
X126964285Y-112661904D01*
X127002380Y-112680952D01*
X127078571Y-112680952D01*
X127116666Y-112661904D01*
X127135714Y-112642857D01*
X127154761Y-112604761D01*
X127154761Y-112528571D01*
X127135714Y-112490476D01*
X127116666Y-112471428D01*
X127078571Y-112452380D01*
X138769120Y-144789304D02*
X138750072Y-144808351D01*
X138692929Y-144827399D01*
X138654834Y-144827399D01*
X138597691Y-144808351D01*
X138559596Y-144770256D01*
X138540548Y-144732161D01*
X138521501Y-144655970D01*
X138521501Y-144598827D01*
X138540548Y-144522637D01*
X138559596Y-144484542D01*
X138597691Y-144446447D01*
X138654834Y-144427399D01*
X138692929Y-144427399D01*
X138750072Y-144446447D01*
X138769120Y-144465494D01*
X139150072Y-144827399D02*
X138921501Y-144827399D01*
X139035787Y-144827399D02*
X139035787Y-144427399D01*
X138997691Y-144484542D01*
X138959596Y-144522637D01*
X138921501Y-144541685D01*
X126392857Y-114142857D02*
X126373809Y-114161904D01*
X126316666Y-114180952D01*
X126278571Y-114180952D01*
X126221428Y-114161904D01*
X126183333Y-114123809D01*
X126164285Y-114085714D01*
X126145238Y-114009523D01*
X126145238Y-113952380D01*
X126164285Y-113876190D01*
X126183333Y-113838095D01*
X126221428Y-113800000D01*
X126278571Y-113780952D01*
X126316666Y-113780952D01*
X126373809Y-113800000D01*
X126392857Y-113819047D01*
X126754761Y-113780952D02*
X126564285Y-113780952D01*
X126545238Y-113971428D01*
X126564285Y-113952380D01*
X126602380Y-113933333D01*
X126697619Y-113933333D01*
X126735714Y-113952380D01*
X126754761Y-113971428D01*
X126773809Y-114009523D01*
X126773809Y-114104761D01*
X126754761Y-114142857D01*
X126735714Y-114161904D01*
X126697619Y-114180952D01*
X126602380Y-114180952D01*
X126564285Y-114161904D01*
X126545238Y-114142857D01*
X126907142Y-113780952D02*
X127173809Y-113780952D01*
X127002380Y-114180952D01*
X130492857Y-145642857D02*
X130473809Y-145661904D01*
X130416666Y-145680952D01*
X130378571Y-145680952D01*
X130321428Y-145661904D01*
X130283333Y-145623809D01*
X130264285Y-145585714D01*
X130245238Y-145509523D01*
X130245238Y-145452380D01*
X130264285Y-145376190D01*
X130283333Y-145338095D01*
X130321428Y-145300000D01*
X130378571Y-145280952D01*
X130416666Y-145280952D01*
X130473809Y-145300000D01*
X130492857Y-145319047D01*
X130645238Y-145319047D02*
X130664285Y-145300000D01*
X130702380Y-145280952D01*
X130797619Y-145280952D01*
X130835714Y-145300000D01*
X130854761Y-145319047D01*
X130873809Y-145357142D01*
X130873809Y-145395238D01*
X130854761Y-145452380D01*
X130626190Y-145680952D01*
X130873809Y-145680952D01*
X131007142Y-145280952D02*
X131254761Y-145280952D01*
X131121428Y-145433333D01*
X131178571Y-145433333D01*
X131216666Y-145452380D01*
X131235714Y-145471428D01*
X131254761Y-145509523D01*
X131254761Y-145604761D01*
X131235714Y-145642857D01*
X131216666Y-145661904D01*
X131178571Y-145680952D01*
X131064285Y-145680952D01*
X131026190Y-145661904D01*
X131007142Y-145642857D01*
X143492857Y-133142857D02*
X143473809Y-133161904D01*
X143416666Y-133180952D01*
X143378571Y-133180952D01*
X143321428Y-133161904D01*
X143283333Y-133123809D01*
X143264285Y-133085714D01*
X143245238Y-133009523D01*
X143245238Y-132952380D01*
X143264285Y-132876190D01*
X143283333Y-132838095D01*
X143321428Y-132800000D01*
X143378571Y-132780952D01*
X143416666Y-132780952D01*
X143473809Y-132800000D01*
X143492857Y-132819047D01*
X143873809Y-133180952D02*
X143645238Y-133180952D01*
X143759523Y-133180952D02*
X143759523Y-132780952D01*
X143721428Y-132838095D01*
X143683333Y-132876190D01*
X143645238Y-132895238D01*
X144064285Y-133180952D02*
X144140476Y-133180952D01*
X144178571Y-133161904D01*
X144197619Y-133142857D01*
X144235714Y-133085714D01*
X144254761Y-133009523D01*
X144254761Y-132857142D01*
X144235714Y-132819047D01*
X144216666Y-132800000D01*
X144178571Y-132780952D01*
X144102380Y-132780952D01*
X144064285Y-132800000D01*
X144045238Y-132819047D01*
X144026190Y-132857142D01*
X144026190Y-132952380D01*
X144045238Y-132990476D01*
X144064285Y-133009523D01*
X144102380Y-133028571D01*
X144178571Y-133028571D01*
X144216666Y-133009523D01*
X144235714Y-132990476D01*
X144254761Y-132952380D01*
X127492857Y-134492857D02*
X127473809Y-134511904D01*
X127416666Y-134530952D01*
X127378571Y-134530952D01*
X127321428Y-134511904D01*
X127283333Y-134473809D01*
X127264285Y-134435714D01*
X127245238Y-134359523D01*
X127245238Y-134302380D01*
X127264285Y-134226190D01*
X127283333Y-134188095D01*
X127321428Y-134150000D01*
X127378571Y-134130952D01*
X127416666Y-134130952D01*
X127473809Y-134150000D01*
X127492857Y-134169047D01*
X127873809Y-134530952D02*
X127645238Y-134530952D01*
X127759523Y-134530952D02*
X127759523Y-134130952D01*
X127721428Y-134188095D01*
X127683333Y-134226190D01*
X127645238Y-134245238D01*
X128102380Y-134302380D02*
X128064285Y-134283333D01*
X128045238Y-134264285D01*
X128026190Y-134226190D01*
X128026190Y-134207142D01*
X128045238Y-134169047D01*
X128064285Y-134150000D01*
X128102380Y-134130952D01*
X128178571Y-134130952D01*
X128216666Y-134150000D01*
X128235714Y-134169047D01*
X128254761Y-134207142D01*
X128254761Y-134226190D01*
X128235714Y-134264285D01*
X128216666Y-134283333D01*
X128178571Y-134302380D01*
X128102380Y-134302380D01*
X128064285Y-134321428D01*
X128045238Y-134340476D01*
X128026190Y-134378571D01*
X128026190Y-134454761D01*
X128045238Y-134492857D01*
X128064285Y-134511904D01*
X128102380Y-134530952D01*
X128178571Y-134530952D01*
X128216666Y-134511904D01*
X128235714Y-134492857D01*
X128254761Y-134454761D01*
X128254761Y-134378571D01*
X128235714Y-134340476D01*
X128216666Y-134321428D01*
X128178571Y-134302380D01*
X127242857Y-147642857D02*
X127223809Y-147661904D01*
X127166666Y-147680952D01*
X127128571Y-147680952D01*
X127071428Y-147661904D01*
X127033333Y-147623809D01*
X127014285Y-147585714D01*
X126995238Y-147509523D01*
X126995238Y-147452380D01*
X127014285Y-147376190D01*
X127033333Y-147338095D01*
X127071428Y-147300000D01*
X127128571Y-147280952D01*
X127166666Y-147280952D01*
X127223809Y-147300000D01*
X127242857Y-147319047D01*
X127395238Y-147319047D02*
X127414285Y-147300000D01*
X127452380Y-147280952D01*
X127547619Y-147280952D01*
X127585714Y-147300000D01*
X127604761Y-147319047D01*
X127623809Y-147357142D01*
X127623809Y-147395238D01*
X127604761Y-147452380D01*
X127376190Y-147680952D01*
X127623809Y-147680952D01*
X127776190Y-147319047D02*
X127795238Y-147300000D01*
X127833333Y-147280952D01*
X127928571Y-147280952D01*
X127966666Y-147300000D01*
X127985714Y-147319047D01*
X128004761Y-147357142D01*
X128004761Y-147395238D01*
X127985714Y-147452380D01*
X127757142Y-147680952D01*
X128004761Y-147680952D01*
X139492857Y-119342857D02*
X139473809Y-119361904D01*
X139416666Y-119380952D01*
X139378571Y-119380952D01*
X139321428Y-119361904D01*
X139283333Y-119323809D01*
X139264285Y-119285714D01*
X139245238Y-119209523D01*
X139245238Y-119152380D01*
X139264285Y-119076190D01*
X139283333Y-119038095D01*
X139321428Y-119000000D01*
X139378571Y-118980952D01*
X139416666Y-118980952D01*
X139473809Y-119000000D01*
X139492857Y-119019047D01*
X139835714Y-119114285D02*
X139835714Y-119380952D01*
X139740476Y-118961904D02*
X139645238Y-119247619D01*
X139892857Y-119247619D01*
X140235714Y-118980952D02*
X140045238Y-118980952D01*
X140026190Y-119171428D01*
X140045238Y-119152380D01*
X140083333Y-119133333D01*
X140178571Y-119133333D01*
X140216666Y-119152380D01*
X140235714Y-119171428D01*
X140254761Y-119209523D01*
X140254761Y-119304761D01*
X140235714Y-119342857D01*
X140216666Y-119361904D01*
X140178571Y-119380952D01*
X140083333Y-119380952D01*
X140045238Y-119361904D01*
X140026190Y-119342857D01*
X139142857Y-118142857D02*
X139123809Y-118161904D01*
X139066666Y-118180952D01*
X139028571Y-118180952D01*
X138971428Y-118161904D01*
X138933333Y-118123809D01*
X138914285Y-118085714D01*
X138895238Y-118009523D01*
X138895238Y-117952380D01*
X138914285Y-117876190D01*
X138933333Y-117838095D01*
X138971428Y-117800000D01*
X139028571Y-117780952D01*
X139066666Y-117780952D01*
X139123809Y-117800000D01*
X139142857Y-117819047D01*
X139485714Y-117914285D02*
X139485714Y-118180952D01*
X139390476Y-117761904D02*
X139295238Y-118047619D01*
X139542857Y-118047619D01*
X139866666Y-117914285D02*
X139866666Y-118180952D01*
X139771428Y-117761904D02*
X139676190Y-118047619D01*
X139923809Y-118047619D01*
X139142857Y-120942857D02*
X139123809Y-120961904D01*
X139066666Y-120980952D01*
X139028571Y-120980952D01*
X138971428Y-120961904D01*
X138933333Y-120923809D01*
X138914285Y-120885714D01*
X138895238Y-120809523D01*
X138895238Y-120752380D01*
X138914285Y-120676190D01*
X138933333Y-120638095D01*
X138971428Y-120600000D01*
X139028571Y-120580952D01*
X139066666Y-120580952D01*
X139123809Y-120600000D01*
X139142857Y-120619047D01*
X139485714Y-120714285D02*
X139485714Y-120980952D01*
X139390476Y-120561904D02*
X139295238Y-120847619D01*
X139542857Y-120847619D01*
X139657142Y-120580952D02*
X139904761Y-120580952D01*
X139771428Y-120733333D01*
X139828571Y-120733333D01*
X139866666Y-120752380D01*
X139885714Y-120771428D01*
X139904761Y-120809523D01*
X139904761Y-120904761D01*
X139885714Y-120942857D01*
X139866666Y-120961904D01*
X139828571Y-120980952D01*
X139714285Y-120980952D01*
X139676190Y-120961904D01*
X139657142Y-120942857D01*
X126742857Y-118892857D02*
X126723809Y-118911904D01*
X126666666Y-118930952D01*
X126628571Y-118930952D01*
X126571428Y-118911904D01*
X126533333Y-118873809D01*
X126514285Y-118835714D01*
X126495238Y-118759523D01*
X126495238Y-118702380D01*
X126514285Y-118626190D01*
X126533333Y-118588095D01*
X126571428Y-118550000D01*
X126628571Y-118530952D01*
X126666666Y-118530952D01*
X126723809Y-118550000D01*
X126742857Y-118569047D01*
X127085714Y-118664285D02*
X127085714Y-118930952D01*
X126990476Y-118511904D02*
X126895238Y-118797619D01*
X127142857Y-118797619D01*
X127504761Y-118930952D02*
X127276190Y-118930952D01*
X127390476Y-118930952D02*
X127390476Y-118530952D01*
X127352380Y-118588095D01*
X127314285Y-118626190D01*
X127276190Y-118645238D01*
X126742857Y-121292857D02*
X126723809Y-121311904D01*
X126666666Y-121330952D01*
X126628571Y-121330952D01*
X126571428Y-121311904D01*
X126533333Y-121273809D01*
X126514285Y-121235714D01*
X126495238Y-121159523D01*
X126495238Y-121102380D01*
X126514285Y-121026190D01*
X126533333Y-120988095D01*
X126571428Y-120950000D01*
X126628571Y-120930952D01*
X126666666Y-120930952D01*
X126723809Y-120950000D01*
X126742857Y-120969047D01*
X127085714Y-121064285D02*
X127085714Y-121330952D01*
X126990476Y-120911904D02*
X126895238Y-121197619D01*
X127142857Y-121197619D01*
X127371428Y-120930952D02*
X127409523Y-120930952D01*
X127447619Y-120950000D01*
X127466666Y-120969047D01*
X127485714Y-121007142D01*
X127504761Y-121083333D01*
X127504761Y-121178571D01*
X127485714Y-121254761D01*
X127466666Y-121292857D01*
X127447619Y-121311904D01*
X127409523Y-121330952D01*
X127371428Y-121330952D01*
X127333333Y-121311904D01*
X127314285Y-121292857D01*
X127295238Y-121254761D01*
X127276190Y-121178571D01*
X127276190Y-121083333D01*
X127295238Y-121007142D01*
X127314285Y-120969047D01*
X127333333Y-120950000D01*
X127371428Y-120930952D01*
X125642857Y-122342857D02*
X125623809Y-122361904D01*
X125566666Y-122380952D01*
X125528571Y-122380952D01*
X125471428Y-122361904D01*
X125433333Y-122323809D01*
X125414285Y-122285714D01*
X125395238Y-122209523D01*
X125395238Y-122152380D01*
X125414285Y-122076190D01*
X125433333Y-122038095D01*
X125471428Y-122000000D01*
X125528571Y-121980952D01*
X125566666Y-121980952D01*
X125623809Y-122000000D01*
X125642857Y-122019047D01*
X125776190Y-121980952D02*
X126023809Y-121980952D01*
X125890476Y-122133333D01*
X125947619Y-122133333D01*
X125985714Y-122152380D01*
X126004761Y-122171428D01*
X126023809Y-122209523D01*
X126023809Y-122304761D01*
X126004761Y-122342857D01*
X125985714Y-122361904D01*
X125947619Y-122380952D01*
X125833333Y-122380952D01*
X125795238Y-122361904D01*
X125776190Y-122342857D01*
X126214285Y-122380952D02*
X126290476Y-122380952D01*
X126328571Y-122361904D01*
X126347619Y-122342857D01*
X126385714Y-122285714D01*
X126404761Y-122209523D01*
X126404761Y-122057142D01*
X126385714Y-122019047D01*
X126366666Y-122000000D01*
X126328571Y-121980952D01*
X126252380Y-121980952D01*
X126214285Y-122000000D01*
X126195238Y-122019047D01*
X126176190Y-122057142D01*
X126176190Y-122152380D01*
X126195238Y-122190476D01*
X126214285Y-122209523D01*
X126252380Y-122228571D01*
X126328571Y-122228571D01*
X126366666Y-122209523D01*
X126385714Y-122190476D01*
X126404761Y-122152380D01*
X130742857Y-133042857D02*
X130723809Y-133061904D01*
X130666666Y-133080952D01*
X130628571Y-133080952D01*
X130571428Y-133061904D01*
X130533333Y-133023809D01*
X130514285Y-132985714D01*
X130495238Y-132909523D01*
X130495238Y-132852380D01*
X130514285Y-132776190D01*
X130533333Y-132738095D01*
X130571428Y-132700000D01*
X130628571Y-132680952D01*
X130666666Y-132680952D01*
X130723809Y-132700000D01*
X130742857Y-132719047D01*
X130895238Y-132719047D02*
X130914285Y-132700000D01*
X130952380Y-132680952D01*
X131047619Y-132680952D01*
X131085714Y-132700000D01*
X131104761Y-132719047D01*
X131123809Y-132757142D01*
X131123809Y-132795238D01*
X131104761Y-132852380D01*
X130876190Y-133080952D01*
X131123809Y-133080952D01*
X131504761Y-133080952D02*
X131276190Y-133080952D01*
X131390476Y-133080952D02*
X131390476Y-132680952D01*
X131352380Y-132738095D01*
X131314285Y-132776190D01*
X131276190Y-132795238D01*
X125092857Y-121142857D02*
X125073809Y-121161904D01*
X125016666Y-121180952D01*
X124978571Y-121180952D01*
X124921428Y-121161904D01*
X124883333Y-121123809D01*
X124864285Y-121085714D01*
X124845238Y-121009523D01*
X124845238Y-120952380D01*
X124864285Y-120876190D01*
X124883333Y-120838095D01*
X124921428Y-120800000D01*
X124978571Y-120780952D01*
X125016666Y-120780952D01*
X125073809Y-120800000D01*
X125092857Y-120819047D01*
X125226190Y-120780952D02*
X125473809Y-120780952D01*
X125340476Y-120933333D01*
X125397619Y-120933333D01*
X125435714Y-120952380D01*
X125454761Y-120971428D01*
X125473809Y-121009523D01*
X125473809Y-121104761D01*
X125454761Y-121142857D01*
X125435714Y-121161904D01*
X125397619Y-121180952D01*
X125283333Y-121180952D01*
X125245238Y-121161904D01*
X125226190Y-121142857D01*
X125702380Y-120952380D02*
X125664285Y-120933333D01*
X125645238Y-120914285D01*
X125626190Y-120876190D01*
X125626190Y-120857142D01*
X125645238Y-120819047D01*
X125664285Y-120800000D01*
X125702380Y-120780952D01*
X125778571Y-120780952D01*
X125816666Y-120800000D01*
X125835714Y-120819047D01*
X125854761Y-120857142D01*
X125854761Y-120876190D01*
X125835714Y-120914285D01*
X125816666Y-120933333D01*
X125778571Y-120952380D01*
X125702380Y-120952380D01*
X125664285Y-120971428D01*
X125645238Y-120990476D01*
X125626190Y-121028571D01*
X125626190Y-121104761D01*
X125645238Y-121142857D01*
X125664285Y-121161904D01*
X125702380Y-121180952D01*
X125778571Y-121180952D01*
X125816666Y-121161904D01*
X125835714Y-121142857D01*
X125854761Y-121104761D01*
X125854761Y-121028571D01*
X125835714Y-120990476D01*
X125816666Y-120971428D01*
X125778571Y-120952380D01*
X125092857Y-123542857D02*
X125073809Y-123561904D01*
X125016666Y-123580952D01*
X124978571Y-123580952D01*
X124921428Y-123561904D01*
X124883333Y-123523809D01*
X124864285Y-123485714D01*
X124845238Y-123409523D01*
X124845238Y-123352380D01*
X124864285Y-123276190D01*
X124883333Y-123238095D01*
X124921428Y-123200000D01*
X124978571Y-123180952D01*
X125016666Y-123180952D01*
X125073809Y-123200000D01*
X125092857Y-123219047D01*
X125226190Y-123180952D02*
X125473809Y-123180952D01*
X125340476Y-123333333D01*
X125397619Y-123333333D01*
X125435714Y-123352380D01*
X125454761Y-123371428D01*
X125473809Y-123409523D01*
X125473809Y-123504761D01*
X125454761Y-123542857D01*
X125435714Y-123561904D01*
X125397619Y-123580952D01*
X125283333Y-123580952D01*
X125245238Y-123561904D01*
X125226190Y-123542857D01*
X125607142Y-123180952D02*
X125873809Y-123180952D01*
X125702380Y-123580952D01*
X141592857Y-119542857D02*
X141573809Y-119561904D01*
X141516666Y-119580952D01*
X141478571Y-119580952D01*
X141421428Y-119561904D01*
X141383333Y-119523809D01*
X141364285Y-119485714D01*
X141345238Y-119409523D01*
X141345238Y-119352380D01*
X141364285Y-119276190D01*
X141383333Y-119238095D01*
X141421428Y-119200000D01*
X141478571Y-119180952D01*
X141516666Y-119180952D01*
X141573809Y-119200000D01*
X141592857Y-119219047D01*
X141935714Y-119314285D02*
X141935714Y-119580952D01*
X141840476Y-119161904D02*
X141745238Y-119447619D01*
X141992857Y-119447619D01*
X142316666Y-119180952D02*
X142240476Y-119180952D01*
X142202380Y-119200000D01*
X142183333Y-119219047D01*
X142145238Y-119276190D01*
X142126190Y-119352380D01*
X142126190Y-119504761D01*
X142145238Y-119542857D01*
X142164285Y-119561904D01*
X142202380Y-119580952D01*
X142278571Y-119580952D01*
X142316666Y-119561904D01*
X142335714Y-119542857D01*
X142354761Y-119504761D01*
X142354761Y-119409523D01*
X142335714Y-119371428D01*
X142316666Y-119352380D01*
X142278571Y-119333333D01*
X142202380Y-119333333D01*
X142164285Y-119352380D01*
X142145238Y-119371428D01*
X142126190Y-119409523D01*
X141592857Y-117142857D02*
X141573809Y-117161904D01*
X141516666Y-117180952D01*
X141478571Y-117180952D01*
X141421428Y-117161904D01*
X141383333Y-117123809D01*
X141364285Y-117085714D01*
X141345238Y-117009523D01*
X141345238Y-116952380D01*
X141364285Y-116876190D01*
X141383333Y-116838095D01*
X141421428Y-116800000D01*
X141478571Y-116780952D01*
X141516666Y-116780952D01*
X141573809Y-116800000D01*
X141592857Y-116819047D01*
X141935714Y-116914285D02*
X141935714Y-117180952D01*
X141840476Y-116761904D02*
X141745238Y-117047619D01*
X141992857Y-117047619D01*
X142107142Y-116780952D02*
X142373809Y-116780952D01*
X142202380Y-117180952D01*
X134742857Y-108392857D02*
X134723809Y-108411904D01*
X134666666Y-108430952D01*
X134628571Y-108430952D01*
X134571428Y-108411904D01*
X134533333Y-108373809D01*
X134514285Y-108335714D01*
X134495238Y-108259523D01*
X134495238Y-108202380D01*
X134514285Y-108126190D01*
X134533333Y-108088095D01*
X134571428Y-108050000D01*
X134628571Y-108030952D01*
X134666666Y-108030952D01*
X134723809Y-108050000D01*
X134742857Y-108069047D01*
X135104761Y-108030952D02*
X134914285Y-108030952D01*
X134895238Y-108221428D01*
X134914285Y-108202380D01*
X134952380Y-108183333D01*
X135047619Y-108183333D01*
X135085714Y-108202380D01*
X135104761Y-108221428D01*
X135123809Y-108259523D01*
X135123809Y-108354761D01*
X135104761Y-108392857D01*
X135085714Y-108411904D01*
X135047619Y-108430952D01*
X134952380Y-108430952D01*
X134914285Y-108411904D01*
X134895238Y-108392857D01*
X135466666Y-108164285D02*
X135466666Y-108430952D01*
X135371428Y-108011904D02*
X135276190Y-108297619D01*
X135523809Y-108297619D01*
X108492857Y-120430952D02*
X108359523Y-120240476D01*
X108264285Y-120430952D02*
X108264285Y-120030952D01*
X108416666Y-120030952D01*
X108454761Y-120050000D01*
X108473809Y-120069047D01*
X108492857Y-120107142D01*
X108492857Y-120164285D01*
X108473809Y-120202380D01*
X108454761Y-120221428D01*
X108416666Y-120240476D01*
X108264285Y-120240476D01*
X108873809Y-120430952D02*
X108645238Y-120430952D01*
X108759523Y-120430952D02*
X108759523Y-120030952D01*
X108721428Y-120088095D01*
X108683333Y-120126190D01*
X108645238Y-120145238D01*
X109064285Y-120430952D02*
X109140476Y-120430952D01*
X109178571Y-120411904D01*
X109197619Y-120392857D01*
X109235714Y-120335714D01*
X109254761Y-120259523D01*
X109254761Y-120107142D01*
X109235714Y-120069047D01*
X109216666Y-120050000D01*
X109178571Y-120030952D01*
X109102380Y-120030952D01*
X109064285Y-120050000D01*
X109045238Y-120069047D01*
X109026190Y-120107142D01*
X109026190Y-120202380D01*
X109045238Y-120240476D01*
X109064285Y-120259523D01*
X109102380Y-120278571D01*
X109178571Y-120278571D01*
X109216666Y-120259523D01*
X109235714Y-120240476D01*
X109254761Y-120202380D01*
X134442857Y-105930952D02*
X134309523Y-105740476D01*
X134214285Y-105930952D02*
X134214285Y-105530952D01*
X134366666Y-105530952D01*
X134404761Y-105550000D01*
X134423809Y-105569047D01*
X134442857Y-105607142D01*
X134442857Y-105664285D01*
X134423809Y-105702380D01*
X134404761Y-105721428D01*
X134366666Y-105740476D01*
X134214285Y-105740476D01*
X134823809Y-105930952D02*
X134595238Y-105930952D01*
X134709523Y-105930952D02*
X134709523Y-105530952D01*
X134671428Y-105588095D01*
X134633333Y-105626190D01*
X134595238Y-105645238D01*
X134957142Y-105530952D02*
X135223809Y-105530952D01*
X135052380Y-105930952D01*
X140992857Y-108430952D02*
X140859523Y-108240476D01*
X140764285Y-108430952D02*
X140764285Y-108030952D01*
X140916666Y-108030952D01*
X140954761Y-108050000D01*
X140973809Y-108069047D01*
X140992857Y-108107142D01*
X140992857Y-108164285D01*
X140973809Y-108202380D01*
X140954761Y-108221428D01*
X140916666Y-108240476D01*
X140764285Y-108240476D01*
X141373809Y-108430952D02*
X141145238Y-108430952D01*
X141259523Y-108430952D02*
X141259523Y-108030952D01*
X141221428Y-108088095D01*
X141183333Y-108126190D01*
X141145238Y-108145238D01*
X141602380Y-108202380D02*
X141564285Y-108183333D01*
X141545238Y-108164285D01*
X141526190Y-108126190D01*
X141526190Y-108107142D01*
X141545238Y-108069047D01*
X141564285Y-108050000D01*
X141602380Y-108030952D01*
X141678571Y-108030952D01*
X141716666Y-108050000D01*
X141735714Y-108069047D01*
X141754761Y-108107142D01*
X141754761Y-108126190D01*
X141735714Y-108164285D01*
X141716666Y-108183333D01*
X141678571Y-108202380D01*
X141602380Y-108202380D01*
X141564285Y-108221428D01*
X141545238Y-108240476D01*
X141526190Y-108278571D01*
X141526190Y-108354761D01*
X141545238Y-108392857D01*
X141564285Y-108411904D01*
X141602380Y-108430952D01*
X141678571Y-108430952D01*
X141716666Y-108411904D01*
X141735714Y-108392857D01*
X141754761Y-108354761D01*
X141754761Y-108278571D01*
X141735714Y-108240476D01*
X141716666Y-108221428D01*
X141678571Y-108202380D01*
X125283333Y-122980952D02*
X125092857Y-122980952D01*
X125092857Y-122580952D01*
X125435714Y-122980952D02*
X125511904Y-122980952D01*
X125550000Y-122961904D01*
X125569047Y-122942857D01*
X125607142Y-122885714D01*
X125626190Y-122809523D01*
X125626190Y-122657142D01*
X125607142Y-122619047D01*
X125588095Y-122600000D01*
X125550000Y-122580952D01*
X125473809Y-122580952D01*
X125435714Y-122600000D01*
X125416666Y-122619047D01*
X125397619Y-122657142D01*
X125397619Y-122752380D01*
X125416666Y-122790476D01*
X125435714Y-122809523D01*
X125473809Y-122828571D01*
X125550000Y-122828571D01*
X125588095Y-122809523D01*
X125607142Y-122790476D01*
X125626190Y-122752380D01*
X125092857Y-121780952D02*
X124902380Y-121780952D01*
X124902380Y-121380952D01*
X125435714Y-121780952D02*
X125207142Y-121780952D01*
X125321428Y-121780952D02*
X125321428Y-121380952D01*
X125283333Y-121438095D01*
X125245238Y-121476190D01*
X125207142Y-121495238D01*
X125683333Y-121380952D02*
X125721428Y-121380952D01*
X125759523Y-121400000D01*
X125778571Y-121419047D01*
X125797619Y-121457142D01*
X125816666Y-121533333D01*
X125816666Y-121628571D01*
X125797619Y-121704761D01*
X125778571Y-121742857D01*
X125759523Y-121761904D01*
X125721428Y-121780952D01*
X125683333Y-121780952D01*
X125645238Y-121761904D01*
X125626190Y-121742857D01*
X125607142Y-121704761D01*
X125588095Y-121628571D01*
X125588095Y-121533333D01*
X125607142Y-121457142D01*
X125626190Y-121419047D01*
X125645238Y-121400000D01*
X125683333Y-121380952D01*
X126092857Y-120130952D02*
X125902380Y-120130952D01*
X125902380Y-119730952D01*
X126435714Y-120130952D02*
X126207142Y-120130952D01*
X126321428Y-120130952D02*
X126321428Y-119730952D01*
X126283333Y-119788095D01*
X126245238Y-119826190D01*
X126207142Y-119845238D01*
X126778571Y-119864285D02*
X126778571Y-120130952D01*
X126683333Y-119711904D02*
X126588095Y-119997619D01*
X126835714Y-119997619D01*
X126742857Y-120730952D02*
X126552380Y-120730952D01*
X126552380Y-120330952D01*
X127085714Y-120730952D02*
X126857142Y-120730952D01*
X126971428Y-120730952D02*
X126971428Y-120330952D01*
X126933333Y-120388095D01*
X126895238Y-120426190D01*
X126857142Y-120445238D01*
X127238095Y-120369047D02*
X127257142Y-120350000D01*
X127295238Y-120330952D01*
X127390476Y-120330952D01*
X127428571Y-120350000D01*
X127447619Y-120369047D01*
X127466666Y-120407142D01*
X127466666Y-120445238D01*
X127447619Y-120502380D01*
X127219047Y-120730952D01*
X127466666Y-120730952D01*
X127292857Y-120092857D02*
X127273809Y-120111904D01*
X127216666Y-120130952D01*
X127178571Y-120130952D01*
X127121428Y-120111904D01*
X127083333Y-120073809D01*
X127064285Y-120035714D01*
X127045238Y-119959523D01*
X127045238Y-119902380D01*
X127064285Y-119826190D01*
X127083333Y-119788095D01*
X127121428Y-119750000D01*
X127178571Y-119730952D01*
X127216666Y-119730952D01*
X127273809Y-119750000D01*
X127292857Y-119769047D01*
X127635714Y-119864285D02*
X127635714Y-120130952D01*
X127540476Y-119711904D02*
X127445238Y-119997619D01*
X127692857Y-119997619D01*
X127826190Y-119769047D02*
X127845238Y-119750000D01*
X127883333Y-119730952D01*
X127978571Y-119730952D01*
X128016666Y-119750000D01*
X128035714Y-119769047D01*
X128054761Y-119807142D01*
X128054761Y-119845238D01*
X128035714Y-119902380D01*
X127807142Y-120130952D01*
X128054761Y-120130952D01*
X138792857Y-119380952D02*
X138602380Y-119380952D01*
X138602380Y-118980952D01*
X139135714Y-119380952D02*
X138907142Y-119380952D01*
X139021428Y-119380952D02*
X139021428Y-118980952D01*
X138983333Y-119038095D01*
X138945238Y-119076190D01*
X138907142Y-119095238D01*
X139269047Y-118980952D02*
X139535714Y-118980952D01*
X139364285Y-119380952D01*
X139142857Y-118780952D02*
X138952380Y-118780952D01*
X138952380Y-118380952D01*
X139485714Y-118780952D02*
X139257142Y-118780952D01*
X139371428Y-118780952D02*
X139371428Y-118380952D01*
X139333333Y-118438095D01*
X139295238Y-118476190D01*
X139257142Y-118495238D01*
X139828571Y-118380952D02*
X139752380Y-118380952D01*
X139714285Y-118400000D01*
X139695238Y-118419047D01*
X139657142Y-118476190D01*
X139638095Y-118552380D01*
X139638095Y-118704761D01*
X139657142Y-118742857D01*
X139676190Y-118761904D01*
X139714285Y-118780952D01*
X139790476Y-118780952D01*
X139828571Y-118761904D01*
X139847619Y-118742857D01*
X139866666Y-118704761D01*
X139866666Y-118609523D01*
X139847619Y-118571428D01*
X139828571Y-118552380D01*
X139790476Y-118533333D01*
X139714285Y-118533333D01*
X139676190Y-118552380D01*
X139657142Y-118571428D01*
X139638095Y-118609523D01*
X139142857Y-120180952D02*
X138952380Y-120180952D01*
X138952380Y-119780952D01*
X139485714Y-120180952D02*
X139257142Y-120180952D01*
X139371428Y-120180952D02*
X139371428Y-119780952D01*
X139333333Y-119838095D01*
X139295238Y-119876190D01*
X139257142Y-119895238D01*
X139847619Y-119780952D02*
X139657142Y-119780952D01*
X139638095Y-119971428D01*
X139657142Y-119952380D01*
X139695238Y-119933333D01*
X139790476Y-119933333D01*
X139828571Y-119952380D01*
X139847619Y-119971428D01*
X139866666Y-120009523D01*
X139866666Y-120104761D01*
X139847619Y-120142857D01*
X139828571Y-120161904D01*
X139790476Y-120180952D01*
X139695238Y-120180952D01*
X139657142Y-120161904D01*
X139638095Y-120142857D01*
X140842857Y-118342857D02*
X140823809Y-118361904D01*
X140766666Y-118380952D01*
X140728571Y-118380952D01*
X140671428Y-118361904D01*
X140633333Y-118323809D01*
X140614285Y-118285714D01*
X140595238Y-118209523D01*
X140595238Y-118152380D01*
X140614285Y-118076190D01*
X140633333Y-118038095D01*
X140671428Y-118000000D01*
X140728571Y-117980952D01*
X140766666Y-117980952D01*
X140823809Y-118000000D01*
X140842857Y-118019047D01*
X141185714Y-118114285D02*
X141185714Y-118380952D01*
X141090476Y-117961904D02*
X140995238Y-118247619D01*
X141242857Y-118247619D01*
X141452380Y-118152380D02*
X141414285Y-118133333D01*
X141395238Y-118114285D01*
X141376190Y-118076190D01*
X141376190Y-118057142D01*
X141395238Y-118019047D01*
X141414285Y-118000000D01*
X141452380Y-117980952D01*
X141528571Y-117980952D01*
X141566666Y-118000000D01*
X141585714Y-118019047D01*
X141604761Y-118057142D01*
X141604761Y-118076190D01*
X141585714Y-118114285D01*
X141566666Y-118133333D01*
X141528571Y-118152380D01*
X141452380Y-118152380D01*
X141414285Y-118171428D01*
X141395238Y-118190476D01*
X141376190Y-118228571D01*
X141376190Y-118304761D01*
X141395238Y-118342857D01*
X141414285Y-118361904D01*
X141452380Y-118380952D01*
X141528571Y-118380952D01*
X141566666Y-118361904D01*
X141585714Y-118342857D01*
X141604761Y-118304761D01*
X141604761Y-118228571D01*
X141585714Y-118190476D01*
X141566666Y-118171428D01*
X141528571Y-118152380D01*
X142142857Y-118380952D02*
X141952380Y-118380952D01*
X141952380Y-117980952D01*
X142257142Y-118019047D02*
X142276190Y-118000000D01*
X142314285Y-117980952D01*
X142409523Y-117980952D01*
X142447619Y-118000000D01*
X142466666Y-118019047D01*
X142485714Y-118057142D01*
X142485714Y-118095238D01*
X142466666Y-118152380D01*
X142238095Y-118380952D01*
X142485714Y-118380952D01*
X142733333Y-117980952D02*
X142771428Y-117980952D01*
X142809523Y-118000000D01*
X142828571Y-118019047D01*
X142847619Y-118057142D01*
X142866666Y-118133333D01*
X142866666Y-118228571D01*
X142847619Y-118304761D01*
X142828571Y-118342857D01*
X142809523Y-118361904D01*
X142771428Y-118380952D01*
X142733333Y-118380952D01*
X142695238Y-118361904D01*
X142676190Y-118342857D01*
X142657142Y-118304761D01*
X142638095Y-118228571D01*
X142638095Y-118133333D01*
X142657142Y-118057142D01*
X142676190Y-118019047D01*
X142695238Y-118000000D01*
X142733333Y-117980952D01*
X141592857Y-118980952D02*
X141402380Y-118980952D01*
X141402380Y-118580952D01*
X141935714Y-118980952D02*
X141707142Y-118980952D01*
X141821428Y-118980952D02*
X141821428Y-118580952D01*
X141783333Y-118638095D01*
X141745238Y-118676190D01*
X141707142Y-118695238D01*
X142164285Y-118752380D02*
X142126190Y-118733333D01*
X142107142Y-118714285D01*
X142088095Y-118676190D01*
X142088095Y-118657142D01*
X142107142Y-118619047D01*
X142126190Y-118600000D01*
X142164285Y-118580952D01*
X142240476Y-118580952D01*
X142278571Y-118600000D01*
X142297619Y-118619047D01*
X142316666Y-118657142D01*
X142316666Y-118676190D01*
X142297619Y-118714285D01*
X142278571Y-118733333D01*
X142240476Y-118752380D01*
X142164285Y-118752380D01*
X142126190Y-118771428D01*
X142107142Y-118790476D01*
X142088095Y-118828571D01*
X142088095Y-118904761D01*
X142107142Y-118942857D01*
X142126190Y-118961904D01*
X142164285Y-118980952D01*
X142240476Y-118980952D01*
X142278571Y-118961904D01*
X142297619Y-118942857D01*
X142316666Y-118904761D01*
X142316666Y-118828571D01*
X142297619Y-118790476D01*
X142278571Y-118771428D01*
X142240476Y-118752380D01*
X141592857Y-117780952D02*
X141402380Y-117780952D01*
X141402380Y-117380952D01*
X141935714Y-117780952D02*
X141707142Y-117780952D01*
X141821428Y-117780952D02*
X141821428Y-117380952D01*
X141783333Y-117438095D01*
X141745238Y-117476190D01*
X141707142Y-117495238D01*
X142126190Y-117780952D02*
X142202380Y-117780952D01*
X142240476Y-117761904D01*
X142259523Y-117742857D01*
X142297619Y-117685714D01*
X142316666Y-117609523D01*
X142316666Y-117457142D01*
X142297619Y-117419047D01*
X142278571Y-117400000D01*
X142240476Y-117380952D01*
X142164285Y-117380952D01*
X142126190Y-117400000D01*
X142107142Y-117419047D01*
X142088095Y-117457142D01*
X142088095Y-117552380D01*
X142107142Y-117590476D01*
X142126190Y-117609523D01*
X142164285Y-117628571D01*
X142240476Y-117628571D01*
X142278571Y-117609523D01*
X142297619Y-117590476D01*
X142316666Y-117552380D01*
X135433333Y-131142857D02*
X135414285Y-131161904D01*
X135357142Y-131180952D01*
X135319047Y-131180952D01*
X135261904Y-131161904D01*
X135223809Y-131123809D01*
X135204761Y-131085714D01*
X135185714Y-131009523D01*
X135185714Y-130952380D01*
X135204761Y-130876190D01*
X135223809Y-130838095D01*
X135261904Y-130800000D01*
X135319047Y-130780952D01*
X135357142Y-130780952D01*
X135414285Y-130800000D01*
X135433333Y-130819047D01*
X135623809Y-131180952D02*
X135700000Y-131180952D01*
X135738095Y-131161904D01*
X135757142Y-131142857D01*
X135795238Y-131085714D01*
X135814285Y-131009523D01*
X135814285Y-130857142D01*
X135795238Y-130819047D01*
X135776190Y-130800000D01*
X135738095Y-130780952D01*
X135661904Y-130780952D01*
X135623809Y-130800000D01*
X135604761Y-130819047D01*
X135585714Y-130857142D01*
X135585714Y-130952380D01*
X135604761Y-130990476D01*
X135623809Y-131009523D01*
X135661904Y-131028571D01*
X135738095Y-131028571D01*
X135776190Y-131009523D01*
X135795238Y-130990476D01*
X135814285Y-130952380D01*
X136492857Y-133042858D02*
X136473809Y-133061905D01*
X136416666Y-133080953D01*
X136378571Y-133080953D01*
X136321428Y-133061905D01*
X136283333Y-133023810D01*
X136264285Y-132985715D01*
X136245238Y-132909524D01*
X136245238Y-132852381D01*
X136264285Y-132776191D01*
X136283333Y-132738096D01*
X136321428Y-132700001D01*
X136378571Y-132680953D01*
X136416666Y-132680953D01*
X136473809Y-132700001D01*
X136492857Y-132719048D01*
X136873809Y-133080953D02*
X136645238Y-133080953D01*
X136759523Y-133080953D02*
X136759523Y-132680953D01*
X136721428Y-132738096D01*
X136683333Y-132776191D01*
X136645238Y-132795239D01*
X137121428Y-132680953D02*
X137159523Y-132680953D01*
X137197619Y-132700001D01*
X137216666Y-132719048D01*
X137235714Y-132757143D01*
X137254761Y-132833334D01*
X137254761Y-132928572D01*
X137235714Y-133004762D01*
X137216666Y-133042858D01*
X137197619Y-133061905D01*
X137159523Y-133080953D01*
X137121428Y-133080953D01*
X137083333Y-133061905D01*
X137064285Y-133042858D01*
X137045238Y-133004762D01*
X137026190Y-132928572D01*
X137026190Y-132833334D01*
X137045238Y-132757143D01*
X137064285Y-132719048D01*
X137083333Y-132700001D01*
X137121428Y-132680953D01*
X131742857Y-130642857D02*
X131723809Y-130661904D01*
X131666666Y-130680952D01*
X131628571Y-130680952D01*
X131571428Y-130661904D01*
X131533333Y-130623809D01*
X131514285Y-130585714D01*
X131495238Y-130509523D01*
X131495238Y-130452380D01*
X131514285Y-130376190D01*
X131533333Y-130338095D01*
X131571428Y-130300000D01*
X131628571Y-130280952D01*
X131666666Y-130280952D01*
X131723809Y-130300000D01*
X131742857Y-130319047D01*
X132123809Y-130680952D02*
X131895238Y-130680952D01*
X132009523Y-130680952D02*
X132009523Y-130280952D01*
X131971428Y-130338095D01*
X131933333Y-130376190D01*
X131895238Y-130395238D01*
X132276190Y-130319047D02*
X132295238Y-130300000D01*
X132333333Y-130280952D01*
X132428571Y-130280952D01*
X132466666Y-130300000D01*
X132485714Y-130319047D01*
X132504761Y-130357142D01*
X132504761Y-130395238D01*
X132485714Y-130452380D01*
X132257142Y-130680952D01*
X132504761Y-130680952D01*
X143492857Y-132142857D02*
X143473809Y-132161904D01*
X143416666Y-132180952D01*
X143378571Y-132180952D01*
X143321428Y-132161904D01*
X143283333Y-132123809D01*
X143264285Y-132085714D01*
X143245238Y-132009523D01*
X143245238Y-131952380D01*
X143264285Y-131876190D01*
X143283333Y-131838095D01*
X143321428Y-131800000D01*
X143378571Y-131780952D01*
X143416666Y-131780952D01*
X143473809Y-131800000D01*
X143492857Y-131819047D01*
X143645238Y-131819047D02*
X143664285Y-131800000D01*
X143702380Y-131780952D01*
X143797619Y-131780952D01*
X143835714Y-131800000D01*
X143854761Y-131819047D01*
X143873809Y-131857142D01*
X143873809Y-131895238D01*
X143854761Y-131952380D01*
X143626190Y-132180952D01*
X143873809Y-132180952D01*
X144121428Y-131780952D02*
X144159523Y-131780952D01*
X144197619Y-131800000D01*
X144216666Y-131819047D01*
X144235714Y-131857142D01*
X144254761Y-131933333D01*
X144254761Y-132028571D01*
X144235714Y-132104761D01*
X144216666Y-132142857D01*
X144197619Y-132161904D01*
X144159523Y-132180952D01*
X144121428Y-132180952D01*
X144083333Y-132161904D01*
X144064285Y-132142857D01*
X144045238Y-132104761D01*
X144026190Y-132028571D01*
X144026190Y-131933333D01*
X144045238Y-131857142D01*
X144064285Y-131819047D01*
X144083333Y-131800000D01*
X144121428Y-131780952D01*
X122992857Y-107142857D02*
X122973809Y-107161904D01*
X122916666Y-107180952D01*
X122878571Y-107180952D01*
X122821428Y-107161904D01*
X122783333Y-107123809D01*
X122764285Y-107085714D01*
X122745238Y-107009523D01*
X122745238Y-106952380D01*
X122764285Y-106876190D01*
X122783333Y-106838095D01*
X122821428Y-106800000D01*
X122878571Y-106780952D01*
X122916666Y-106780952D01*
X122973809Y-106800000D01*
X122992857Y-106819047D01*
X123126190Y-106780952D02*
X123373809Y-106780952D01*
X123240476Y-106933333D01*
X123297619Y-106933333D01*
X123335714Y-106952380D01*
X123354761Y-106971428D01*
X123373809Y-107009523D01*
X123373809Y-107104761D01*
X123354761Y-107142857D01*
X123335714Y-107161904D01*
X123297619Y-107180952D01*
X123183333Y-107180952D01*
X123145238Y-107161904D01*
X123126190Y-107142857D01*
X123716666Y-106780952D02*
X123640476Y-106780952D01*
X123602380Y-106800000D01*
X123583333Y-106819047D01*
X123545238Y-106876190D01*
X123526190Y-106952380D01*
X123526190Y-107104761D01*
X123545238Y-107142857D01*
X123564285Y-107161904D01*
X123602380Y-107180952D01*
X123678571Y-107180952D01*
X123716666Y-107161904D01*
X123735714Y-107142857D01*
X123754761Y-107104761D01*
X123754761Y-107009523D01*
X123735714Y-106971428D01*
X123716666Y-106952380D01*
X123678571Y-106933333D01*
X123602380Y-106933333D01*
X123564285Y-106952380D01*
X123545238Y-106971428D01*
X123526190Y-107009523D01*
X138492857Y-103892857D02*
X138473809Y-103911904D01*
X138416666Y-103930952D01*
X138378571Y-103930952D01*
X138321428Y-103911904D01*
X138283333Y-103873809D01*
X138264285Y-103835714D01*
X138245238Y-103759523D01*
X138245238Y-103702380D01*
X138264285Y-103626190D01*
X138283333Y-103588095D01*
X138321428Y-103550000D01*
X138378571Y-103530952D01*
X138416666Y-103530952D01*
X138473809Y-103550000D01*
X138492857Y-103569047D01*
X138835714Y-103664285D02*
X138835714Y-103930952D01*
X138740476Y-103511904D02*
X138645238Y-103797619D01*
X138892857Y-103797619D01*
X139064285Y-103930952D02*
X139140476Y-103930952D01*
X139178571Y-103911904D01*
X139197619Y-103892857D01*
X139235714Y-103835714D01*
X139254761Y-103759523D01*
X139254761Y-103607142D01*
X139235714Y-103569047D01*
X139216666Y-103550000D01*
X139178571Y-103530952D01*
X139102380Y-103530952D01*
X139064285Y-103550000D01*
X139045238Y-103569047D01*
X139026190Y-103607142D01*
X139026190Y-103702380D01*
X139045238Y-103740476D01*
X139064285Y-103759523D01*
X139102380Y-103778571D01*
X139178571Y-103778571D01*
X139216666Y-103759523D01*
X139235714Y-103740476D01*
X139254761Y-103702380D01*
X134592857Y-114542857D02*
X134573809Y-114561904D01*
X134516666Y-114580952D01*
X134478571Y-114580952D01*
X134421428Y-114561904D01*
X134383333Y-114523809D01*
X134364285Y-114485714D01*
X134345238Y-114409523D01*
X134345238Y-114352380D01*
X134364285Y-114276190D01*
X134383333Y-114238095D01*
X134421428Y-114200000D01*
X134478571Y-114180952D01*
X134516666Y-114180952D01*
X134573809Y-114200000D01*
X134592857Y-114219047D01*
X134954761Y-114180952D02*
X134764285Y-114180952D01*
X134745238Y-114371428D01*
X134764285Y-114352380D01*
X134802380Y-114333333D01*
X134897619Y-114333333D01*
X134935714Y-114352380D01*
X134954761Y-114371428D01*
X134973809Y-114409523D01*
X134973809Y-114504761D01*
X134954761Y-114542857D01*
X134935714Y-114561904D01*
X134897619Y-114580952D01*
X134802380Y-114580952D01*
X134764285Y-114561904D01*
X134745238Y-114542857D01*
X135107142Y-114180952D02*
X135354761Y-114180952D01*
X135221428Y-114333333D01*
X135278571Y-114333333D01*
X135316666Y-114352380D01*
X135335714Y-114371428D01*
X135354761Y-114409523D01*
X135354761Y-114504761D01*
X135335714Y-114542857D01*
X135316666Y-114561904D01*
X135278571Y-114580952D01*
X135164285Y-114580952D01*
X135126190Y-114561904D01*
X135107142Y-114542857D01*
X140992857Y-107842857D02*
X140973809Y-107861904D01*
X140916666Y-107880952D01*
X140878571Y-107880952D01*
X140821428Y-107861904D01*
X140783333Y-107823809D01*
X140764285Y-107785714D01*
X140745238Y-107709523D01*
X140745238Y-107652380D01*
X140764285Y-107576190D01*
X140783333Y-107538095D01*
X140821428Y-107500000D01*
X140878571Y-107480952D01*
X140916666Y-107480952D01*
X140973809Y-107500000D01*
X140992857Y-107519047D01*
X141354761Y-107480952D02*
X141164285Y-107480952D01*
X141145238Y-107671428D01*
X141164285Y-107652380D01*
X141202380Y-107633333D01*
X141297619Y-107633333D01*
X141335714Y-107652380D01*
X141354761Y-107671428D01*
X141373809Y-107709523D01*
X141373809Y-107804761D01*
X141354761Y-107842857D01*
X141335714Y-107861904D01*
X141297619Y-107880952D01*
X141202380Y-107880952D01*
X141164285Y-107861904D01*
X141145238Y-107842857D01*
X141735714Y-107480952D02*
X141545238Y-107480952D01*
X141526190Y-107671428D01*
X141545238Y-107652380D01*
X141583333Y-107633333D01*
X141678571Y-107633333D01*
X141716666Y-107652380D01*
X141735714Y-107671428D01*
X141754761Y-107709523D01*
X141754761Y-107804761D01*
X141735714Y-107842857D01*
X141716666Y-107861904D01*
X141678571Y-107880952D01*
X141583333Y-107880952D01*
X141545238Y-107861904D01*
X141526190Y-107842857D01*
X140992857Y-109142857D02*
X140973809Y-109161904D01*
X140916666Y-109180952D01*
X140878571Y-109180952D01*
X140821428Y-109161904D01*
X140783333Y-109123809D01*
X140764285Y-109085714D01*
X140745238Y-109009523D01*
X140745238Y-108952380D01*
X140764285Y-108876190D01*
X140783333Y-108838095D01*
X140821428Y-108800000D01*
X140878571Y-108780952D01*
X140916666Y-108780952D01*
X140973809Y-108800000D01*
X140992857Y-108819047D01*
X141354761Y-108780952D02*
X141164285Y-108780952D01*
X141145238Y-108971428D01*
X141164285Y-108952380D01*
X141202380Y-108933333D01*
X141297619Y-108933333D01*
X141335714Y-108952380D01*
X141354761Y-108971428D01*
X141373809Y-109009523D01*
X141373809Y-109104761D01*
X141354761Y-109142857D01*
X141335714Y-109161904D01*
X141297619Y-109180952D01*
X141202380Y-109180952D01*
X141164285Y-109161904D01*
X141145238Y-109142857D01*
X141716666Y-108780952D02*
X141640476Y-108780952D01*
X141602380Y-108800000D01*
X141583333Y-108819047D01*
X141545238Y-108876190D01*
X141526190Y-108952380D01*
X141526190Y-109104761D01*
X141545238Y-109142857D01*
X141564285Y-109161904D01*
X141602380Y-109180952D01*
X141678571Y-109180952D01*
X141716666Y-109161904D01*
X141735714Y-109142857D01*
X141754761Y-109104761D01*
X141754761Y-109009523D01*
X141735714Y-108971428D01*
X141716666Y-108952380D01*
X141678571Y-108933333D01*
X141602380Y-108933333D01*
X141564285Y-108952380D01*
X141545238Y-108971428D01*
X141526190Y-109009523D01*
X140242857Y-114392857D02*
X140223809Y-114411904D01*
X140166666Y-114430952D01*
X140128571Y-114430952D01*
X140071428Y-114411904D01*
X140033333Y-114373809D01*
X140014285Y-114335714D01*
X139995238Y-114259523D01*
X139995238Y-114202380D01*
X140014285Y-114126190D01*
X140033333Y-114088095D01*
X140071428Y-114050000D01*
X140128571Y-114030952D01*
X140166666Y-114030952D01*
X140223809Y-114050000D01*
X140242857Y-114069047D01*
X140604761Y-114030952D02*
X140414285Y-114030952D01*
X140395238Y-114221428D01*
X140414285Y-114202380D01*
X140452380Y-114183333D01*
X140547619Y-114183333D01*
X140585714Y-114202380D01*
X140604761Y-114221428D01*
X140623809Y-114259523D01*
X140623809Y-114354761D01*
X140604761Y-114392857D01*
X140585714Y-114411904D01*
X140547619Y-114430952D01*
X140452380Y-114430952D01*
X140414285Y-114411904D01*
X140395238Y-114392857D01*
X140814285Y-114430952D02*
X140890476Y-114430952D01*
X140928571Y-114411904D01*
X140947619Y-114392857D01*
X140985714Y-114335714D01*
X141004761Y-114259523D01*
X141004761Y-114107142D01*
X140985714Y-114069047D01*
X140966666Y-114050000D01*
X140928571Y-114030952D01*
X140852380Y-114030952D01*
X140814285Y-114050000D01*
X140795238Y-114069047D01*
X140776190Y-114107142D01*
X140776190Y-114202380D01*
X140795238Y-114240476D01*
X140814285Y-114259523D01*
X140852380Y-114278571D01*
X140928571Y-114278571D01*
X140966666Y-114259523D01*
X140985714Y-114240476D01*
X141004761Y-114202380D01*
X138992857Y-114392857D02*
X138973809Y-114411904D01*
X138916666Y-114430952D01*
X138878571Y-114430952D01*
X138821428Y-114411904D01*
X138783333Y-114373809D01*
X138764285Y-114335714D01*
X138745238Y-114259523D01*
X138745238Y-114202380D01*
X138764285Y-114126190D01*
X138783333Y-114088095D01*
X138821428Y-114050000D01*
X138878571Y-114030952D01*
X138916666Y-114030952D01*
X138973809Y-114050000D01*
X138992857Y-114069047D01*
X139335714Y-114030952D02*
X139259523Y-114030952D01*
X139221428Y-114050000D01*
X139202380Y-114069047D01*
X139164285Y-114126190D01*
X139145238Y-114202380D01*
X139145238Y-114354761D01*
X139164285Y-114392857D01*
X139183333Y-114411904D01*
X139221428Y-114430952D01*
X139297619Y-114430952D01*
X139335714Y-114411904D01*
X139354761Y-114392857D01*
X139373809Y-114354761D01*
X139373809Y-114259523D01*
X139354761Y-114221428D01*
X139335714Y-114202380D01*
X139297619Y-114183333D01*
X139221428Y-114183333D01*
X139183333Y-114202380D01*
X139164285Y-114221428D01*
X139145238Y-114259523D01*
X139621428Y-114030952D02*
X139659523Y-114030952D01*
X139697619Y-114050000D01*
X139716666Y-114069047D01*
X139735714Y-114107142D01*
X139754761Y-114183333D01*
X139754761Y-114278571D01*
X139735714Y-114354761D01*
X139716666Y-114392857D01*
X139697619Y-114411904D01*
X139659523Y-114430952D01*
X139621428Y-114430952D01*
X139583333Y-114411904D01*
X139564285Y-114392857D01*
X139545238Y-114354761D01*
X139526190Y-114278571D01*
X139526190Y-114183333D01*
X139545238Y-114107142D01*
X139564285Y-114069047D01*
X139583333Y-114050000D01*
X139621428Y-114030952D01*
X124342857Y-122380952D02*
X124152380Y-122380952D01*
X124152380Y-121980952D01*
X124685714Y-122380952D02*
X124457142Y-122380952D01*
X124571428Y-122380952D02*
X124571428Y-121980952D01*
X124533333Y-122038095D01*
X124495238Y-122076190D01*
X124457142Y-122095238D01*
X125066666Y-122380952D02*
X124838095Y-122380952D01*
X124952380Y-122380952D02*
X124952380Y-121980952D01*
X124914285Y-122038095D01*
X124876190Y-122076190D01*
X124838095Y-122095238D01*
X126742857Y-119530952D02*
X126552380Y-119530952D01*
X126552380Y-119130952D01*
X127085714Y-119530952D02*
X126857142Y-119530952D01*
X126971428Y-119530952D02*
X126971428Y-119130952D01*
X126933333Y-119188095D01*
X126895238Y-119226190D01*
X126857142Y-119245238D01*
X127219047Y-119130952D02*
X127466666Y-119130952D01*
X127333333Y-119283333D01*
X127390476Y-119283333D01*
X127428571Y-119302380D01*
X127447619Y-119321428D01*
X127466666Y-119359523D01*
X127466666Y-119454761D01*
X127447619Y-119492857D01*
X127428571Y-119511904D01*
X127390476Y-119530952D01*
X127276190Y-119530952D01*
X127238095Y-119511904D01*
X127219047Y-119492857D01*
X130754761Y-113530952D02*
X130754761Y-113854761D01*
X130773809Y-113892857D01*
X130792857Y-113911904D01*
X130830952Y-113930952D01*
X130907142Y-113930952D01*
X130945238Y-113911904D01*
X130964285Y-113892857D01*
X130983333Y-113854761D01*
X130983333Y-113530952D01*
X131383333Y-113930952D02*
X131154761Y-113930952D01*
X131269047Y-113930952D02*
X131269047Y-113530952D01*
X131230952Y-113588095D01*
X131192857Y-113626190D01*
X131154761Y-113645238D01*
X131630952Y-113530952D02*
X131669047Y-113530952D01*
X131707142Y-113550000D01*
X131726190Y-113569047D01*
X131745238Y-113607142D01*
X131764285Y-113683333D01*
X131764285Y-113778571D01*
X131745238Y-113854761D01*
X131726190Y-113892857D01*
X131707142Y-113911904D01*
X131669047Y-113930952D01*
X131630952Y-113930952D01*
X131592857Y-113911904D01*
X131573809Y-113892857D01*
X131554761Y-113854761D01*
X131535714Y-113778571D01*
X131535714Y-113683333D01*
X131554761Y-113607142D01*
X131573809Y-113569047D01*
X131592857Y-113550000D01*
X131630952Y-113530952D01*
X140754761Y-109530952D02*
X140754761Y-109854761D01*
X140773809Y-109892857D01*
X140792857Y-109911904D01*
X140830952Y-109930952D01*
X140907142Y-109930952D01*
X140945238Y-109911904D01*
X140964285Y-109892857D01*
X140983333Y-109854761D01*
X140983333Y-109530952D01*
X141383333Y-109930952D02*
X141154761Y-109930952D01*
X141269047Y-109930952D02*
X141269047Y-109530952D01*
X141230952Y-109588095D01*
X141192857Y-109626190D01*
X141154761Y-109645238D01*
X141764285Y-109930952D02*
X141535714Y-109930952D01*
X141650000Y-109930952D02*
X141650000Y-109530952D01*
X141611904Y-109588095D01*
X141573809Y-109626190D01*
X141535714Y-109645238D01*
X130176190Y-148780952D02*
X130442857Y-149180952D01*
X130442857Y-148780952D02*
X130176190Y-149180952D01*
X130804761Y-149180952D02*
X130576190Y-149180952D01*
X130690476Y-149180952D02*
X130690476Y-148780952D01*
X130652380Y-148838095D01*
X130614285Y-148876190D01*
X130576190Y-148895238D01*
X120985714Y-106280952D02*
X121214285Y-106280952D01*
X121100000Y-106680952D02*
X121100000Y-106280952D01*
X121347619Y-106680952D02*
X121347619Y-106280952D01*
X121347619Y-106471428D02*
X121576190Y-106471428D01*
X121576190Y-106680952D02*
X121576190Y-106280952D01*
X121976190Y-106680952D02*
X121747619Y-106680952D01*
X121861904Y-106680952D02*
X121861904Y-106280952D01*
X121823809Y-106338095D01*
X121785714Y-106376190D01*
X121747619Y-106395238D01*
X118492857Y-136392857D02*
X118473809Y-136411904D01*
X118416666Y-136430952D01*
X118378571Y-136430952D01*
X118321428Y-136411904D01*
X118283333Y-136373809D01*
X118264285Y-136335714D01*
X118245238Y-136259523D01*
X118245238Y-136202380D01*
X118264285Y-136126190D01*
X118283333Y-136088095D01*
X118321428Y-136050000D01*
X118378571Y-136030952D01*
X118416666Y-136030952D01*
X118473809Y-136050000D01*
X118492857Y-136069047D01*
X118835714Y-136030952D02*
X118759523Y-136030952D01*
X118721428Y-136050000D01*
X118702380Y-136069047D01*
X118664285Y-136126190D01*
X118645238Y-136202380D01*
X118645238Y-136354761D01*
X118664285Y-136392857D01*
X118683333Y-136411904D01*
X118721428Y-136430952D01*
X118797619Y-136430952D01*
X118835714Y-136411904D01*
X118854761Y-136392857D01*
X118873809Y-136354761D01*
X118873809Y-136259523D01*
X118854761Y-136221428D01*
X118835714Y-136202380D01*
X118797619Y-136183333D01*
X118721428Y-136183333D01*
X118683333Y-136202380D01*
X118664285Y-136221428D01*
X118645238Y-136259523D01*
X119007142Y-136030952D02*
X119254761Y-136030952D01*
X119121428Y-136183333D01*
X119178571Y-136183333D01*
X119216666Y-136202380D01*
X119235714Y-136221428D01*
X119254761Y-136259523D01*
X119254761Y-136354761D01*
X119235714Y-136392857D01*
X119216666Y-136411904D01*
X119178571Y-136430952D01*
X119064285Y-136430952D01*
X119026190Y-136411904D01*
X119007142Y-136392857D01*
X119992857Y-136392857D02*
X119973809Y-136411904D01*
X119916666Y-136430952D01*
X119878571Y-136430952D01*
X119821428Y-136411904D01*
X119783333Y-136373809D01*
X119764285Y-136335714D01*
X119745238Y-136259523D01*
X119745238Y-136202380D01*
X119764285Y-136126190D01*
X119783333Y-136088095D01*
X119821428Y-136050000D01*
X119878571Y-136030952D01*
X119916666Y-136030952D01*
X119973809Y-136050000D01*
X119992857Y-136069047D01*
X120335714Y-136030952D02*
X120259523Y-136030952D01*
X120221428Y-136050000D01*
X120202380Y-136069047D01*
X120164285Y-136126190D01*
X120145238Y-136202380D01*
X120145238Y-136354761D01*
X120164285Y-136392857D01*
X120183333Y-136411904D01*
X120221428Y-136430952D01*
X120297619Y-136430952D01*
X120335714Y-136411904D01*
X120354761Y-136392857D01*
X120373809Y-136354761D01*
X120373809Y-136259523D01*
X120354761Y-136221428D01*
X120335714Y-136202380D01*
X120297619Y-136183333D01*
X120221428Y-136183333D01*
X120183333Y-136202380D01*
X120164285Y-136221428D01*
X120145238Y-136259523D01*
X120526190Y-136069047D02*
X120545238Y-136050000D01*
X120583333Y-136030952D01*
X120678571Y-136030952D01*
X120716666Y-136050000D01*
X120735714Y-136069047D01*
X120754761Y-136107142D01*
X120754761Y-136145238D01*
X120735714Y-136202380D01*
X120507142Y-136430952D01*
X120754761Y-136430952D01*
X126183333Y-149680952D02*
X125992857Y-149680952D01*
X125992857Y-149280952D01*
X126278571Y-149280952D02*
X126545238Y-149280952D01*
X126373809Y-149680952D01*
X123133333Y-136430952D02*
X122942857Y-136430952D01*
X122942857Y-136030952D01*
X123438095Y-136030952D02*
X123361904Y-136030952D01*
X123323809Y-136050000D01*
X123304761Y-136069047D01*
X123266666Y-136126190D01*
X123247619Y-136202380D01*
X123247619Y-136354761D01*
X123266666Y-136392857D01*
X123285714Y-136411904D01*
X123323809Y-136430952D01*
X123400000Y-136430952D01*
X123438095Y-136411904D01*
X123457142Y-136392857D01*
X123476190Y-136354761D01*
X123476190Y-136259523D01*
X123457142Y-136221428D01*
X123438095Y-136202380D01*
X123400000Y-136183333D01*
X123323809Y-136183333D01*
X123285714Y-136202380D01*
X123266666Y-136221428D01*
X123247619Y-136259523D01*
X143683333Y-134180952D02*
X143492857Y-134180952D01*
X143492857Y-133780952D01*
X144007142Y-133780952D02*
X143816666Y-133780952D01*
X143797619Y-133971428D01*
X143816666Y-133952380D01*
X143854761Y-133933333D01*
X143950000Y-133933333D01*
X143988095Y-133952380D01*
X144007142Y-133971428D01*
X144026190Y-134009523D01*
X144026190Y-134104761D01*
X144007142Y-134142857D01*
X143988095Y-134161904D01*
X143950000Y-134180952D01*
X143854761Y-134180952D01*
X143816666Y-134161904D01*
X143797619Y-134142857D01*
X127683333Y-141680952D02*
X127492857Y-141680952D01*
X127492857Y-141280952D01*
X127797619Y-141319047D02*
X127816666Y-141300000D01*
X127854761Y-141280952D01*
X127950000Y-141280952D01*
X127988095Y-141300000D01*
X128007142Y-141319047D01*
X128026190Y-141357142D01*
X128026190Y-141395238D01*
X128007142Y-141452380D01*
X127778571Y-141680952D01*
X128026190Y-141680952D01*
X137883333Y-114430952D02*
X137692857Y-114430952D01*
X137692857Y-114030952D01*
X137978571Y-114030952D02*
X138226190Y-114030952D01*
X138092857Y-114183333D01*
X138150000Y-114183333D01*
X138188095Y-114202380D01*
X138207142Y-114221428D01*
X138226190Y-114259523D01*
X138226190Y-114354761D01*
X138207142Y-114392857D01*
X138188095Y-114411904D01*
X138150000Y-114430952D01*
X138035714Y-114430952D01*
X137997619Y-114411904D01*
X137978571Y-114392857D01*
X132683333Y-105680952D02*
X132492857Y-105680952D01*
X132492857Y-105280952D01*
X133026190Y-105680952D02*
X132797619Y-105680952D01*
X132911904Y-105680952D02*
X132911904Y-105280952D01*
X132873809Y-105338095D01*
X132835714Y-105376190D01*
X132797619Y-105395238D01*
X120195238Y-115280952D02*
X120195238Y-115604761D01*
X120214285Y-115642857D01*
X120233333Y-115661904D01*
X120271428Y-115680952D01*
X120347619Y-115680952D01*
X120385714Y-115661904D01*
X120404761Y-115642857D01*
X120423809Y-115604761D01*
X120423809Y-115280952D01*
X120785714Y-115414285D02*
X120785714Y-115680952D01*
X120690476Y-115261904D02*
X120595238Y-115547619D01*
X120842857Y-115547619D01*
X125695238Y-106780952D02*
X125695238Y-107104761D01*
X125714285Y-107142857D01*
X125733333Y-107161904D01*
X125771428Y-107180952D01*
X125847619Y-107180952D01*
X125885714Y-107161904D01*
X125904761Y-107142857D01*
X125923809Y-107104761D01*
X125923809Y-106780952D01*
X126285714Y-106780952D02*
X126209523Y-106780952D01*
X126171428Y-106800000D01*
X126152380Y-106819047D01*
X126114285Y-106876190D01*
X126095238Y-106952380D01*
X126095238Y-107104761D01*
X126114285Y-107142857D01*
X126133333Y-107161904D01*
X126171428Y-107180952D01*
X126247619Y-107180952D01*
X126285714Y-107161904D01*
X126304761Y-107142857D01*
X126323809Y-107104761D01*
X126323809Y-107009523D01*
X126304761Y-106971428D01*
X126285714Y-106952380D01*
X126247619Y-106933333D01*
X126171428Y-106933333D01*
X126133333Y-106952380D01*
X126114285Y-106971428D01*
X126095238Y-107009523D01*
X121242857Y-120180952D02*
X121109523Y-119990476D01*
X121014285Y-120180952D02*
X121014285Y-119780952D01*
X121166666Y-119780952D01*
X121204761Y-119800000D01*
X121223809Y-119819047D01*
X121242857Y-119857142D01*
X121242857Y-119914285D01*
X121223809Y-119952380D01*
X121204761Y-119971428D01*
X121166666Y-119990476D01*
X121014285Y-119990476D01*
X121623809Y-120180952D02*
X121395238Y-120180952D01*
X121509523Y-120180952D02*
X121509523Y-119780952D01*
X121471428Y-119838095D01*
X121433333Y-119876190D01*
X121395238Y-119895238D01*
X121966666Y-119914285D02*
X121966666Y-120180952D01*
X121871428Y-119761904D02*
X121776190Y-120047619D01*
X122023809Y-120047619D01*
X122492857Y-117180952D02*
X122359523Y-116990476D01*
X122264285Y-117180952D02*
X122264285Y-116780952D01*
X122416666Y-116780952D01*
X122454761Y-116800000D01*
X122473809Y-116819047D01*
X122492857Y-116857142D01*
X122492857Y-116914285D01*
X122473809Y-116952380D01*
X122454761Y-116971428D01*
X122416666Y-116990476D01*
X122264285Y-116990476D01*
X122873809Y-117180952D02*
X122645238Y-117180952D01*
X122759523Y-117180952D02*
X122759523Y-116780952D01*
X122721428Y-116838095D01*
X122683333Y-116876190D01*
X122645238Y-116895238D01*
X123007142Y-116780952D02*
X123254761Y-116780952D01*
X123121428Y-116933333D01*
X123178571Y-116933333D01*
X123216666Y-116952380D01*
X123235714Y-116971428D01*
X123254761Y-117009523D01*
X123254761Y-117104761D01*
X123235714Y-117142857D01*
X123216666Y-117161904D01*
X123178571Y-117180952D01*
X123064285Y-117180952D01*
X123026190Y-117161904D01*
X123007142Y-117142857D01*
X122742857Y-120180952D02*
X122609523Y-119990476D01*
X122514285Y-120180952D02*
X122514285Y-119780952D01*
X122666666Y-119780952D01*
X122704761Y-119800000D01*
X122723809Y-119819047D01*
X122742857Y-119857142D01*
X122742857Y-119914285D01*
X122723809Y-119952380D01*
X122704761Y-119971428D01*
X122666666Y-119990476D01*
X122514285Y-119990476D01*
X123123809Y-120180952D02*
X122895238Y-120180952D01*
X123009523Y-120180952D02*
X123009523Y-119780952D01*
X122971428Y-119838095D01*
X122933333Y-119876190D01*
X122895238Y-119895238D01*
X123276190Y-119819047D02*
X123295238Y-119800000D01*
X123333333Y-119780952D01*
X123428571Y-119780952D01*
X123466666Y-119800000D01*
X123485714Y-119819047D01*
X123504761Y-119857142D01*
X123504761Y-119895238D01*
X123485714Y-119952380D01*
X123257142Y-120180952D01*
X123504761Y-120180952D01*
X118742857Y-122180952D02*
X118609523Y-121990476D01*
X118514285Y-122180952D02*
X118514285Y-121780952D01*
X118666666Y-121780952D01*
X118704761Y-121800000D01*
X118723809Y-121819047D01*
X118742857Y-121857142D01*
X118742857Y-121914285D01*
X118723809Y-121952380D01*
X118704761Y-121971428D01*
X118666666Y-121990476D01*
X118514285Y-121990476D01*
X119123809Y-122180952D02*
X118895238Y-122180952D01*
X119009523Y-122180952D02*
X119009523Y-121780952D01*
X118971428Y-121838095D01*
X118933333Y-121876190D01*
X118895238Y-121895238D01*
X119504761Y-122180952D02*
X119276190Y-122180952D01*
X119390476Y-122180952D02*
X119390476Y-121780952D01*
X119352380Y-121838095D01*
X119314285Y-121876190D01*
X119276190Y-121895238D01*
X115945238Y-129780952D02*
X115945238Y-130104761D01*
X115964285Y-130142857D01*
X115983333Y-130161904D01*
X116021428Y-130180952D01*
X116097619Y-130180952D01*
X116135714Y-130161904D01*
X116154761Y-130142857D01*
X116173809Y-130104761D01*
X116173809Y-129780952D01*
X116326190Y-129780952D02*
X116573809Y-129780952D01*
X116440476Y-129933333D01*
X116497619Y-129933333D01*
X116535714Y-129952380D01*
X116554761Y-129971428D01*
X116573809Y-130009523D01*
X116573809Y-130104761D01*
X116554761Y-130142857D01*
X116535714Y-130161904D01*
X116497619Y-130180952D01*
X116383333Y-130180952D01*
X116345238Y-130161904D01*
X116326190Y-130142857D01*
X115945238Y-124530952D02*
X115945238Y-124854761D01*
X115964285Y-124892857D01*
X115983333Y-124911904D01*
X116021428Y-124930952D01*
X116097619Y-124930952D01*
X116135714Y-124911904D01*
X116154761Y-124892857D01*
X116173809Y-124854761D01*
X116173809Y-124530952D01*
X116554761Y-124530952D02*
X116364285Y-124530952D01*
X116345238Y-124721428D01*
X116364285Y-124702380D01*
X116402380Y-124683333D01*
X116497619Y-124683333D01*
X116535714Y-124702380D01*
X116554761Y-124721428D01*
X116573809Y-124759523D01*
X116573809Y-124854761D01*
X116554761Y-124892857D01*
X116535714Y-124911904D01*
X116497619Y-124930952D01*
X116402380Y-124930952D01*
X116364285Y-124911904D01*
X116345238Y-124892857D01*
X113933333Y-117930952D02*
X113742857Y-117930952D01*
X113742857Y-117530952D01*
X114123809Y-117702380D02*
X114085714Y-117683333D01*
X114066666Y-117664285D01*
X114047619Y-117626190D01*
X114047619Y-117607142D01*
X114066666Y-117569047D01*
X114085714Y-117550000D01*
X114123809Y-117530952D01*
X114200000Y-117530952D01*
X114238095Y-117550000D01*
X114257142Y-117569047D01*
X114276190Y-117607142D01*
X114276190Y-117626190D01*
X114257142Y-117664285D01*
X114238095Y-117683333D01*
X114200000Y-117702380D01*
X114123809Y-117702380D01*
X114085714Y-117721428D01*
X114066666Y-117740476D01*
X114047619Y-117778571D01*
X114047619Y-117854761D01*
X114066666Y-117892857D01*
X114085714Y-117911904D01*
X114123809Y-117930952D01*
X114200000Y-117930952D01*
X114238095Y-117911904D01*
X114257142Y-117892857D01*
X114276190Y-117854761D01*
X114276190Y-117778571D01*
X114257142Y-117740476D01*
X114238095Y-117721428D01*
X114200000Y-117702380D01*
X114992857Y-122142857D02*
X114973809Y-122161904D01*
X114916666Y-122180952D01*
X114878571Y-122180952D01*
X114821428Y-122161904D01*
X114783333Y-122123809D01*
X114764285Y-122085714D01*
X114745238Y-122009523D01*
X114745238Y-121952380D01*
X114764285Y-121876190D01*
X114783333Y-121838095D01*
X114821428Y-121800000D01*
X114878571Y-121780952D01*
X114916666Y-121780952D01*
X114973809Y-121800000D01*
X114992857Y-121819047D01*
X115126190Y-121780952D02*
X115373809Y-121780952D01*
X115240476Y-121933333D01*
X115297619Y-121933333D01*
X115335714Y-121952380D01*
X115354761Y-121971428D01*
X115373809Y-122009523D01*
X115373809Y-122104761D01*
X115354761Y-122142857D01*
X115335714Y-122161904D01*
X115297619Y-122180952D01*
X115183333Y-122180952D01*
X115145238Y-122161904D01*
X115126190Y-122142857D01*
X115507142Y-121780952D02*
X115754761Y-121780952D01*
X115621428Y-121933333D01*
X115678571Y-121933333D01*
X115716666Y-121952380D01*
X115735714Y-121971428D01*
X115754761Y-122009523D01*
X115754761Y-122104761D01*
X115735714Y-122142857D01*
X115716666Y-122161904D01*
X115678571Y-122180952D01*
X115564285Y-122180952D01*
X115526190Y-122161904D01*
X115507142Y-122142857D01*
X121242857Y-111892857D02*
X121223809Y-111911904D01*
X121166666Y-111930952D01*
X121128571Y-111930952D01*
X121071428Y-111911904D01*
X121033333Y-111873809D01*
X121014285Y-111835714D01*
X120995238Y-111759523D01*
X120995238Y-111702380D01*
X121014285Y-111626190D01*
X121033333Y-111588095D01*
X121071428Y-111550000D01*
X121128571Y-111530952D01*
X121166666Y-111530952D01*
X121223809Y-111550000D01*
X121242857Y-111569047D01*
X121395238Y-111569047D02*
X121414285Y-111550000D01*
X121452380Y-111530952D01*
X121547619Y-111530952D01*
X121585714Y-111550000D01*
X121604761Y-111569047D01*
X121623809Y-111607142D01*
X121623809Y-111645238D01*
X121604761Y-111702380D01*
X121376190Y-111930952D01*
X121623809Y-111930952D01*
X121985714Y-111530952D02*
X121795238Y-111530952D01*
X121776190Y-111721428D01*
X121795238Y-111702380D01*
X121833333Y-111683333D01*
X121928571Y-111683333D01*
X121966666Y-111702380D01*
X121985714Y-111721428D01*
X122004761Y-111759523D01*
X122004761Y-111854761D01*
X121985714Y-111892857D01*
X121966666Y-111911904D01*
X121928571Y-111930952D01*
X121833333Y-111930952D01*
X121795238Y-111911904D01*
X121776190Y-111892857D01*
X112742857Y-125392857D02*
X112723809Y-125411904D01*
X112666666Y-125430952D01*
X112628571Y-125430952D01*
X112571428Y-125411904D01*
X112533333Y-125373809D01*
X112514285Y-125335714D01*
X112495238Y-125259523D01*
X112495238Y-125202380D01*
X112514285Y-125126190D01*
X112533333Y-125088095D01*
X112571428Y-125050000D01*
X112628571Y-125030952D01*
X112666666Y-125030952D01*
X112723809Y-125050000D01*
X112742857Y-125069047D01*
X112876190Y-125030952D02*
X113123809Y-125030952D01*
X112990476Y-125183333D01*
X113047619Y-125183333D01*
X113085714Y-125202380D01*
X113104761Y-125221428D01*
X113123809Y-125259523D01*
X113123809Y-125354761D01*
X113104761Y-125392857D01*
X113085714Y-125411904D01*
X113047619Y-125430952D01*
X112933333Y-125430952D01*
X112895238Y-125411904D01*
X112876190Y-125392857D01*
X113466666Y-125164285D02*
X113466666Y-125430952D01*
X113371428Y-125011904D02*
X113276190Y-125297619D01*
X113523809Y-125297619D01*
X110242857Y-119142857D02*
X110223809Y-119161904D01*
X110166666Y-119180952D01*
X110128571Y-119180952D01*
X110071428Y-119161904D01*
X110033333Y-119123809D01*
X110014285Y-119085714D01*
X109995238Y-119009523D01*
X109995238Y-118952380D01*
X110014285Y-118876190D01*
X110033333Y-118838095D01*
X110071428Y-118800000D01*
X110128571Y-118780952D01*
X110166666Y-118780952D01*
X110223809Y-118800000D01*
X110242857Y-118819047D01*
X110376190Y-118780952D02*
X110623809Y-118780952D01*
X110490476Y-118933333D01*
X110547619Y-118933333D01*
X110585714Y-118952380D01*
X110604761Y-118971428D01*
X110623809Y-119009523D01*
X110623809Y-119104761D01*
X110604761Y-119142857D01*
X110585714Y-119161904D01*
X110547619Y-119180952D01*
X110433333Y-119180952D01*
X110395238Y-119161904D01*
X110376190Y-119142857D01*
X110776190Y-118819047D02*
X110795238Y-118800000D01*
X110833333Y-118780952D01*
X110928571Y-118780952D01*
X110966666Y-118800000D01*
X110985714Y-118819047D01*
X111004761Y-118857142D01*
X111004761Y-118895238D01*
X110985714Y-118952380D01*
X110757142Y-119180952D01*
X111004761Y-119180952D01*
X119992857Y-127142857D02*
X119973809Y-127161904D01*
X119916666Y-127180952D01*
X119878571Y-127180952D01*
X119821428Y-127161904D01*
X119783333Y-127123809D01*
X119764285Y-127085714D01*
X119745238Y-127009523D01*
X119745238Y-126952380D01*
X119764285Y-126876190D01*
X119783333Y-126838095D01*
X119821428Y-126800000D01*
X119878571Y-126780952D01*
X119916666Y-126780952D01*
X119973809Y-126800000D01*
X119992857Y-126819047D01*
X120126190Y-126780952D02*
X120373809Y-126780952D01*
X120240476Y-126933333D01*
X120297619Y-126933333D01*
X120335714Y-126952380D01*
X120354761Y-126971428D01*
X120373809Y-127009523D01*
X120373809Y-127104761D01*
X120354761Y-127142857D01*
X120335714Y-127161904D01*
X120297619Y-127180952D01*
X120183333Y-127180952D01*
X120145238Y-127161904D01*
X120126190Y-127142857D01*
X120754761Y-127180952D02*
X120526190Y-127180952D01*
X120640476Y-127180952D02*
X120640476Y-126780952D01*
X120602380Y-126838095D01*
X120564285Y-126876190D01*
X120526190Y-126895238D01*
X114742857Y-126392857D02*
X114723809Y-126411904D01*
X114666666Y-126430952D01*
X114628571Y-126430952D01*
X114571428Y-126411904D01*
X114533333Y-126373809D01*
X114514285Y-126335714D01*
X114495238Y-126259523D01*
X114495238Y-126202380D01*
X114514285Y-126126190D01*
X114533333Y-126088095D01*
X114571428Y-126050000D01*
X114628571Y-126030952D01*
X114666666Y-126030952D01*
X114723809Y-126050000D01*
X114742857Y-126069047D01*
X114876190Y-126030952D02*
X115123809Y-126030952D01*
X114990476Y-126183333D01*
X115047619Y-126183333D01*
X115085714Y-126202380D01*
X115104761Y-126221428D01*
X115123809Y-126259523D01*
X115123809Y-126354761D01*
X115104761Y-126392857D01*
X115085714Y-126411904D01*
X115047619Y-126430952D01*
X114933333Y-126430952D01*
X114895238Y-126411904D01*
X114876190Y-126392857D01*
X115371428Y-126030952D02*
X115409523Y-126030952D01*
X115447619Y-126050000D01*
X115466666Y-126069047D01*
X115485714Y-126107142D01*
X115504761Y-126183333D01*
X115504761Y-126278571D01*
X115485714Y-126354761D01*
X115466666Y-126392857D01*
X115447619Y-126411904D01*
X115409523Y-126430952D01*
X115371428Y-126430952D01*
X115333333Y-126411904D01*
X115314285Y-126392857D01*
X115295238Y-126354761D01*
X115276190Y-126278571D01*
X115276190Y-126183333D01*
X115295238Y-126107142D01*
X115314285Y-126069047D01*
X115333333Y-126050000D01*
X115371428Y-126030952D01*
X119992857Y-124642857D02*
X119973809Y-124661904D01*
X119916666Y-124680952D01*
X119878571Y-124680952D01*
X119821428Y-124661904D01*
X119783333Y-124623809D01*
X119764285Y-124585714D01*
X119745238Y-124509523D01*
X119745238Y-124452380D01*
X119764285Y-124376190D01*
X119783333Y-124338095D01*
X119821428Y-124300000D01*
X119878571Y-124280952D01*
X119916666Y-124280952D01*
X119973809Y-124300000D01*
X119992857Y-124319047D01*
X120145238Y-124319047D02*
X120164285Y-124300000D01*
X120202380Y-124280952D01*
X120297619Y-124280952D01*
X120335714Y-124300000D01*
X120354761Y-124319047D01*
X120373809Y-124357142D01*
X120373809Y-124395238D01*
X120354761Y-124452380D01*
X120126190Y-124680952D01*
X120373809Y-124680952D01*
X120564285Y-124680952D02*
X120640476Y-124680952D01*
X120678571Y-124661904D01*
X120697619Y-124642857D01*
X120735714Y-124585714D01*
X120754761Y-124509523D01*
X120754761Y-124357142D01*
X120735714Y-124319047D01*
X120716666Y-124300000D01*
X120678571Y-124280952D01*
X120602380Y-124280952D01*
X120564285Y-124300000D01*
X120545238Y-124319047D01*
X120526190Y-124357142D01*
X120526190Y-124452380D01*
X120545238Y-124490476D01*
X120564285Y-124509523D01*
X120602380Y-124528571D01*
X120678571Y-124528571D01*
X120716666Y-124509523D01*
X120735714Y-124490476D01*
X120754761Y-124452380D01*
X119992857Y-132392857D02*
X119973809Y-132411904D01*
X119916666Y-132430952D01*
X119878571Y-132430952D01*
X119821428Y-132411904D01*
X119783333Y-132373809D01*
X119764285Y-132335714D01*
X119745238Y-132259523D01*
X119745238Y-132202380D01*
X119764285Y-132126190D01*
X119783333Y-132088095D01*
X119821428Y-132050000D01*
X119878571Y-132030952D01*
X119916666Y-132030952D01*
X119973809Y-132050000D01*
X119992857Y-132069047D01*
X120145238Y-132069047D02*
X120164285Y-132050000D01*
X120202380Y-132030952D01*
X120297619Y-132030952D01*
X120335714Y-132050000D01*
X120354761Y-132069047D01*
X120373809Y-132107142D01*
X120373809Y-132145238D01*
X120354761Y-132202380D01*
X120126190Y-132430952D01*
X120373809Y-132430952D01*
X120602380Y-132202380D02*
X120564285Y-132183333D01*
X120545238Y-132164285D01*
X120526190Y-132126190D01*
X120526190Y-132107142D01*
X120545238Y-132069047D01*
X120564285Y-132050000D01*
X120602380Y-132030952D01*
X120678571Y-132030952D01*
X120716666Y-132050000D01*
X120735714Y-132069047D01*
X120754761Y-132107142D01*
X120754761Y-132126190D01*
X120735714Y-132164285D01*
X120716666Y-132183333D01*
X120678571Y-132202380D01*
X120602380Y-132202380D01*
X120564285Y-132221428D01*
X120545238Y-132240476D01*
X120526190Y-132278571D01*
X120526190Y-132354761D01*
X120545238Y-132392857D01*
X120564285Y-132411904D01*
X120602380Y-132430952D01*
X120678571Y-132430952D01*
X120716666Y-132411904D01*
X120735714Y-132392857D01*
X120754761Y-132354761D01*
X120754761Y-132278571D01*
X120735714Y-132240476D01*
X120716666Y-132221428D01*
X120678571Y-132202380D01*
X114742857Y-131642857D02*
X114723809Y-131661904D01*
X114666666Y-131680952D01*
X114628571Y-131680952D01*
X114571428Y-131661904D01*
X114533333Y-131623809D01*
X114514285Y-131585714D01*
X114495238Y-131509523D01*
X114495238Y-131452380D01*
X114514285Y-131376190D01*
X114533333Y-131338095D01*
X114571428Y-131300000D01*
X114628571Y-131280952D01*
X114666666Y-131280952D01*
X114723809Y-131300000D01*
X114742857Y-131319047D01*
X114895238Y-131319047D02*
X114914285Y-131300000D01*
X114952380Y-131280952D01*
X115047619Y-131280952D01*
X115085714Y-131300000D01*
X115104761Y-131319047D01*
X115123809Y-131357142D01*
X115123809Y-131395238D01*
X115104761Y-131452380D01*
X114876190Y-131680952D01*
X115123809Y-131680952D01*
X115257142Y-131280952D02*
X115523809Y-131280952D01*
X115352380Y-131680952D01*
X119992857Y-130142857D02*
X119973809Y-130161904D01*
X119916666Y-130180952D01*
X119878571Y-130180952D01*
X119821428Y-130161904D01*
X119783333Y-130123809D01*
X119764285Y-130085714D01*
X119745238Y-130009523D01*
X119745238Y-129952380D01*
X119764285Y-129876190D01*
X119783333Y-129838095D01*
X119821428Y-129800000D01*
X119878571Y-129780952D01*
X119916666Y-129780952D01*
X119973809Y-129800000D01*
X119992857Y-129819047D01*
X120145238Y-129819047D02*
X120164285Y-129800000D01*
X120202380Y-129780952D01*
X120297619Y-129780952D01*
X120335714Y-129800000D01*
X120354761Y-129819047D01*
X120373809Y-129857142D01*
X120373809Y-129895238D01*
X120354761Y-129952380D01*
X120126190Y-130180952D01*
X120373809Y-130180952D01*
X120716666Y-129914285D02*
X120716666Y-130180952D01*
X120621428Y-129761904D02*
X120526190Y-130047619D01*
X120773809Y-130047619D01*
X128492857Y-107142857D02*
X128473809Y-107161904D01*
X128416666Y-107180952D01*
X128378571Y-107180952D01*
X128321428Y-107161904D01*
X128283333Y-107123809D01*
X128264285Y-107085714D01*
X128245238Y-107009523D01*
X128245238Y-106952380D01*
X128264285Y-106876190D01*
X128283333Y-106838095D01*
X128321428Y-106800000D01*
X128378571Y-106780952D01*
X128416666Y-106780952D01*
X128473809Y-106800000D01*
X128492857Y-106819047D01*
X128626190Y-106780952D02*
X128873809Y-106780952D01*
X128740476Y-106933333D01*
X128797619Y-106933333D01*
X128835714Y-106952380D01*
X128854761Y-106971428D01*
X128873809Y-107009523D01*
X128873809Y-107104761D01*
X128854761Y-107142857D01*
X128835714Y-107161904D01*
X128797619Y-107180952D01*
X128683333Y-107180952D01*
X128645238Y-107161904D01*
X128626190Y-107142857D01*
X129235714Y-106780952D02*
X129045238Y-106780952D01*
X129026190Y-106971428D01*
X129045238Y-106952380D01*
X129083333Y-106933333D01*
X129178571Y-106933333D01*
X129216666Y-106952380D01*
X129235714Y-106971428D01*
X129254761Y-107009523D01*
X129254761Y-107104761D01*
X129235714Y-107142857D01*
X129216666Y-107161904D01*
X129178571Y-107180952D01*
X129083333Y-107180952D01*
X129045238Y-107161904D01*
X129026190Y-107142857D01*
X136195238Y-108480952D02*
X136195238Y-108804761D01*
X136214285Y-108842857D01*
X136233333Y-108861904D01*
X136271428Y-108880952D01*
X136347619Y-108880952D01*
X136385714Y-108861904D01*
X136404761Y-108842857D01*
X136423809Y-108804761D01*
X136423809Y-108480952D01*
X136633333Y-108880952D02*
X136709523Y-108880952D01*
X136747619Y-108861904D01*
X136766666Y-108842857D01*
X136804761Y-108785714D01*
X136823809Y-108709523D01*
X136823809Y-108557142D01*
X136804761Y-108519047D01*
X136785714Y-108500000D01*
X136747619Y-108480952D01*
X136671428Y-108480952D01*
X136633333Y-108500000D01*
X136614285Y-108519047D01*
X136595238Y-108557142D01*
X136595238Y-108652380D01*
X136614285Y-108690476D01*
X136633333Y-108709523D01*
X136671428Y-108728571D01*
X136747619Y-108728571D01*
X136785714Y-108709523D01*
X136804761Y-108690476D01*
X136823809Y-108652380D01*
X121492857Y-136392857D02*
X121473809Y-136411904D01*
X121416666Y-136430952D01*
X121378571Y-136430952D01*
X121321428Y-136411904D01*
X121283333Y-136373809D01*
X121264285Y-136335714D01*
X121245238Y-136259523D01*
X121245238Y-136202380D01*
X121264285Y-136126190D01*
X121283333Y-136088095D01*
X121321428Y-136050000D01*
X121378571Y-136030952D01*
X121416666Y-136030952D01*
X121473809Y-136050000D01*
X121492857Y-136069047D01*
X121835714Y-136030952D02*
X121759523Y-136030952D01*
X121721428Y-136050000D01*
X121702380Y-136069047D01*
X121664285Y-136126190D01*
X121645238Y-136202380D01*
X121645238Y-136354761D01*
X121664285Y-136392857D01*
X121683333Y-136411904D01*
X121721428Y-136430952D01*
X121797619Y-136430952D01*
X121835714Y-136411904D01*
X121854761Y-136392857D01*
X121873809Y-136354761D01*
X121873809Y-136259523D01*
X121854761Y-136221428D01*
X121835714Y-136202380D01*
X121797619Y-136183333D01*
X121721428Y-136183333D01*
X121683333Y-136202380D01*
X121664285Y-136221428D01*
X121645238Y-136259523D01*
X122254761Y-136430952D02*
X122026190Y-136430952D01*
X122140476Y-136430952D02*
X122140476Y-136030952D01*
X122102380Y-136088095D01*
X122064285Y-136126190D01*
X122026190Y-136145238D01*
X107992857Y-148142857D02*
X107973809Y-148161904D01*
X107916666Y-148180952D01*
X107878571Y-148180952D01*
X107821428Y-148161904D01*
X107783333Y-148123809D01*
X107764285Y-148085714D01*
X107745238Y-148009523D01*
X107745238Y-147952380D01*
X107764285Y-147876190D01*
X107783333Y-147838095D01*
X107821428Y-147800000D01*
X107878571Y-147780952D01*
X107916666Y-147780952D01*
X107973809Y-147800000D01*
X107992857Y-147819047D01*
X108335714Y-147780952D02*
X108259523Y-147780952D01*
X108221428Y-147800000D01*
X108202380Y-147819047D01*
X108164285Y-147876190D01*
X108145238Y-147952380D01*
X108145238Y-148104761D01*
X108164285Y-148142857D01*
X108183333Y-148161904D01*
X108221428Y-148180952D01*
X108297619Y-148180952D01*
X108335714Y-148161904D01*
X108354761Y-148142857D01*
X108373809Y-148104761D01*
X108373809Y-148009523D01*
X108354761Y-147971428D01*
X108335714Y-147952380D01*
X108297619Y-147933333D01*
X108221428Y-147933333D01*
X108183333Y-147952380D01*
X108164285Y-147971428D01*
X108145238Y-148009523D01*
X108716666Y-147914285D02*
X108716666Y-148180952D01*
X108621428Y-147761904D02*
X108526190Y-148047619D01*
X108773809Y-148047619D01*
X107992857Y-146642857D02*
X107973809Y-146661904D01*
X107916666Y-146680952D01*
X107878571Y-146680952D01*
X107821428Y-146661904D01*
X107783333Y-146623809D01*
X107764285Y-146585714D01*
X107745238Y-146509523D01*
X107745238Y-146452380D01*
X107764285Y-146376190D01*
X107783333Y-146338095D01*
X107821428Y-146300000D01*
X107878571Y-146280952D01*
X107916666Y-146280952D01*
X107973809Y-146300000D01*
X107992857Y-146319047D01*
X108335714Y-146280952D02*
X108259523Y-146280952D01*
X108221428Y-146300000D01*
X108202380Y-146319047D01*
X108164285Y-146376190D01*
X108145238Y-146452380D01*
X108145238Y-146604761D01*
X108164285Y-146642857D01*
X108183333Y-146661904D01*
X108221428Y-146680952D01*
X108297619Y-146680952D01*
X108335714Y-146661904D01*
X108354761Y-146642857D01*
X108373809Y-146604761D01*
X108373809Y-146509523D01*
X108354761Y-146471428D01*
X108335714Y-146452380D01*
X108297619Y-146433333D01*
X108221428Y-146433333D01*
X108183333Y-146452380D01*
X108164285Y-146471428D01*
X108145238Y-146509523D01*
X108735714Y-146280952D02*
X108545238Y-146280952D01*
X108526190Y-146471428D01*
X108545238Y-146452380D01*
X108583333Y-146433333D01*
X108678571Y-146433333D01*
X108716666Y-146452380D01*
X108735714Y-146471428D01*
X108754761Y-146509523D01*
X108754761Y-146604761D01*
X108735714Y-146642857D01*
X108716666Y-146661904D01*
X108678571Y-146680952D01*
X108583333Y-146680952D01*
X108545238Y-146661904D01*
X108526190Y-146642857D01*
X115242857Y-148642857D02*
X115223809Y-148661904D01*
X115166666Y-148680952D01*
X115128571Y-148680952D01*
X115071428Y-148661904D01*
X115033333Y-148623809D01*
X115014285Y-148585714D01*
X114995238Y-148509523D01*
X114995238Y-148452380D01*
X115014285Y-148376190D01*
X115033333Y-148338095D01*
X115071428Y-148300000D01*
X115128571Y-148280952D01*
X115166666Y-148280952D01*
X115223809Y-148300000D01*
X115242857Y-148319047D01*
X115585714Y-148280952D02*
X115509523Y-148280952D01*
X115471428Y-148300000D01*
X115452380Y-148319047D01*
X115414285Y-148376190D01*
X115395238Y-148452380D01*
X115395238Y-148604761D01*
X115414285Y-148642857D01*
X115433333Y-148661904D01*
X115471428Y-148680952D01*
X115547619Y-148680952D01*
X115585714Y-148661904D01*
X115604761Y-148642857D01*
X115623809Y-148604761D01*
X115623809Y-148509523D01*
X115604761Y-148471428D01*
X115585714Y-148452380D01*
X115547619Y-148433333D01*
X115471428Y-148433333D01*
X115433333Y-148452380D01*
X115414285Y-148471428D01*
X115395238Y-148509523D01*
X115966666Y-148280952D02*
X115890476Y-148280952D01*
X115852380Y-148300000D01*
X115833333Y-148319047D01*
X115795238Y-148376190D01*
X115776190Y-148452380D01*
X115776190Y-148604761D01*
X115795238Y-148642857D01*
X115814285Y-148661904D01*
X115852380Y-148680952D01*
X115928571Y-148680952D01*
X115966666Y-148661904D01*
X115985714Y-148642857D01*
X116004761Y-148604761D01*
X116004761Y-148509523D01*
X115985714Y-148471428D01*
X115966666Y-148452380D01*
X115928571Y-148433333D01*
X115852380Y-148433333D01*
X115814285Y-148452380D01*
X115795238Y-148471428D01*
X115776190Y-148509523D01*
X135166666Y-143030952D02*
X135166666Y-143316666D01*
X135147619Y-143373809D01*
X135109523Y-143411904D01*
X135052380Y-143430952D01*
X135014285Y-143430952D01*
X135357142Y-143430952D02*
X135357142Y-143030952D01*
X135509523Y-143030952D01*
X135547619Y-143050000D01*
X135566666Y-143069047D01*
X135585714Y-143107142D01*
X135585714Y-143164285D01*
X135566666Y-143202380D01*
X135547619Y-143221428D01*
X135509523Y-143240476D01*
X135357142Y-143240476D01*
X135966666Y-143430952D02*
X135738095Y-143430952D01*
X135852380Y-143430952D02*
X135852380Y-143030952D01*
X135814285Y-143088095D01*
X135776190Y-143126190D01*
X135738095Y-143145238D01*
X117742857Y-148680952D02*
X117552380Y-148680952D01*
X117552380Y-148280952D01*
X117857142Y-148319047D02*
X117876190Y-148300000D01*
X117914285Y-148280952D01*
X118009523Y-148280952D01*
X118047619Y-148300000D01*
X118066666Y-148319047D01*
X118085714Y-148357142D01*
X118085714Y-148395238D01*
X118066666Y-148452380D01*
X117838095Y-148680952D01*
X118085714Y-148680952D01*
X118238095Y-148319047D02*
X118257142Y-148300000D01*
X118295238Y-148280952D01*
X118390476Y-148280952D01*
X118428571Y-148300000D01*
X118447619Y-148319047D01*
X118466666Y-148357142D01*
X118466666Y-148395238D01*
X118447619Y-148452380D01*
X118219047Y-148680952D01*
X118466666Y-148680952D01*
X112504761Y-147030952D02*
X112504761Y-147354761D01*
X112523809Y-147392857D01*
X112542857Y-147411904D01*
X112580952Y-147430952D01*
X112657142Y-147430952D01*
X112695238Y-147411904D01*
X112714285Y-147392857D01*
X112733333Y-147354761D01*
X112733333Y-147030952D01*
X113133333Y-147430952D02*
X112904761Y-147430952D01*
X113019047Y-147430952D02*
X113019047Y-147030952D01*
X112980952Y-147088095D01*
X112942857Y-147126190D01*
X112904761Y-147145238D01*
X113285714Y-147069047D02*
X113304761Y-147050000D01*
X113342857Y-147030952D01*
X113438095Y-147030952D01*
X113476190Y-147050000D01*
X113495238Y-147069047D01*
X113514285Y-147107142D01*
X113514285Y-147145238D01*
X113495238Y-147202380D01*
X113266666Y-147430952D01*
X113514285Y-147430952D01*
X108242857Y-115430952D02*
X108109523Y-115240476D01*
X108014285Y-115430952D02*
X108014285Y-115030952D01*
X108166666Y-115030952D01*
X108204761Y-115050000D01*
X108223809Y-115069047D01*
X108242857Y-115107142D01*
X108242857Y-115164285D01*
X108223809Y-115202380D01*
X108204761Y-115221428D01*
X108166666Y-115240476D01*
X108014285Y-115240476D01*
X108623809Y-115430952D02*
X108395238Y-115430952D01*
X108509523Y-115430952D02*
X108509523Y-115030952D01*
X108471428Y-115088095D01*
X108433333Y-115126190D01*
X108395238Y-115145238D01*
X108985714Y-115030952D02*
X108795238Y-115030952D01*
X108776190Y-115221428D01*
X108795238Y-115202380D01*
X108833333Y-115183333D01*
X108928571Y-115183333D01*
X108966666Y-115202380D01*
X108985714Y-115221428D01*
X109004761Y-115259523D01*
X109004761Y-115354761D01*
X108985714Y-115392857D01*
X108966666Y-115411904D01*
X108928571Y-115430952D01*
X108833333Y-115430952D01*
X108795238Y-115411904D01*
X108776190Y-115392857D01*
X128692857Y-131680952D02*
X128559523Y-131490476D01*
X128464285Y-131680952D02*
X128464285Y-131280952D01*
X128616666Y-131280952D01*
X128654761Y-131300000D01*
X128673809Y-131319047D01*
X128692857Y-131357142D01*
X128692857Y-131414285D01*
X128673809Y-131452380D01*
X128654761Y-131471428D01*
X128616666Y-131490476D01*
X128464285Y-131490476D01*
X129073809Y-131680952D02*
X128845238Y-131680952D01*
X128959523Y-131680952D02*
X128959523Y-131280952D01*
X128921428Y-131338095D01*
X128883333Y-131376190D01*
X128845238Y-131395238D01*
X129416666Y-131280952D02*
X129340476Y-131280952D01*
X129302380Y-131300000D01*
X129283333Y-131319047D01*
X129245238Y-131376190D01*
X129226190Y-131452380D01*
X129226190Y-131604761D01*
X129245238Y-131642857D01*
X129264285Y-131661904D01*
X129302380Y-131680952D01*
X129378571Y-131680952D01*
X129416666Y-131661904D01*
X129435714Y-131642857D01*
X129454761Y-131604761D01*
X129454761Y-131509523D01*
X129435714Y-131471428D01*
X129416666Y-131452380D01*
X129378571Y-131433333D01*
X129302380Y-131433333D01*
X129264285Y-131452380D01*
X129245238Y-131471428D01*
X129226190Y-131509523D01*
X138433333Y-131680952D02*
X138300000Y-131490476D01*
X138204761Y-131680952D02*
X138204761Y-131280952D01*
X138357142Y-131280952D01*
X138395238Y-131300000D01*
X138414285Y-131319047D01*
X138433333Y-131357142D01*
X138433333Y-131414285D01*
X138414285Y-131452380D01*
X138395238Y-131471428D01*
X138357142Y-131490476D01*
X138204761Y-131490476D01*
X138814285Y-131680952D02*
X138585714Y-131680952D01*
X138700000Y-131680952D02*
X138700000Y-131280952D01*
X138661904Y-131338095D01*
X138623809Y-131376190D01*
X138585714Y-131395238D01*
M02*
